%TF.GenerationSoftware,KiCad,Pcbnew,(5.1.8)-1*%
%TF.CreationDate,2020-12-17T20:59:30+05:45*%
%TF.ProjectId,pll_soc_testboard,706c6c5f-736f-4635-9f74-657374626f61,rev?*%
%TF.SameCoordinates,Original*%
%TF.FileFunction,Copper,L1,Top*%
%TF.FilePolarity,Positive*%
%FSLAX46Y46*%
G04 Gerber Fmt 4.6, Leading zero omitted, Abs format (unit mm)*
G04 Created by KiCad (PCBNEW (5.1.8)-1) date 2020-12-17 20:59:30*
%MOMM*%
%LPD*%
G01*
G04 APERTURE LIST*
%TA.AperFunction,ComponentPad*%
%ADD10O,1.600000X1.600000*%
%TD*%
%TA.AperFunction,ComponentPad*%
%ADD11R,1.600000X1.600000*%
%TD*%
%TA.AperFunction,ComponentPad*%
%ADD12R,1.200000X1.200000*%
%TD*%
%TA.AperFunction,ComponentPad*%
%ADD13C,1.200000*%
%TD*%
%TA.AperFunction,ComponentPad*%
%ADD14C,1.600000*%
%TD*%
%TA.AperFunction,ComponentPad*%
%ADD15C,8.000000*%
%TD*%
%TA.AperFunction,ComponentPad*%
%ADD16O,2.400000X2.400000*%
%TD*%
%TA.AperFunction,ComponentPad*%
%ADD17C,2.400000*%
%TD*%
%TA.AperFunction,SMDPad,CuDef*%
%ADD18R,2.200000X0.600000*%
%TD*%
%TA.AperFunction,ViaPad*%
%ADD19C,0.030000*%
%TD*%
%TA.AperFunction,Conductor*%
%ADD20C,0.254000*%
%TD*%
%TA.AperFunction,Conductor*%
%ADD21C,0.508000*%
%TD*%
%TA.AperFunction,Conductor*%
%ADD22C,0.100000*%
%TD*%
G04 APERTURE END LIST*
D10*
%TO.P,U2B1,8*%
%TO.N,GPIO_0*%
X129794000Y-144272000D03*
%TO.P,U2B1,4*%
%TO.N,N/C*%
X122174000Y-151892000D03*
%TO.P,U2B1,7*%
X129794000Y-146812000D03*
%TO.P,U2B1,3*%
X122174000Y-149352000D03*
%TO.P,U2B1,6*%
%TO.N,Net-(U2B1-Pad6)*%
X129794000Y-149352000D03*
%TO.P,U2B1,2*%
%TO.N,+1V8*%
X122174000Y-146812000D03*
%TO.P,U2B1,5*%
%TO.N,N/C*%
X129794000Y-151892000D03*
D11*
%TO.P,U2B1,1*%
%TO.N,EN_CP*%
X122174000Y-144272000D03*
%TD*%
%TO.P,U2,1*%
%TO.N,EN_VCO*%
X92964000Y-144272000D03*
D10*
%TO.P,U2,5*%
%TO.N,N/C*%
X100584000Y-151892000D03*
%TO.P,U2,2*%
%TO.N,+1V8*%
X92964000Y-146812000D03*
%TO.P,U2,6*%
%TO.N,Net-(U2-Pad6)*%
X100584000Y-149352000D03*
%TO.P,U2,3*%
%TO.N,N/C*%
X92964000Y-149352000D03*
%TO.P,U2,7*%
X100584000Y-146812000D03*
%TO.P,U2,4*%
X92964000Y-151892000D03*
%TO.P,U2,8*%
%TO.N,GPIO_0*%
X100584000Y-144272000D03*
%TD*%
D12*
%TO.P,C1,1*%
%TO.N,+1V8*%
X188722000Y-47498000D03*
D13*
%TO.P,C1,2*%
%TO.N,GPIO_0*%
X190222000Y-47498000D03*
%TD*%
%TO.P,C2,2*%
%TO.N,GPIO_0*%
X221464000Y-47752000D03*
D12*
%TO.P,C2,1*%
%TO.N,+3V3*%
X219964000Y-47752000D03*
%TD*%
D13*
%TO.P,C3,2*%
%TO.N,GPIO_0*%
X191484000Y-125222000D03*
D12*
%TO.P,C3,1*%
%TO.N,CLK'*%
X189484000Y-125222000D03*
%TD*%
%TO.P,C4,1*%
%TO.N,+5V*%
X205002000Y-47752000D03*
D13*
%TO.P,C4,2*%
%TO.N,GPIO_0*%
X206502000Y-47752000D03*
%TD*%
D14*
%TO.P,C5,2*%
%TO.N,Net-(C5-Pad2)*%
X190460000Y-90932000D03*
%TO.P,C5,1*%
%TO.N,GPIO_0*%
X187960000Y-90932000D03*
%TD*%
%TO.P,C6,1*%
%TO.N,CLK*%
X217424000Y-115062000D03*
%TO.P,C6,2*%
%TO.N,Net-(C6-Pad2)*%
X219924000Y-115062000D03*
%TD*%
D13*
%TO.P,C7,2*%
%TO.N,GPIO_0*%
X207494000Y-129032000D03*
D12*
%TO.P,C7,1*%
%TO.N,+5V*%
X205994000Y-129032000D03*
%TD*%
D15*
%TO.P,H1,1*%
%TO.N,VCO_control_voltage*%
X56134000Y-149352000D03*
%TD*%
D16*
%TO.P,R1,2*%
%TO.N,Net-(R1-Pad2)*%
X62484000Y-82042000D03*
D17*
%TO.P,R1,1*%
%TO.N,+1V8*%
X42164000Y-82042000D03*
%TD*%
D16*
%TO.P,R2,2*%
%TO.N,B_VCO*%
X99314000Y-66802000D03*
D17*
%TO.P,R2,1*%
%TO.N,+1V8*%
X73914000Y-66802000D03*
%TD*%
D16*
%TO.P,R3,2*%
%TO.N,CLK*%
X227584000Y-125222000D03*
D17*
%TO.P,R3,1*%
%TO.N,GPIO_0*%
X227584000Y-130302000D03*
%TD*%
D10*
%TO.P,U1,8*%
%TO.N,GPIO_0*%
X87884000Y-106172000D03*
%TO.P,U1,4*%
%TO.N,N/C*%
X80264000Y-113792000D03*
%TO.P,U1,7*%
X87884000Y-108712000D03*
%TO.P,U1,3*%
X80264000Y-111252000D03*
%TO.P,U1,6*%
%TO.N,Net-(U1-Pad6)*%
X87884000Y-111252000D03*
%TO.P,U1,2*%
%TO.N,VCO_control_voltage*%
X80264000Y-108712000D03*
%TO.P,U1,5*%
%TO.N,N/C*%
X87884000Y-113792000D03*
D11*
%TO.P,U1,1*%
%TO.N,VCO_IN*%
X80264000Y-106172000D03*
%TD*%
D18*
%TO.P,U3,12*%
%TO.N,GPIO_0*%
X137354000Y-97917000D03*
%TO.P,U3,13*%
%TO.N,Net-(U3-Pad13)*%
X142554000Y-97917000D03*
%TO.P,U3,11*%
%TO.N,+1V8*%
X137354000Y-96647000D03*
%TO.P,U3,14*%
%TO.N,Net-(U3-Pad14)*%
X142554000Y-96647000D03*
%TO.P,U3,10*%
%TO.N,GPIO_0*%
X137354000Y-95377000D03*
%TO.P,U3,15*%
%TO.N,Net-(U3-Pad15)*%
X142554000Y-95377000D03*
%TO.P,U3,9*%
%TO.N,+1V8*%
X137354000Y-94107000D03*
%TO.P,U3,16*%
%TO.N,+3V3*%
X142554000Y-94107000D03*
%TO.P,U3,8*%
%TO.N,EN_VCO*%
X137354000Y-92837000D03*
%TO.P,U3,17*%
%TO.N,GPIO_0*%
X142554000Y-92837000D03*
%TO.P,U3,7*%
%TO.N,EN_CP*%
X137354000Y-91567000D03*
%TO.P,U3,18*%
%TO.N,+3V3*%
X142554000Y-91567000D03*
%TO.P,U3,6*%
%TO.N,VCO_IN*%
X137354000Y-90297000D03*
%TO.P,U3,19*%
%TO.N,GPIO_0*%
X142554000Y-90297000D03*
%TO.P,U3,5*%
%TO.N,B_CP*%
X137354000Y-89027000D03*
%TO.P,U3,20*%
%TO.N,GPIO_0*%
X142554000Y-89027000D03*
%TO.P,U3,4*%
%TO.N,B_VCO*%
X137354000Y-87757000D03*
%TO.P,U3,21*%
%TO.N,GPIO_0*%
X142554000Y-87757000D03*
%TO.P,U3,3*%
%TO.N,Net-(U3-Pad3)*%
X137354000Y-86487000D03*
%TO.P,U3,22*%
%TO.N,GPIO_0*%
X142554000Y-86487000D03*
%TO.P,U3,2*%
%TO.N,Net-(U3-Pad2)*%
X137354000Y-85217000D03*
%TO.P,U3,23*%
%TO.N,GPIO_0*%
X142554000Y-85217000D03*
%TO.P,U3,1*%
%TO.N,REF_CLK*%
X137354000Y-83947000D03*
%TO.P,U3,24*%
%TO.N,CLK*%
X142554000Y-83947000D03*
%TD*%
D11*
%TO.P,U1B1,1*%
%TO.N,B_CP*%
X80264000Y-82042000D03*
D10*
%TO.P,U1B1,5*%
%TO.N,N/C*%
X87884000Y-89662000D03*
%TO.P,U1B1,2*%
%TO.N,Net-(R1-Pad2)*%
X80264000Y-84582000D03*
%TO.P,U1B1,6*%
%TO.N,Net-(U1B1-Pad6)*%
X87884000Y-87122000D03*
%TO.P,U1B1,3*%
%TO.N,N/C*%
X80264000Y-87122000D03*
%TO.P,U1B1,7*%
X87884000Y-84582000D03*
%TO.P,U1B1,4*%
X80264000Y-89662000D03*
%TO.P,U1B1,8*%
%TO.N,GPIO_0*%
X87884000Y-82042000D03*
%TD*%
D19*
%TO.N,GPIO_0*%
X136652000Y-101600000D03*
%TO.N,+3V3*%
X194056000Y-59436000D03*
X167640000Y-93980000D03*
X169926000Y-91694000D03*
%TO.N,+5V*%
X204724000Y-53340000D03*
%TO.N,Net-(C6-Pad2)*%
X213360000Y-119888000D03*
X206248000Y-113792000D03*
%TO.N,CLK*%
X150368000Y-85344000D03*
X188976000Y-102108000D03*
%TO.N,EN_CP*%
X139700000Y-91948000D03*
X139700000Y-91948000D03*
%TD*%
D20*
%TO.N,GPIO_0*%
X137354000Y-100898000D02*
X136652000Y-101600000D01*
X137354000Y-97917000D02*
X137354000Y-100898000D01*
D21*
%TO.N,+1V8*%
X263144000Y-80772000D02*
X192024000Y-80772000D01*
X188722000Y-77470000D02*
X188722000Y-47498000D01*
X192024000Y-80772000D02*
X188722000Y-77470000D01*
D20*
X188722000Y-47498000D02*
X188722000Y-34798000D01*
X188722000Y-34798000D02*
X183896000Y-29972000D01*
X183896000Y-29972000D02*
X48768000Y-29972000D01*
X44450000Y-34290000D02*
X44450000Y-66802000D01*
X48768000Y-29972000D02*
X44450000Y-34290000D01*
X73914000Y-66802000D02*
X44450000Y-66802000D01*
X42164000Y-69088000D02*
X42164000Y-82042000D01*
X44450000Y-66802000D02*
X42164000Y-69088000D01*
D21*
X188722000Y-77470000D02*
X161544000Y-104648000D01*
X136652000Y-104648000D02*
X135128000Y-104648000D01*
X135128000Y-104648000D02*
X133604000Y-103124000D01*
X137354000Y-96647000D02*
X134493000Y-96647000D01*
X133604000Y-97536000D02*
X133604000Y-99568000D01*
X134493000Y-96647000D02*
X133604000Y-97536000D01*
X133604000Y-99568000D02*
X133604000Y-99060000D01*
X133604000Y-103124000D02*
X133604000Y-99568000D01*
X139700000Y-104648000D02*
X139700000Y-94996000D01*
X161544000Y-104648000D02*
X139700000Y-104648000D01*
X139700000Y-104648000D02*
X136652000Y-104648000D01*
X138811000Y-94107000D02*
X137354000Y-94107000D01*
X139700000Y-94996000D02*
X138811000Y-94107000D01*
D20*
X42164000Y-69088000D02*
X33528000Y-69088000D01*
X33528000Y-69088000D02*
X28956000Y-73660000D01*
X28956000Y-73660000D02*
X28956000Y-157480000D01*
X28956000Y-157480000D02*
X36068000Y-164592000D01*
X36068000Y-164592000D02*
X80772000Y-164592000D01*
X80772000Y-164592000D02*
X84836000Y-160528000D01*
X84836000Y-160528000D02*
X84836000Y-148844000D01*
X86868000Y-146812000D02*
X92964000Y-146812000D01*
X84836000Y-148844000D02*
X86868000Y-146812000D01*
X84836000Y-160528000D02*
X112268000Y-160528000D01*
X112268000Y-160528000D02*
X115316000Y-157480000D01*
X115316000Y-157480000D02*
X115316000Y-149352000D01*
X117856000Y-146812000D02*
X122174000Y-146812000D01*
X115316000Y-149352000D02*
X117856000Y-146812000D01*
D21*
%TO.N,+3V3*%
X264414000Y-60452000D02*
X224282000Y-60452000D01*
X224282000Y-60452000D02*
X219964000Y-56134000D01*
X219964000Y-55880000D02*
X197612000Y-55880000D01*
X219964000Y-56134000D02*
X219964000Y-55880000D01*
X219964000Y-55880000D02*
X219964000Y-47752000D01*
X197612000Y-55880000D02*
X194056000Y-59436000D01*
X142681000Y-93980000D02*
X142554000Y-94107000D01*
X167640000Y-93980000D02*
X142681000Y-93980000D01*
X169799000Y-91567000D02*
X169926000Y-91694000D01*
X142554000Y-91567000D02*
X169799000Y-91567000D01*
D20*
%TO.N,CLK'*%
X189484000Y-125222000D02*
X175006000Y-125222000D01*
X169164000Y-131064000D02*
X169164000Y-149352000D01*
X175006000Y-125222000D02*
X169164000Y-131064000D01*
D21*
%TO.N,+5V*%
X258572000Y-35560000D02*
X264414000Y-41402000D01*
X258572000Y-35560000D02*
X207772000Y-35560000D01*
X205002000Y-38330000D02*
X205002000Y-47752000D01*
X207772000Y-35560000D02*
X205002000Y-38330000D01*
X204724000Y-48030000D02*
X205002000Y-47752000D01*
X204724000Y-53340000D02*
X204724000Y-48030000D01*
D20*
%TO.N,Net-(C6-Pad2)*%
X212344000Y-119888000D02*
X206248000Y-113792000D01*
X213360000Y-119888000D02*
X212344000Y-119888000D01*
%TO.N,CLK*%
X148971000Y-83947000D02*
X150368000Y-85344000D01*
X142554000Y-83947000D02*
X148971000Y-83947000D01*
X188976000Y-102108000D02*
X213360000Y-102108000D01*
X213360000Y-102108000D02*
X217424000Y-106172000D01*
X217424000Y-106172000D02*
X217424000Y-115062000D01*
X217424000Y-115062000D02*
X217424000Y-123444000D01*
X219202000Y-125222000D02*
X227584000Y-125222000D01*
X217424000Y-123444000D02*
X219202000Y-125222000D01*
%TO.N,VCO_control_voltage*%
X80264000Y-108712000D02*
X62992000Y-108712000D01*
X56134000Y-115570000D02*
X56134000Y-149352000D01*
X62992000Y-108712000D02*
X56134000Y-115570000D01*
%TO.N,REF_CLK*%
X137354000Y-47438000D02*
X137160000Y-47244000D01*
X137354000Y-83947000D02*
X137354000Y-47438000D01*
%TO.N,Net-(R1-Pad2)*%
X62484000Y-82042000D02*
X65278000Y-84836000D01*
X80010000Y-84836000D02*
X80264000Y-84582000D01*
X65278000Y-84836000D02*
X80010000Y-84836000D01*
%TO.N,B_VCO*%
X136000000Y-87757000D02*
X137354000Y-87757000D01*
X130556000Y-79756000D02*
X130556000Y-82313000D01*
X130556000Y-82313000D02*
X136000000Y-87757000D01*
X117602000Y-66802000D02*
X130556000Y-79756000D01*
X99314000Y-66802000D02*
X117602000Y-66802000D01*
%TO.N,VCO_IN*%
X137354000Y-90297000D02*
X135763000Y-90297000D01*
X135763000Y-90297000D02*
X129540000Y-96520000D01*
X129540000Y-96520000D02*
X100076000Y-96520000D01*
X100076000Y-96520000D02*
X97536000Y-99060000D01*
X97536000Y-99060000D02*
X82804000Y-99060000D01*
X80264000Y-101600000D02*
X80264000Y-106172000D01*
X82804000Y-99060000D02*
X80264000Y-101600000D01*
%TO.N,EN_VCO*%
X137354000Y-92837000D02*
X135255000Y-92837000D01*
X135255000Y-92837000D02*
X117348000Y-110744000D01*
X117348000Y-110744000D02*
X108712000Y-110744000D01*
X92964000Y-126492000D02*
X92964000Y-144272000D01*
X108712000Y-110744000D02*
X92964000Y-126492000D01*
%TO.N,B_CP*%
X80264000Y-82042000D02*
X80264000Y-78232000D01*
X80264000Y-78232000D02*
X81280000Y-77216000D01*
X81280000Y-77216000D02*
X96520000Y-77216000D01*
X96520000Y-77216000D02*
X99060000Y-79756000D01*
X99060000Y-79756000D02*
X99060000Y-86868000D01*
X101219000Y-89027000D02*
X137354000Y-89027000D01*
X99060000Y-86868000D02*
X101219000Y-89027000D01*
%TO.N,EN_CP*%
X139319000Y-91567000D02*
X139700000Y-91948000D01*
X137354000Y-91567000D02*
X139319000Y-91567000D01*
X139700000Y-91948000D02*
X139700000Y-91948000D01*
%TD*%
%TO.N,GPIO_0*%
X280772000Y-177140000D02*
X16916000Y-177140000D01*
X16916000Y-73660000D01*
X28190314Y-73660000D01*
X28194000Y-73697423D01*
X28194001Y-157442567D01*
X28190314Y-157480000D01*
X28205027Y-157629378D01*
X28248599Y-157773015D01*
X28319355Y-157905392D01*
X28390721Y-157992351D01*
X28414579Y-158021422D01*
X28443649Y-158045279D01*
X35502721Y-165104352D01*
X35526578Y-165133422D01*
X35555648Y-165157279D01*
X35642607Y-165228645D01*
X35713364Y-165266465D01*
X35774985Y-165299402D01*
X35918622Y-165342974D01*
X36030574Y-165354000D01*
X36030577Y-165354000D01*
X36068000Y-165357686D01*
X36105423Y-165354000D01*
X80734577Y-165354000D01*
X80772000Y-165357686D01*
X80809423Y-165354000D01*
X80809426Y-165354000D01*
X80921378Y-165342974D01*
X81065015Y-165299402D01*
X81197392Y-165228645D01*
X81313422Y-165133422D01*
X81337284Y-165104346D01*
X85151631Y-161290000D01*
X112230577Y-161290000D01*
X112268000Y-161293686D01*
X112305423Y-161290000D01*
X112305426Y-161290000D01*
X112417378Y-161278974D01*
X112561015Y-161235402D01*
X112693392Y-161164645D01*
X112809422Y-161069422D01*
X112833284Y-161040346D01*
X115828353Y-158045278D01*
X115857422Y-158021422D01*
X115884772Y-157988096D01*
X115952645Y-157905393D01*
X116023401Y-157773016D01*
X116023402Y-157773015D01*
X116066974Y-157629378D01*
X116078000Y-157517426D01*
X116078000Y-157517423D01*
X116081686Y-157480000D01*
X116078000Y-157442577D01*
X116078000Y-149667630D01*
X118171631Y-147574000D01*
X120957293Y-147574000D01*
X121059363Y-147726759D01*
X121259241Y-147926637D01*
X121491759Y-148082000D01*
X121259241Y-148237363D01*
X121059363Y-148437241D01*
X120902320Y-148672273D01*
X120794147Y-148933426D01*
X120739000Y-149210665D01*
X120739000Y-149493335D01*
X120794147Y-149770574D01*
X120902320Y-150031727D01*
X121059363Y-150266759D01*
X121259241Y-150466637D01*
X121491759Y-150622000D01*
X121259241Y-150777363D01*
X121059363Y-150977241D01*
X120902320Y-151212273D01*
X120794147Y-151473426D01*
X120739000Y-151750665D01*
X120739000Y-152033335D01*
X120794147Y-152310574D01*
X120902320Y-152571727D01*
X121059363Y-152806759D01*
X121259241Y-153006637D01*
X121494273Y-153163680D01*
X121755426Y-153271853D01*
X122032665Y-153327000D01*
X122315335Y-153327000D01*
X122592574Y-153271853D01*
X122853727Y-153163680D01*
X123088759Y-153006637D01*
X123288637Y-152806759D01*
X123445680Y-152571727D01*
X123553853Y-152310574D01*
X123609000Y-152033335D01*
X123609000Y-151750665D01*
X123553853Y-151473426D01*
X123445680Y-151212273D01*
X123288637Y-150977241D01*
X123088759Y-150777363D01*
X122856241Y-150622000D01*
X123088759Y-150466637D01*
X123288637Y-150266759D01*
X123445680Y-150031727D01*
X123553853Y-149770574D01*
X123609000Y-149493335D01*
X123609000Y-149210665D01*
X123553853Y-148933426D01*
X123445680Y-148672273D01*
X123288637Y-148437241D01*
X123088759Y-148237363D01*
X122856241Y-148082000D01*
X123088759Y-147926637D01*
X123288637Y-147726759D01*
X123445680Y-147491727D01*
X123553853Y-147230574D01*
X123609000Y-146953335D01*
X123609000Y-146670665D01*
X128359000Y-146670665D01*
X128359000Y-146953335D01*
X128414147Y-147230574D01*
X128522320Y-147491727D01*
X128679363Y-147726759D01*
X128879241Y-147926637D01*
X129111759Y-148082000D01*
X128879241Y-148237363D01*
X128679363Y-148437241D01*
X128522320Y-148672273D01*
X128414147Y-148933426D01*
X128359000Y-149210665D01*
X128359000Y-149493335D01*
X128414147Y-149770574D01*
X128522320Y-150031727D01*
X128679363Y-150266759D01*
X128879241Y-150466637D01*
X129111759Y-150622000D01*
X128879241Y-150777363D01*
X128679363Y-150977241D01*
X128522320Y-151212273D01*
X128414147Y-151473426D01*
X128359000Y-151750665D01*
X128359000Y-152033335D01*
X128414147Y-152310574D01*
X128522320Y-152571727D01*
X128679363Y-152806759D01*
X128879241Y-153006637D01*
X129114273Y-153163680D01*
X129375426Y-153271853D01*
X129652665Y-153327000D01*
X129935335Y-153327000D01*
X130212574Y-153271853D01*
X130473727Y-153163680D01*
X130708759Y-153006637D01*
X130908637Y-152806759D01*
X131065680Y-152571727D01*
X131173853Y-152310574D01*
X131229000Y-152033335D01*
X131229000Y-151750665D01*
X131173853Y-151473426D01*
X131065680Y-151212273D01*
X130908637Y-150977241D01*
X130708759Y-150777363D01*
X130476241Y-150622000D01*
X130708759Y-150466637D01*
X130908637Y-150266759D01*
X131065680Y-150031727D01*
X131173853Y-149770574D01*
X131229000Y-149493335D01*
X131229000Y-149210665D01*
X131205491Y-149092475D01*
X166529000Y-149092475D01*
X166529000Y-149611525D01*
X166630261Y-150120601D01*
X166828893Y-150600141D01*
X167117262Y-151031715D01*
X167484285Y-151398738D01*
X167915859Y-151687107D01*
X168395399Y-151885739D01*
X168904475Y-151987000D01*
X169423525Y-151987000D01*
X169932601Y-151885739D01*
X170412141Y-151687107D01*
X170843715Y-151398738D01*
X171210738Y-151031715D01*
X171499107Y-150600141D01*
X171697739Y-150120601D01*
X171799000Y-149611525D01*
X171799000Y-149092475D01*
X171697739Y-148583399D01*
X171499107Y-148103859D01*
X171210738Y-147672285D01*
X170843715Y-147305262D01*
X170412141Y-147016893D01*
X169932601Y-146818261D01*
X169926000Y-146816948D01*
X169926000Y-131579980D01*
X226485626Y-131579980D01*
X226605514Y-131864836D01*
X226929210Y-132025699D01*
X227278069Y-132120322D01*
X227638684Y-132145067D01*
X227997198Y-132098985D01*
X228339833Y-131983846D01*
X228562486Y-131864836D01*
X228682374Y-131579980D01*
X227584000Y-130481605D01*
X226485626Y-131579980D01*
X169926000Y-131579980D01*
X169926000Y-131379630D01*
X170948946Y-130356684D01*
X225740933Y-130356684D01*
X225787015Y-130715198D01*
X225902154Y-131057833D01*
X226021164Y-131280486D01*
X226306020Y-131400374D01*
X227404395Y-130302000D01*
X227763605Y-130302000D01*
X228861980Y-131400374D01*
X229146836Y-131280486D01*
X229307699Y-130956790D01*
X229402322Y-130607931D01*
X229427067Y-130247316D01*
X229380985Y-129888802D01*
X229265846Y-129546167D01*
X229146836Y-129323514D01*
X228861980Y-129203626D01*
X227763605Y-130302000D01*
X227404395Y-130302000D01*
X226306020Y-129203626D01*
X226021164Y-129323514D01*
X225860301Y-129647210D01*
X225765678Y-129996069D01*
X225740933Y-130356684D01*
X170948946Y-130356684D01*
X172873630Y-128432000D01*
X204755928Y-128432000D01*
X204755928Y-129632000D01*
X204768188Y-129756482D01*
X204804498Y-129876180D01*
X204863463Y-129986494D01*
X204942815Y-130083185D01*
X205039506Y-130162537D01*
X205149820Y-130221502D01*
X205269518Y-130257812D01*
X205394000Y-130270072D01*
X206594000Y-130270072D01*
X206718482Y-130257812D01*
X206838180Y-130221502D01*
X206948494Y-130162537D01*
X206965681Y-130148432D01*
X207092516Y-130206237D01*
X207329313Y-130262000D01*
X207572438Y-130270495D01*
X207812549Y-130231395D01*
X208040418Y-130146202D01*
X208116852Y-130105348D01*
X208164159Y-129881764D01*
X207494000Y-129211605D01*
X207479858Y-129225748D01*
X207300253Y-129046143D01*
X207314395Y-129032000D01*
X207673605Y-129032000D01*
X208343764Y-129702159D01*
X208567348Y-129654852D01*
X208668237Y-129433484D01*
X208724000Y-129196687D01*
X208730033Y-129024020D01*
X226485626Y-129024020D01*
X227584000Y-130122395D01*
X228682374Y-129024020D01*
X228562486Y-128739164D01*
X228238790Y-128578301D01*
X227889931Y-128483678D01*
X227529316Y-128458933D01*
X227170802Y-128505015D01*
X226828167Y-128620154D01*
X226605514Y-128739164D01*
X226485626Y-129024020D01*
X208730033Y-129024020D01*
X208732495Y-128953562D01*
X208693395Y-128713451D01*
X208608202Y-128485582D01*
X208567348Y-128409148D01*
X208343764Y-128361841D01*
X207673605Y-129032000D01*
X207314395Y-129032000D01*
X207300253Y-129017858D01*
X207479858Y-128838253D01*
X207494000Y-128852395D01*
X208164159Y-128182236D01*
X208116852Y-127958652D01*
X207895484Y-127857763D01*
X207658687Y-127802000D01*
X207415562Y-127793505D01*
X207175451Y-127832605D01*
X206961883Y-127912451D01*
X206948494Y-127901463D01*
X206838180Y-127842498D01*
X206718482Y-127806188D01*
X206594000Y-127793928D01*
X205394000Y-127793928D01*
X205269518Y-127806188D01*
X205149820Y-127842498D01*
X205039506Y-127901463D01*
X204942815Y-127980815D01*
X204863463Y-128077506D01*
X204804498Y-128187820D01*
X204768188Y-128307518D01*
X204755928Y-128432000D01*
X172873630Y-128432000D01*
X175321630Y-125984000D01*
X188269569Y-125984000D01*
X188294498Y-126066180D01*
X188353463Y-126176494D01*
X188432815Y-126273185D01*
X188529506Y-126352537D01*
X188639820Y-126411502D01*
X188759518Y-126447812D01*
X188884000Y-126460072D01*
X190084000Y-126460072D01*
X190208482Y-126447812D01*
X190328180Y-126411502D01*
X190438494Y-126352537D01*
X190535185Y-126273185D01*
X190614537Y-126176494D01*
X190638858Y-126130994D01*
X190696736Y-126188872D01*
X190813842Y-126071766D01*
X190861148Y-126295348D01*
X191082516Y-126396237D01*
X191319313Y-126452000D01*
X191562438Y-126460495D01*
X191802549Y-126421395D01*
X192030418Y-126336202D01*
X192106852Y-126295348D01*
X192154159Y-126071764D01*
X191484000Y-125401605D01*
X191469858Y-125415748D01*
X191290253Y-125236143D01*
X191304395Y-125222000D01*
X191663605Y-125222000D01*
X192333764Y-125892159D01*
X192557348Y-125844852D01*
X192658237Y-125623484D01*
X192714000Y-125386687D01*
X192722495Y-125143562D01*
X192683395Y-124903451D01*
X192598202Y-124675582D01*
X192557348Y-124599148D01*
X192333764Y-124551841D01*
X191663605Y-125222000D01*
X191304395Y-125222000D01*
X191290253Y-125207858D01*
X191469858Y-125028253D01*
X191484000Y-125042395D01*
X192154159Y-124372236D01*
X192106852Y-124148652D01*
X191885484Y-124047763D01*
X191648687Y-123992000D01*
X191405562Y-123983505D01*
X191165451Y-124022605D01*
X190937582Y-124107798D01*
X190861148Y-124148652D01*
X190813842Y-124372234D01*
X190696736Y-124255128D01*
X190638858Y-124313006D01*
X190614537Y-124267506D01*
X190535185Y-124170815D01*
X190438494Y-124091463D01*
X190328180Y-124032498D01*
X190208482Y-123996188D01*
X190084000Y-123983928D01*
X188884000Y-123983928D01*
X188759518Y-123996188D01*
X188639820Y-124032498D01*
X188529506Y-124091463D01*
X188432815Y-124170815D01*
X188353463Y-124267506D01*
X188294498Y-124377820D01*
X188269569Y-124460000D01*
X175043423Y-124460000D01*
X175006000Y-124456314D01*
X174968577Y-124460000D01*
X174968574Y-124460000D01*
X174856622Y-124471026D01*
X174712985Y-124514598D01*
X174651364Y-124547535D01*
X174580607Y-124585355D01*
X174563801Y-124599148D01*
X174464578Y-124680578D01*
X174440716Y-124709654D01*
X168651654Y-130498716D01*
X168622578Y-130522578D01*
X168566983Y-130590322D01*
X168527355Y-130638608D01*
X168489535Y-130709365D01*
X168456598Y-130770986D01*
X168413026Y-130914623D01*
X168402000Y-131026574D01*
X168398314Y-131064000D01*
X168402000Y-131101423D01*
X168402001Y-146816948D01*
X168395399Y-146818261D01*
X167915859Y-147016893D01*
X167484285Y-147305262D01*
X167117262Y-147672285D01*
X166828893Y-148103859D01*
X166630261Y-148583399D01*
X166529000Y-149092475D01*
X131205491Y-149092475D01*
X131173853Y-148933426D01*
X131065680Y-148672273D01*
X130908637Y-148437241D01*
X130708759Y-148237363D01*
X130476241Y-148082000D01*
X130708759Y-147926637D01*
X130908637Y-147726759D01*
X131065680Y-147491727D01*
X131173853Y-147230574D01*
X131229000Y-146953335D01*
X131229000Y-146670665D01*
X131173853Y-146393426D01*
X131065680Y-146132273D01*
X130908637Y-145897241D01*
X130708759Y-145697363D01*
X130473727Y-145540320D01*
X130463135Y-145535933D01*
X130649131Y-145424385D01*
X130857519Y-145235414D01*
X131025037Y-145009420D01*
X131145246Y-144755087D01*
X131185904Y-144621039D01*
X131063915Y-144399000D01*
X129921000Y-144399000D01*
X129921000Y-144419000D01*
X129667000Y-144419000D01*
X129667000Y-144399000D01*
X128524085Y-144399000D01*
X128402096Y-144621039D01*
X128442754Y-144755087D01*
X128562963Y-145009420D01*
X128730481Y-145235414D01*
X128938869Y-145424385D01*
X129124865Y-145535933D01*
X129114273Y-145540320D01*
X128879241Y-145697363D01*
X128679363Y-145897241D01*
X128522320Y-146132273D01*
X128414147Y-146393426D01*
X128359000Y-146670665D01*
X123609000Y-146670665D01*
X123553853Y-146393426D01*
X123445680Y-146132273D01*
X123288637Y-145897241D01*
X123090039Y-145698643D01*
X123098482Y-145697812D01*
X123218180Y-145661502D01*
X123328494Y-145602537D01*
X123425185Y-145523185D01*
X123504537Y-145426494D01*
X123563502Y-145316180D01*
X123599812Y-145196482D01*
X123612072Y-145072000D01*
X123612072Y-143922961D01*
X128402096Y-143922961D01*
X128524085Y-144145000D01*
X129667000Y-144145000D01*
X129667000Y-143001376D01*
X129921000Y-143001376D01*
X129921000Y-144145000D01*
X131063915Y-144145000D01*
X131185904Y-143922961D01*
X131145246Y-143788913D01*
X131025037Y-143534580D01*
X130857519Y-143308586D01*
X130649131Y-143119615D01*
X130407881Y-142974930D01*
X130143040Y-142880091D01*
X129921000Y-143001376D01*
X129667000Y-143001376D01*
X129444960Y-142880091D01*
X129180119Y-142974930D01*
X128938869Y-143119615D01*
X128730481Y-143308586D01*
X128562963Y-143534580D01*
X128442754Y-143788913D01*
X128402096Y-143922961D01*
X123612072Y-143922961D01*
X123612072Y-143472000D01*
X123599812Y-143347518D01*
X123563502Y-143227820D01*
X123504537Y-143117506D01*
X123425185Y-143020815D01*
X123328494Y-142941463D01*
X123218180Y-142882498D01*
X123098482Y-142846188D01*
X122974000Y-142833928D01*
X121374000Y-142833928D01*
X121249518Y-142846188D01*
X121129820Y-142882498D01*
X121019506Y-142941463D01*
X120922815Y-143020815D01*
X120843463Y-143117506D01*
X120784498Y-143227820D01*
X120748188Y-143347518D01*
X120735928Y-143472000D01*
X120735928Y-145072000D01*
X120748188Y-145196482D01*
X120784498Y-145316180D01*
X120843463Y-145426494D01*
X120922815Y-145523185D01*
X121019506Y-145602537D01*
X121129820Y-145661502D01*
X121249518Y-145697812D01*
X121257961Y-145698643D01*
X121059363Y-145897241D01*
X120957293Y-146050000D01*
X117893422Y-146050000D01*
X117855999Y-146046314D01*
X117818576Y-146050000D01*
X117818574Y-146050000D01*
X117706622Y-146061026D01*
X117562985Y-146104598D01*
X117430608Y-146175355D01*
X117314578Y-146270578D01*
X117290721Y-146299648D01*
X114803649Y-148786721D01*
X114774579Y-148810578D01*
X114750722Y-148839648D01*
X114750721Y-148839649D01*
X114679355Y-148926608D01*
X114608599Y-149058985D01*
X114565027Y-149202622D01*
X114550314Y-149352000D01*
X114554001Y-149389433D01*
X114554000Y-157164369D01*
X111952370Y-159766000D01*
X85598000Y-159766000D01*
X85598000Y-149159630D01*
X87183631Y-147574000D01*
X91747293Y-147574000D01*
X91849363Y-147726759D01*
X92049241Y-147926637D01*
X92281759Y-148082000D01*
X92049241Y-148237363D01*
X91849363Y-148437241D01*
X91692320Y-148672273D01*
X91584147Y-148933426D01*
X91529000Y-149210665D01*
X91529000Y-149493335D01*
X91584147Y-149770574D01*
X91692320Y-150031727D01*
X91849363Y-150266759D01*
X92049241Y-150466637D01*
X92281759Y-150622000D01*
X92049241Y-150777363D01*
X91849363Y-150977241D01*
X91692320Y-151212273D01*
X91584147Y-151473426D01*
X91529000Y-151750665D01*
X91529000Y-152033335D01*
X91584147Y-152310574D01*
X91692320Y-152571727D01*
X91849363Y-152806759D01*
X92049241Y-153006637D01*
X92284273Y-153163680D01*
X92545426Y-153271853D01*
X92822665Y-153327000D01*
X93105335Y-153327000D01*
X93382574Y-153271853D01*
X93643727Y-153163680D01*
X93878759Y-153006637D01*
X94078637Y-152806759D01*
X94235680Y-152571727D01*
X94343853Y-152310574D01*
X94399000Y-152033335D01*
X94399000Y-151750665D01*
X94343853Y-151473426D01*
X94235680Y-151212273D01*
X94078637Y-150977241D01*
X93878759Y-150777363D01*
X93646241Y-150622000D01*
X93878759Y-150466637D01*
X94078637Y-150266759D01*
X94235680Y-150031727D01*
X94343853Y-149770574D01*
X94399000Y-149493335D01*
X94399000Y-149210665D01*
X94343853Y-148933426D01*
X94235680Y-148672273D01*
X94078637Y-148437241D01*
X93878759Y-148237363D01*
X93646241Y-148082000D01*
X93878759Y-147926637D01*
X94078637Y-147726759D01*
X94235680Y-147491727D01*
X94343853Y-147230574D01*
X94399000Y-146953335D01*
X94399000Y-146670665D01*
X99149000Y-146670665D01*
X99149000Y-146953335D01*
X99204147Y-147230574D01*
X99312320Y-147491727D01*
X99469363Y-147726759D01*
X99669241Y-147926637D01*
X99901759Y-148082000D01*
X99669241Y-148237363D01*
X99469363Y-148437241D01*
X99312320Y-148672273D01*
X99204147Y-148933426D01*
X99149000Y-149210665D01*
X99149000Y-149493335D01*
X99204147Y-149770574D01*
X99312320Y-150031727D01*
X99469363Y-150266759D01*
X99669241Y-150466637D01*
X99901759Y-150622000D01*
X99669241Y-150777363D01*
X99469363Y-150977241D01*
X99312320Y-151212273D01*
X99204147Y-151473426D01*
X99149000Y-151750665D01*
X99149000Y-152033335D01*
X99204147Y-152310574D01*
X99312320Y-152571727D01*
X99469363Y-152806759D01*
X99669241Y-153006637D01*
X99904273Y-153163680D01*
X100165426Y-153271853D01*
X100442665Y-153327000D01*
X100725335Y-153327000D01*
X101002574Y-153271853D01*
X101263727Y-153163680D01*
X101498759Y-153006637D01*
X101698637Y-152806759D01*
X101855680Y-152571727D01*
X101963853Y-152310574D01*
X102019000Y-152033335D01*
X102019000Y-151750665D01*
X101963853Y-151473426D01*
X101855680Y-151212273D01*
X101698637Y-150977241D01*
X101498759Y-150777363D01*
X101266241Y-150622000D01*
X101498759Y-150466637D01*
X101698637Y-150266759D01*
X101855680Y-150031727D01*
X101963853Y-149770574D01*
X102019000Y-149493335D01*
X102019000Y-149210665D01*
X101963853Y-148933426D01*
X101855680Y-148672273D01*
X101698637Y-148437241D01*
X101498759Y-148237363D01*
X101266241Y-148082000D01*
X101498759Y-147926637D01*
X101698637Y-147726759D01*
X101855680Y-147491727D01*
X101963853Y-147230574D01*
X102019000Y-146953335D01*
X102019000Y-146670665D01*
X101963853Y-146393426D01*
X101855680Y-146132273D01*
X101698637Y-145897241D01*
X101498759Y-145697363D01*
X101263727Y-145540320D01*
X101253135Y-145535933D01*
X101439131Y-145424385D01*
X101647519Y-145235414D01*
X101815037Y-145009420D01*
X101935246Y-144755087D01*
X101975904Y-144621039D01*
X101853915Y-144399000D01*
X100711000Y-144399000D01*
X100711000Y-144419000D01*
X100457000Y-144419000D01*
X100457000Y-144399000D01*
X99314085Y-144399000D01*
X99192096Y-144621039D01*
X99232754Y-144755087D01*
X99352963Y-145009420D01*
X99520481Y-145235414D01*
X99728869Y-145424385D01*
X99914865Y-145535933D01*
X99904273Y-145540320D01*
X99669241Y-145697363D01*
X99469363Y-145897241D01*
X99312320Y-146132273D01*
X99204147Y-146393426D01*
X99149000Y-146670665D01*
X94399000Y-146670665D01*
X94343853Y-146393426D01*
X94235680Y-146132273D01*
X94078637Y-145897241D01*
X93880039Y-145698643D01*
X93888482Y-145697812D01*
X94008180Y-145661502D01*
X94118494Y-145602537D01*
X94215185Y-145523185D01*
X94294537Y-145426494D01*
X94353502Y-145316180D01*
X94389812Y-145196482D01*
X94402072Y-145072000D01*
X94402072Y-143922961D01*
X99192096Y-143922961D01*
X99314085Y-144145000D01*
X100457000Y-144145000D01*
X100457000Y-143001376D01*
X100711000Y-143001376D01*
X100711000Y-144145000D01*
X101853915Y-144145000D01*
X101975904Y-143922961D01*
X101935246Y-143788913D01*
X101815037Y-143534580D01*
X101647519Y-143308586D01*
X101439131Y-143119615D01*
X101197881Y-142974930D01*
X100933040Y-142880091D01*
X100711000Y-143001376D01*
X100457000Y-143001376D01*
X100234960Y-142880091D01*
X99970119Y-142974930D01*
X99728869Y-143119615D01*
X99520481Y-143308586D01*
X99352963Y-143534580D01*
X99232754Y-143788913D01*
X99192096Y-143922961D01*
X94402072Y-143922961D01*
X94402072Y-143472000D01*
X94389812Y-143347518D01*
X94353502Y-143227820D01*
X94294537Y-143117506D01*
X94215185Y-143020815D01*
X94118494Y-142941463D01*
X94008180Y-142882498D01*
X93888482Y-142846188D01*
X93764000Y-142833928D01*
X93726000Y-142833928D01*
X93726000Y-126807630D01*
X106741630Y-113792000D01*
X205482314Y-113792000D01*
X205497027Y-113941378D01*
X205540599Y-114085015D01*
X205611355Y-114217392D01*
X205682721Y-114304351D01*
X211778721Y-120400352D01*
X211802578Y-120429422D01*
X211831648Y-120453279D01*
X211918607Y-120524645D01*
X211943593Y-120538000D01*
X212050985Y-120595402D01*
X212194622Y-120638974D01*
X212306574Y-120650000D01*
X212306577Y-120650000D01*
X212344000Y-120653686D01*
X212381423Y-120650000D01*
X213397426Y-120650000D01*
X213509378Y-120638974D01*
X213653015Y-120595402D01*
X213785392Y-120524645D01*
X213901422Y-120429422D01*
X213996645Y-120313392D01*
X214067402Y-120181015D01*
X214110974Y-120037378D01*
X214125686Y-119888000D01*
X214110974Y-119738622D01*
X214067402Y-119594985D01*
X213996645Y-119462608D01*
X213901422Y-119346578D01*
X213785392Y-119251355D01*
X213653015Y-119180598D01*
X213509378Y-119137026D01*
X213397426Y-119126000D01*
X212659631Y-119126000D01*
X206760351Y-113226721D01*
X206673392Y-113155355D01*
X206541015Y-113084599D01*
X206397378Y-113041027D01*
X206248000Y-113026314D01*
X206098622Y-113041027D01*
X205954985Y-113084599D01*
X205822608Y-113155355D01*
X205706579Y-113250579D01*
X205611355Y-113366608D01*
X205540599Y-113498985D01*
X205497027Y-113642622D01*
X205482314Y-113792000D01*
X106741630Y-113792000D01*
X109027631Y-111506000D01*
X117310577Y-111506000D01*
X117348000Y-111509686D01*
X117385423Y-111506000D01*
X117385426Y-111506000D01*
X117497378Y-111494974D01*
X117641015Y-111451402D01*
X117773392Y-111380645D01*
X117889422Y-111285422D01*
X117913284Y-111256346D01*
X135570631Y-93599000D01*
X135653523Y-93599000D01*
X135628188Y-93682518D01*
X135615928Y-93807000D01*
X135615928Y-94407000D01*
X135628188Y-94531482D01*
X135664498Y-94651180D01*
X135713043Y-94742000D01*
X135664498Y-94832820D01*
X135628188Y-94952518D01*
X135615928Y-95077000D01*
X135619000Y-95091250D01*
X135777750Y-95250000D01*
X137227000Y-95250000D01*
X137227000Y-95230000D01*
X137481000Y-95230000D01*
X137481000Y-95250000D01*
X137501000Y-95250000D01*
X137501000Y-95504000D01*
X137481000Y-95504000D01*
X137481000Y-95524000D01*
X137227000Y-95524000D01*
X137227000Y-95504000D01*
X135777750Y-95504000D01*
X135619000Y-95662750D01*
X135615928Y-95677000D01*
X135623906Y-95758000D01*
X134536660Y-95758000D01*
X134493000Y-95753700D01*
X134449340Y-95758000D01*
X134449333Y-95758000D01*
X134337387Y-95769026D01*
X134318725Y-95770864D01*
X134245758Y-95792998D01*
X134151149Y-95821697D01*
X133996709Y-95904247D01*
X133861341Y-96015341D01*
X133833505Y-96049259D01*
X133006263Y-96876501D01*
X132972341Y-96904341D01*
X132861247Y-97039710D01*
X132836890Y-97085279D01*
X132780285Y-97191180D01*
X132778697Y-97194150D01*
X132727864Y-97361727D01*
X132715000Y-97492334D01*
X132715000Y-97492340D01*
X132710700Y-97536000D01*
X132715000Y-97579660D01*
X132715001Y-99016326D01*
X132715000Y-99016333D01*
X132715000Y-99611666D01*
X132715001Y-99611676D01*
X132715000Y-103080340D01*
X132710700Y-103124000D01*
X132715000Y-103167660D01*
X132715000Y-103167666D01*
X132727864Y-103298273D01*
X132778697Y-103465850D01*
X132861247Y-103620290D01*
X132972341Y-103755659D01*
X133006264Y-103783499D01*
X134468506Y-105245741D01*
X134496341Y-105279659D01*
X134631709Y-105390753D01*
X134786149Y-105473303D01*
X134852058Y-105493296D01*
X134953724Y-105524136D01*
X134986924Y-105527406D01*
X135084333Y-105537000D01*
X135084339Y-105537000D01*
X135127999Y-105541300D01*
X135171659Y-105537000D01*
X139656333Y-105537000D01*
X139700000Y-105541301D01*
X139743667Y-105537000D01*
X161500340Y-105537000D01*
X161544000Y-105541300D01*
X161587660Y-105537000D01*
X161587667Y-105537000D01*
X161718274Y-105524136D01*
X161885851Y-105473303D01*
X162040291Y-105390753D01*
X162175659Y-105279659D01*
X162203499Y-105245736D01*
X165341235Y-102108000D01*
X188210314Y-102108000D01*
X188225026Y-102257378D01*
X188268598Y-102401015D01*
X188339355Y-102533392D01*
X188434578Y-102649422D01*
X188550608Y-102744645D01*
X188682985Y-102815402D01*
X188826622Y-102858974D01*
X188938574Y-102870000D01*
X213044370Y-102870000D01*
X216662000Y-106487631D01*
X216662001Y-113845292D01*
X216509241Y-113947363D01*
X216309363Y-114147241D01*
X216152320Y-114382273D01*
X216044147Y-114643426D01*
X215989000Y-114920665D01*
X215989000Y-115203335D01*
X216044147Y-115480574D01*
X216152320Y-115741727D01*
X216309363Y-115976759D01*
X216509241Y-116176637D01*
X216662000Y-116278707D01*
X216662001Y-123406567D01*
X216658314Y-123444000D01*
X216673027Y-123593378D01*
X216716599Y-123737015D01*
X216787355Y-123869392D01*
X216858721Y-123956351D01*
X216882579Y-123985422D01*
X216911649Y-124009279D01*
X218636716Y-125734346D01*
X218660578Y-125763422D01*
X218731956Y-125822000D01*
X218776607Y-125858645D01*
X218839308Y-125892159D01*
X218908985Y-125929402D01*
X219052622Y-125972974D01*
X219164574Y-125984000D01*
X219164577Y-125984000D01*
X219202000Y-125987686D01*
X219239423Y-125984000D01*
X225913441Y-125984000D01*
X225957844Y-126091199D01*
X226158662Y-126391744D01*
X226414256Y-126647338D01*
X226714801Y-126848156D01*
X227048750Y-126986482D01*
X227403268Y-127057000D01*
X227764732Y-127057000D01*
X228119250Y-126986482D01*
X228453199Y-126848156D01*
X228753744Y-126647338D01*
X229009338Y-126391744D01*
X229210156Y-126091199D01*
X229348482Y-125757250D01*
X229419000Y-125402732D01*
X229419000Y-125041268D01*
X229348482Y-124686750D01*
X229210156Y-124352801D01*
X229009338Y-124052256D01*
X228753744Y-123796662D01*
X228453199Y-123595844D01*
X228119250Y-123457518D01*
X227764732Y-123387000D01*
X227403268Y-123387000D01*
X227048750Y-123457518D01*
X226714801Y-123595844D01*
X226414256Y-123796662D01*
X226158662Y-124052256D01*
X225957844Y-124352801D01*
X225913441Y-124460000D01*
X219517630Y-124460000D01*
X218186000Y-123128370D01*
X218186000Y-116278707D01*
X218338759Y-116176637D01*
X218538637Y-115976759D01*
X218674000Y-115774173D01*
X218809363Y-115976759D01*
X219009241Y-116176637D01*
X219244273Y-116333680D01*
X219505426Y-116441853D01*
X219782665Y-116497000D01*
X220065335Y-116497000D01*
X220342574Y-116441853D01*
X220603727Y-116333680D01*
X220838759Y-116176637D01*
X221038637Y-115976759D01*
X221195680Y-115741727D01*
X221303853Y-115480574D01*
X221359000Y-115203335D01*
X221359000Y-114920665D01*
X221303853Y-114643426D01*
X221195680Y-114382273D01*
X221038637Y-114147241D01*
X220838759Y-113947363D01*
X220603727Y-113790320D01*
X220342574Y-113682147D01*
X220065335Y-113627000D01*
X219782665Y-113627000D01*
X219505426Y-113682147D01*
X219244273Y-113790320D01*
X219009241Y-113947363D01*
X218809363Y-114147241D01*
X218674000Y-114349827D01*
X218538637Y-114147241D01*
X218338759Y-113947363D01*
X218186000Y-113845293D01*
X218186000Y-106209423D01*
X218189686Y-106172000D01*
X218186000Y-106134574D01*
X218174974Y-106022622D01*
X218131402Y-105878985D01*
X218060646Y-105746609D01*
X218060645Y-105746607D01*
X217989279Y-105659648D01*
X217965422Y-105630578D01*
X217936353Y-105606722D01*
X216539130Y-104209499D01*
X261222106Y-104209499D01*
X261438228Y-104576258D01*
X261898105Y-104816938D01*
X262396098Y-104963275D01*
X262913071Y-105009648D01*
X263429159Y-104954273D01*
X263924526Y-104799279D01*
X264341772Y-104576258D01*
X264557894Y-104209499D01*
X262890000Y-102541605D01*
X261222106Y-104209499D01*
X216539130Y-104209499D01*
X214714702Y-102385071D01*
X260242352Y-102385071D01*
X260297727Y-102901159D01*
X260452721Y-103396526D01*
X260675742Y-103813772D01*
X261042501Y-104029894D01*
X262710395Y-102362000D01*
X263069605Y-102362000D01*
X264737499Y-104029894D01*
X265104258Y-103813772D01*
X265344938Y-103353895D01*
X265491275Y-102855902D01*
X265537648Y-102338929D01*
X265482273Y-101822841D01*
X265327279Y-101327474D01*
X265104258Y-100910228D01*
X264737499Y-100694106D01*
X263069605Y-102362000D01*
X262710395Y-102362000D01*
X261042501Y-100694106D01*
X260675742Y-100910228D01*
X260435062Y-101370105D01*
X260288725Y-101868098D01*
X260242352Y-102385071D01*
X214714702Y-102385071D01*
X213925284Y-101595654D01*
X213901422Y-101566578D01*
X213785392Y-101471355D01*
X213653015Y-101400598D01*
X213509378Y-101357026D01*
X213397426Y-101346000D01*
X213397423Y-101346000D01*
X213360000Y-101342314D01*
X213322577Y-101346000D01*
X188938574Y-101346000D01*
X188826622Y-101357026D01*
X188682985Y-101400598D01*
X188550608Y-101471355D01*
X188434578Y-101566578D01*
X188339355Y-101682608D01*
X188268598Y-101814985D01*
X188225026Y-101958622D01*
X188210314Y-102108000D01*
X165341235Y-102108000D01*
X166934734Y-100514501D01*
X261222106Y-100514501D01*
X262890000Y-102182395D01*
X264557894Y-100514501D01*
X264341772Y-100147742D01*
X263881895Y-99907062D01*
X263383902Y-99760725D01*
X262866929Y-99714352D01*
X262350841Y-99769727D01*
X261855474Y-99924721D01*
X261438228Y-100147742D01*
X261222106Y-100514501D01*
X166934734Y-100514501D01*
X175524533Y-91924702D01*
X187146903Y-91924702D01*
X187218486Y-92168671D01*
X187473996Y-92289571D01*
X187748184Y-92358300D01*
X188030512Y-92372217D01*
X188310130Y-92330787D01*
X188576292Y-92235603D01*
X188701514Y-92168671D01*
X188773097Y-91924702D01*
X187960000Y-91111605D01*
X187146903Y-91924702D01*
X175524533Y-91924702D01*
X176446723Y-91002512D01*
X186519783Y-91002512D01*
X186561213Y-91282130D01*
X186656397Y-91548292D01*
X186723329Y-91673514D01*
X186967298Y-91745097D01*
X187780395Y-90932000D01*
X188139605Y-90932000D01*
X188952702Y-91745097D01*
X189196671Y-91673514D01*
X189210324Y-91644659D01*
X189345363Y-91846759D01*
X189545241Y-92046637D01*
X189780273Y-92203680D01*
X190041426Y-92311853D01*
X190318665Y-92367000D01*
X190601335Y-92367000D01*
X190878574Y-92311853D01*
X191139727Y-92203680D01*
X191374759Y-92046637D01*
X191574637Y-91846759D01*
X191731680Y-91611727D01*
X191839853Y-91350574D01*
X191895000Y-91073335D01*
X191895000Y-90790665D01*
X191839853Y-90513426D01*
X191731680Y-90252273D01*
X191574637Y-90017241D01*
X191374759Y-89817363D01*
X191139727Y-89660320D01*
X190878574Y-89552147D01*
X190601335Y-89497000D01*
X190318665Y-89497000D01*
X190041426Y-89552147D01*
X189780273Y-89660320D01*
X189545241Y-89817363D01*
X189345363Y-90017241D01*
X189211308Y-90217869D01*
X189196671Y-90190486D01*
X188952702Y-90118903D01*
X188139605Y-90932000D01*
X187780395Y-90932000D01*
X186967298Y-90118903D01*
X186723329Y-90190486D01*
X186602429Y-90445996D01*
X186533700Y-90720184D01*
X186519783Y-91002512D01*
X176446723Y-91002512D01*
X177509937Y-89939298D01*
X187146903Y-89939298D01*
X187960000Y-90752395D01*
X188773097Y-89939298D01*
X188701514Y-89695329D01*
X188446004Y-89574429D01*
X188171816Y-89505700D01*
X187889488Y-89491783D01*
X187609870Y-89533213D01*
X187343708Y-89628397D01*
X187218486Y-89695329D01*
X187146903Y-89939298D01*
X177509937Y-89939298D01*
X188722000Y-78727236D01*
X191364506Y-81369742D01*
X191392341Y-81403659D01*
X191527709Y-81514753D01*
X191682149Y-81597303D01*
X191745790Y-81616608D01*
X191849724Y-81648136D01*
X191882924Y-81651406D01*
X191980333Y-81661000D01*
X191980339Y-81661000D01*
X192023999Y-81665300D01*
X192067659Y-81661000D01*
X260660132Y-81661000D01*
X260808893Y-82020141D01*
X261097262Y-82451715D01*
X261464285Y-82818738D01*
X261895859Y-83107107D01*
X262375399Y-83305739D01*
X262884475Y-83407000D01*
X263403525Y-83407000D01*
X263912601Y-83305739D01*
X264392141Y-83107107D01*
X264823715Y-82818738D01*
X265190738Y-82451715D01*
X265479107Y-82020141D01*
X265677739Y-81540601D01*
X265779000Y-81031525D01*
X265779000Y-80512475D01*
X265677739Y-80003399D01*
X265479107Y-79523859D01*
X265190738Y-79092285D01*
X264823715Y-78725262D01*
X264392141Y-78436893D01*
X263912601Y-78238261D01*
X263403525Y-78137000D01*
X262884475Y-78137000D01*
X262375399Y-78238261D01*
X261895859Y-78436893D01*
X261464285Y-78725262D01*
X261097262Y-79092285D01*
X260808893Y-79523859D01*
X260660132Y-79883000D01*
X192392236Y-79883000D01*
X189611000Y-77101765D01*
X189611000Y-59436000D01*
X193162700Y-59436000D01*
X193179864Y-59610274D01*
X193230698Y-59777852D01*
X193313248Y-59932291D01*
X193424341Y-60067659D01*
X193559709Y-60178752D01*
X193714148Y-60261302D01*
X193881726Y-60312136D01*
X194056000Y-60329300D01*
X194230274Y-60312136D01*
X194397852Y-60261302D01*
X194552291Y-60178752D01*
X194653740Y-60095495D01*
X197980235Y-56769000D01*
X219336412Y-56769000D01*
X219366264Y-56793499D01*
X223622506Y-61049742D01*
X223650341Y-61083659D01*
X223785709Y-61194753D01*
X223940149Y-61277303D01*
X224006058Y-61297296D01*
X224107724Y-61328136D01*
X224140924Y-61331406D01*
X224238333Y-61341000D01*
X224238339Y-61341000D01*
X224281999Y-61345300D01*
X224325659Y-61341000D01*
X261930132Y-61341000D01*
X262078893Y-61700141D01*
X262367262Y-62131715D01*
X262734285Y-62498738D01*
X263165859Y-62787107D01*
X263645399Y-62985739D01*
X264154475Y-63087000D01*
X264673525Y-63087000D01*
X265182601Y-62985739D01*
X265662141Y-62787107D01*
X266093715Y-62498738D01*
X266460738Y-62131715D01*
X266749107Y-61700141D01*
X266947739Y-61220601D01*
X267049000Y-60711525D01*
X267049000Y-60192475D01*
X266947739Y-59683399D01*
X266749107Y-59203859D01*
X266460738Y-58772285D01*
X266093715Y-58405262D01*
X265662141Y-58116893D01*
X265182601Y-57918261D01*
X264673525Y-57817000D01*
X264154475Y-57817000D01*
X263645399Y-57918261D01*
X263165859Y-58116893D01*
X262734285Y-58405262D01*
X262367262Y-58772285D01*
X262078893Y-59203859D01*
X261930132Y-59563000D01*
X224650236Y-59563000D01*
X220853000Y-55765765D01*
X220853000Y-48917545D01*
X220918494Y-48882537D01*
X220935681Y-48868432D01*
X221062516Y-48926237D01*
X221299313Y-48982000D01*
X221542438Y-48990495D01*
X221782549Y-48951395D01*
X222010418Y-48866202D01*
X222086852Y-48825348D01*
X222134159Y-48601764D01*
X221464000Y-47931605D01*
X221449858Y-47945748D01*
X221270253Y-47766143D01*
X221284395Y-47752000D01*
X221643605Y-47752000D01*
X222313764Y-48422159D01*
X222537348Y-48374852D01*
X222638237Y-48153484D01*
X222694000Y-47916687D01*
X222702495Y-47673562D01*
X222663395Y-47433451D01*
X222578202Y-47205582D01*
X222537348Y-47129148D01*
X222313764Y-47081841D01*
X221643605Y-47752000D01*
X221284395Y-47752000D01*
X221270253Y-47737858D01*
X221449858Y-47558253D01*
X221464000Y-47572395D01*
X222134159Y-46902236D01*
X222086852Y-46678652D01*
X221865484Y-46577763D01*
X221628687Y-46522000D01*
X221385562Y-46513505D01*
X221145451Y-46552605D01*
X220931883Y-46632451D01*
X220918494Y-46621463D01*
X220808180Y-46562498D01*
X220688482Y-46526188D01*
X220564000Y-46513928D01*
X219364000Y-46513928D01*
X219239518Y-46526188D01*
X219119820Y-46562498D01*
X219009506Y-46621463D01*
X218912815Y-46700815D01*
X218833463Y-46797506D01*
X218774498Y-46907820D01*
X218738188Y-47027518D01*
X218725928Y-47152000D01*
X218725928Y-48352000D01*
X218738188Y-48476482D01*
X218774498Y-48596180D01*
X218833463Y-48706494D01*
X218912815Y-48803185D01*
X219009506Y-48882537D01*
X219075001Y-48917545D01*
X219075000Y-54991000D01*
X197655659Y-54991000D01*
X197611999Y-54986700D01*
X197568339Y-54991000D01*
X197568333Y-54991000D01*
X197470924Y-55000594D01*
X197437724Y-55003864D01*
X197336058Y-55034704D01*
X197270149Y-55054697D01*
X197115709Y-55137247D01*
X196980341Y-55248341D01*
X196952501Y-55282264D01*
X193396505Y-58838260D01*
X193313248Y-58939709D01*
X193230698Y-59094148D01*
X193179864Y-59261726D01*
X193162700Y-59436000D01*
X189611000Y-59436000D01*
X189611000Y-48663545D01*
X189676494Y-48628537D01*
X189693681Y-48614432D01*
X189820516Y-48672237D01*
X190057313Y-48728000D01*
X190300438Y-48736495D01*
X190540549Y-48697395D01*
X190768418Y-48612202D01*
X190844852Y-48571348D01*
X190892159Y-48347764D01*
X190222000Y-47677605D01*
X190207858Y-47691748D01*
X190028253Y-47512143D01*
X190042395Y-47498000D01*
X190401605Y-47498000D01*
X191071764Y-48168159D01*
X191295348Y-48120852D01*
X191396237Y-47899484D01*
X191452000Y-47662687D01*
X191460495Y-47419562D01*
X191421395Y-47179451D01*
X191411132Y-47152000D01*
X203763928Y-47152000D01*
X203763928Y-48352000D01*
X203776188Y-48476482D01*
X203812498Y-48596180D01*
X203835001Y-48638279D01*
X203835000Y-53383666D01*
X203847864Y-53514273D01*
X203898697Y-53681850D01*
X203981247Y-53836290D01*
X204092341Y-53971659D01*
X204227709Y-54082753D01*
X204382149Y-54165303D01*
X204549726Y-54216136D01*
X204724000Y-54233301D01*
X204898273Y-54216136D01*
X205065850Y-54165303D01*
X205220290Y-54082753D01*
X205355659Y-53971659D01*
X205466753Y-53836291D01*
X205549303Y-53681851D01*
X205600136Y-53514274D01*
X205613000Y-53383667D01*
X205613000Y-48988989D01*
X205726482Y-48977812D01*
X205846180Y-48941502D01*
X205956494Y-48882537D01*
X205973681Y-48868432D01*
X206100516Y-48926237D01*
X206337313Y-48982000D01*
X206580438Y-48990495D01*
X206820549Y-48951395D01*
X207048418Y-48866202D01*
X207124852Y-48825348D01*
X207172159Y-48601764D01*
X206502000Y-47931605D01*
X206487858Y-47945748D01*
X206308253Y-47766143D01*
X206322395Y-47752000D01*
X206681605Y-47752000D01*
X207351764Y-48422159D01*
X207575348Y-48374852D01*
X207676237Y-48153484D01*
X207732000Y-47916687D01*
X207740495Y-47673562D01*
X207701395Y-47433451D01*
X207616202Y-47205582D01*
X207575348Y-47129148D01*
X207351764Y-47081841D01*
X206681605Y-47752000D01*
X206322395Y-47752000D01*
X206308253Y-47737858D01*
X206487858Y-47558253D01*
X206502000Y-47572395D01*
X207172159Y-46902236D01*
X207124852Y-46678652D01*
X206903484Y-46577763D01*
X206666687Y-46522000D01*
X206423562Y-46513505D01*
X206183451Y-46552605D01*
X205969883Y-46632451D01*
X205956494Y-46621463D01*
X205891000Y-46586455D01*
X205891000Y-38698235D01*
X208140236Y-36449000D01*
X258203765Y-36449000D01*
X262029022Y-40274258D01*
X261880261Y-40633399D01*
X261779000Y-41142475D01*
X261779000Y-41661525D01*
X261880261Y-42170601D01*
X262078893Y-42650141D01*
X262367262Y-43081715D01*
X262734285Y-43448738D01*
X263165859Y-43737107D01*
X263645399Y-43935739D01*
X264154475Y-44037000D01*
X264673525Y-44037000D01*
X265182601Y-43935739D01*
X265662141Y-43737107D01*
X266093715Y-43448738D01*
X266460738Y-43081715D01*
X266749107Y-42650141D01*
X266947739Y-42170601D01*
X267049000Y-41661525D01*
X267049000Y-41142475D01*
X266947739Y-40633399D01*
X266749107Y-40153859D01*
X266460738Y-39722285D01*
X266093715Y-39355262D01*
X265662141Y-39066893D01*
X265182601Y-38868261D01*
X264673525Y-38767000D01*
X264154475Y-38767000D01*
X263645399Y-38868261D01*
X263286258Y-39017022D01*
X259231499Y-34962264D01*
X259203659Y-34928341D01*
X259068291Y-34817247D01*
X258913851Y-34734697D01*
X258746274Y-34683864D01*
X258615667Y-34671000D01*
X258615660Y-34671000D01*
X258572000Y-34666700D01*
X258528340Y-34671000D01*
X207815668Y-34671000D01*
X207772000Y-34666699D01*
X207597725Y-34683864D01*
X207546892Y-34699284D01*
X207430149Y-34734697D01*
X207275709Y-34817247D01*
X207140341Y-34928341D01*
X207112506Y-34962258D01*
X204404264Y-37670501D01*
X204370341Y-37698341D01*
X204259247Y-37833710D01*
X204176697Y-37988150D01*
X204125864Y-38155727D01*
X204113000Y-38286334D01*
X204113000Y-38286340D01*
X204108700Y-38330000D01*
X204113000Y-38373660D01*
X204113001Y-46586455D01*
X204047506Y-46621463D01*
X203950815Y-46700815D01*
X203871463Y-46797506D01*
X203812498Y-46907820D01*
X203776188Y-47027518D01*
X203763928Y-47152000D01*
X191411132Y-47152000D01*
X191336202Y-46951582D01*
X191295348Y-46875148D01*
X191071764Y-46827841D01*
X190401605Y-47498000D01*
X190042395Y-47498000D01*
X190028253Y-47483858D01*
X190207858Y-47304253D01*
X190222000Y-47318395D01*
X190892159Y-46648236D01*
X190844852Y-46424652D01*
X190623484Y-46323763D01*
X190386687Y-46268000D01*
X190143562Y-46259505D01*
X189903451Y-46298605D01*
X189689883Y-46378451D01*
X189676494Y-46367463D01*
X189566180Y-46308498D01*
X189484000Y-46283569D01*
X189484000Y-34835423D01*
X189487686Y-34798000D01*
X189484000Y-34760574D01*
X189472974Y-34648622D01*
X189429402Y-34504985D01*
X189394334Y-34439378D01*
X189358645Y-34372607D01*
X189323857Y-34330219D01*
X189263422Y-34256578D01*
X189234346Y-34232716D01*
X184461284Y-29459654D01*
X184437422Y-29430578D01*
X184321392Y-29335355D01*
X184189015Y-29264598D01*
X184045378Y-29221026D01*
X183933426Y-29210000D01*
X183933423Y-29210000D01*
X183896000Y-29206314D01*
X183858577Y-29210000D01*
X48805422Y-29210000D01*
X48767999Y-29206314D01*
X48730576Y-29210000D01*
X48730574Y-29210000D01*
X48618622Y-29221026D01*
X48474985Y-29264598D01*
X48342608Y-29335355D01*
X48226578Y-29430578D01*
X48202721Y-29459648D01*
X43937654Y-33724716D01*
X43908578Y-33748578D01*
X43852983Y-33816322D01*
X43813355Y-33864608D01*
X43775535Y-33935365D01*
X43742598Y-33996986D01*
X43699026Y-34140623D01*
X43688000Y-34252574D01*
X43684314Y-34290000D01*
X43688000Y-34327423D01*
X43688001Y-66486368D01*
X41848370Y-68326000D01*
X33565422Y-68326000D01*
X33527999Y-68322314D01*
X33490576Y-68326000D01*
X33490574Y-68326000D01*
X33378622Y-68337026D01*
X33234985Y-68380598D01*
X33102608Y-68451355D01*
X32986578Y-68546578D01*
X32962721Y-68575648D01*
X28443654Y-73094716D01*
X28414578Y-73118578D01*
X28358983Y-73186322D01*
X28319355Y-73234608D01*
X28281535Y-73305365D01*
X28248598Y-73366986D01*
X28205026Y-73510623D01*
X28194000Y-73622574D01*
X28190314Y-73660000D01*
X16916000Y-73660000D01*
X16916000Y-16408000D01*
X280772001Y-16408000D01*
X280772000Y-177140000D01*
%TA.AperFunction,Conductor*%
D22*
G36*
X280772000Y-177140000D02*
G01*
X16916000Y-177140000D01*
X16916000Y-73660000D01*
X28190314Y-73660000D01*
X28194000Y-73697423D01*
X28194001Y-157442567D01*
X28190314Y-157480000D01*
X28205027Y-157629378D01*
X28248599Y-157773015D01*
X28319355Y-157905392D01*
X28390721Y-157992351D01*
X28414579Y-158021422D01*
X28443649Y-158045279D01*
X35502721Y-165104352D01*
X35526578Y-165133422D01*
X35555648Y-165157279D01*
X35642607Y-165228645D01*
X35713364Y-165266465D01*
X35774985Y-165299402D01*
X35918622Y-165342974D01*
X36030574Y-165354000D01*
X36030577Y-165354000D01*
X36068000Y-165357686D01*
X36105423Y-165354000D01*
X80734577Y-165354000D01*
X80772000Y-165357686D01*
X80809423Y-165354000D01*
X80809426Y-165354000D01*
X80921378Y-165342974D01*
X81065015Y-165299402D01*
X81197392Y-165228645D01*
X81313422Y-165133422D01*
X81337284Y-165104346D01*
X85151631Y-161290000D01*
X112230577Y-161290000D01*
X112268000Y-161293686D01*
X112305423Y-161290000D01*
X112305426Y-161290000D01*
X112417378Y-161278974D01*
X112561015Y-161235402D01*
X112693392Y-161164645D01*
X112809422Y-161069422D01*
X112833284Y-161040346D01*
X115828353Y-158045278D01*
X115857422Y-158021422D01*
X115884772Y-157988096D01*
X115952645Y-157905393D01*
X116023401Y-157773016D01*
X116023402Y-157773015D01*
X116066974Y-157629378D01*
X116078000Y-157517426D01*
X116078000Y-157517423D01*
X116081686Y-157480000D01*
X116078000Y-157442577D01*
X116078000Y-149667630D01*
X118171631Y-147574000D01*
X120957293Y-147574000D01*
X121059363Y-147726759D01*
X121259241Y-147926637D01*
X121491759Y-148082000D01*
X121259241Y-148237363D01*
X121059363Y-148437241D01*
X120902320Y-148672273D01*
X120794147Y-148933426D01*
X120739000Y-149210665D01*
X120739000Y-149493335D01*
X120794147Y-149770574D01*
X120902320Y-150031727D01*
X121059363Y-150266759D01*
X121259241Y-150466637D01*
X121491759Y-150622000D01*
X121259241Y-150777363D01*
X121059363Y-150977241D01*
X120902320Y-151212273D01*
X120794147Y-151473426D01*
X120739000Y-151750665D01*
X120739000Y-152033335D01*
X120794147Y-152310574D01*
X120902320Y-152571727D01*
X121059363Y-152806759D01*
X121259241Y-153006637D01*
X121494273Y-153163680D01*
X121755426Y-153271853D01*
X122032665Y-153327000D01*
X122315335Y-153327000D01*
X122592574Y-153271853D01*
X122853727Y-153163680D01*
X123088759Y-153006637D01*
X123288637Y-152806759D01*
X123445680Y-152571727D01*
X123553853Y-152310574D01*
X123609000Y-152033335D01*
X123609000Y-151750665D01*
X123553853Y-151473426D01*
X123445680Y-151212273D01*
X123288637Y-150977241D01*
X123088759Y-150777363D01*
X122856241Y-150622000D01*
X123088759Y-150466637D01*
X123288637Y-150266759D01*
X123445680Y-150031727D01*
X123553853Y-149770574D01*
X123609000Y-149493335D01*
X123609000Y-149210665D01*
X123553853Y-148933426D01*
X123445680Y-148672273D01*
X123288637Y-148437241D01*
X123088759Y-148237363D01*
X122856241Y-148082000D01*
X123088759Y-147926637D01*
X123288637Y-147726759D01*
X123445680Y-147491727D01*
X123553853Y-147230574D01*
X123609000Y-146953335D01*
X123609000Y-146670665D01*
X128359000Y-146670665D01*
X128359000Y-146953335D01*
X128414147Y-147230574D01*
X128522320Y-147491727D01*
X128679363Y-147726759D01*
X128879241Y-147926637D01*
X129111759Y-148082000D01*
X128879241Y-148237363D01*
X128679363Y-148437241D01*
X128522320Y-148672273D01*
X128414147Y-148933426D01*
X128359000Y-149210665D01*
X128359000Y-149493335D01*
X128414147Y-149770574D01*
X128522320Y-150031727D01*
X128679363Y-150266759D01*
X128879241Y-150466637D01*
X129111759Y-150622000D01*
X128879241Y-150777363D01*
X128679363Y-150977241D01*
X128522320Y-151212273D01*
X128414147Y-151473426D01*
X128359000Y-151750665D01*
X128359000Y-152033335D01*
X128414147Y-152310574D01*
X128522320Y-152571727D01*
X128679363Y-152806759D01*
X128879241Y-153006637D01*
X129114273Y-153163680D01*
X129375426Y-153271853D01*
X129652665Y-153327000D01*
X129935335Y-153327000D01*
X130212574Y-153271853D01*
X130473727Y-153163680D01*
X130708759Y-153006637D01*
X130908637Y-152806759D01*
X131065680Y-152571727D01*
X131173853Y-152310574D01*
X131229000Y-152033335D01*
X131229000Y-151750665D01*
X131173853Y-151473426D01*
X131065680Y-151212273D01*
X130908637Y-150977241D01*
X130708759Y-150777363D01*
X130476241Y-150622000D01*
X130708759Y-150466637D01*
X130908637Y-150266759D01*
X131065680Y-150031727D01*
X131173853Y-149770574D01*
X131229000Y-149493335D01*
X131229000Y-149210665D01*
X131205491Y-149092475D01*
X166529000Y-149092475D01*
X166529000Y-149611525D01*
X166630261Y-150120601D01*
X166828893Y-150600141D01*
X167117262Y-151031715D01*
X167484285Y-151398738D01*
X167915859Y-151687107D01*
X168395399Y-151885739D01*
X168904475Y-151987000D01*
X169423525Y-151987000D01*
X169932601Y-151885739D01*
X170412141Y-151687107D01*
X170843715Y-151398738D01*
X171210738Y-151031715D01*
X171499107Y-150600141D01*
X171697739Y-150120601D01*
X171799000Y-149611525D01*
X171799000Y-149092475D01*
X171697739Y-148583399D01*
X171499107Y-148103859D01*
X171210738Y-147672285D01*
X170843715Y-147305262D01*
X170412141Y-147016893D01*
X169932601Y-146818261D01*
X169926000Y-146816948D01*
X169926000Y-131579980D01*
X226485626Y-131579980D01*
X226605514Y-131864836D01*
X226929210Y-132025699D01*
X227278069Y-132120322D01*
X227638684Y-132145067D01*
X227997198Y-132098985D01*
X228339833Y-131983846D01*
X228562486Y-131864836D01*
X228682374Y-131579980D01*
X227584000Y-130481605D01*
X226485626Y-131579980D01*
X169926000Y-131579980D01*
X169926000Y-131379630D01*
X170948946Y-130356684D01*
X225740933Y-130356684D01*
X225787015Y-130715198D01*
X225902154Y-131057833D01*
X226021164Y-131280486D01*
X226306020Y-131400374D01*
X227404395Y-130302000D01*
X227763605Y-130302000D01*
X228861980Y-131400374D01*
X229146836Y-131280486D01*
X229307699Y-130956790D01*
X229402322Y-130607931D01*
X229427067Y-130247316D01*
X229380985Y-129888802D01*
X229265846Y-129546167D01*
X229146836Y-129323514D01*
X228861980Y-129203626D01*
X227763605Y-130302000D01*
X227404395Y-130302000D01*
X226306020Y-129203626D01*
X226021164Y-129323514D01*
X225860301Y-129647210D01*
X225765678Y-129996069D01*
X225740933Y-130356684D01*
X170948946Y-130356684D01*
X172873630Y-128432000D01*
X204755928Y-128432000D01*
X204755928Y-129632000D01*
X204768188Y-129756482D01*
X204804498Y-129876180D01*
X204863463Y-129986494D01*
X204942815Y-130083185D01*
X205039506Y-130162537D01*
X205149820Y-130221502D01*
X205269518Y-130257812D01*
X205394000Y-130270072D01*
X206594000Y-130270072D01*
X206718482Y-130257812D01*
X206838180Y-130221502D01*
X206948494Y-130162537D01*
X206965681Y-130148432D01*
X207092516Y-130206237D01*
X207329313Y-130262000D01*
X207572438Y-130270495D01*
X207812549Y-130231395D01*
X208040418Y-130146202D01*
X208116852Y-130105348D01*
X208164159Y-129881764D01*
X207494000Y-129211605D01*
X207479858Y-129225748D01*
X207300253Y-129046143D01*
X207314395Y-129032000D01*
X207673605Y-129032000D01*
X208343764Y-129702159D01*
X208567348Y-129654852D01*
X208668237Y-129433484D01*
X208724000Y-129196687D01*
X208730033Y-129024020D01*
X226485626Y-129024020D01*
X227584000Y-130122395D01*
X228682374Y-129024020D01*
X228562486Y-128739164D01*
X228238790Y-128578301D01*
X227889931Y-128483678D01*
X227529316Y-128458933D01*
X227170802Y-128505015D01*
X226828167Y-128620154D01*
X226605514Y-128739164D01*
X226485626Y-129024020D01*
X208730033Y-129024020D01*
X208732495Y-128953562D01*
X208693395Y-128713451D01*
X208608202Y-128485582D01*
X208567348Y-128409148D01*
X208343764Y-128361841D01*
X207673605Y-129032000D01*
X207314395Y-129032000D01*
X207300253Y-129017858D01*
X207479858Y-128838253D01*
X207494000Y-128852395D01*
X208164159Y-128182236D01*
X208116852Y-127958652D01*
X207895484Y-127857763D01*
X207658687Y-127802000D01*
X207415562Y-127793505D01*
X207175451Y-127832605D01*
X206961883Y-127912451D01*
X206948494Y-127901463D01*
X206838180Y-127842498D01*
X206718482Y-127806188D01*
X206594000Y-127793928D01*
X205394000Y-127793928D01*
X205269518Y-127806188D01*
X205149820Y-127842498D01*
X205039506Y-127901463D01*
X204942815Y-127980815D01*
X204863463Y-128077506D01*
X204804498Y-128187820D01*
X204768188Y-128307518D01*
X204755928Y-128432000D01*
X172873630Y-128432000D01*
X175321630Y-125984000D01*
X188269569Y-125984000D01*
X188294498Y-126066180D01*
X188353463Y-126176494D01*
X188432815Y-126273185D01*
X188529506Y-126352537D01*
X188639820Y-126411502D01*
X188759518Y-126447812D01*
X188884000Y-126460072D01*
X190084000Y-126460072D01*
X190208482Y-126447812D01*
X190328180Y-126411502D01*
X190438494Y-126352537D01*
X190535185Y-126273185D01*
X190614537Y-126176494D01*
X190638858Y-126130994D01*
X190696736Y-126188872D01*
X190813842Y-126071766D01*
X190861148Y-126295348D01*
X191082516Y-126396237D01*
X191319313Y-126452000D01*
X191562438Y-126460495D01*
X191802549Y-126421395D01*
X192030418Y-126336202D01*
X192106852Y-126295348D01*
X192154159Y-126071764D01*
X191484000Y-125401605D01*
X191469858Y-125415748D01*
X191290253Y-125236143D01*
X191304395Y-125222000D01*
X191663605Y-125222000D01*
X192333764Y-125892159D01*
X192557348Y-125844852D01*
X192658237Y-125623484D01*
X192714000Y-125386687D01*
X192722495Y-125143562D01*
X192683395Y-124903451D01*
X192598202Y-124675582D01*
X192557348Y-124599148D01*
X192333764Y-124551841D01*
X191663605Y-125222000D01*
X191304395Y-125222000D01*
X191290253Y-125207858D01*
X191469858Y-125028253D01*
X191484000Y-125042395D01*
X192154159Y-124372236D01*
X192106852Y-124148652D01*
X191885484Y-124047763D01*
X191648687Y-123992000D01*
X191405562Y-123983505D01*
X191165451Y-124022605D01*
X190937582Y-124107798D01*
X190861148Y-124148652D01*
X190813842Y-124372234D01*
X190696736Y-124255128D01*
X190638858Y-124313006D01*
X190614537Y-124267506D01*
X190535185Y-124170815D01*
X190438494Y-124091463D01*
X190328180Y-124032498D01*
X190208482Y-123996188D01*
X190084000Y-123983928D01*
X188884000Y-123983928D01*
X188759518Y-123996188D01*
X188639820Y-124032498D01*
X188529506Y-124091463D01*
X188432815Y-124170815D01*
X188353463Y-124267506D01*
X188294498Y-124377820D01*
X188269569Y-124460000D01*
X175043423Y-124460000D01*
X175006000Y-124456314D01*
X174968577Y-124460000D01*
X174968574Y-124460000D01*
X174856622Y-124471026D01*
X174712985Y-124514598D01*
X174651364Y-124547535D01*
X174580607Y-124585355D01*
X174563801Y-124599148D01*
X174464578Y-124680578D01*
X174440716Y-124709654D01*
X168651654Y-130498716D01*
X168622578Y-130522578D01*
X168566983Y-130590322D01*
X168527355Y-130638608D01*
X168489535Y-130709365D01*
X168456598Y-130770986D01*
X168413026Y-130914623D01*
X168402000Y-131026574D01*
X168398314Y-131064000D01*
X168402000Y-131101423D01*
X168402001Y-146816948D01*
X168395399Y-146818261D01*
X167915859Y-147016893D01*
X167484285Y-147305262D01*
X167117262Y-147672285D01*
X166828893Y-148103859D01*
X166630261Y-148583399D01*
X166529000Y-149092475D01*
X131205491Y-149092475D01*
X131173853Y-148933426D01*
X131065680Y-148672273D01*
X130908637Y-148437241D01*
X130708759Y-148237363D01*
X130476241Y-148082000D01*
X130708759Y-147926637D01*
X130908637Y-147726759D01*
X131065680Y-147491727D01*
X131173853Y-147230574D01*
X131229000Y-146953335D01*
X131229000Y-146670665D01*
X131173853Y-146393426D01*
X131065680Y-146132273D01*
X130908637Y-145897241D01*
X130708759Y-145697363D01*
X130473727Y-145540320D01*
X130463135Y-145535933D01*
X130649131Y-145424385D01*
X130857519Y-145235414D01*
X131025037Y-145009420D01*
X131145246Y-144755087D01*
X131185904Y-144621039D01*
X131063915Y-144399000D01*
X129921000Y-144399000D01*
X129921000Y-144419000D01*
X129667000Y-144419000D01*
X129667000Y-144399000D01*
X128524085Y-144399000D01*
X128402096Y-144621039D01*
X128442754Y-144755087D01*
X128562963Y-145009420D01*
X128730481Y-145235414D01*
X128938869Y-145424385D01*
X129124865Y-145535933D01*
X129114273Y-145540320D01*
X128879241Y-145697363D01*
X128679363Y-145897241D01*
X128522320Y-146132273D01*
X128414147Y-146393426D01*
X128359000Y-146670665D01*
X123609000Y-146670665D01*
X123553853Y-146393426D01*
X123445680Y-146132273D01*
X123288637Y-145897241D01*
X123090039Y-145698643D01*
X123098482Y-145697812D01*
X123218180Y-145661502D01*
X123328494Y-145602537D01*
X123425185Y-145523185D01*
X123504537Y-145426494D01*
X123563502Y-145316180D01*
X123599812Y-145196482D01*
X123612072Y-145072000D01*
X123612072Y-143922961D01*
X128402096Y-143922961D01*
X128524085Y-144145000D01*
X129667000Y-144145000D01*
X129667000Y-143001376D01*
X129921000Y-143001376D01*
X129921000Y-144145000D01*
X131063915Y-144145000D01*
X131185904Y-143922961D01*
X131145246Y-143788913D01*
X131025037Y-143534580D01*
X130857519Y-143308586D01*
X130649131Y-143119615D01*
X130407881Y-142974930D01*
X130143040Y-142880091D01*
X129921000Y-143001376D01*
X129667000Y-143001376D01*
X129444960Y-142880091D01*
X129180119Y-142974930D01*
X128938869Y-143119615D01*
X128730481Y-143308586D01*
X128562963Y-143534580D01*
X128442754Y-143788913D01*
X128402096Y-143922961D01*
X123612072Y-143922961D01*
X123612072Y-143472000D01*
X123599812Y-143347518D01*
X123563502Y-143227820D01*
X123504537Y-143117506D01*
X123425185Y-143020815D01*
X123328494Y-142941463D01*
X123218180Y-142882498D01*
X123098482Y-142846188D01*
X122974000Y-142833928D01*
X121374000Y-142833928D01*
X121249518Y-142846188D01*
X121129820Y-142882498D01*
X121019506Y-142941463D01*
X120922815Y-143020815D01*
X120843463Y-143117506D01*
X120784498Y-143227820D01*
X120748188Y-143347518D01*
X120735928Y-143472000D01*
X120735928Y-145072000D01*
X120748188Y-145196482D01*
X120784498Y-145316180D01*
X120843463Y-145426494D01*
X120922815Y-145523185D01*
X121019506Y-145602537D01*
X121129820Y-145661502D01*
X121249518Y-145697812D01*
X121257961Y-145698643D01*
X121059363Y-145897241D01*
X120957293Y-146050000D01*
X117893422Y-146050000D01*
X117855999Y-146046314D01*
X117818576Y-146050000D01*
X117818574Y-146050000D01*
X117706622Y-146061026D01*
X117562985Y-146104598D01*
X117430608Y-146175355D01*
X117314578Y-146270578D01*
X117290721Y-146299648D01*
X114803649Y-148786721D01*
X114774579Y-148810578D01*
X114750722Y-148839648D01*
X114750721Y-148839649D01*
X114679355Y-148926608D01*
X114608599Y-149058985D01*
X114565027Y-149202622D01*
X114550314Y-149352000D01*
X114554001Y-149389433D01*
X114554000Y-157164369D01*
X111952370Y-159766000D01*
X85598000Y-159766000D01*
X85598000Y-149159630D01*
X87183631Y-147574000D01*
X91747293Y-147574000D01*
X91849363Y-147726759D01*
X92049241Y-147926637D01*
X92281759Y-148082000D01*
X92049241Y-148237363D01*
X91849363Y-148437241D01*
X91692320Y-148672273D01*
X91584147Y-148933426D01*
X91529000Y-149210665D01*
X91529000Y-149493335D01*
X91584147Y-149770574D01*
X91692320Y-150031727D01*
X91849363Y-150266759D01*
X92049241Y-150466637D01*
X92281759Y-150622000D01*
X92049241Y-150777363D01*
X91849363Y-150977241D01*
X91692320Y-151212273D01*
X91584147Y-151473426D01*
X91529000Y-151750665D01*
X91529000Y-152033335D01*
X91584147Y-152310574D01*
X91692320Y-152571727D01*
X91849363Y-152806759D01*
X92049241Y-153006637D01*
X92284273Y-153163680D01*
X92545426Y-153271853D01*
X92822665Y-153327000D01*
X93105335Y-153327000D01*
X93382574Y-153271853D01*
X93643727Y-153163680D01*
X93878759Y-153006637D01*
X94078637Y-152806759D01*
X94235680Y-152571727D01*
X94343853Y-152310574D01*
X94399000Y-152033335D01*
X94399000Y-151750665D01*
X94343853Y-151473426D01*
X94235680Y-151212273D01*
X94078637Y-150977241D01*
X93878759Y-150777363D01*
X93646241Y-150622000D01*
X93878759Y-150466637D01*
X94078637Y-150266759D01*
X94235680Y-150031727D01*
X94343853Y-149770574D01*
X94399000Y-149493335D01*
X94399000Y-149210665D01*
X94343853Y-148933426D01*
X94235680Y-148672273D01*
X94078637Y-148437241D01*
X93878759Y-148237363D01*
X93646241Y-148082000D01*
X93878759Y-147926637D01*
X94078637Y-147726759D01*
X94235680Y-147491727D01*
X94343853Y-147230574D01*
X94399000Y-146953335D01*
X94399000Y-146670665D01*
X99149000Y-146670665D01*
X99149000Y-146953335D01*
X99204147Y-147230574D01*
X99312320Y-147491727D01*
X99469363Y-147726759D01*
X99669241Y-147926637D01*
X99901759Y-148082000D01*
X99669241Y-148237363D01*
X99469363Y-148437241D01*
X99312320Y-148672273D01*
X99204147Y-148933426D01*
X99149000Y-149210665D01*
X99149000Y-149493335D01*
X99204147Y-149770574D01*
X99312320Y-150031727D01*
X99469363Y-150266759D01*
X99669241Y-150466637D01*
X99901759Y-150622000D01*
X99669241Y-150777363D01*
X99469363Y-150977241D01*
X99312320Y-151212273D01*
X99204147Y-151473426D01*
X99149000Y-151750665D01*
X99149000Y-152033335D01*
X99204147Y-152310574D01*
X99312320Y-152571727D01*
X99469363Y-152806759D01*
X99669241Y-153006637D01*
X99904273Y-153163680D01*
X100165426Y-153271853D01*
X100442665Y-153327000D01*
X100725335Y-153327000D01*
X101002574Y-153271853D01*
X101263727Y-153163680D01*
X101498759Y-153006637D01*
X101698637Y-152806759D01*
X101855680Y-152571727D01*
X101963853Y-152310574D01*
X102019000Y-152033335D01*
X102019000Y-151750665D01*
X101963853Y-151473426D01*
X101855680Y-151212273D01*
X101698637Y-150977241D01*
X101498759Y-150777363D01*
X101266241Y-150622000D01*
X101498759Y-150466637D01*
X101698637Y-150266759D01*
X101855680Y-150031727D01*
X101963853Y-149770574D01*
X102019000Y-149493335D01*
X102019000Y-149210665D01*
X101963853Y-148933426D01*
X101855680Y-148672273D01*
X101698637Y-148437241D01*
X101498759Y-148237363D01*
X101266241Y-148082000D01*
X101498759Y-147926637D01*
X101698637Y-147726759D01*
X101855680Y-147491727D01*
X101963853Y-147230574D01*
X102019000Y-146953335D01*
X102019000Y-146670665D01*
X101963853Y-146393426D01*
X101855680Y-146132273D01*
X101698637Y-145897241D01*
X101498759Y-145697363D01*
X101263727Y-145540320D01*
X101253135Y-145535933D01*
X101439131Y-145424385D01*
X101647519Y-145235414D01*
X101815037Y-145009420D01*
X101935246Y-144755087D01*
X101975904Y-144621039D01*
X101853915Y-144399000D01*
X100711000Y-144399000D01*
X100711000Y-144419000D01*
X100457000Y-144419000D01*
X100457000Y-144399000D01*
X99314085Y-144399000D01*
X99192096Y-144621039D01*
X99232754Y-144755087D01*
X99352963Y-145009420D01*
X99520481Y-145235414D01*
X99728869Y-145424385D01*
X99914865Y-145535933D01*
X99904273Y-145540320D01*
X99669241Y-145697363D01*
X99469363Y-145897241D01*
X99312320Y-146132273D01*
X99204147Y-146393426D01*
X99149000Y-146670665D01*
X94399000Y-146670665D01*
X94343853Y-146393426D01*
X94235680Y-146132273D01*
X94078637Y-145897241D01*
X93880039Y-145698643D01*
X93888482Y-145697812D01*
X94008180Y-145661502D01*
X94118494Y-145602537D01*
X94215185Y-145523185D01*
X94294537Y-145426494D01*
X94353502Y-145316180D01*
X94389812Y-145196482D01*
X94402072Y-145072000D01*
X94402072Y-143922961D01*
X99192096Y-143922961D01*
X99314085Y-144145000D01*
X100457000Y-144145000D01*
X100457000Y-143001376D01*
X100711000Y-143001376D01*
X100711000Y-144145000D01*
X101853915Y-144145000D01*
X101975904Y-143922961D01*
X101935246Y-143788913D01*
X101815037Y-143534580D01*
X101647519Y-143308586D01*
X101439131Y-143119615D01*
X101197881Y-142974930D01*
X100933040Y-142880091D01*
X100711000Y-143001376D01*
X100457000Y-143001376D01*
X100234960Y-142880091D01*
X99970119Y-142974930D01*
X99728869Y-143119615D01*
X99520481Y-143308586D01*
X99352963Y-143534580D01*
X99232754Y-143788913D01*
X99192096Y-143922961D01*
X94402072Y-143922961D01*
X94402072Y-143472000D01*
X94389812Y-143347518D01*
X94353502Y-143227820D01*
X94294537Y-143117506D01*
X94215185Y-143020815D01*
X94118494Y-142941463D01*
X94008180Y-142882498D01*
X93888482Y-142846188D01*
X93764000Y-142833928D01*
X93726000Y-142833928D01*
X93726000Y-126807630D01*
X106741630Y-113792000D01*
X205482314Y-113792000D01*
X205497027Y-113941378D01*
X205540599Y-114085015D01*
X205611355Y-114217392D01*
X205682721Y-114304351D01*
X211778721Y-120400352D01*
X211802578Y-120429422D01*
X211831648Y-120453279D01*
X211918607Y-120524645D01*
X211943593Y-120538000D01*
X212050985Y-120595402D01*
X212194622Y-120638974D01*
X212306574Y-120650000D01*
X212306577Y-120650000D01*
X212344000Y-120653686D01*
X212381423Y-120650000D01*
X213397426Y-120650000D01*
X213509378Y-120638974D01*
X213653015Y-120595402D01*
X213785392Y-120524645D01*
X213901422Y-120429422D01*
X213996645Y-120313392D01*
X214067402Y-120181015D01*
X214110974Y-120037378D01*
X214125686Y-119888000D01*
X214110974Y-119738622D01*
X214067402Y-119594985D01*
X213996645Y-119462608D01*
X213901422Y-119346578D01*
X213785392Y-119251355D01*
X213653015Y-119180598D01*
X213509378Y-119137026D01*
X213397426Y-119126000D01*
X212659631Y-119126000D01*
X206760351Y-113226721D01*
X206673392Y-113155355D01*
X206541015Y-113084599D01*
X206397378Y-113041027D01*
X206248000Y-113026314D01*
X206098622Y-113041027D01*
X205954985Y-113084599D01*
X205822608Y-113155355D01*
X205706579Y-113250579D01*
X205611355Y-113366608D01*
X205540599Y-113498985D01*
X205497027Y-113642622D01*
X205482314Y-113792000D01*
X106741630Y-113792000D01*
X109027631Y-111506000D01*
X117310577Y-111506000D01*
X117348000Y-111509686D01*
X117385423Y-111506000D01*
X117385426Y-111506000D01*
X117497378Y-111494974D01*
X117641015Y-111451402D01*
X117773392Y-111380645D01*
X117889422Y-111285422D01*
X117913284Y-111256346D01*
X135570631Y-93599000D01*
X135653523Y-93599000D01*
X135628188Y-93682518D01*
X135615928Y-93807000D01*
X135615928Y-94407000D01*
X135628188Y-94531482D01*
X135664498Y-94651180D01*
X135713043Y-94742000D01*
X135664498Y-94832820D01*
X135628188Y-94952518D01*
X135615928Y-95077000D01*
X135619000Y-95091250D01*
X135777750Y-95250000D01*
X137227000Y-95250000D01*
X137227000Y-95230000D01*
X137481000Y-95230000D01*
X137481000Y-95250000D01*
X137501000Y-95250000D01*
X137501000Y-95504000D01*
X137481000Y-95504000D01*
X137481000Y-95524000D01*
X137227000Y-95524000D01*
X137227000Y-95504000D01*
X135777750Y-95504000D01*
X135619000Y-95662750D01*
X135615928Y-95677000D01*
X135623906Y-95758000D01*
X134536660Y-95758000D01*
X134493000Y-95753700D01*
X134449340Y-95758000D01*
X134449333Y-95758000D01*
X134337387Y-95769026D01*
X134318725Y-95770864D01*
X134245758Y-95792998D01*
X134151149Y-95821697D01*
X133996709Y-95904247D01*
X133861341Y-96015341D01*
X133833505Y-96049259D01*
X133006263Y-96876501D01*
X132972341Y-96904341D01*
X132861247Y-97039710D01*
X132836890Y-97085279D01*
X132780285Y-97191180D01*
X132778697Y-97194150D01*
X132727864Y-97361727D01*
X132715000Y-97492334D01*
X132715000Y-97492340D01*
X132710700Y-97536000D01*
X132715000Y-97579660D01*
X132715001Y-99016326D01*
X132715000Y-99016333D01*
X132715000Y-99611666D01*
X132715001Y-99611676D01*
X132715000Y-103080340D01*
X132710700Y-103124000D01*
X132715000Y-103167660D01*
X132715000Y-103167666D01*
X132727864Y-103298273D01*
X132778697Y-103465850D01*
X132861247Y-103620290D01*
X132972341Y-103755659D01*
X133006264Y-103783499D01*
X134468506Y-105245741D01*
X134496341Y-105279659D01*
X134631709Y-105390753D01*
X134786149Y-105473303D01*
X134852058Y-105493296D01*
X134953724Y-105524136D01*
X134986924Y-105527406D01*
X135084333Y-105537000D01*
X135084339Y-105537000D01*
X135127999Y-105541300D01*
X135171659Y-105537000D01*
X139656333Y-105537000D01*
X139700000Y-105541301D01*
X139743667Y-105537000D01*
X161500340Y-105537000D01*
X161544000Y-105541300D01*
X161587660Y-105537000D01*
X161587667Y-105537000D01*
X161718274Y-105524136D01*
X161885851Y-105473303D01*
X162040291Y-105390753D01*
X162175659Y-105279659D01*
X162203499Y-105245736D01*
X165341235Y-102108000D01*
X188210314Y-102108000D01*
X188225026Y-102257378D01*
X188268598Y-102401015D01*
X188339355Y-102533392D01*
X188434578Y-102649422D01*
X188550608Y-102744645D01*
X188682985Y-102815402D01*
X188826622Y-102858974D01*
X188938574Y-102870000D01*
X213044370Y-102870000D01*
X216662000Y-106487631D01*
X216662001Y-113845292D01*
X216509241Y-113947363D01*
X216309363Y-114147241D01*
X216152320Y-114382273D01*
X216044147Y-114643426D01*
X215989000Y-114920665D01*
X215989000Y-115203335D01*
X216044147Y-115480574D01*
X216152320Y-115741727D01*
X216309363Y-115976759D01*
X216509241Y-116176637D01*
X216662000Y-116278707D01*
X216662001Y-123406567D01*
X216658314Y-123444000D01*
X216673027Y-123593378D01*
X216716599Y-123737015D01*
X216787355Y-123869392D01*
X216858721Y-123956351D01*
X216882579Y-123985422D01*
X216911649Y-124009279D01*
X218636716Y-125734346D01*
X218660578Y-125763422D01*
X218731956Y-125822000D01*
X218776607Y-125858645D01*
X218839308Y-125892159D01*
X218908985Y-125929402D01*
X219052622Y-125972974D01*
X219164574Y-125984000D01*
X219164577Y-125984000D01*
X219202000Y-125987686D01*
X219239423Y-125984000D01*
X225913441Y-125984000D01*
X225957844Y-126091199D01*
X226158662Y-126391744D01*
X226414256Y-126647338D01*
X226714801Y-126848156D01*
X227048750Y-126986482D01*
X227403268Y-127057000D01*
X227764732Y-127057000D01*
X228119250Y-126986482D01*
X228453199Y-126848156D01*
X228753744Y-126647338D01*
X229009338Y-126391744D01*
X229210156Y-126091199D01*
X229348482Y-125757250D01*
X229419000Y-125402732D01*
X229419000Y-125041268D01*
X229348482Y-124686750D01*
X229210156Y-124352801D01*
X229009338Y-124052256D01*
X228753744Y-123796662D01*
X228453199Y-123595844D01*
X228119250Y-123457518D01*
X227764732Y-123387000D01*
X227403268Y-123387000D01*
X227048750Y-123457518D01*
X226714801Y-123595844D01*
X226414256Y-123796662D01*
X226158662Y-124052256D01*
X225957844Y-124352801D01*
X225913441Y-124460000D01*
X219517630Y-124460000D01*
X218186000Y-123128370D01*
X218186000Y-116278707D01*
X218338759Y-116176637D01*
X218538637Y-115976759D01*
X218674000Y-115774173D01*
X218809363Y-115976759D01*
X219009241Y-116176637D01*
X219244273Y-116333680D01*
X219505426Y-116441853D01*
X219782665Y-116497000D01*
X220065335Y-116497000D01*
X220342574Y-116441853D01*
X220603727Y-116333680D01*
X220838759Y-116176637D01*
X221038637Y-115976759D01*
X221195680Y-115741727D01*
X221303853Y-115480574D01*
X221359000Y-115203335D01*
X221359000Y-114920665D01*
X221303853Y-114643426D01*
X221195680Y-114382273D01*
X221038637Y-114147241D01*
X220838759Y-113947363D01*
X220603727Y-113790320D01*
X220342574Y-113682147D01*
X220065335Y-113627000D01*
X219782665Y-113627000D01*
X219505426Y-113682147D01*
X219244273Y-113790320D01*
X219009241Y-113947363D01*
X218809363Y-114147241D01*
X218674000Y-114349827D01*
X218538637Y-114147241D01*
X218338759Y-113947363D01*
X218186000Y-113845293D01*
X218186000Y-106209423D01*
X218189686Y-106172000D01*
X218186000Y-106134574D01*
X218174974Y-106022622D01*
X218131402Y-105878985D01*
X218060646Y-105746609D01*
X218060645Y-105746607D01*
X217989279Y-105659648D01*
X217965422Y-105630578D01*
X217936353Y-105606722D01*
X216539130Y-104209499D01*
X261222106Y-104209499D01*
X261438228Y-104576258D01*
X261898105Y-104816938D01*
X262396098Y-104963275D01*
X262913071Y-105009648D01*
X263429159Y-104954273D01*
X263924526Y-104799279D01*
X264341772Y-104576258D01*
X264557894Y-104209499D01*
X262890000Y-102541605D01*
X261222106Y-104209499D01*
X216539130Y-104209499D01*
X214714702Y-102385071D01*
X260242352Y-102385071D01*
X260297727Y-102901159D01*
X260452721Y-103396526D01*
X260675742Y-103813772D01*
X261042501Y-104029894D01*
X262710395Y-102362000D01*
X263069605Y-102362000D01*
X264737499Y-104029894D01*
X265104258Y-103813772D01*
X265344938Y-103353895D01*
X265491275Y-102855902D01*
X265537648Y-102338929D01*
X265482273Y-101822841D01*
X265327279Y-101327474D01*
X265104258Y-100910228D01*
X264737499Y-100694106D01*
X263069605Y-102362000D01*
X262710395Y-102362000D01*
X261042501Y-100694106D01*
X260675742Y-100910228D01*
X260435062Y-101370105D01*
X260288725Y-101868098D01*
X260242352Y-102385071D01*
X214714702Y-102385071D01*
X213925284Y-101595654D01*
X213901422Y-101566578D01*
X213785392Y-101471355D01*
X213653015Y-101400598D01*
X213509378Y-101357026D01*
X213397426Y-101346000D01*
X213397423Y-101346000D01*
X213360000Y-101342314D01*
X213322577Y-101346000D01*
X188938574Y-101346000D01*
X188826622Y-101357026D01*
X188682985Y-101400598D01*
X188550608Y-101471355D01*
X188434578Y-101566578D01*
X188339355Y-101682608D01*
X188268598Y-101814985D01*
X188225026Y-101958622D01*
X188210314Y-102108000D01*
X165341235Y-102108000D01*
X166934734Y-100514501D01*
X261222106Y-100514501D01*
X262890000Y-102182395D01*
X264557894Y-100514501D01*
X264341772Y-100147742D01*
X263881895Y-99907062D01*
X263383902Y-99760725D01*
X262866929Y-99714352D01*
X262350841Y-99769727D01*
X261855474Y-99924721D01*
X261438228Y-100147742D01*
X261222106Y-100514501D01*
X166934734Y-100514501D01*
X175524533Y-91924702D01*
X187146903Y-91924702D01*
X187218486Y-92168671D01*
X187473996Y-92289571D01*
X187748184Y-92358300D01*
X188030512Y-92372217D01*
X188310130Y-92330787D01*
X188576292Y-92235603D01*
X188701514Y-92168671D01*
X188773097Y-91924702D01*
X187960000Y-91111605D01*
X187146903Y-91924702D01*
X175524533Y-91924702D01*
X176446723Y-91002512D01*
X186519783Y-91002512D01*
X186561213Y-91282130D01*
X186656397Y-91548292D01*
X186723329Y-91673514D01*
X186967298Y-91745097D01*
X187780395Y-90932000D01*
X188139605Y-90932000D01*
X188952702Y-91745097D01*
X189196671Y-91673514D01*
X189210324Y-91644659D01*
X189345363Y-91846759D01*
X189545241Y-92046637D01*
X189780273Y-92203680D01*
X190041426Y-92311853D01*
X190318665Y-92367000D01*
X190601335Y-92367000D01*
X190878574Y-92311853D01*
X191139727Y-92203680D01*
X191374759Y-92046637D01*
X191574637Y-91846759D01*
X191731680Y-91611727D01*
X191839853Y-91350574D01*
X191895000Y-91073335D01*
X191895000Y-90790665D01*
X191839853Y-90513426D01*
X191731680Y-90252273D01*
X191574637Y-90017241D01*
X191374759Y-89817363D01*
X191139727Y-89660320D01*
X190878574Y-89552147D01*
X190601335Y-89497000D01*
X190318665Y-89497000D01*
X190041426Y-89552147D01*
X189780273Y-89660320D01*
X189545241Y-89817363D01*
X189345363Y-90017241D01*
X189211308Y-90217869D01*
X189196671Y-90190486D01*
X188952702Y-90118903D01*
X188139605Y-90932000D01*
X187780395Y-90932000D01*
X186967298Y-90118903D01*
X186723329Y-90190486D01*
X186602429Y-90445996D01*
X186533700Y-90720184D01*
X186519783Y-91002512D01*
X176446723Y-91002512D01*
X177509937Y-89939298D01*
X187146903Y-89939298D01*
X187960000Y-90752395D01*
X188773097Y-89939298D01*
X188701514Y-89695329D01*
X188446004Y-89574429D01*
X188171816Y-89505700D01*
X187889488Y-89491783D01*
X187609870Y-89533213D01*
X187343708Y-89628397D01*
X187218486Y-89695329D01*
X187146903Y-89939298D01*
X177509937Y-89939298D01*
X188722000Y-78727236D01*
X191364506Y-81369742D01*
X191392341Y-81403659D01*
X191527709Y-81514753D01*
X191682149Y-81597303D01*
X191745790Y-81616608D01*
X191849724Y-81648136D01*
X191882924Y-81651406D01*
X191980333Y-81661000D01*
X191980339Y-81661000D01*
X192023999Y-81665300D01*
X192067659Y-81661000D01*
X260660132Y-81661000D01*
X260808893Y-82020141D01*
X261097262Y-82451715D01*
X261464285Y-82818738D01*
X261895859Y-83107107D01*
X262375399Y-83305739D01*
X262884475Y-83407000D01*
X263403525Y-83407000D01*
X263912601Y-83305739D01*
X264392141Y-83107107D01*
X264823715Y-82818738D01*
X265190738Y-82451715D01*
X265479107Y-82020141D01*
X265677739Y-81540601D01*
X265779000Y-81031525D01*
X265779000Y-80512475D01*
X265677739Y-80003399D01*
X265479107Y-79523859D01*
X265190738Y-79092285D01*
X264823715Y-78725262D01*
X264392141Y-78436893D01*
X263912601Y-78238261D01*
X263403525Y-78137000D01*
X262884475Y-78137000D01*
X262375399Y-78238261D01*
X261895859Y-78436893D01*
X261464285Y-78725262D01*
X261097262Y-79092285D01*
X260808893Y-79523859D01*
X260660132Y-79883000D01*
X192392236Y-79883000D01*
X189611000Y-77101765D01*
X189611000Y-59436000D01*
X193162700Y-59436000D01*
X193179864Y-59610274D01*
X193230698Y-59777852D01*
X193313248Y-59932291D01*
X193424341Y-60067659D01*
X193559709Y-60178752D01*
X193714148Y-60261302D01*
X193881726Y-60312136D01*
X194056000Y-60329300D01*
X194230274Y-60312136D01*
X194397852Y-60261302D01*
X194552291Y-60178752D01*
X194653740Y-60095495D01*
X197980235Y-56769000D01*
X219336412Y-56769000D01*
X219366264Y-56793499D01*
X223622506Y-61049742D01*
X223650341Y-61083659D01*
X223785709Y-61194753D01*
X223940149Y-61277303D01*
X224006058Y-61297296D01*
X224107724Y-61328136D01*
X224140924Y-61331406D01*
X224238333Y-61341000D01*
X224238339Y-61341000D01*
X224281999Y-61345300D01*
X224325659Y-61341000D01*
X261930132Y-61341000D01*
X262078893Y-61700141D01*
X262367262Y-62131715D01*
X262734285Y-62498738D01*
X263165859Y-62787107D01*
X263645399Y-62985739D01*
X264154475Y-63087000D01*
X264673525Y-63087000D01*
X265182601Y-62985739D01*
X265662141Y-62787107D01*
X266093715Y-62498738D01*
X266460738Y-62131715D01*
X266749107Y-61700141D01*
X266947739Y-61220601D01*
X267049000Y-60711525D01*
X267049000Y-60192475D01*
X266947739Y-59683399D01*
X266749107Y-59203859D01*
X266460738Y-58772285D01*
X266093715Y-58405262D01*
X265662141Y-58116893D01*
X265182601Y-57918261D01*
X264673525Y-57817000D01*
X264154475Y-57817000D01*
X263645399Y-57918261D01*
X263165859Y-58116893D01*
X262734285Y-58405262D01*
X262367262Y-58772285D01*
X262078893Y-59203859D01*
X261930132Y-59563000D01*
X224650236Y-59563000D01*
X220853000Y-55765765D01*
X220853000Y-48917545D01*
X220918494Y-48882537D01*
X220935681Y-48868432D01*
X221062516Y-48926237D01*
X221299313Y-48982000D01*
X221542438Y-48990495D01*
X221782549Y-48951395D01*
X222010418Y-48866202D01*
X222086852Y-48825348D01*
X222134159Y-48601764D01*
X221464000Y-47931605D01*
X221449858Y-47945748D01*
X221270253Y-47766143D01*
X221284395Y-47752000D01*
X221643605Y-47752000D01*
X222313764Y-48422159D01*
X222537348Y-48374852D01*
X222638237Y-48153484D01*
X222694000Y-47916687D01*
X222702495Y-47673562D01*
X222663395Y-47433451D01*
X222578202Y-47205582D01*
X222537348Y-47129148D01*
X222313764Y-47081841D01*
X221643605Y-47752000D01*
X221284395Y-47752000D01*
X221270253Y-47737858D01*
X221449858Y-47558253D01*
X221464000Y-47572395D01*
X222134159Y-46902236D01*
X222086852Y-46678652D01*
X221865484Y-46577763D01*
X221628687Y-46522000D01*
X221385562Y-46513505D01*
X221145451Y-46552605D01*
X220931883Y-46632451D01*
X220918494Y-46621463D01*
X220808180Y-46562498D01*
X220688482Y-46526188D01*
X220564000Y-46513928D01*
X219364000Y-46513928D01*
X219239518Y-46526188D01*
X219119820Y-46562498D01*
X219009506Y-46621463D01*
X218912815Y-46700815D01*
X218833463Y-46797506D01*
X218774498Y-46907820D01*
X218738188Y-47027518D01*
X218725928Y-47152000D01*
X218725928Y-48352000D01*
X218738188Y-48476482D01*
X218774498Y-48596180D01*
X218833463Y-48706494D01*
X218912815Y-48803185D01*
X219009506Y-48882537D01*
X219075001Y-48917545D01*
X219075000Y-54991000D01*
X197655659Y-54991000D01*
X197611999Y-54986700D01*
X197568339Y-54991000D01*
X197568333Y-54991000D01*
X197470924Y-55000594D01*
X197437724Y-55003864D01*
X197336058Y-55034704D01*
X197270149Y-55054697D01*
X197115709Y-55137247D01*
X196980341Y-55248341D01*
X196952501Y-55282264D01*
X193396505Y-58838260D01*
X193313248Y-58939709D01*
X193230698Y-59094148D01*
X193179864Y-59261726D01*
X193162700Y-59436000D01*
X189611000Y-59436000D01*
X189611000Y-48663545D01*
X189676494Y-48628537D01*
X189693681Y-48614432D01*
X189820516Y-48672237D01*
X190057313Y-48728000D01*
X190300438Y-48736495D01*
X190540549Y-48697395D01*
X190768418Y-48612202D01*
X190844852Y-48571348D01*
X190892159Y-48347764D01*
X190222000Y-47677605D01*
X190207858Y-47691748D01*
X190028253Y-47512143D01*
X190042395Y-47498000D01*
X190401605Y-47498000D01*
X191071764Y-48168159D01*
X191295348Y-48120852D01*
X191396237Y-47899484D01*
X191452000Y-47662687D01*
X191460495Y-47419562D01*
X191421395Y-47179451D01*
X191411132Y-47152000D01*
X203763928Y-47152000D01*
X203763928Y-48352000D01*
X203776188Y-48476482D01*
X203812498Y-48596180D01*
X203835001Y-48638279D01*
X203835000Y-53383666D01*
X203847864Y-53514273D01*
X203898697Y-53681850D01*
X203981247Y-53836290D01*
X204092341Y-53971659D01*
X204227709Y-54082753D01*
X204382149Y-54165303D01*
X204549726Y-54216136D01*
X204724000Y-54233301D01*
X204898273Y-54216136D01*
X205065850Y-54165303D01*
X205220290Y-54082753D01*
X205355659Y-53971659D01*
X205466753Y-53836291D01*
X205549303Y-53681851D01*
X205600136Y-53514274D01*
X205613000Y-53383667D01*
X205613000Y-48988989D01*
X205726482Y-48977812D01*
X205846180Y-48941502D01*
X205956494Y-48882537D01*
X205973681Y-48868432D01*
X206100516Y-48926237D01*
X206337313Y-48982000D01*
X206580438Y-48990495D01*
X206820549Y-48951395D01*
X207048418Y-48866202D01*
X207124852Y-48825348D01*
X207172159Y-48601764D01*
X206502000Y-47931605D01*
X206487858Y-47945748D01*
X206308253Y-47766143D01*
X206322395Y-47752000D01*
X206681605Y-47752000D01*
X207351764Y-48422159D01*
X207575348Y-48374852D01*
X207676237Y-48153484D01*
X207732000Y-47916687D01*
X207740495Y-47673562D01*
X207701395Y-47433451D01*
X207616202Y-47205582D01*
X207575348Y-47129148D01*
X207351764Y-47081841D01*
X206681605Y-47752000D01*
X206322395Y-47752000D01*
X206308253Y-47737858D01*
X206487858Y-47558253D01*
X206502000Y-47572395D01*
X207172159Y-46902236D01*
X207124852Y-46678652D01*
X206903484Y-46577763D01*
X206666687Y-46522000D01*
X206423562Y-46513505D01*
X206183451Y-46552605D01*
X205969883Y-46632451D01*
X205956494Y-46621463D01*
X205891000Y-46586455D01*
X205891000Y-38698235D01*
X208140236Y-36449000D01*
X258203765Y-36449000D01*
X262029022Y-40274258D01*
X261880261Y-40633399D01*
X261779000Y-41142475D01*
X261779000Y-41661525D01*
X261880261Y-42170601D01*
X262078893Y-42650141D01*
X262367262Y-43081715D01*
X262734285Y-43448738D01*
X263165859Y-43737107D01*
X263645399Y-43935739D01*
X264154475Y-44037000D01*
X264673525Y-44037000D01*
X265182601Y-43935739D01*
X265662141Y-43737107D01*
X266093715Y-43448738D01*
X266460738Y-43081715D01*
X266749107Y-42650141D01*
X266947739Y-42170601D01*
X267049000Y-41661525D01*
X267049000Y-41142475D01*
X266947739Y-40633399D01*
X266749107Y-40153859D01*
X266460738Y-39722285D01*
X266093715Y-39355262D01*
X265662141Y-39066893D01*
X265182601Y-38868261D01*
X264673525Y-38767000D01*
X264154475Y-38767000D01*
X263645399Y-38868261D01*
X263286258Y-39017022D01*
X259231499Y-34962264D01*
X259203659Y-34928341D01*
X259068291Y-34817247D01*
X258913851Y-34734697D01*
X258746274Y-34683864D01*
X258615667Y-34671000D01*
X258615660Y-34671000D01*
X258572000Y-34666700D01*
X258528340Y-34671000D01*
X207815668Y-34671000D01*
X207772000Y-34666699D01*
X207597725Y-34683864D01*
X207546892Y-34699284D01*
X207430149Y-34734697D01*
X207275709Y-34817247D01*
X207140341Y-34928341D01*
X207112506Y-34962258D01*
X204404264Y-37670501D01*
X204370341Y-37698341D01*
X204259247Y-37833710D01*
X204176697Y-37988150D01*
X204125864Y-38155727D01*
X204113000Y-38286334D01*
X204113000Y-38286340D01*
X204108700Y-38330000D01*
X204113000Y-38373660D01*
X204113001Y-46586455D01*
X204047506Y-46621463D01*
X203950815Y-46700815D01*
X203871463Y-46797506D01*
X203812498Y-46907820D01*
X203776188Y-47027518D01*
X203763928Y-47152000D01*
X191411132Y-47152000D01*
X191336202Y-46951582D01*
X191295348Y-46875148D01*
X191071764Y-46827841D01*
X190401605Y-47498000D01*
X190042395Y-47498000D01*
X190028253Y-47483858D01*
X190207858Y-47304253D01*
X190222000Y-47318395D01*
X190892159Y-46648236D01*
X190844852Y-46424652D01*
X190623484Y-46323763D01*
X190386687Y-46268000D01*
X190143562Y-46259505D01*
X189903451Y-46298605D01*
X189689883Y-46378451D01*
X189676494Y-46367463D01*
X189566180Y-46308498D01*
X189484000Y-46283569D01*
X189484000Y-34835423D01*
X189487686Y-34798000D01*
X189484000Y-34760574D01*
X189472974Y-34648622D01*
X189429402Y-34504985D01*
X189394334Y-34439378D01*
X189358645Y-34372607D01*
X189323857Y-34330219D01*
X189263422Y-34256578D01*
X189234346Y-34232716D01*
X184461284Y-29459654D01*
X184437422Y-29430578D01*
X184321392Y-29335355D01*
X184189015Y-29264598D01*
X184045378Y-29221026D01*
X183933426Y-29210000D01*
X183933423Y-29210000D01*
X183896000Y-29206314D01*
X183858577Y-29210000D01*
X48805422Y-29210000D01*
X48767999Y-29206314D01*
X48730576Y-29210000D01*
X48730574Y-29210000D01*
X48618622Y-29221026D01*
X48474985Y-29264598D01*
X48342608Y-29335355D01*
X48226578Y-29430578D01*
X48202721Y-29459648D01*
X43937654Y-33724716D01*
X43908578Y-33748578D01*
X43852983Y-33816322D01*
X43813355Y-33864608D01*
X43775535Y-33935365D01*
X43742598Y-33996986D01*
X43699026Y-34140623D01*
X43688000Y-34252574D01*
X43684314Y-34290000D01*
X43688000Y-34327423D01*
X43688001Y-66486368D01*
X41848370Y-68326000D01*
X33565422Y-68326000D01*
X33527999Y-68322314D01*
X33490576Y-68326000D01*
X33490574Y-68326000D01*
X33378622Y-68337026D01*
X33234985Y-68380598D01*
X33102608Y-68451355D01*
X32986578Y-68546578D01*
X32962721Y-68575648D01*
X28443654Y-73094716D01*
X28414578Y-73118578D01*
X28358983Y-73186322D01*
X28319355Y-73234608D01*
X28281535Y-73305365D01*
X28248598Y-73366986D01*
X28205026Y-73510623D01*
X28194000Y-73622574D01*
X28190314Y-73660000D01*
X16916000Y-73660000D01*
X16916000Y-16408000D01*
X280772001Y-16408000D01*
X280772000Y-177140000D01*
G37*
%TD.AperFunction*%
D20*
X187960001Y-35113631D02*
X187960000Y-46283569D01*
X187877820Y-46308498D01*
X187767506Y-46367463D01*
X187670815Y-46446815D01*
X187591463Y-46543506D01*
X187532498Y-46653820D01*
X187496188Y-46773518D01*
X187483928Y-46898000D01*
X187483928Y-48098000D01*
X187496188Y-48222482D01*
X187532498Y-48342180D01*
X187591463Y-48452494D01*
X187670815Y-48549185D01*
X187767506Y-48628537D01*
X187833001Y-48663545D01*
X187833000Y-77101764D01*
X161175765Y-103759000D01*
X140589000Y-103759000D01*
X140589000Y-95039660D01*
X140593300Y-94996000D01*
X140589000Y-94952340D01*
X140589000Y-94952333D01*
X140576136Y-94821726D01*
X140525303Y-94654149D01*
X140442753Y-94499709D01*
X140392871Y-94438928D01*
X140359495Y-94398259D01*
X140359494Y-94398258D01*
X140331659Y-94364341D01*
X140297741Y-94336505D01*
X139470499Y-93509263D01*
X139442659Y-93475341D01*
X139307291Y-93364247D01*
X139152851Y-93281697D01*
X139079998Y-93259598D01*
X139092072Y-93137000D01*
X140815928Y-93137000D01*
X140828188Y-93261482D01*
X140864498Y-93381180D01*
X140913043Y-93472000D01*
X140864498Y-93562820D01*
X140828188Y-93682518D01*
X140815928Y-93807000D01*
X140815928Y-94407000D01*
X140828188Y-94531482D01*
X140864498Y-94651180D01*
X140913043Y-94742000D01*
X140864498Y-94832820D01*
X140828188Y-94952518D01*
X140815928Y-95077000D01*
X140815928Y-95677000D01*
X140828188Y-95801482D01*
X140864498Y-95921180D01*
X140913043Y-96012000D01*
X140864498Y-96102820D01*
X140828188Y-96222518D01*
X140815928Y-96347000D01*
X140815928Y-96947000D01*
X140828188Y-97071482D01*
X140864498Y-97191180D01*
X140913043Y-97282000D01*
X140864498Y-97372820D01*
X140828188Y-97492518D01*
X140815928Y-97617000D01*
X140815928Y-98217000D01*
X140828188Y-98341482D01*
X140864498Y-98461180D01*
X140923463Y-98571494D01*
X141002815Y-98668185D01*
X141099506Y-98747537D01*
X141209820Y-98806502D01*
X141329518Y-98842812D01*
X141454000Y-98855072D01*
X143654000Y-98855072D01*
X143778482Y-98842812D01*
X143898180Y-98806502D01*
X144008494Y-98747537D01*
X144105185Y-98668185D01*
X144184537Y-98571494D01*
X144243502Y-98461180D01*
X144279812Y-98341482D01*
X144292072Y-98217000D01*
X144292072Y-97617000D01*
X144279812Y-97492518D01*
X144243502Y-97372820D01*
X144194957Y-97282000D01*
X144243502Y-97191180D01*
X144279812Y-97071482D01*
X144292072Y-96947000D01*
X144292072Y-96347000D01*
X144279812Y-96222518D01*
X144243502Y-96102820D01*
X144194957Y-96012000D01*
X144243502Y-95921180D01*
X144279812Y-95801482D01*
X144292072Y-95677000D01*
X144292072Y-95077000D01*
X144279812Y-94952518D01*
X144254477Y-94869000D01*
X167683667Y-94869000D01*
X167814274Y-94856136D01*
X167981851Y-94805303D01*
X168136291Y-94722753D01*
X168271659Y-94611659D01*
X168382753Y-94476291D01*
X168465303Y-94321851D01*
X168516136Y-94154274D01*
X168533301Y-93980000D01*
X168516136Y-93805726D01*
X168465303Y-93638149D01*
X168382753Y-93483709D01*
X168271659Y-93348341D01*
X168136291Y-93237247D01*
X167981851Y-93154697D01*
X167814274Y-93103864D01*
X167683667Y-93091000D01*
X144257250Y-93091000D01*
X144130250Y-92964000D01*
X142681000Y-92964000D01*
X142681000Y-92984000D01*
X142427000Y-92984000D01*
X142427000Y-92964000D01*
X140977750Y-92964000D01*
X140819000Y-93122750D01*
X140815928Y-93137000D01*
X139092072Y-93137000D01*
X139092072Y-92537000D01*
X139079812Y-92412518D01*
X139076731Y-92402361D01*
X139134716Y-92460346D01*
X139158578Y-92489422D01*
X139274608Y-92584645D01*
X139406985Y-92655402D01*
X139550622Y-92698974D01*
X139662574Y-92710000D01*
X139662576Y-92710000D01*
X139699999Y-92713686D01*
X139737422Y-92710000D01*
X139737426Y-92710000D01*
X139849378Y-92698974D01*
X139993015Y-92655402D01*
X140125392Y-92584645D01*
X140241422Y-92489422D01*
X140336645Y-92373392D01*
X140407402Y-92241015D01*
X140450974Y-92097378D01*
X140465686Y-91948000D01*
X140450974Y-91798622D01*
X140407402Y-91654985D01*
X140336645Y-91522608D01*
X140241422Y-91406578D01*
X140212346Y-91382716D01*
X139884284Y-91054654D01*
X139860422Y-91025578D01*
X139744392Y-90930355D01*
X139612015Y-90859598D01*
X139468378Y-90816026D01*
X139356426Y-90805000D01*
X139356423Y-90805000D01*
X139319000Y-90801314D01*
X139281577Y-90805000D01*
X139054477Y-90805000D01*
X139079812Y-90721482D01*
X139092072Y-90597000D01*
X140815928Y-90597000D01*
X140828188Y-90721482D01*
X140864498Y-90841180D01*
X140913043Y-90932000D01*
X140864498Y-91022820D01*
X140828188Y-91142518D01*
X140815928Y-91267000D01*
X140815928Y-91867000D01*
X140828188Y-91991482D01*
X140864498Y-92111180D01*
X140913043Y-92202000D01*
X140864498Y-92292820D01*
X140828188Y-92412518D01*
X140815928Y-92537000D01*
X140819000Y-92551250D01*
X140977750Y-92710000D01*
X142427000Y-92710000D01*
X142427000Y-92690000D01*
X142681000Y-92690000D01*
X142681000Y-92710000D01*
X144130250Y-92710000D01*
X144289000Y-92551250D01*
X144292072Y-92537000D01*
X144284094Y-92456000D01*
X169465721Y-92456000D01*
X169584148Y-92519302D01*
X169751725Y-92570136D01*
X169925999Y-92587300D01*
X170100274Y-92570136D01*
X170267852Y-92519302D01*
X170422291Y-92436751D01*
X170557659Y-92325659D01*
X170668751Y-92190291D01*
X170751302Y-92035852D01*
X170802136Y-91868274D01*
X170819300Y-91693999D01*
X170802136Y-91519725D01*
X170751302Y-91352148D01*
X170668751Y-91197709D01*
X170585495Y-91096260D01*
X170458499Y-90969264D01*
X170430659Y-90935341D01*
X170295291Y-90824247D01*
X170140851Y-90741697D01*
X169973274Y-90690864D01*
X169842667Y-90678000D01*
X169842660Y-90678000D01*
X169799000Y-90673700D01*
X169755340Y-90678000D01*
X144284094Y-90678000D01*
X144292072Y-90597000D01*
X144289000Y-90582750D01*
X144130250Y-90424000D01*
X142681000Y-90424000D01*
X142681000Y-90444000D01*
X142427000Y-90444000D01*
X142427000Y-90424000D01*
X140977750Y-90424000D01*
X140819000Y-90582750D01*
X140815928Y-90597000D01*
X139092072Y-90597000D01*
X139092072Y-89997000D01*
X139079812Y-89872518D01*
X139043502Y-89752820D01*
X138994957Y-89662000D01*
X139043502Y-89571180D01*
X139079812Y-89451482D01*
X139092072Y-89327000D01*
X140815928Y-89327000D01*
X140828188Y-89451482D01*
X140864498Y-89571180D01*
X140913043Y-89662000D01*
X140864498Y-89752820D01*
X140828188Y-89872518D01*
X140815928Y-89997000D01*
X140819000Y-90011250D01*
X140977750Y-90170000D01*
X142427000Y-90170000D01*
X142427000Y-89154000D01*
X142681000Y-89154000D01*
X142681000Y-90170000D01*
X144130250Y-90170000D01*
X144289000Y-90011250D01*
X144292072Y-89997000D01*
X144279812Y-89872518D01*
X144243502Y-89752820D01*
X144194957Y-89662000D01*
X144243502Y-89571180D01*
X144279812Y-89451482D01*
X144292072Y-89327000D01*
X144289000Y-89312750D01*
X144130250Y-89154000D01*
X142681000Y-89154000D01*
X142427000Y-89154000D01*
X140977750Y-89154000D01*
X140819000Y-89312750D01*
X140815928Y-89327000D01*
X139092072Y-89327000D01*
X139092072Y-88727000D01*
X139079812Y-88602518D01*
X139043502Y-88482820D01*
X138994957Y-88392000D01*
X139043502Y-88301180D01*
X139079812Y-88181482D01*
X139092072Y-88057000D01*
X140815928Y-88057000D01*
X140828188Y-88181482D01*
X140864498Y-88301180D01*
X140913043Y-88392000D01*
X140864498Y-88482820D01*
X140828188Y-88602518D01*
X140815928Y-88727000D01*
X140819000Y-88741250D01*
X140977750Y-88900000D01*
X142427000Y-88900000D01*
X142427000Y-87884000D01*
X142681000Y-87884000D01*
X142681000Y-88900000D01*
X144130250Y-88900000D01*
X144289000Y-88741250D01*
X144292072Y-88727000D01*
X144279812Y-88602518D01*
X144243502Y-88482820D01*
X144194957Y-88392000D01*
X144243502Y-88301180D01*
X144279812Y-88181482D01*
X144292072Y-88057000D01*
X144289000Y-88042750D01*
X144130250Y-87884000D01*
X142681000Y-87884000D01*
X142427000Y-87884000D01*
X140977750Y-87884000D01*
X140819000Y-88042750D01*
X140815928Y-88057000D01*
X139092072Y-88057000D01*
X139092072Y-87457000D01*
X139079812Y-87332518D01*
X139043502Y-87212820D01*
X138994957Y-87122000D01*
X139043502Y-87031180D01*
X139079812Y-86911482D01*
X139092072Y-86787000D01*
X140815928Y-86787000D01*
X140828188Y-86911482D01*
X140864498Y-87031180D01*
X140913043Y-87122000D01*
X140864498Y-87212820D01*
X140828188Y-87332518D01*
X140815928Y-87457000D01*
X140819000Y-87471250D01*
X140977750Y-87630000D01*
X142427000Y-87630000D01*
X142427000Y-86614000D01*
X142681000Y-86614000D01*
X142681000Y-87630000D01*
X144130250Y-87630000D01*
X144289000Y-87471250D01*
X144292072Y-87457000D01*
X144279812Y-87332518D01*
X144243502Y-87212820D01*
X144194957Y-87122000D01*
X144243502Y-87031180D01*
X144279812Y-86911482D01*
X144292072Y-86787000D01*
X144289000Y-86772750D01*
X144130250Y-86614000D01*
X142681000Y-86614000D01*
X142427000Y-86614000D01*
X140977750Y-86614000D01*
X140819000Y-86772750D01*
X140815928Y-86787000D01*
X139092072Y-86787000D01*
X139092072Y-86187000D01*
X139079812Y-86062518D01*
X139043502Y-85942820D01*
X138994957Y-85852000D01*
X139043502Y-85761180D01*
X139079812Y-85641482D01*
X139092072Y-85517000D01*
X140815928Y-85517000D01*
X140828188Y-85641482D01*
X140864498Y-85761180D01*
X140913043Y-85852000D01*
X140864498Y-85942820D01*
X140828188Y-86062518D01*
X140815928Y-86187000D01*
X140819000Y-86201250D01*
X140977750Y-86360000D01*
X142427000Y-86360000D01*
X142427000Y-85344000D01*
X142681000Y-85344000D01*
X142681000Y-86360000D01*
X144130250Y-86360000D01*
X144289000Y-86201250D01*
X144292072Y-86187000D01*
X144279812Y-86062518D01*
X144243502Y-85942820D01*
X144194957Y-85852000D01*
X144243502Y-85761180D01*
X144279812Y-85641482D01*
X144292072Y-85517000D01*
X144289000Y-85502750D01*
X144130250Y-85344000D01*
X142681000Y-85344000D01*
X142427000Y-85344000D01*
X140977750Y-85344000D01*
X140819000Y-85502750D01*
X140815928Y-85517000D01*
X139092072Y-85517000D01*
X139092072Y-84917000D01*
X139079812Y-84792518D01*
X139043502Y-84672820D01*
X138994957Y-84582000D01*
X139043502Y-84491180D01*
X139079812Y-84371482D01*
X139092072Y-84247000D01*
X139092072Y-83647000D01*
X140815928Y-83647000D01*
X140815928Y-84247000D01*
X140828188Y-84371482D01*
X140864498Y-84491180D01*
X140913043Y-84582000D01*
X140864498Y-84672820D01*
X140828188Y-84792518D01*
X140815928Y-84917000D01*
X140819000Y-84931250D01*
X140977750Y-85090000D01*
X142427000Y-85090000D01*
X142427000Y-85070000D01*
X142681000Y-85070000D01*
X142681000Y-85090000D01*
X144130250Y-85090000D01*
X144289000Y-84931250D01*
X144292072Y-84917000D01*
X144279812Y-84792518D01*
X144254477Y-84709000D01*
X148655370Y-84709000D01*
X149855648Y-85909279D01*
X149942607Y-85980644D01*
X150074983Y-86051401D01*
X150218621Y-86094973D01*
X150367999Y-86109686D01*
X150517378Y-86094973D01*
X150661015Y-86051401D01*
X150793392Y-85980644D01*
X150909421Y-85885421D01*
X151004644Y-85769392D01*
X151075401Y-85637015D01*
X151118973Y-85493378D01*
X151133686Y-85343999D01*
X151118973Y-85194621D01*
X151075401Y-85050983D01*
X151004644Y-84918607D01*
X150933279Y-84831648D01*
X149536284Y-83434654D01*
X149512422Y-83405578D01*
X149396392Y-83310355D01*
X149264015Y-83239598D01*
X149120378Y-83196026D01*
X149008426Y-83185000D01*
X149008423Y-83185000D01*
X148971000Y-83181314D01*
X148933577Y-83185000D01*
X144092007Y-83185000D01*
X144008494Y-83116463D01*
X143898180Y-83057498D01*
X143778482Y-83021188D01*
X143654000Y-83008928D01*
X141454000Y-83008928D01*
X141329518Y-83021188D01*
X141209820Y-83057498D01*
X141099506Y-83116463D01*
X141002815Y-83195815D01*
X140923463Y-83292506D01*
X140864498Y-83402820D01*
X140828188Y-83522518D01*
X140815928Y-83647000D01*
X139092072Y-83647000D01*
X139079812Y-83522518D01*
X139043502Y-83402820D01*
X138984537Y-83292506D01*
X138905185Y-83195815D01*
X138808494Y-83116463D01*
X138698180Y-83057498D01*
X138578482Y-83021188D01*
X138454000Y-83008928D01*
X138116000Y-83008928D01*
X138116000Y-49700116D01*
X138408141Y-49579107D01*
X138839715Y-49290738D01*
X139206738Y-48923715D01*
X139495107Y-48492141D01*
X139693739Y-48012601D01*
X139795000Y-47503525D01*
X139795000Y-46984475D01*
X139693739Y-46475399D01*
X139495107Y-45995859D01*
X139206738Y-45564285D01*
X138839715Y-45197262D01*
X138408141Y-44908893D01*
X137928601Y-44710261D01*
X137419525Y-44609000D01*
X136900475Y-44609000D01*
X136391399Y-44710261D01*
X135911859Y-44908893D01*
X135480285Y-45197262D01*
X135113262Y-45564285D01*
X134824893Y-45995859D01*
X134626261Y-46475399D01*
X134525000Y-46984475D01*
X134525000Y-47503525D01*
X134626261Y-48012601D01*
X134824893Y-48492141D01*
X135113262Y-48923715D01*
X135480285Y-49290738D01*
X135911859Y-49579107D01*
X136391399Y-49777739D01*
X136592001Y-49817641D01*
X136592000Y-83008928D01*
X136254000Y-83008928D01*
X136129518Y-83021188D01*
X136009820Y-83057498D01*
X135899506Y-83116463D01*
X135802815Y-83195815D01*
X135723463Y-83292506D01*
X135664498Y-83402820D01*
X135628188Y-83522518D01*
X135615928Y-83647000D01*
X135615928Y-84247000D01*
X135628188Y-84371482D01*
X135664498Y-84491180D01*
X135713043Y-84582000D01*
X135664498Y-84672820D01*
X135628188Y-84792518D01*
X135615928Y-84917000D01*
X135615928Y-85517000D01*
X135628188Y-85641482D01*
X135664498Y-85761180D01*
X135713043Y-85852000D01*
X135664498Y-85942820D01*
X135628188Y-86062518D01*
X135615928Y-86187000D01*
X135615928Y-86295298D01*
X131318000Y-81997370D01*
X131318000Y-79793415D01*
X131321685Y-79755999D01*
X131318000Y-79718583D01*
X131318000Y-79718574D01*
X131306974Y-79606622D01*
X131263402Y-79462985D01*
X131192645Y-79330608D01*
X131097422Y-79214578D01*
X131068353Y-79190722D01*
X118167284Y-66289654D01*
X118143422Y-66260578D01*
X118027392Y-66165355D01*
X117895015Y-66094598D01*
X117751378Y-66051026D01*
X117639426Y-66040000D01*
X117639423Y-66040000D01*
X117602000Y-66036314D01*
X117564577Y-66040000D01*
X100984559Y-66040000D01*
X100940156Y-65932801D01*
X100739338Y-65632256D01*
X100483744Y-65376662D01*
X100183199Y-65175844D01*
X99849250Y-65037518D01*
X99494732Y-64967000D01*
X99133268Y-64967000D01*
X98778750Y-65037518D01*
X98444801Y-65175844D01*
X98144256Y-65376662D01*
X97888662Y-65632256D01*
X97687844Y-65932801D01*
X97549518Y-66266750D01*
X97479000Y-66621268D01*
X97479000Y-66982732D01*
X97549518Y-67337250D01*
X97687844Y-67671199D01*
X97888662Y-67971744D01*
X98144256Y-68227338D01*
X98444801Y-68428156D01*
X98778750Y-68566482D01*
X99133268Y-68637000D01*
X99494732Y-68637000D01*
X99849250Y-68566482D01*
X100183199Y-68428156D01*
X100483744Y-68227338D01*
X100739338Y-67971744D01*
X100940156Y-67671199D01*
X100984559Y-67564000D01*
X117286370Y-67564000D01*
X129794000Y-80071631D01*
X129794001Y-82275567D01*
X129790314Y-82313000D01*
X129805027Y-82462378D01*
X129848599Y-82606015D01*
X129919355Y-82738392D01*
X129964150Y-82792974D01*
X130014579Y-82854422D01*
X130043649Y-82878279D01*
X135430370Y-88265000D01*
X101534631Y-88265000D01*
X99822000Y-86552370D01*
X99822000Y-79793422D01*
X99825686Y-79755999D01*
X99822000Y-79718574D01*
X99810974Y-79606622D01*
X99767402Y-79462985D01*
X99696645Y-79330608D01*
X99601422Y-79214578D01*
X99572353Y-79190722D01*
X97085284Y-76703654D01*
X97061422Y-76674578D01*
X96945392Y-76579355D01*
X96813015Y-76508598D01*
X96669378Y-76465026D01*
X96557426Y-76454000D01*
X96557423Y-76454000D01*
X96520000Y-76450314D01*
X96482577Y-76454000D01*
X81317423Y-76454000D01*
X81280000Y-76450314D01*
X81242577Y-76454000D01*
X81242574Y-76454000D01*
X81130622Y-76465026D01*
X80986985Y-76508598D01*
X80925364Y-76541535D01*
X80854607Y-76579355D01*
X80774987Y-76644698D01*
X80738578Y-76674578D01*
X80714721Y-76703649D01*
X79751649Y-77666721D01*
X79722579Y-77690578D01*
X79698722Y-77719648D01*
X79698721Y-77719649D01*
X79627355Y-77806608D01*
X79556599Y-77938985D01*
X79513027Y-78082622D01*
X79498314Y-78232000D01*
X79502001Y-78269433D01*
X79502000Y-80603928D01*
X79464000Y-80603928D01*
X79339518Y-80616188D01*
X79219820Y-80652498D01*
X79109506Y-80711463D01*
X79012815Y-80790815D01*
X78933463Y-80887506D01*
X78874498Y-80997820D01*
X78838188Y-81117518D01*
X78825928Y-81242000D01*
X78825928Y-82842000D01*
X78838188Y-82966482D01*
X78874498Y-83086180D01*
X78933463Y-83196494D01*
X79012815Y-83293185D01*
X79109506Y-83372537D01*
X79219820Y-83431502D01*
X79339518Y-83467812D01*
X79347961Y-83468643D01*
X79149363Y-83667241D01*
X78992320Y-83902273D01*
X78921188Y-84074000D01*
X65593630Y-84074000D01*
X64204079Y-82684449D01*
X64248482Y-82577250D01*
X64319000Y-82222732D01*
X64319000Y-81861268D01*
X64248482Y-81506750D01*
X64110156Y-81172801D01*
X63909338Y-80872256D01*
X63653744Y-80616662D01*
X63353199Y-80415844D01*
X63019250Y-80277518D01*
X62664732Y-80207000D01*
X62303268Y-80207000D01*
X61948750Y-80277518D01*
X61614801Y-80415844D01*
X61314256Y-80616662D01*
X61058662Y-80872256D01*
X60857844Y-81172801D01*
X60719518Y-81506750D01*
X60649000Y-81861268D01*
X60649000Y-82222732D01*
X60719518Y-82577250D01*
X60857844Y-82911199D01*
X61058662Y-83211744D01*
X61314256Y-83467338D01*
X61614801Y-83668156D01*
X61948750Y-83806482D01*
X62303268Y-83877000D01*
X62664732Y-83877000D01*
X63019250Y-83806482D01*
X63126449Y-83762079D01*
X64712716Y-85348346D01*
X64736578Y-85377422D01*
X64810219Y-85437857D01*
X64852607Y-85472645D01*
X64897722Y-85496759D01*
X64984985Y-85543402D01*
X65128622Y-85586974D01*
X65240574Y-85598000D01*
X65240577Y-85598000D01*
X65278000Y-85601686D01*
X65315423Y-85598000D01*
X79250604Y-85598000D01*
X79349241Y-85696637D01*
X79581759Y-85852000D01*
X79349241Y-86007363D01*
X79149363Y-86207241D01*
X78992320Y-86442273D01*
X78884147Y-86703426D01*
X78829000Y-86980665D01*
X78829000Y-87263335D01*
X78884147Y-87540574D01*
X78992320Y-87801727D01*
X79149363Y-88036759D01*
X79349241Y-88236637D01*
X79581759Y-88392000D01*
X79349241Y-88547363D01*
X79149363Y-88747241D01*
X78992320Y-88982273D01*
X78884147Y-89243426D01*
X78829000Y-89520665D01*
X78829000Y-89803335D01*
X78884147Y-90080574D01*
X78992320Y-90341727D01*
X79149363Y-90576759D01*
X79349241Y-90776637D01*
X79584273Y-90933680D01*
X79845426Y-91041853D01*
X80122665Y-91097000D01*
X80405335Y-91097000D01*
X80682574Y-91041853D01*
X80943727Y-90933680D01*
X81178759Y-90776637D01*
X81378637Y-90576759D01*
X81535680Y-90341727D01*
X81643853Y-90080574D01*
X81699000Y-89803335D01*
X81699000Y-89520665D01*
X81643853Y-89243426D01*
X81535680Y-88982273D01*
X81378637Y-88747241D01*
X81178759Y-88547363D01*
X80946241Y-88392000D01*
X81178759Y-88236637D01*
X81378637Y-88036759D01*
X81535680Y-87801727D01*
X81643853Y-87540574D01*
X81699000Y-87263335D01*
X81699000Y-86980665D01*
X81643853Y-86703426D01*
X81535680Y-86442273D01*
X81378637Y-86207241D01*
X81178759Y-86007363D01*
X80946241Y-85852000D01*
X81178759Y-85696637D01*
X81378637Y-85496759D01*
X81535680Y-85261727D01*
X81643853Y-85000574D01*
X81699000Y-84723335D01*
X81699000Y-84440665D01*
X86449000Y-84440665D01*
X86449000Y-84723335D01*
X86504147Y-85000574D01*
X86612320Y-85261727D01*
X86769363Y-85496759D01*
X86969241Y-85696637D01*
X87201759Y-85852000D01*
X86969241Y-86007363D01*
X86769363Y-86207241D01*
X86612320Y-86442273D01*
X86504147Y-86703426D01*
X86449000Y-86980665D01*
X86449000Y-87263335D01*
X86504147Y-87540574D01*
X86612320Y-87801727D01*
X86769363Y-88036759D01*
X86969241Y-88236637D01*
X87201759Y-88392000D01*
X86969241Y-88547363D01*
X86769363Y-88747241D01*
X86612320Y-88982273D01*
X86504147Y-89243426D01*
X86449000Y-89520665D01*
X86449000Y-89803335D01*
X86504147Y-90080574D01*
X86612320Y-90341727D01*
X86769363Y-90576759D01*
X86969241Y-90776637D01*
X87204273Y-90933680D01*
X87465426Y-91041853D01*
X87742665Y-91097000D01*
X88025335Y-91097000D01*
X88302574Y-91041853D01*
X88563727Y-90933680D01*
X88798759Y-90776637D01*
X88998637Y-90576759D01*
X89155680Y-90341727D01*
X89263853Y-90080574D01*
X89319000Y-89803335D01*
X89319000Y-89520665D01*
X89263853Y-89243426D01*
X89155680Y-88982273D01*
X88998637Y-88747241D01*
X88798759Y-88547363D01*
X88566241Y-88392000D01*
X88798759Y-88236637D01*
X88998637Y-88036759D01*
X89155680Y-87801727D01*
X89263853Y-87540574D01*
X89319000Y-87263335D01*
X89319000Y-86980665D01*
X89263853Y-86703426D01*
X89155680Y-86442273D01*
X88998637Y-86207241D01*
X88798759Y-86007363D01*
X88566241Y-85852000D01*
X88798759Y-85696637D01*
X88998637Y-85496759D01*
X89155680Y-85261727D01*
X89263853Y-85000574D01*
X89319000Y-84723335D01*
X89319000Y-84440665D01*
X89263853Y-84163426D01*
X89155680Y-83902273D01*
X88998637Y-83667241D01*
X88798759Y-83467363D01*
X88563727Y-83310320D01*
X88553135Y-83305933D01*
X88739131Y-83194385D01*
X88947519Y-83005414D01*
X89115037Y-82779420D01*
X89235246Y-82525087D01*
X89275904Y-82391039D01*
X89153915Y-82169000D01*
X88011000Y-82169000D01*
X88011000Y-82189000D01*
X87757000Y-82189000D01*
X87757000Y-82169000D01*
X86614085Y-82169000D01*
X86492096Y-82391039D01*
X86532754Y-82525087D01*
X86652963Y-82779420D01*
X86820481Y-83005414D01*
X87028869Y-83194385D01*
X87214865Y-83305933D01*
X87204273Y-83310320D01*
X86969241Y-83467363D01*
X86769363Y-83667241D01*
X86612320Y-83902273D01*
X86504147Y-84163426D01*
X86449000Y-84440665D01*
X81699000Y-84440665D01*
X81643853Y-84163426D01*
X81535680Y-83902273D01*
X81378637Y-83667241D01*
X81180039Y-83468643D01*
X81188482Y-83467812D01*
X81308180Y-83431502D01*
X81418494Y-83372537D01*
X81515185Y-83293185D01*
X81594537Y-83196494D01*
X81653502Y-83086180D01*
X81689812Y-82966482D01*
X81702072Y-82842000D01*
X81702072Y-81692961D01*
X86492096Y-81692961D01*
X86614085Y-81915000D01*
X87757000Y-81915000D01*
X87757000Y-80771376D01*
X88011000Y-80771376D01*
X88011000Y-81915000D01*
X89153915Y-81915000D01*
X89275904Y-81692961D01*
X89235246Y-81558913D01*
X89115037Y-81304580D01*
X88947519Y-81078586D01*
X88739131Y-80889615D01*
X88497881Y-80744930D01*
X88233040Y-80650091D01*
X88011000Y-80771376D01*
X87757000Y-80771376D01*
X87534960Y-80650091D01*
X87270119Y-80744930D01*
X87028869Y-80889615D01*
X86820481Y-81078586D01*
X86652963Y-81304580D01*
X86532754Y-81558913D01*
X86492096Y-81692961D01*
X81702072Y-81692961D01*
X81702072Y-81242000D01*
X81689812Y-81117518D01*
X81653502Y-80997820D01*
X81594537Y-80887506D01*
X81515185Y-80790815D01*
X81418494Y-80711463D01*
X81308180Y-80652498D01*
X81188482Y-80616188D01*
X81064000Y-80603928D01*
X81026000Y-80603928D01*
X81026000Y-78547630D01*
X81595631Y-77978000D01*
X96204370Y-77978000D01*
X98298000Y-80071631D01*
X98298001Y-86830567D01*
X98294314Y-86868000D01*
X98309027Y-87017378D01*
X98352599Y-87161015D01*
X98423355Y-87293392D01*
X98491562Y-87376502D01*
X98518579Y-87409422D01*
X98547649Y-87433279D01*
X100653721Y-89539352D01*
X100677578Y-89568422D01*
X100793608Y-89663645D01*
X100925985Y-89734402D01*
X101069622Y-89777974D01*
X101181574Y-89789000D01*
X101181576Y-89789000D01*
X101218999Y-89792686D01*
X101256422Y-89789000D01*
X135193369Y-89789000D01*
X129224370Y-95758000D01*
X100113422Y-95758000D01*
X100075999Y-95754314D01*
X100038576Y-95758000D01*
X100038574Y-95758000D01*
X99926622Y-95769026D01*
X99782985Y-95812598D01*
X99650608Y-95883355D01*
X99534578Y-95978578D01*
X99510721Y-96007648D01*
X97220370Y-98298000D01*
X82841422Y-98298000D01*
X82803999Y-98294314D01*
X82766576Y-98298000D01*
X82766574Y-98298000D01*
X82654622Y-98309026D01*
X82510985Y-98352598D01*
X82378608Y-98423355D01*
X82262578Y-98518578D01*
X82238721Y-98547648D01*
X79751654Y-101034716D01*
X79722578Y-101058578D01*
X79666983Y-101126322D01*
X79627355Y-101174608D01*
X79589535Y-101245365D01*
X79556598Y-101306986D01*
X79513026Y-101450623D01*
X79502000Y-101562574D01*
X79498314Y-101600000D01*
X79502000Y-101637423D01*
X79502001Y-104733928D01*
X79464000Y-104733928D01*
X79339518Y-104746188D01*
X79219820Y-104782498D01*
X79109506Y-104841463D01*
X79012815Y-104920815D01*
X78933463Y-105017506D01*
X78874498Y-105127820D01*
X78838188Y-105247518D01*
X78825928Y-105372000D01*
X78825928Y-106972000D01*
X78838188Y-107096482D01*
X78874498Y-107216180D01*
X78933463Y-107326494D01*
X79012815Y-107423185D01*
X79109506Y-107502537D01*
X79219820Y-107561502D01*
X79339518Y-107597812D01*
X79347961Y-107598643D01*
X79149363Y-107797241D01*
X79047293Y-107950000D01*
X63029423Y-107950000D01*
X62992000Y-107946314D01*
X62954577Y-107950000D01*
X62954574Y-107950000D01*
X62842622Y-107961026D01*
X62698985Y-108004598D01*
X62647209Y-108032273D01*
X62566607Y-108075355D01*
X62524219Y-108110143D01*
X62450578Y-108170578D01*
X62426716Y-108199654D01*
X55621654Y-115004716D01*
X55592578Y-115028578D01*
X55563771Y-115063680D01*
X55497355Y-115144608D01*
X55465965Y-115203335D01*
X55426598Y-115276986D01*
X55383026Y-115420623D01*
X55377122Y-115480574D01*
X55368314Y-115570000D01*
X55372000Y-115607423D01*
X55372001Y-144777766D01*
X54782020Y-144895120D01*
X53938504Y-145244516D01*
X53179360Y-145751760D01*
X52533760Y-146397360D01*
X52026516Y-147156504D01*
X51677120Y-148000020D01*
X51499000Y-148895492D01*
X51499000Y-149808508D01*
X51677120Y-150703980D01*
X52026516Y-151547496D01*
X52533760Y-152306640D01*
X53179360Y-152952240D01*
X53938504Y-153459484D01*
X54782020Y-153808880D01*
X55677492Y-153987000D01*
X56590508Y-153987000D01*
X57485980Y-153808880D01*
X58329496Y-153459484D01*
X59088640Y-152952240D01*
X59734240Y-152306640D01*
X60241484Y-151547496D01*
X60590880Y-150703980D01*
X60769000Y-149808508D01*
X60769000Y-148895492D01*
X60590880Y-148000020D01*
X60241484Y-147156504D01*
X59734240Y-146397360D01*
X59088640Y-145751760D01*
X58329496Y-145244516D01*
X57485980Y-144895120D01*
X56896000Y-144777766D01*
X56896000Y-115885630D01*
X63307630Y-109474000D01*
X79047293Y-109474000D01*
X79149363Y-109626759D01*
X79349241Y-109826637D01*
X79581759Y-109982000D01*
X79349241Y-110137363D01*
X79149363Y-110337241D01*
X78992320Y-110572273D01*
X78884147Y-110833426D01*
X78829000Y-111110665D01*
X78829000Y-111393335D01*
X78884147Y-111670574D01*
X78992320Y-111931727D01*
X79149363Y-112166759D01*
X79349241Y-112366637D01*
X79581759Y-112522000D01*
X79349241Y-112677363D01*
X79149363Y-112877241D01*
X78992320Y-113112273D01*
X78884147Y-113373426D01*
X78829000Y-113650665D01*
X78829000Y-113933335D01*
X78884147Y-114210574D01*
X78992320Y-114471727D01*
X79149363Y-114706759D01*
X79349241Y-114906637D01*
X79584273Y-115063680D01*
X79845426Y-115171853D01*
X80122665Y-115227000D01*
X80405335Y-115227000D01*
X80682574Y-115171853D01*
X80943727Y-115063680D01*
X81178759Y-114906637D01*
X81378637Y-114706759D01*
X81535680Y-114471727D01*
X81643853Y-114210574D01*
X81699000Y-113933335D01*
X81699000Y-113650665D01*
X81643853Y-113373426D01*
X81535680Y-113112273D01*
X81378637Y-112877241D01*
X81178759Y-112677363D01*
X80946241Y-112522000D01*
X81178759Y-112366637D01*
X81378637Y-112166759D01*
X81535680Y-111931727D01*
X81643853Y-111670574D01*
X81699000Y-111393335D01*
X81699000Y-111110665D01*
X81643853Y-110833426D01*
X81535680Y-110572273D01*
X81378637Y-110337241D01*
X81178759Y-110137363D01*
X80946241Y-109982000D01*
X81178759Y-109826637D01*
X81378637Y-109626759D01*
X81535680Y-109391727D01*
X81643853Y-109130574D01*
X81699000Y-108853335D01*
X81699000Y-108570665D01*
X86449000Y-108570665D01*
X86449000Y-108853335D01*
X86504147Y-109130574D01*
X86612320Y-109391727D01*
X86769363Y-109626759D01*
X86969241Y-109826637D01*
X87201759Y-109982000D01*
X86969241Y-110137363D01*
X86769363Y-110337241D01*
X86612320Y-110572273D01*
X86504147Y-110833426D01*
X86449000Y-111110665D01*
X86449000Y-111393335D01*
X86504147Y-111670574D01*
X86612320Y-111931727D01*
X86769363Y-112166759D01*
X86969241Y-112366637D01*
X87201759Y-112522000D01*
X86969241Y-112677363D01*
X86769363Y-112877241D01*
X86612320Y-113112273D01*
X86504147Y-113373426D01*
X86449000Y-113650665D01*
X86449000Y-113933335D01*
X86504147Y-114210574D01*
X86612320Y-114471727D01*
X86769363Y-114706759D01*
X86969241Y-114906637D01*
X87204273Y-115063680D01*
X87465426Y-115171853D01*
X87742665Y-115227000D01*
X88025335Y-115227000D01*
X88302574Y-115171853D01*
X88563727Y-115063680D01*
X88798759Y-114906637D01*
X88998637Y-114706759D01*
X89155680Y-114471727D01*
X89263853Y-114210574D01*
X89319000Y-113933335D01*
X89319000Y-113650665D01*
X89263853Y-113373426D01*
X89155680Y-113112273D01*
X88998637Y-112877241D01*
X88798759Y-112677363D01*
X88566241Y-112522000D01*
X88798759Y-112366637D01*
X88998637Y-112166759D01*
X89155680Y-111931727D01*
X89263853Y-111670574D01*
X89319000Y-111393335D01*
X89319000Y-111110665D01*
X89263853Y-110833426D01*
X89155680Y-110572273D01*
X88998637Y-110337241D01*
X88798759Y-110137363D01*
X88566241Y-109982000D01*
X88798759Y-109826637D01*
X88998637Y-109626759D01*
X89155680Y-109391727D01*
X89263853Y-109130574D01*
X89319000Y-108853335D01*
X89319000Y-108570665D01*
X89263853Y-108293426D01*
X89155680Y-108032273D01*
X88998637Y-107797241D01*
X88798759Y-107597363D01*
X88563727Y-107440320D01*
X88553135Y-107435933D01*
X88739131Y-107324385D01*
X88947519Y-107135414D01*
X89115037Y-106909420D01*
X89235246Y-106655087D01*
X89275904Y-106521039D01*
X89153915Y-106299000D01*
X88011000Y-106299000D01*
X88011000Y-106319000D01*
X87757000Y-106319000D01*
X87757000Y-106299000D01*
X86614085Y-106299000D01*
X86492096Y-106521039D01*
X86532754Y-106655087D01*
X86652963Y-106909420D01*
X86820481Y-107135414D01*
X87028869Y-107324385D01*
X87214865Y-107435933D01*
X87204273Y-107440320D01*
X86969241Y-107597363D01*
X86769363Y-107797241D01*
X86612320Y-108032273D01*
X86504147Y-108293426D01*
X86449000Y-108570665D01*
X81699000Y-108570665D01*
X81643853Y-108293426D01*
X81535680Y-108032273D01*
X81378637Y-107797241D01*
X81180039Y-107598643D01*
X81188482Y-107597812D01*
X81308180Y-107561502D01*
X81418494Y-107502537D01*
X81515185Y-107423185D01*
X81594537Y-107326494D01*
X81653502Y-107216180D01*
X81689812Y-107096482D01*
X81702072Y-106972000D01*
X81702072Y-105822961D01*
X86492096Y-105822961D01*
X86614085Y-106045000D01*
X87757000Y-106045000D01*
X87757000Y-104901376D01*
X88011000Y-104901376D01*
X88011000Y-106045000D01*
X89153915Y-106045000D01*
X89275904Y-105822961D01*
X89235246Y-105688913D01*
X89115037Y-105434580D01*
X88947519Y-105208586D01*
X88739131Y-105019615D01*
X88497881Y-104874930D01*
X88233040Y-104780091D01*
X88011000Y-104901376D01*
X87757000Y-104901376D01*
X87534960Y-104780091D01*
X87270119Y-104874930D01*
X87028869Y-105019615D01*
X86820481Y-105208586D01*
X86652963Y-105434580D01*
X86532754Y-105688913D01*
X86492096Y-105822961D01*
X81702072Y-105822961D01*
X81702072Y-105372000D01*
X81689812Y-105247518D01*
X81653502Y-105127820D01*
X81594537Y-105017506D01*
X81515185Y-104920815D01*
X81418494Y-104841463D01*
X81308180Y-104782498D01*
X81188482Y-104746188D01*
X81064000Y-104733928D01*
X81026000Y-104733928D01*
X81026000Y-101915630D01*
X83119631Y-99822000D01*
X97498577Y-99822000D01*
X97536000Y-99825686D01*
X97573423Y-99822000D01*
X97573426Y-99822000D01*
X97685378Y-99810974D01*
X97829015Y-99767402D01*
X97961392Y-99696645D01*
X98077422Y-99601422D01*
X98101284Y-99572346D01*
X100391631Y-97282000D01*
X129502577Y-97282000D01*
X129540000Y-97285686D01*
X129577423Y-97282000D01*
X129577426Y-97282000D01*
X129689378Y-97270974D01*
X129766916Y-97247453D01*
X117032370Y-109982000D01*
X108749422Y-109982000D01*
X108711999Y-109978314D01*
X108674576Y-109982000D01*
X108674574Y-109982000D01*
X108562622Y-109993026D01*
X108418985Y-110036598D01*
X108286608Y-110107355D01*
X108170578Y-110202578D01*
X108146721Y-110231648D01*
X92451654Y-125926716D01*
X92422578Y-125950578D01*
X92395150Y-125984000D01*
X92327355Y-126066608D01*
X92314211Y-126091199D01*
X92256598Y-126198986D01*
X92213026Y-126342623D01*
X92205268Y-126421395D01*
X92198314Y-126492000D01*
X92202000Y-126529423D01*
X92202001Y-142833928D01*
X92164000Y-142833928D01*
X92039518Y-142846188D01*
X91919820Y-142882498D01*
X91809506Y-142941463D01*
X91712815Y-143020815D01*
X91633463Y-143117506D01*
X91574498Y-143227820D01*
X91538188Y-143347518D01*
X91525928Y-143472000D01*
X91525928Y-145072000D01*
X91538188Y-145196482D01*
X91574498Y-145316180D01*
X91633463Y-145426494D01*
X91712815Y-145523185D01*
X91809506Y-145602537D01*
X91919820Y-145661502D01*
X92039518Y-145697812D01*
X92047961Y-145698643D01*
X91849363Y-145897241D01*
X91747293Y-146050000D01*
X86905423Y-146050000D01*
X86868000Y-146046314D01*
X86830577Y-146050000D01*
X86830574Y-146050000D01*
X86718622Y-146061026D01*
X86574985Y-146104598D01*
X86523209Y-146132273D01*
X86442607Y-146175355D01*
X86359904Y-146243228D01*
X86326578Y-146270578D01*
X86302721Y-146299648D01*
X84323649Y-148278721D01*
X84294579Y-148302578D01*
X84270722Y-148331648D01*
X84270721Y-148331649D01*
X84199355Y-148418608D01*
X84128599Y-148550985D01*
X84085027Y-148694622D01*
X84070314Y-148844000D01*
X84074001Y-148881433D01*
X84074000Y-160212369D01*
X80456370Y-163830000D01*
X36383631Y-163830000D01*
X29718000Y-157164370D01*
X29718000Y-73975630D01*
X33843631Y-69850000D01*
X41402000Y-69850000D01*
X41402001Y-80371440D01*
X41294801Y-80415844D01*
X40994256Y-80616662D01*
X40738662Y-80872256D01*
X40537844Y-81172801D01*
X40399518Y-81506750D01*
X40329000Y-81861268D01*
X40329000Y-82222732D01*
X40399518Y-82577250D01*
X40537844Y-82911199D01*
X40738662Y-83211744D01*
X40994256Y-83467338D01*
X41294801Y-83668156D01*
X41628750Y-83806482D01*
X41983268Y-83877000D01*
X42344732Y-83877000D01*
X42699250Y-83806482D01*
X43033199Y-83668156D01*
X43333744Y-83467338D01*
X43589338Y-83211744D01*
X43790156Y-82911199D01*
X43928482Y-82577250D01*
X43999000Y-82222732D01*
X43999000Y-81861268D01*
X43928482Y-81506750D01*
X43790156Y-81172801D01*
X43589338Y-80872256D01*
X43333744Y-80616662D01*
X43033199Y-80415844D01*
X42926000Y-80371441D01*
X42926000Y-69403630D01*
X44765631Y-67564000D01*
X72243441Y-67564000D01*
X72287844Y-67671199D01*
X72488662Y-67971744D01*
X72744256Y-68227338D01*
X73044801Y-68428156D01*
X73378750Y-68566482D01*
X73733268Y-68637000D01*
X74094732Y-68637000D01*
X74449250Y-68566482D01*
X74783199Y-68428156D01*
X75083744Y-68227338D01*
X75339338Y-67971744D01*
X75540156Y-67671199D01*
X75678482Y-67337250D01*
X75749000Y-66982732D01*
X75749000Y-66621268D01*
X75678482Y-66266750D01*
X75540156Y-65932801D01*
X75339338Y-65632256D01*
X75083744Y-65376662D01*
X74783199Y-65175844D01*
X74449250Y-65037518D01*
X74094732Y-64967000D01*
X73733268Y-64967000D01*
X73378750Y-65037518D01*
X73044801Y-65175844D01*
X72744256Y-65376662D01*
X72488662Y-65632256D01*
X72287844Y-65932801D01*
X72243441Y-66040000D01*
X45212000Y-66040000D01*
X45212000Y-34605630D01*
X49083631Y-30734000D01*
X183580370Y-30734000D01*
X187960001Y-35113631D01*
%TA.AperFunction,Conductor*%
D22*
G36*
X187960001Y-35113631D02*
G01*
X187960000Y-46283569D01*
X187877820Y-46308498D01*
X187767506Y-46367463D01*
X187670815Y-46446815D01*
X187591463Y-46543506D01*
X187532498Y-46653820D01*
X187496188Y-46773518D01*
X187483928Y-46898000D01*
X187483928Y-48098000D01*
X187496188Y-48222482D01*
X187532498Y-48342180D01*
X187591463Y-48452494D01*
X187670815Y-48549185D01*
X187767506Y-48628537D01*
X187833001Y-48663545D01*
X187833000Y-77101764D01*
X161175765Y-103759000D01*
X140589000Y-103759000D01*
X140589000Y-95039660D01*
X140593300Y-94996000D01*
X140589000Y-94952340D01*
X140589000Y-94952333D01*
X140576136Y-94821726D01*
X140525303Y-94654149D01*
X140442753Y-94499709D01*
X140392871Y-94438928D01*
X140359495Y-94398259D01*
X140359494Y-94398258D01*
X140331659Y-94364341D01*
X140297741Y-94336505D01*
X139470499Y-93509263D01*
X139442659Y-93475341D01*
X139307291Y-93364247D01*
X139152851Y-93281697D01*
X139079998Y-93259598D01*
X139092072Y-93137000D01*
X140815928Y-93137000D01*
X140828188Y-93261482D01*
X140864498Y-93381180D01*
X140913043Y-93472000D01*
X140864498Y-93562820D01*
X140828188Y-93682518D01*
X140815928Y-93807000D01*
X140815928Y-94407000D01*
X140828188Y-94531482D01*
X140864498Y-94651180D01*
X140913043Y-94742000D01*
X140864498Y-94832820D01*
X140828188Y-94952518D01*
X140815928Y-95077000D01*
X140815928Y-95677000D01*
X140828188Y-95801482D01*
X140864498Y-95921180D01*
X140913043Y-96012000D01*
X140864498Y-96102820D01*
X140828188Y-96222518D01*
X140815928Y-96347000D01*
X140815928Y-96947000D01*
X140828188Y-97071482D01*
X140864498Y-97191180D01*
X140913043Y-97282000D01*
X140864498Y-97372820D01*
X140828188Y-97492518D01*
X140815928Y-97617000D01*
X140815928Y-98217000D01*
X140828188Y-98341482D01*
X140864498Y-98461180D01*
X140923463Y-98571494D01*
X141002815Y-98668185D01*
X141099506Y-98747537D01*
X141209820Y-98806502D01*
X141329518Y-98842812D01*
X141454000Y-98855072D01*
X143654000Y-98855072D01*
X143778482Y-98842812D01*
X143898180Y-98806502D01*
X144008494Y-98747537D01*
X144105185Y-98668185D01*
X144184537Y-98571494D01*
X144243502Y-98461180D01*
X144279812Y-98341482D01*
X144292072Y-98217000D01*
X144292072Y-97617000D01*
X144279812Y-97492518D01*
X144243502Y-97372820D01*
X144194957Y-97282000D01*
X144243502Y-97191180D01*
X144279812Y-97071482D01*
X144292072Y-96947000D01*
X144292072Y-96347000D01*
X144279812Y-96222518D01*
X144243502Y-96102820D01*
X144194957Y-96012000D01*
X144243502Y-95921180D01*
X144279812Y-95801482D01*
X144292072Y-95677000D01*
X144292072Y-95077000D01*
X144279812Y-94952518D01*
X144254477Y-94869000D01*
X167683667Y-94869000D01*
X167814274Y-94856136D01*
X167981851Y-94805303D01*
X168136291Y-94722753D01*
X168271659Y-94611659D01*
X168382753Y-94476291D01*
X168465303Y-94321851D01*
X168516136Y-94154274D01*
X168533301Y-93980000D01*
X168516136Y-93805726D01*
X168465303Y-93638149D01*
X168382753Y-93483709D01*
X168271659Y-93348341D01*
X168136291Y-93237247D01*
X167981851Y-93154697D01*
X167814274Y-93103864D01*
X167683667Y-93091000D01*
X144257250Y-93091000D01*
X144130250Y-92964000D01*
X142681000Y-92964000D01*
X142681000Y-92984000D01*
X142427000Y-92984000D01*
X142427000Y-92964000D01*
X140977750Y-92964000D01*
X140819000Y-93122750D01*
X140815928Y-93137000D01*
X139092072Y-93137000D01*
X139092072Y-92537000D01*
X139079812Y-92412518D01*
X139076731Y-92402361D01*
X139134716Y-92460346D01*
X139158578Y-92489422D01*
X139274608Y-92584645D01*
X139406985Y-92655402D01*
X139550622Y-92698974D01*
X139662574Y-92710000D01*
X139662576Y-92710000D01*
X139699999Y-92713686D01*
X139737422Y-92710000D01*
X139737426Y-92710000D01*
X139849378Y-92698974D01*
X139993015Y-92655402D01*
X140125392Y-92584645D01*
X140241422Y-92489422D01*
X140336645Y-92373392D01*
X140407402Y-92241015D01*
X140450974Y-92097378D01*
X140465686Y-91948000D01*
X140450974Y-91798622D01*
X140407402Y-91654985D01*
X140336645Y-91522608D01*
X140241422Y-91406578D01*
X140212346Y-91382716D01*
X139884284Y-91054654D01*
X139860422Y-91025578D01*
X139744392Y-90930355D01*
X139612015Y-90859598D01*
X139468378Y-90816026D01*
X139356426Y-90805000D01*
X139356423Y-90805000D01*
X139319000Y-90801314D01*
X139281577Y-90805000D01*
X139054477Y-90805000D01*
X139079812Y-90721482D01*
X139092072Y-90597000D01*
X140815928Y-90597000D01*
X140828188Y-90721482D01*
X140864498Y-90841180D01*
X140913043Y-90932000D01*
X140864498Y-91022820D01*
X140828188Y-91142518D01*
X140815928Y-91267000D01*
X140815928Y-91867000D01*
X140828188Y-91991482D01*
X140864498Y-92111180D01*
X140913043Y-92202000D01*
X140864498Y-92292820D01*
X140828188Y-92412518D01*
X140815928Y-92537000D01*
X140819000Y-92551250D01*
X140977750Y-92710000D01*
X142427000Y-92710000D01*
X142427000Y-92690000D01*
X142681000Y-92690000D01*
X142681000Y-92710000D01*
X144130250Y-92710000D01*
X144289000Y-92551250D01*
X144292072Y-92537000D01*
X144284094Y-92456000D01*
X169465721Y-92456000D01*
X169584148Y-92519302D01*
X169751725Y-92570136D01*
X169925999Y-92587300D01*
X170100274Y-92570136D01*
X170267852Y-92519302D01*
X170422291Y-92436751D01*
X170557659Y-92325659D01*
X170668751Y-92190291D01*
X170751302Y-92035852D01*
X170802136Y-91868274D01*
X170819300Y-91693999D01*
X170802136Y-91519725D01*
X170751302Y-91352148D01*
X170668751Y-91197709D01*
X170585495Y-91096260D01*
X170458499Y-90969264D01*
X170430659Y-90935341D01*
X170295291Y-90824247D01*
X170140851Y-90741697D01*
X169973274Y-90690864D01*
X169842667Y-90678000D01*
X169842660Y-90678000D01*
X169799000Y-90673700D01*
X169755340Y-90678000D01*
X144284094Y-90678000D01*
X144292072Y-90597000D01*
X144289000Y-90582750D01*
X144130250Y-90424000D01*
X142681000Y-90424000D01*
X142681000Y-90444000D01*
X142427000Y-90444000D01*
X142427000Y-90424000D01*
X140977750Y-90424000D01*
X140819000Y-90582750D01*
X140815928Y-90597000D01*
X139092072Y-90597000D01*
X139092072Y-89997000D01*
X139079812Y-89872518D01*
X139043502Y-89752820D01*
X138994957Y-89662000D01*
X139043502Y-89571180D01*
X139079812Y-89451482D01*
X139092072Y-89327000D01*
X140815928Y-89327000D01*
X140828188Y-89451482D01*
X140864498Y-89571180D01*
X140913043Y-89662000D01*
X140864498Y-89752820D01*
X140828188Y-89872518D01*
X140815928Y-89997000D01*
X140819000Y-90011250D01*
X140977750Y-90170000D01*
X142427000Y-90170000D01*
X142427000Y-89154000D01*
X142681000Y-89154000D01*
X142681000Y-90170000D01*
X144130250Y-90170000D01*
X144289000Y-90011250D01*
X144292072Y-89997000D01*
X144279812Y-89872518D01*
X144243502Y-89752820D01*
X144194957Y-89662000D01*
X144243502Y-89571180D01*
X144279812Y-89451482D01*
X144292072Y-89327000D01*
X144289000Y-89312750D01*
X144130250Y-89154000D01*
X142681000Y-89154000D01*
X142427000Y-89154000D01*
X140977750Y-89154000D01*
X140819000Y-89312750D01*
X140815928Y-89327000D01*
X139092072Y-89327000D01*
X139092072Y-88727000D01*
X139079812Y-88602518D01*
X139043502Y-88482820D01*
X138994957Y-88392000D01*
X139043502Y-88301180D01*
X139079812Y-88181482D01*
X139092072Y-88057000D01*
X140815928Y-88057000D01*
X140828188Y-88181482D01*
X140864498Y-88301180D01*
X140913043Y-88392000D01*
X140864498Y-88482820D01*
X140828188Y-88602518D01*
X140815928Y-88727000D01*
X140819000Y-88741250D01*
X140977750Y-88900000D01*
X142427000Y-88900000D01*
X142427000Y-87884000D01*
X142681000Y-87884000D01*
X142681000Y-88900000D01*
X144130250Y-88900000D01*
X144289000Y-88741250D01*
X144292072Y-88727000D01*
X144279812Y-88602518D01*
X144243502Y-88482820D01*
X144194957Y-88392000D01*
X144243502Y-88301180D01*
X144279812Y-88181482D01*
X144292072Y-88057000D01*
X144289000Y-88042750D01*
X144130250Y-87884000D01*
X142681000Y-87884000D01*
X142427000Y-87884000D01*
X140977750Y-87884000D01*
X140819000Y-88042750D01*
X140815928Y-88057000D01*
X139092072Y-88057000D01*
X139092072Y-87457000D01*
X139079812Y-87332518D01*
X139043502Y-87212820D01*
X138994957Y-87122000D01*
X139043502Y-87031180D01*
X139079812Y-86911482D01*
X139092072Y-86787000D01*
X140815928Y-86787000D01*
X140828188Y-86911482D01*
X140864498Y-87031180D01*
X140913043Y-87122000D01*
X140864498Y-87212820D01*
X140828188Y-87332518D01*
X140815928Y-87457000D01*
X140819000Y-87471250D01*
X140977750Y-87630000D01*
X142427000Y-87630000D01*
X142427000Y-86614000D01*
X142681000Y-86614000D01*
X142681000Y-87630000D01*
X144130250Y-87630000D01*
X144289000Y-87471250D01*
X144292072Y-87457000D01*
X144279812Y-87332518D01*
X144243502Y-87212820D01*
X144194957Y-87122000D01*
X144243502Y-87031180D01*
X144279812Y-86911482D01*
X144292072Y-86787000D01*
X144289000Y-86772750D01*
X144130250Y-86614000D01*
X142681000Y-86614000D01*
X142427000Y-86614000D01*
X140977750Y-86614000D01*
X140819000Y-86772750D01*
X140815928Y-86787000D01*
X139092072Y-86787000D01*
X139092072Y-86187000D01*
X139079812Y-86062518D01*
X139043502Y-85942820D01*
X138994957Y-85852000D01*
X139043502Y-85761180D01*
X139079812Y-85641482D01*
X139092072Y-85517000D01*
X140815928Y-85517000D01*
X140828188Y-85641482D01*
X140864498Y-85761180D01*
X140913043Y-85852000D01*
X140864498Y-85942820D01*
X140828188Y-86062518D01*
X140815928Y-86187000D01*
X140819000Y-86201250D01*
X140977750Y-86360000D01*
X142427000Y-86360000D01*
X142427000Y-85344000D01*
X142681000Y-85344000D01*
X142681000Y-86360000D01*
X144130250Y-86360000D01*
X144289000Y-86201250D01*
X144292072Y-86187000D01*
X144279812Y-86062518D01*
X144243502Y-85942820D01*
X144194957Y-85852000D01*
X144243502Y-85761180D01*
X144279812Y-85641482D01*
X144292072Y-85517000D01*
X144289000Y-85502750D01*
X144130250Y-85344000D01*
X142681000Y-85344000D01*
X142427000Y-85344000D01*
X140977750Y-85344000D01*
X140819000Y-85502750D01*
X140815928Y-85517000D01*
X139092072Y-85517000D01*
X139092072Y-84917000D01*
X139079812Y-84792518D01*
X139043502Y-84672820D01*
X138994957Y-84582000D01*
X139043502Y-84491180D01*
X139079812Y-84371482D01*
X139092072Y-84247000D01*
X139092072Y-83647000D01*
X140815928Y-83647000D01*
X140815928Y-84247000D01*
X140828188Y-84371482D01*
X140864498Y-84491180D01*
X140913043Y-84582000D01*
X140864498Y-84672820D01*
X140828188Y-84792518D01*
X140815928Y-84917000D01*
X140819000Y-84931250D01*
X140977750Y-85090000D01*
X142427000Y-85090000D01*
X142427000Y-85070000D01*
X142681000Y-85070000D01*
X142681000Y-85090000D01*
X144130250Y-85090000D01*
X144289000Y-84931250D01*
X144292072Y-84917000D01*
X144279812Y-84792518D01*
X144254477Y-84709000D01*
X148655370Y-84709000D01*
X149855648Y-85909279D01*
X149942607Y-85980644D01*
X150074983Y-86051401D01*
X150218621Y-86094973D01*
X150367999Y-86109686D01*
X150517378Y-86094973D01*
X150661015Y-86051401D01*
X150793392Y-85980644D01*
X150909421Y-85885421D01*
X151004644Y-85769392D01*
X151075401Y-85637015D01*
X151118973Y-85493378D01*
X151133686Y-85343999D01*
X151118973Y-85194621D01*
X151075401Y-85050983D01*
X151004644Y-84918607D01*
X150933279Y-84831648D01*
X149536284Y-83434654D01*
X149512422Y-83405578D01*
X149396392Y-83310355D01*
X149264015Y-83239598D01*
X149120378Y-83196026D01*
X149008426Y-83185000D01*
X149008423Y-83185000D01*
X148971000Y-83181314D01*
X148933577Y-83185000D01*
X144092007Y-83185000D01*
X144008494Y-83116463D01*
X143898180Y-83057498D01*
X143778482Y-83021188D01*
X143654000Y-83008928D01*
X141454000Y-83008928D01*
X141329518Y-83021188D01*
X141209820Y-83057498D01*
X141099506Y-83116463D01*
X141002815Y-83195815D01*
X140923463Y-83292506D01*
X140864498Y-83402820D01*
X140828188Y-83522518D01*
X140815928Y-83647000D01*
X139092072Y-83647000D01*
X139079812Y-83522518D01*
X139043502Y-83402820D01*
X138984537Y-83292506D01*
X138905185Y-83195815D01*
X138808494Y-83116463D01*
X138698180Y-83057498D01*
X138578482Y-83021188D01*
X138454000Y-83008928D01*
X138116000Y-83008928D01*
X138116000Y-49700116D01*
X138408141Y-49579107D01*
X138839715Y-49290738D01*
X139206738Y-48923715D01*
X139495107Y-48492141D01*
X139693739Y-48012601D01*
X139795000Y-47503525D01*
X139795000Y-46984475D01*
X139693739Y-46475399D01*
X139495107Y-45995859D01*
X139206738Y-45564285D01*
X138839715Y-45197262D01*
X138408141Y-44908893D01*
X137928601Y-44710261D01*
X137419525Y-44609000D01*
X136900475Y-44609000D01*
X136391399Y-44710261D01*
X135911859Y-44908893D01*
X135480285Y-45197262D01*
X135113262Y-45564285D01*
X134824893Y-45995859D01*
X134626261Y-46475399D01*
X134525000Y-46984475D01*
X134525000Y-47503525D01*
X134626261Y-48012601D01*
X134824893Y-48492141D01*
X135113262Y-48923715D01*
X135480285Y-49290738D01*
X135911859Y-49579107D01*
X136391399Y-49777739D01*
X136592001Y-49817641D01*
X136592000Y-83008928D01*
X136254000Y-83008928D01*
X136129518Y-83021188D01*
X136009820Y-83057498D01*
X135899506Y-83116463D01*
X135802815Y-83195815D01*
X135723463Y-83292506D01*
X135664498Y-83402820D01*
X135628188Y-83522518D01*
X135615928Y-83647000D01*
X135615928Y-84247000D01*
X135628188Y-84371482D01*
X135664498Y-84491180D01*
X135713043Y-84582000D01*
X135664498Y-84672820D01*
X135628188Y-84792518D01*
X135615928Y-84917000D01*
X135615928Y-85517000D01*
X135628188Y-85641482D01*
X135664498Y-85761180D01*
X135713043Y-85852000D01*
X135664498Y-85942820D01*
X135628188Y-86062518D01*
X135615928Y-86187000D01*
X135615928Y-86295298D01*
X131318000Y-81997370D01*
X131318000Y-79793415D01*
X131321685Y-79755999D01*
X131318000Y-79718583D01*
X131318000Y-79718574D01*
X131306974Y-79606622D01*
X131263402Y-79462985D01*
X131192645Y-79330608D01*
X131097422Y-79214578D01*
X131068353Y-79190722D01*
X118167284Y-66289654D01*
X118143422Y-66260578D01*
X118027392Y-66165355D01*
X117895015Y-66094598D01*
X117751378Y-66051026D01*
X117639426Y-66040000D01*
X117639423Y-66040000D01*
X117602000Y-66036314D01*
X117564577Y-66040000D01*
X100984559Y-66040000D01*
X100940156Y-65932801D01*
X100739338Y-65632256D01*
X100483744Y-65376662D01*
X100183199Y-65175844D01*
X99849250Y-65037518D01*
X99494732Y-64967000D01*
X99133268Y-64967000D01*
X98778750Y-65037518D01*
X98444801Y-65175844D01*
X98144256Y-65376662D01*
X97888662Y-65632256D01*
X97687844Y-65932801D01*
X97549518Y-66266750D01*
X97479000Y-66621268D01*
X97479000Y-66982732D01*
X97549518Y-67337250D01*
X97687844Y-67671199D01*
X97888662Y-67971744D01*
X98144256Y-68227338D01*
X98444801Y-68428156D01*
X98778750Y-68566482D01*
X99133268Y-68637000D01*
X99494732Y-68637000D01*
X99849250Y-68566482D01*
X100183199Y-68428156D01*
X100483744Y-68227338D01*
X100739338Y-67971744D01*
X100940156Y-67671199D01*
X100984559Y-67564000D01*
X117286370Y-67564000D01*
X129794000Y-80071631D01*
X129794001Y-82275567D01*
X129790314Y-82313000D01*
X129805027Y-82462378D01*
X129848599Y-82606015D01*
X129919355Y-82738392D01*
X129964150Y-82792974D01*
X130014579Y-82854422D01*
X130043649Y-82878279D01*
X135430370Y-88265000D01*
X101534631Y-88265000D01*
X99822000Y-86552370D01*
X99822000Y-79793422D01*
X99825686Y-79755999D01*
X99822000Y-79718574D01*
X99810974Y-79606622D01*
X99767402Y-79462985D01*
X99696645Y-79330608D01*
X99601422Y-79214578D01*
X99572353Y-79190722D01*
X97085284Y-76703654D01*
X97061422Y-76674578D01*
X96945392Y-76579355D01*
X96813015Y-76508598D01*
X96669378Y-76465026D01*
X96557426Y-76454000D01*
X96557423Y-76454000D01*
X96520000Y-76450314D01*
X96482577Y-76454000D01*
X81317423Y-76454000D01*
X81280000Y-76450314D01*
X81242577Y-76454000D01*
X81242574Y-76454000D01*
X81130622Y-76465026D01*
X80986985Y-76508598D01*
X80925364Y-76541535D01*
X80854607Y-76579355D01*
X80774987Y-76644698D01*
X80738578Y-76674578D01*
X80714721Y-76703649D01*
X79751649Y-77666721D01*
X79722579Y-77690578D01*
X79698722Y-77719648D01*
X79698721Y-77719649D01*
X79627355Y-77806608D01*
X79556599Y-77938985D01*
X79513027Y-78082622D01*
X79498314Y-78232000D01*
X79502001Y-78269433D01*
X79502000Y-80603928D01*
X79464000Y-80603928D01*
X79339518Y-80616188D01*
X79219820Y-80652498D01*
X79109506Y-80711463D01*
X79012815Y-80790815D01*
X78933463Y-80887506D01*
X78874498Y-80997820D01*
X78838188Y-81117518D01*
X78825928Y-81242000D01*
X78825928Y-82842000D01*
X78838188Y-82966482D01*
X78874498Y-83086180D01*
X78933463Y-83196494D01*
X79012815Y-83293185D01*
X79109506Y-83372537D01*
X79219820Y-83431502D01*
X79339518Y-83467812D01*
X79347961Y-83468643D01*
X79149363Y-83667241D01*
X78992320Y-83902273D01*
X78921188Y-84074000D01*
X65593630Y-84074000D01*
X64204079Y-82684449D01*
X64248482Y-82577250D01*
X64319000Y-82222732D01*
X64319000Y-81861268D01*
X64248482Y-81506750D01*
X64110156Y-81172801D01*
X63909338Y-80872256D01*
X63653744Y-80616662D01*
X63353199Y-80415844D01*
X63019250Y-80277518D01*
X62664732Y-80207000D01*
X62303268Y-80207000D01*
X61948750Y-80277518D01*
X61614801Y-80415844D01*
X61314256Y-80616662D01*
X61058662Y-80872256D01*
X60857844Y-81172801D01*
X60719518Y-81506750D01*
X60649000Y-81861268D01*
X60649000Y-82222732D01*
X60719518Y-82577250D01*
X60857844Y-82911199D01*
X61058662Y-83211744D01*
X61314256Y-83467338D01*
X61614801Y-83668156D01*
X61948750Y-83806482D01*
X62303268Y-83877000D01*
X62664732Y-83877000D01*
X63019250Y-83806482D01*
X63126449Y-83762079D01*
X64712716Y-85348346D01*
X64736578Y-85377422D01*
X64810219Y-85437857D01*
X64852607Y-85472645D01*
X64897722Y-85496759D01*
X64984985Y-85543402D01*
X65128622Y-85586974D01*
X65240574Y-85598000D01*
X65240577Y-85598000D01*
X65278000Y-85601686D01*
X65315423Y-85598000D01*
X79250604Y-85598000D01*
X79349241Y-85696637D01*
X79581759Y-85852000D01*
X79349241Y-86007363D01*
X79149363Y-86207241D01*
X78992320Y-86442273D01*
X78884147Y-86703426D01*
X78829000Y-86980665D01*
X78829000Y-87263335D01*
X78884147Y-87540574D01*
X78992320Y-87801727D01*
X79149363Y-88036759D01*
X79349241Y-88236637D01*
X79581759Y-88392000D01*
X79349241Y-88547363D01*
X79149363Y-88747241D01*
X78992320Y-88982273D01*
X78884147Y-89243426D01*
X78829000Y-89520665D01*
X78829000Y-89803335D01*
X78884147Y-90080574D01*
X78992320Y-90341727D01*
X79149363Y-90576759D01*
X79349241Y-90776637D01*
X79584273Y-90933680D01*
X79845426Y-91041853D01*
X80122665Y-91097000D01*
X80405335Y-91097000D01*
X80682574Y-91041853D01*
X80943727Y-90933680D01*
X81178759Y-90776637D01*
X81378637Y-90576759D01*
X81535680Y-90341727D01*
X81643853Y-90080574D01*
X81699000Y-89803335D01*
X81699000Y-89520665D01*
X81643853Y-89243426D01*
X81535680Y-88982273D01*
X81378637Y-88747241D01*
X81178759Y-88547363D01*
X80946241Y-88392000D01*
X81178759Y-88236637D01*
X81378637Y-88036759D01*
X81535680Y-87801727D01*
X81643853Y-87540574D01*
X81699000Y-87263335D01*
X81699000Y-86980665D01*
X81643853Y-86703426D01*
X81535680Y-86442273D01*
X81378637Y-86207241D01*
X81178759Y-86007363D01*
X80946241Y-85852000D01*
X81178759Y-85696637D01*
X81378637Y-85496759D01*
X81535680Y-85261727D01*
X81643853Y-85000574D01*
X81699000Y-84723335D01*
X81699000Y-84440665D01*
X86449000Y-84440665D01*
X86449000Y-84723335D01*
X86504147Y-85000574D01*
X86612320Y-85261727D01*
X86769363Y-85496759D01*
X86969241Y-85696637D01*
X87201759Y-85852000D01*
X86969241Y-86007363D01*
X86769363Y-86207241D01*
X86612320Y-86442273D01*
X86504147Y-86703426D01*
X86449000Y-86980665D01*
X86449000Y-87263335D01*
X86504147Y-87540574D01*
X86612320Y-87801727D01*
X86769363Y-88036759D01*
X86969241Y-88236637D01*
X87201759Y-88392000D01*
X86969241Y-88547363D01*
X86769363Y-88747241D01*
X86612320Y-88982273D01*
X86504147Y-89243426D01*
X86449000Y-89520665D01*
X86449000Y-89803335D01*
X86504147Y-90080574D01*
X86612320Y-90341727D01*
X86769363Y-90576759D01*
X86969241Y-90776637D01*
X87204273Y-90933680D01*
X87465426Y-91041853D01*
X87742665Y-91097000D01*
X88025335Y-91097000D01*
X88302574Y-91041853D01*
X88563727Y-90933680D01*
X88798759Y-90776637D01*
X88998637Y-90576759D01*
X89155680Y-90341727D01*
X89263853Y-90080574D01*
X89319000Y-89803335D01*
X89319000Y-89520665D01*
X89263853Y-89243426D01*
X89155680Y-88982273D01*
X88998637Y-88747241D01*
X88798759Y-88547363D01*
X88566241Y-88392000D01*
X88798759Y-88236637D01*
X88998637Y-88036759D01*
X89155680Y-87801727D01*
X89263853Y-87540574D01*
X89319000Y-87263335D01*
X89319000Y-86980665D01*
X89263853Y-86703426D01*
X89155680Y-86442273D01*
X88998637Y-86207241D01*
X88798759Y-86007363D01*
X88566241Y-85852000D01*
X88798759Y-85696637D01*
X88998637Y-85496759D01*
X89155680Y-85261727D01*
X89263853Y-85000574D01*
X89319000Y-84723335D01*
X89319000Y-84440665D01*
X89263853Y-84163426D01*
X89155680Y-83902273D01*
X88998637Y-83667241D01*
X88798759Y-83467363D01*
X88563727Y-83310320D01*
X88553135Y-83305933D01*
X88739131Y-83194385D01*
X88947519Y-83005414D01*
X89115037Y-82779420D01*
X89235246Y-82525087D01*
X89275904Y-82391039D01*
X89153915Y-82169000D01*
X88011000Y-82169000D01*
X88011000Y-82189000D01*
X87757000Y-82189000D01*
X87757000Y-82169000D01*
X86614085Y-82169000D01*
X86492096Y-82391039D01*
X86532754Y-82525087D01*
X86652963Y-82779420D01*
X86820481Y-83005414D01*
X87028869Y-83194385D01*
X87214865Y-83305933D01*
X87204273Y-83310320D01*
X86969241Y-83467363D01*
X86769363Y-83667241D01*
X86612320Y-83902273D01*
X86504147Y-84163426D01*
X86449000Y-84440665D01*
X81699000Y-84440665D01*
X81643853Y-84163426D01*
X81535680Y-83902273D01*
X81378637Y-83667241D01*
X81180039Y-83468643D01*
X81188482Y-83467812D01*
X81308180Y-83431502D01*
X81418494Y-83372537D01*
X81515185Y-83293185D01*
X81594537Y-83196494D01*
X81653502Y-83086180D01*
X81689812Y-82966482D01*
X81702072Y-82842000D01*
X81702072Y-81692961D01*
X86492096Y-81692961D01*
X86614085Y-81915000D01*
X87757000Y-81915000D01*
X87757000Y-80771376D01*
X88011000Y-80771376D01*
X88011000Y-81915000D01*
X89153915Y-81915000D01*
X89275904Y-81692961D01*
X89235246Y-81558913D01*
X89115037Y-81304580D01*
X88947519Y-81078586D01*
X88739131Y-80889615D01*
X88497881Y-80744930D01*
X88233040Y-80650091D01*
X88011000Y-80771376D01*
X87757000Y-80771376D01*
X87534960Y-80650091D01*
X87270119Y-80744930D01*
X87028869Y-80889615D01*
X86820481Y-81078586D01*
X86652963Y-81304580D01*
X86532754Y-81558913D01*
X86492096Y-81692961D01*
X81702072Y-81692961D01*
X81702072Y-81242000D01*
X81689812Y-81117518D01*
X81653502Y-80997820D01*
X81594537Y-80887506D01*
X81515185Y-80790815D01*
X81418494Y-80711463D01*
X81308180Y-80652498D01*
X81188482Y-80616188D01*
X81064000Y-80603928D01*
X81026000Y-80603928D01*
X81026000Y-78547630D01*
X81595631Y-77978000D01*
X96204370Y-77978000D01*
X98298000Y-80071631D01*
X98298001Y-86830567D01*
X98294314Y-86868000D01*
X98309027Y-87017378D01*
X98352599Y-87161015D01*
X98423355Y-87293392D01*
X98491562Y-87376502D01*
X98518579Y-87409422D01*
X98547649Y-87433279D01*
X100653721Y-89539352D01*
X100677578Y-89568422D01*
X100793608Y-89663645D01*
X100925985Y-89734402D01*
X101069622Y-89777974D01*
X101181574Y-89789000D01*
X101181576Y-89789000D01*
X101218999Y-89792686D01*
X101256422Y-89789000D01*
X135193369Y-89789000D01*
X129224370Y-95758000D01*
X100113422Y-95758000D01*
X100075999Y-95754314D01*
X100038576Y-95758000D01*
X100038574Y-95758000D01*
X99926622Y-95769026D01*
X99782985Y-95812598D01*
X99650608Y-95883355D01*
X99534578Y-95978578D01*
X99510721Y-96007648D01*
X97220370Y-98298000D01*
X82841422Y-98298000D01*
X82803999Y-98294314D01*
X82766576Y-98298000D01*
X82766574Y-98298000D01*
X82654622Y-98309026D01*
X82510985Y-98352598D01*
X82378608Y-98423355D01*
X82262578Y-98518578D01*
X82238721Y-98547648D01*
X79751654Y-101034716D01*
X79722578Y-101058578D01*
X79666983Y-101126322D01*
X79627355Y-101174608D01*
X79589535Y-101245365D01*
X79556598Y-101306986D01*
X79513026Y-101450623D01*
X79502000Y-101562574D01*
X79498314Y-101600000D01*
X79502000Y-101637423D01*
X79502001Y-104733928D01*
X79464000Y-104733928D01*
X79339518Y-104746188D01*
X79219820Y-104782498D01*
X79109506Y-104841463D01*
X79012815Y-104920815D01*
X78933463Y-105017506D01*
X78874498Y-105127820D01*
X78838188Y-105247518D01*
X78825928Y-105372000D01*
X78825928Y-106972000D01*
X78838188Y-107096482D01*
X78874498Y-107216180D01*
X78933463Y-107326494D01*
X79012815Y-107423185D01*
X79109506Y-107502537D01*
X79219820Y-107561502D01*
X79339518Y-107597812D01*
X79347961Y-107598643D01*
X79149363Y-107797241D01*
X79047293Y-107950000D01*
X63029423Y-107950000D01*
X62992000Y-107946314D01*
X62954577Y-107950000D01*
X62954574Y-107950000D01*
X62842622Y-107961026D01*
X62698985Y-108004598D01*
X62647209Y-108032273D01*
X62566607Y-108075355D01*
X62524219Y-108110143D01*
X62450578Y-108170578D01*
X62426716Y-108199654D01*
X55621654Y-115004716D01*
X55592578Y-115028578D01*
X55563771Y-115063680D01*
X55497355Y-115144608D01*
X55465965Y-115203335D01*
X55426598Y-115276986D01*
X55383026Y-115420623D01*
X55377122Y-115480574D01*
X55368314Y-115570000D01*
X55372000Y-115607423D01*
X55372001Y-144777766D01*
X54782020Y-144895120D01*
X53938504Y-145244516D01*
X53179360Y-145751760D01*
X52533760Y-146397360D01*
X52026516Y-147156504D01*
X51677120Y-148000020D01*
X51499000Y-148895492D01*
X51499000Y-149808508D01*
X51677120Y-150703980D01*
X52026516Y-151547496D01*
X52533760Y-152306640D01*
X53179360Y-152952240D01*
X53938504Y-153459484D01*
X54782020Y-153808880D01*
X55677492Y-153987000D01*
X56590508Y-153987000D01*
X57485980Y-153808880D01*
X58329496Y-153459484D01*
X59088640Y-152952240D01*
X59734240Y-152306640D01*
X60241484Y-151547496D01*
X60590880Y-150703980D01*
X60769000Y-149808508D01*
X60769000Y-148895492D01*
X60590880Y-148000020D01*
X60241484Y-147156504D01*
X59734240Y-146397360D01*
X59088640Y-145751760D01*
X58329496Y-145244516D01*
X57485980Y-144895120D01*
X56896000Y-144777766D01*
X56896000Y-115885630D01*
X63307630Y-109474000D01*
X79047293Y-109474000D01*
X79149363Y-109626759D01*
X79349241Y-109826637D01*
X79581759Y-109982000D01*
X79349241Y-110137363D01*
X79149363Y-110337241D01*
X78992320Y-110572273D01*
X78884147Y-110833426D01*
X78829000Y-111110665D01*
X78829000Y-111393335D01*
X78884147Y-111670574D01*
X78992320Y-111931727D01*
X79149363Y-112166759D01*
X79349241Y-112366637D01*
X79581759Y-112522000D01*
X79349241Y-112677363D01*
X79149363Y-112877241D01*
X78992320Y-113112273D01*
X78884147Y-113373426D01*
X78829000Y-113650665D01*
X78829000Y-113933335D01*
X78884147Y-114210574D01*
X78992320Y-114471727D01*
X79149363Y-114706759D01*
X79349241Y-114906637D01*
X79584273Y-115063680D01*
X79845426Y-115171853D01*
X80122665Y-115227000D01*
X80405335Y-115227000D01*
X80682574Y-115171853D01*
X80943727Y-115063680D01*
X81178759Y-114906637D01*
X81378637Y-114706759D01*
X81535680Y-114471727D01*
X81643853Y-114210574D01*
X81699000Y-113933335D01*
X81699000Y-113650665D01*
X81643853Y-113373426D01*
X81535680Y-113112273D01*
X81378637Y-112877241D01*
X81178759Y-112677363D01*
X80946241Y-112522000D01*
X81178759Y-112366637D01*
X81378637Y-112166759D01*
X81535680Y-111931727D01*
X81643853Y-111670574D01*
X81699000Y-111393335D01*
X81699000Y-111110665D01*
X81643853Y-110833426D01*
X81535680Y-110572273D01*
X81378637Y-110337241D01*
X81178759Y-110137363D01*
X80946241Y-109982000D01*
X81178759Y-109826637D01*
X81378637Y-109626759D01*
X81535680Y-109391727D01*
X81643853Y-109130574D01*
X81699000Y-108853335D01*
X81699000Y-108570665D01*
X86449000Y-108570665D01*
X86449000Y-108853335D01*
X86504147Y-109130574D01*
X86612320Y-109391727D01*
X86769363Y-109626759D01*
X86969241Y-109826637D01*
X87201759Y-109982000D01*
X86969241Y-110137363D01*
X86769363Y-110337241D01*
X86612320Y-110572273D01*
X86504147Y-110833426D01*
X86449000Y-111110665D01*
X86449000Y-111393335D01*
X86504147Y-111670574D01*
X86612320Y-111931727D01*
X86769363Y-112166759D01*
X86969241Y-112366637D01*
X87201759Y-112522000D01*
X86969241Y-112677363D01*
X86769363Y-112877241D01*
X86612320Y-113112273D01*
X86504147Y-113373426D01*
X86449000Y-113650665D01*
X86449000Y-113933335D01*
X86504147Y-114210574D01*
X86612320Y-114471727D01*
X86769363Y-114706759D01*
X86969241Y-114906637D01*
X87204273Y-115063680D01*
X87465426Y-115171853D01*
X87742665Y-115227000D01*
X88025335Y-115227000D01*
X88302574Y-115171853D01*
X88563727Y-115063680D01*
X88798759Y-114906637D01*
X88998637Y-114706759D01*
X89155680Y-114471727D01*
X89263853Y-114210574D01*
X89319000Y-113933335D01*
X89319000Y-113650665D01*
X89263853Y-113373426D01*
X89155680Y-113112273D01*
X88998637Y-112877241D01*
X88798759Y-112677363D01*
X88566241Y-112522000D01*
X88798759Y-112366637D01*
X88998637Y-112166759D01*
X89155680Y-111931727D01*
X89263853Y-111670574D01*
X89319000Y-111393335D01*
X89319000Y-111110665D01*
X89263853Y-110833426D01*
X89155680Y-110572273D01*
X88998637Y-110337241D01*
X88798759Y-110137363D01*
X88566241Y-109982000D01*
X88798759Y-109826637D01*
X88998637Y-109626759D01*
X89155680Y-109391727D01*
X89263853Y-109130574D01*
X89319000Y-108853335D01*
X89319000Y-108570665D01*
X89263853Y-108293426D01*
X89155680Y-108032273D01*
X88998637Y-107797241D01*
X88798759Y-107597363D01*
X88563727Y-107440320D01*
X88553135Y-107435933D01*
X88739131Y-107324385D01*
X88947519Y-107135414D01*
X89115037Y-106909420D01*
X89235246Y-106655087D01*
X89275904Y-106521039D01*
X89153915Y-106299000D01*
X88011000Y-106299000D01*
X88011000Y-106319000D01*
X87757000Y-106319000D01*
X87757000Y-106299000D01*
X86614085Y-106299000D01*
X86492096Y-106521039D01*
X86532754Y-106655087D01*
X86652963Y-106909420D01*
X86820481Y-107135414D01*
X87028869Y-107324385D01*
X87214865Y-107435933D01*
X87204273Y-107440320D01*
X86969241Y-107597363D01*
X86769363Y-107797241D01*
X86612320Y-108032273D01*
X86504147Y-108293426D01*
X86449000Y-108570665D01*
X81699000Y-108570665D01*
X81643853Y-108293426D01*
X81535680Y-108032273D01*
X81378637Y-107797241D01*
X81180039Y-107598643D01*
X81188482Y-107597812D01*
X81308180Y-107561502D01*
X81418494Y-107502537D01*
X81515185Y-107423185D01*
X81594537Y-107326494D01*
X81653502Y-107216180D01*
X81689812Y-107096482D01*
X81702072Y-106972000D01*
X81702072Y-105822961D01*
X86492096Y-105822961D01*
X86614085Y-106045000D01*
X87757000Y-106045000D01*
X87757000Y-104901376D01*
X88011000Y-104901376D01*
X88011000Y-106045000D01*
X89153915Y-106045000D01*
X89275904Y-105822961D01*
X89235246Y-105688913D01*
X89115037Y-105434580D01*
X88947519Y-105208586D01*
X88739131Y-105019615D01*
X88497881Y-104874930D01*
X88233040Y-104780091D01*
X88011000Y-104901376D01*
X87757000Y-104901376D01*
X87534960Y-104780091D01*
X87270119Y-104874930D01*
X87028869Y-105019615D01*
X86820481Y-105208586D01*
X86652963Y-105434580D01*
X86532754Y-105688913D01*
X86492096Y-105822961D01*
X81702072Y-105822961D01*
X81702072Y-105372000D01*
X81689812Y-105247518D01*
X81653502Y-105127820D01*
X81594537Y-105017506D01*
X81515185Y-104920815D01*
X81418494Y-104841463D01*
X81308180Y-104782498D01*
X81188482Y-104746188D01*
X81064000Y-104733928D01*
X81026000Y-104733928D01*
X81026000Y-101915630D01*
X83119631Y-99822000D01*
X97498577Y-99822000D01*
X97536000Y-99825686D01*
X97573423Y-99822000D01*
X97573426Y-99822000D01*
X97685378Y-99810974D01*
X97829015Y-99767402D01*
X97961392Y-99696645D01*
X98077422Y-99601422D01*
X98101284Y-99572346D01*
X100391631Y-97282000D01*
X129502577Y-97282000D01*
X129540000Y-97285686D01*
X129577423Y-97282000D01*
X129577426Y-97282000D01*
X129689378Y-97270974D01*
X129766916Y-97247453D01*
X117032370Y-109982000D01*
X108749422Y-109982000D01*
X108711999Y-109978314D01*
X108674576Y-109982000D01*
X108674574Y-109982000D01*
X108562622Y-109993026D01*
X108418985Y-110036598D01*
X108286608Y-110107355D01*
X108170578Y-110202578D01*
X108146721Y-110231648D01*
X92451654Y-125926716D01*
X92422578Y-125950578D01*
X92395150Y-125984000D01*
X92327355Y-126066608D01*
X92314211Y-126091199D01*
X92256598Y-126198986D01*
X92213026Y-126342623D01*
X92205268Y-126421395D01*
X92198314Y-126492000D01*
X92202000Y-126529423D01*
X92202001Y-142833928D01*
X92164000Y-142833928D01*
X92039518Y-142846188D01*
X91919820Y-142882498D01*
X91809506Y-142941463D01*
X91712815Y-143020815D01*
X91633463Y-143117506D01*
X91574498Y-143227820D01*
X91538188Y-143347518D01*
X91525928Y-143472000D01*
X91525928Y-145072000D01*
X91538188Y-145196482D01*
X91574498Y-145316180D01*
X91633463Y-145426494D01*
X91712815Y-145523185D01*
X91809506Y-145602537D01*
X91919820Y-145661502D01*
X92039518Y-145697812D01*
X92047961Y-145698643D01*
X91849363Y-145897241D01*
X91747293Y-146050000D01*
X86905423Y-146050000D01*
X86868000Y-146046314D01*
X86830577Y-146050000D01*
X86830574Y-146050000D01*
X86718622Y-146061026D01*
X86574985Y-146104598D01*
X86523209Y-146132273D01*
X86442607Y-146175355D01*
X86359904Y-146243228D01*
X86326578Y-146270578D01*
X86302721Y-146299648D01*
X84323649Y-148278721D01*
X84294579Y-148302578D01*
X84270722Y-148331648D01*
X84270721Y-148331649D01*
X84199355Y-148418608D01*
X84128599Y-148550985D01*
X84085027Y-148694622D01*
X84070314Y-148844000D01*
X84074001Y-148881433D01*
X84074000Y-160212369D01*
X80456370Y-163830000D01*
X36383631Y-163830000D01*
X29718000Y-157164370D01*
X29718000Y-73975630D01*
X33843631Y-69850000D01*
X41402000Y-69850000D01*
X41402001Y-80371440D01*
X41294801Y-80415844D01*
X40994256Y-80616662D01*
X40738662Y-80872256D01*
X40537844Y-81172801D01*
X40399518Y-81506750D01*
X40329000Y-81861268D01*
X40329000Y-82222732D01*
X40399518Y-82577250D01*
X40537844Y-82911199D01*
X40738662Y-83211744D01*
X40994256Y-83467338D01*
X41294801Y-83668156D01*
X41628750Y-83806482D01*
X41983268Y-83877000D01*
X42344732Y-83877000D01*
X42699250Y-83806482D01*
X43033199Y-83668156D01*
X43333744Y-83467338D01*
X43589338Y-83211744D01*
X43790156Y-82911199D01*
X43928482Y-82577250D01*
X43999000Y-82222732D01*
X43999000Y-81861268D01*
X43928482Y-81506750D01*
X43790156Y-81172801D01*
X43589338Y-80872256D01*
X43333744Y-80616662D01*
X43033199Y-80415844D01*
X42926000Y-80371441D01*
X42926000Y-69403630D01*
X44765631Y-67564000D01*
X72243441Y-67564000D01*
X72287844Y-67671199D01*
X72488662Y-67971744D01*
X72744256Y-68227338D01*
X73044801Y-68428156D01*
X73378750Y-68566482D01*
X73733268Y-68637000D01*
X74094732Y-68637000D01*
X74449250Y-68566482D01*
X74783199Y-68428156D01*
X75083744Y-68227338D01*
X75339338Y-67971744D01*
X75540156Y-67671199D01*
X75678482Y-67337250D01*
X75749000Y-66982732D01*
X75749000Y-66621268D01*
X75678482Y-66266750D01*
X75540156Y-65932801D01*
X75339338Y-65632256D01*
X75083744Y-65376662D01*
X74783199Y-65175844D01*
X74449250Y-65037518D01*
X74094732Y-64967000D01*
X73733268Y-64967000D01*
X73378750Y-65037518D01*
X73044801Y-65175844D01*
X72744256Y-65376662D01*
X72488662Y-65632256D01*
X72287844Y-65932801D01*
X72243441Y-66040000D01*
X45212000Y-66040000D01*
X45212000Y-34605630D01*
X49083631Y-30734000D01*
X183580370Y-30734000D01*
X187960001Y-35113631D01*
G37*
%TD.AperFunction*%
D20*
X135615928Y-97617000D02*
X135619000Y-97631250D01*
X135777750Y-97790000D01*
X137227000Y-97790000D01*
X137227000Y-97770000D01*
X137481000Y-97770000D01*
X137481000Y-97790000D01*
X137501000Y-97790000D01*
X137501000Y-98044000D01*
X137481000Y-98044000D01*
X137481000Y-98693250D01*
X137639750Y-98852000D01*
X138454000Y-98855072D01*
X138578482Y-98842812D01*
X138698180Y-98806502D01*
X138808494Y-98747537D01*
X138811001Y-98745480D01*
X138811000Y-103759000D01*
X135496236Y-103759000D01*
X134493000Y-102755765D01*
X134493000Y-98217000D01*
X135615928Y-98217000D01*
X135628188Y-98341482D01*
X135664498Y-98461180D01*
X135723463Y-98571494D01*
X135802815Y-98668185D01*
X135899506Y-98747537D01*
X136009820Y-98806502D01*
X136129518Y-98842812D01*
X136254000Y-98855072D01*
X137068250Y-98852000D01*
X137227000Y-98693250D01*
X137227000Y-98044000D01*
X135777750Y-98044000D01*
X135619000Y-98202750D01*
X135615928Y-98217000D01*
X134493000Y-98217000D01*
X134493000Y-97904235D01*
X134861236Y-97536000D01*
X135623906Y-97536000D01*
X135615928Y-97617000D01*
%TA.AperFunction,Conductor*%
D22*
G36*
X135615928Y-97617000D02*
G01*
X135619000Y-97631250D01*
X135777750Y-97790000D01*
X137227000Y-97790000D01*
X137227000Y-97770000D01*
X137481000Y-97770000D01*
X137481000Y-97790000D01*
X137501000Y-97790000D01*
X137501000Y-98044000D01*
X137481000Y-98044000D01*
X137481000Y-98693250D01*
X137639750Y-98852000D01*
X138454000Y-98855072D01*
X138578482Y-98842812D01*
X138698180Y-98806502D01*
X138808494Y-98747537D01*
X138811001Y-98745480D01*
X138811000Y-103759000D01*
X135496236Y-103759000D01*
X134493000Y-102755765D01*
X134493000Y-98217000D01*
X135615928Y-98217000D01*
X135628188Y-98341482D01*
X135664498Y-98461180D01*
X135723463Y-98571494D01*
X135802815Y-98668185D01*
X135899506Y-98747537D01*
X136009820Y-98806502D01*
X136129518Y-98842812D01*
X136254000Y-98855072D01*
X137068250Y-98852000D01*
X137227000Y-98693250D01*
X137227000Y-98044000D01*
X135777750Y-98044000D01*
X135619000Y-98202750D01*
X135615928Y-98217000D01*
X134493000Y-98217000D01*
X134493000Y-97904235D01*
X134861236Y-97536000D01*
X135623906Y-97536000D01*
X135615928Y-97617000D01*
G37*
%TD.AperFunction*%
%TD*%
M02*
