%TF.GenerationSoftware,KiCad,Pcbnew,(5.1.8)-1*%
%TF.CreationDate,2020-12-17T20:59:30+05:45*%
%TF.ProjectId,pll_soc_testboard,706c6c5f-736f-4635-9f74-657374626f61,rev?*%
%TF.SameCoordinates,Original*%
%TF.FileFunction,Legend,Top*%
%TF.FilePolarity,Positive*%
%FSLAX46Y46*%
G04 Gerber Fmt 4.6, Leading zero omitted, Abs format (unit mm)*
G04 Created by KiCad (PCBNEW (5.1.8)-1) date 2020-12-17 20:59:30*
%MOMM*%
%LPD*%
G01*
G04 APERTURE LIST*
%ADD10C,0.120000*%
%ADD11C,0.150000*%
G04 APERTURE END LIST*
D10*
%TO.C,U2B1*%
X128634000Y-142942000D02*
X126984000Y-142942000D01*
X128634000Y-153222000D02*
X128634000Y-142942000D01*
X123334000Y-153222000D02*
X128634000Y-153222000D01*
X123334000Y-142942000D02*
X123334000Y-153222000D01*
X124984000Y-142942000D02*
X123334000Y-142942000D01*
X126984000Y-142942000D02*
G75*
G02*
X124984000Y-142942000I-1000000J0D01*
G01*
%TO.C,U2*%
X95774000Y-142942000D02*
X94124000Y-142942000D01*
X94124000Y-142942000D02*
X94124000Y-153222000D01*
X94124000Y-153222000D02*
X99424000Y-153222000D01*
X99424000Y-153222000D02*
X99424000Y-142942000D01*
X99424000Y-142942000D02*
X97774000Y-142942000D01*
X97774000Y-142942000D02*
G75*
G02*
X95774000Y-142942000I-1000000J0D01*
G01*
%TO.C,C1*%
X191592000Y-47498000D02*
G75*
G03*
X191592000Y-47498000I-2120000J0D01*
G01*
X189472000Y-48338000D02*
X189472000Y-49578000D01*
X189472000Y-45418000D02*
X189472000Y-46658000D01*
X189512000Y-48338000D02*
X189512000Y-49578000D01*
X189512000Y-45418000D02*
X189512000Y-46658000D01*
X189552000Y-48338000D02*
X189552000Y-49577000D01*
X189552000Y-45419000D02*
X189552000Y-46658000D01*
X189592000Y-45421000D02*
X189592000Y-46658000D01*
X189592000Y-48338000D02*
X189592000Y-49575000D01*
X189632000Y-45424000D02*
X189632000Y-46658000D01*
X189632000Y-48338000D02*
X189632000Y-49572000D01*
X189672000Y-45427000D02*
X189672000Y-46658000D01*
X189672000Y-48338000D02*
X189672000Y-49569000D01*
X189712000Y-45431000D02*
X189712000Y-46658000D01*
X189712000Y-48338000D02*
X189712000Y-49565000D01*
X189752000Y-45436000D02*
X189752000Y-46658000D01*
X189752000Y-48338000D02*
X189752000Y-49560000D01*
X189792000Y-45442000D02*
X189792000Y-46658000D01*
X189792000Y-48338000D02*
X189792000Y-49554000D01*
X189832000Y-45448000D02*
X189832000Y-46658000D01*
X189832000Y-48338000D02*
X189832000Y-49548000D01*
X189872000Y-45456000D02*
X189872000Y-46658000D01*
X189872000Y-48338000D02*
X189872000Y-49540000D01*
X189912000Y-45464000D02*
X189912000Y-46658000D01*
X189912000Y-48338000D02*
X189912000Y-49532000D01*
X189952000Y-45473000D02*
X189952000Y-46658000D01*
X189952000Y-48338000D02*
X189952000Y-49523000D01*
X189992000Y-45482000D02*
X189992000Y-46658000D01*
X189992000Y-48338000D02*
X189992000Y-49514000D01*
X190032000Y-45493000D02*
X190032000Y-46658000D01*
X190032000Y-48338000D02*
X190032000Y-49503000D01*
X190072000Y-45504000D02*
X190072000Y-46658000D01*
X190072000Y-48338000D02*
X190072000Y-49492000D01*
X190112000Y-45516000D02*
X190112000Y-46658000D01*
X190112000Y-48338000D02*
X190112000Y-49480000D01*
X190152000Y-45530000D02*
X190152000Y-46658000D01*
X190152000Y-48338000D02*
X190152000Y-49466000D01*
X190193000Y-45544000D02*
X190193000Y-46658000D01*
X190193000Y-48338000D02*
X190193000Y-49452000D01*
X190233000Y-45558000D02*
X190233000Y-46658000D01*
X190233000Y-48338000D02*
X190233000Y-49438000D01*
X190273000Y-45574000D02*
X190273000Y-46658000D01*
X190273000Y-48338000D02*
X190273000Y-49422000D01*
X190313000Y-45591000D02*
X190313000Y-46658000D01*
X190313000Y-48338000D02*
X190313000Y-49405000D01*
X190353000Y-45609000D02*
X190353000Y-46658000D01*
X190353000Y-48338000D02*
X190353000Y-49387000D01*
X190393000Y-45628000D02*
X190393000Y-46658000D01*
X190393000Y-48338000D02*
X190393000Y-49368000D01*
X190433000Y-45647000D02*
X190433000Y-46658000D01*
X190433000Y-48338000D02*
X190433000Y-49349000D01*
X190473000Y-45668000D02*
X190473000Y-46658000D01*
X190473000Y-48338000D02*
X190473000Y-49328000D01*
X190513000Y-45690000D02*
X190513000Y-46658000D01*
X190513000Y-48338000D02*
X190513000Y-49306000D01*
X190553000Y-45713000D02*
X190553000Y-46658000D01*
X190553000Y-48338000D02*
X190553000Y-49283000D01*
X190593000Y-45738000D02*
X190593000Y-46658000D01*
X190593000Y-48338000D02*
X190593000Y-49258000D01*
X190633000Y-45763000D02*
X190633000Y-46658000D01*
X190633000Y-48338000D02*
X190633000Y-49233000D01*
X190673000Y-45790000D02*
X190673000Y-46658000D01*
X190673000Y-48338000D02*
X190673000Y-49206000D01*
X190713000Y-45818000D02*
X190713000Y-46658000D01*
X190713000Y-48338000D02*
X190713000Y-49178000D01*
X190753000Y-45848000D02*
X190753000Y-46658000D01*
X190753000Y-48338000D02*
X190753000Y-49148000D01*
X190793000Y-45879000D02*
X190793000Y-46658000D01*
X190793000Y-48338000D02*
X190793000Y-49117000D01*
X190833000Y-45911000D02*
X190833000Y-46658000D01*
X190833000Y-48338000D02*
X190833000Y-49085000D01*
X190873000Y-45946000D02*
X190873000Y-46658000D01*
X190873000Y-48338000D02*
X190873000Y-49050000D01*
X190913000Y-45982000D02*
X190913000Y-46658000D01*
X190913000Y-48338000D02*
X190913000Y-49014000D01*
X190953000Y-46020000D02*
X190953000Y-46658000D01*
X190953000Y-48338000D02*
X190953000Y-48976000D01*
X190993000Y-46060000D02*
X190993000Y-46658000D01*
X190993000Y-48338000D02*
X190993000Y-48936000D01*
X191033000Y-46102000D02*
X191033000Y-46658000D01*
X191033000Y-48338000D02*
X191033000Y-48894000D01*
X191073000Y-46147000D02*
X191073000Y-48849000D01*
X191113000Y-46194000D02*
X191113000Y-48802000D01*
X191153000Y-46244000D02*
X191153000Y-48752000D01*
X191193000Y-46298000D02*
X191193000Y-48698000D01*
X191233000Y-46356000D02*
X191233000Y-48640000D01*
X191273000Y-46418000D02*
X191273000Y-48578000D01*
X191313000Y-46485000D02*
X191313000Y-48511000D01*
X191353000Y-46558000D02*
X191353000Y-48438000D01*
X191393000Y-46639000D02*
X191393000Y-48357000D01*
X191433000Y-46730000D02*
X191433000Y-48266000D01*
X191473000Y-46834000D02*
X191473000Y-48162000D01*
X191513000Y-46961000D02*
X191513000Y-48035000D01*
X191553000Y-47128000D02*
X191553000Y-47868000D01*
X187202199Y-46303000D02*
X187602199Y-46303000D01*
X187402199Y-46103000D02*
X187402199Y-46503000D01*
%TO.C,C2*%
X218644199Y-46357000D02*
X218644199Y-46757000D01*
X218444199Y-46557000D02*
X218844199Y-46557000D01*
X222795000Y-47382000D02*
X222795000Y-48122000D01*
X222755000Y-47215000D02*
X222755000Y-48289000D01*
X222715000Y-47088000D02*
X222715000Y-48416000D01*
X222675000Y-46984000D02*
X222675000Y-48520000D01*
X222635000Y-46893000D02*
X222635000Y-48611000D01*
X222595000Y-46812000D02*
X222595000Y-48692000D01*
X222555000Y-46739000D02*
X222555000Y-48765000D01*
X222515000Y-46672000D02*
X222515000Y-48832000D01*
X222475000Y-46610000D02*
X222475000Y-48894000D01*
X222435000Y-46552000D02*
X222435000Y-48952000D01*
X222395000Y-46498000D02*
X222395000Y-49006000D01*
X222355000Y-46448000D02*
X222355000Y-49056000D01*
X222315000Y-46401000D02*
X222315000Y-49103000D01*
X222275000Y-48592000D02*
X222275000Y-49148000D01*
X222275000Y-46356000D02*
X222275000Y-46912000D01*
X222235000Y-48592000D02*
X222235000Y-49190000D01*
X222235000Y-46314000D02*
X222235000Y-46912000D01*
X222195000Y-48592000D02*
X222195000Y-49230000D01*
X222195000Y-46274000D02*
X222195000Y-46912000D01*
X222155000Y-48592000D02*
X222155000Y-49268000D01*
X222155000Y-46236000D02*
X222155000Y-46912000D01*
X222115000Y-48592000D02*
X222115000Y-49304000D01*
X222115000Y-46200000D02*
X222115000Y-46912000D01*
X222075000Y-48592000D02*
X222075000Y-49339000D01*
X222075000Y-46165000D02*
X222075000Y-46912000D01*
X222035000Y-48592000D02*
X222035000Y-49371000D01*
X222035000Y-46133000D02*
X222035000Y-46912000D01*
X221995000Y-48592000D02*
X221995000Y-49402000D01*
X221995000Y-46102000D02*
X221995000Y-46912000D01*
X221955000Y-48592000D02*
X221955000Y-49432000D01*
X221955000Y-46072000D02*
X221955000Y-46912000D01*
X221915000Y-48592000D02*
X221915000Y-49460000D01*
X221915000Y-46044000D02*
X221915000Y-46912000D01*
X221875000Y-48592000D02*
X221875000Y-49487000D01*
X221875000Y-46017000D02*
X221875000Y-46912000D01*
X221835000Y-48592000D02*
X221835000Y-49512000D01*
X221835000Y-45992000D02*
X221835000Y-46912000D01*
X221795000Y-48592000D02*
X221795000Y-49537000D01*
X221795000Y-45967000D02*
X221795000Y-46912000D01*
X221755000Y-48592000D02*
X221755000Y-49560000D01*
X221755000Y-45944000D02*
X221755000Y-46912000D01*
X221715000Y-48592000D02*
X221715000Y-49582000D01*
X221715000Y-45922000D02*
X221715000Y-46912000D01*
X221675000Y-48592000D02*
X221675000Y-49603000D01*
X221675000Y-45901000D02*
X221675000Y-46912000D01*
X221635000Y-48592000D02*
X221635000Y-49622000D01*
X221635000Y-45882000D02*
X221635000Y-46912000D01*
X221595000Y-48592000D02*
X221595000Y-49641000D01*
X221595000Y-45863000D02*
X221595000Y-46912000D01*
X221555000Y-48592000D02*
X221555000Y-49659000D01*
X221555000Y-45845000D02*
X221555000Y-46912000D01*
X221515000Y-48592000D02*
X221515000Y-49676000D01*
X221515000Y-45828000D02*
X221515000Y-46912000D01*
X221475000Y-48592000D02*
X221475000Y-49692000D01*
X221475000Y-45812000D02*
X221475000Y-46912000D01*
X221435000Y-48592000D02*
X221435000Y-49706000D01*
X221435000Y-45798000D02*
X221435000Y-46912000D01*
X221394000Y-48592000D02*
X221394000Y-49720000D01*
X221394000Y-45784000D02*
X221394000Y-46912000D01*
X221354000Y-48592000D02*
X221354000Y-49734000D01*
X221354000Y-45770000D02*
X221354000Y-46912000D01*
X221314000Y-48592000D02*
X221314000Y-49746000D01*
X221314000Y-45758000D02*
X221314000Y-46912000D01*
X221274000Y-48592000D02*
X221274000Y-49757000D01*
X221274000Y-45747000D02*
X221274000Y-46912000D01*
X221234000Y-48592000D02*
X221234000Y-49768000D01*
X221234000Y-45736000D02*
X221234000Y-46912000D01*
X221194000Y-48592000D02*
X221194000Y-49777000D01*
X221194000Y-45727000D02*
X221194000Y-46912000D01*
X221154000Y-48592000D02*
X221154000Y-49786000D01*
X221154000Y-45718000D02*
X221154000Y-46912000D01*
X221114000Y-48592000D02*
X221114000Y-49794000D01*
X221114000Y-45710000D02*
X221114000Y-46912000D01*
X221074000Y-48592000D02*
X221074000Y-49802000D01*
X221074000Y-45702000D02*
X221074000Y-46912000D01*
X221034000Y-48592000D02*
X221034000Y-49808000D01*
X221034000Y-45696000D02*
X221034000Y-46912000D01*
X220994000Y-48592000D02*
X220994000Y-49814000D01*
X220994000Y-45690000D02*
X220994000Y-46912000D01*
X220954000Y-48592000D02*
X220954000Y-49819000D01*
X220954000Y-45685000D02*
X220954000Y-46912000D01*
X220914000Y-48592000D02*
X220914000Y-49823000D01*
X220914000Y-45681000D02*
X220914000Y-46912000D01*
X220874000Y-48592000D02*
X220874000Y-49826000D01*
X220874000Y-45678000D02*
X220874000Y-46912000D01*
X220834000Y-48592000D02*
X220834000Y-49829000D01*
X220834000Y-45675000D02*
X220834000Y-46912000D01*
X220794000Y-45673000D02*
X220794000Y-46912000D01*
X220794000Y-48592000D02*
X220794000Y-49831000D01*
X220754000Y-45672000D02*
X220754000Y-46912000D01*
X220754000Y-48592000D02*
X220754000Y-49832000D01*
X220714000Y-45672000D02*
X220714000Y-46912000D01*
X220714000Y-48592000D02*
X220714000Y-49832000D01*
X222834000Y-47752000D02*
G75*
G03*
X222834000Y-47752000I-2120000J0D01*
G01*
%TO.C,C3*%
X188414199Y-123827000D02*
X188414199Y-124227000D01*
X188214199Y-124027000D02*
X188614199Y-124027000D01*
X192565000Y-124852000D02*
X192565000Y-125592000D01*
X192525000Y-124685000D02*
X192525000Y-125759000D01*
X192485000Y-124558000D02*
X192485000Y-125886000D01*
X192445000Y-124454000D02*
X192445000Y-125990000D01*
X192405000Y-124363000D02*
X192405000Y-126081000D01*
X192365000Y-124282000D02*
X192365000Y-126162000D01*
X192325000Y-124209000D02*
X192325000Y-126235000D01*
X192285000Y-126062000D02*
X192285000Y-126302000D01*
X192285000Y-124142000D02*
X192285000Y-124382000D01*
X192245000Y-126062000D02*
X192245000Y-126364000D01*
X192245000Y-124080000D02*
X192245000Y-124382000D01*
X192205000Y-126062000D02*
X192205000Y-126422000D01*
X192205000Y-124022000D02*
X192205000Y-124382000D01*
X192165000Y-126062000D02*
X192165000Y-126476000D01*
X192165000Y-123968000D02*
X192165000Y-124382000D01*
X192125000Y-126062000D02*
X192125000Y-126526000D01*
X192125000Y-123918000D02*
X192125000Y-124382000D01*
X192085000Y-126062000D02*
X192085000Y-126573000D01*
X192085000Y-123871000D02*
X192085000Y-124382000D01*
X192045000Y-126062000D02*
X192045000Y-126618000D01*
X192045000Y-123826000D02*
X192045000Y-124382000D01*
X192005000Y-126062000D02*
X192005000Y-126660000D01*
X192005000Y-123784000D02*
X192005000Y-124382000D01*
X191965000Y-126062000D02*
X191965000Y-126700000D01*
X191965000Y-123744000D02*
X191965000Y-124382000D01*
X191925000Y-126062000D02*
X191925000Y-126738000D01*
X191925000Y-123706000D02*
X191925000Y-124382000D01*
X191885000Y-126062000D02*
X191885000Y-126774000D01*
X191885000Y-123670000D02*
X191885000Y-124382000D01*
X191845000Y-126062000D02*
X191845000Y-126809000D01*
X191845000Y-123635000D02*
X191845000Y-124382000D01*
X191805000Y-126062000D02*
X191805000Y-126841000D01*
X191805000Y-123603000D02*
X191805000Y-124382000D01*
X191765000Y-126062000D02*
X191765000Y-126872000D01*
X191765000Y-123572000D02*
X191765000Y-124382000D01*
X191725000Y-126062000D02*
X191725000Y-126902000D01*
X191725000Y-123542000D02*
X191725000Y-124382000D01*
X191685000Y-126062000D02*
X191685000Y-126930000D01*
X191685000Y-123514000D02*
X191685000Y-124382000D01*
X191645000Y-126062000D02*
X191645000Y-126957000D01*
X191645000Y-123487000D02*
X191645000Y-124382000D01*
X191605000Y-126062000D02*
X191605000Y-126982000D01*
X191605000Y-123462000D02*
X191605000Y-124382000D01*
X191565000Y-126062000D02*
X191565000Y-127007000D01*
X191565000Y-123437000D02*
X191565000Y-124382000D01*
X191525000Y-126062000D02*
X191525000Y-127030000D01*
X191525000Y-123414000D02*
X191525000Y-124382000D01*
X191485000Y-126062000D02*
X191485000Y-127052000D01*
X191485000Y-123392000D02*
X191485000Y-124382000D01*
X191445000Y-126062000D02*
X191445000Y-127073000D01*
X191445000Y-123371000D02*
X191445000Y-124382000D01*
X191405000Y-126062000D02*
X191405000Y-127092000D01*
X191405000Y-123352000D02*
X191405000Y-124382000D01*
X191365000Y-126062000D02*
X191365000Y-127111000D01*
X191365000Y-123333000D02*
X191365000Y-124382000D01*
X191325000Y-126062000D02*
X191325000Y-127129000D01*
X191325000Y-123315000D02*
X191325000Y-124382000D01*
X191285000Y-126062000D02*
X191285000Y-127146000D01*
X191285000Y-123298000D02*
X191285000Y-124382000D01*
X191245000Y-126062000D02*
X191245000Y-127162000D01*
X191245000Y-123282000D02*
X191245000Y-124382000D01*
X191205000Y-126062000D02*
X191205000Y-127176000D01*
X191205000Y-123268000D02*
X191205000Y-124382000D01*
X191164000Y-126062000D02*
X191164000Y-127190000D01*
X191164000Y-123254000D02*
X191164000Y-124382000D01*
X191124000Y-126062000D02*
X191124000Y-127204000D01*
X191124000Y-123240000D02*
X191124000Y-124382000D01*
X191084000Y-126062000D02*
X191084000Y-127216000D01*
X191084000Y-123228000D02*
X191084000Y-124382000D01*
X191044000Y-126062000D02*
X191044000Y-127227000D01*
X191044000Y-123217000D02*
X191044000Y-124382000D01*
X191004000Y-126062000D02*
X191004000Y-127238000D01*
X191004000Y-123206000D02*
X191004000Y-124382000D01*
X190964000Y-126062000D02*
X190964000Y-127247000D01*
X190964000Y-123197000D02*
X190964000Y-124382000D01*
X190924000Y-126062000D02*
X190924000Y-127256000D01*
X190924000Y-123188000D02*
X190924000Y-124382000D01*
X190884000Y-126062000D02*
X190884000Y-127264000D01*
X190884000Y-123180000D02*
X190884000Y-124382000D01*
X190844000Y-126062000D02*
X190844000Y-127272000D01*
X190844000Y-123172000D02*
X190844000Y-124382000D01*
X190804000Y-126062000D02*
X190804000Y-127278000D01*
X190804000Y-123166000D02*
X190804000Y-124382000D01*
X190764000Y-126062000D02*
X190764000Y-127284000D01*
X190764000Y-123160000D02*
X190764000Y-124382000D01*
X190724000Y-126062000D02*
X190724000Y-127289000D01*
X190724000Y-123155000D02*
X190724000Y-124382000D01*
X190684000Y-126062000D02*
X190684000Y-127293000D01*
X190684000Y-123151000D02*
X190684000Y-124382000D01*
X190644000Y-123148000D02*
X190644000Y-127296000D01*
X190604000Y-123145000D02*
X190604000Y-127299000D01*
X190564000Y-123143000D02*
X190564000Y-127301000D01*
X190524000Y-123142000D02*
X190524000Y-127302000D01*
X190484000Y-123142000D02*
X190484000Y-127302000D01*
X192604000Y-125222000D02*
G75*
G03*
X192604000Y-125222000I-2120000J0D01*
G01*
%TO.C,C4*%
X207872000Y-47752000D02*
G75*
G03*
X207872000Y-47752000I-2120000J0D01*
G01*
X205752000Y-48592000D02*
X205752000Y-49832000D01*
X205752000Y-45672000D02*
X205752000Y-46912000D01*
X205792000Y-48592000D02*
X205792000Y-49832000D01*
X205792000Y-45672000D02*
X205792000Y-46912000D01*
X205832000Y-48592000D02*
X205832000Y-49831000D01*
X205832000Y-45673000D02*
X205832000Y-46912000D01*
X205872000Y-45675000D02*
X205872000Y-46912000D01*
X205872000Y-48592000D02*
X205872000Y-49829000D01*
X205912000Y-45678000D02*
X205912000Y-46912000D01*
X205912000Y-48592000D02*
X205912000Y-49826000D01*
X205952000Y-45681000D02*
X205952000Y-46912000D01*
X205952000Y-48592000D02*
X205952000Y-49823000D01*
X205992000Y-45685000D02*
X205992000Y-46912000D01*
X205992000Y-48592000D02*
X205992000Y-49819000D01*
X206032000Y-45690000D02*
X206032000Y-46912000D01*
X206032000Y-48592000D02*
X206032000Y-49814000D01*
X206072000Y-45696000D02*
X206072000Y-46912000D01*
X206072000Y-48592000D02*
X206072000Y-49808000D01*
X206112000Y-45702000D02*
X206112000Y-46912000D01*
X206112000Y-48592000D02*
X206112000Y-49802000D01*
X206152000Y-45710000D02*
X206152000Y-46912000D01*
X206152000Y-48592000D02*
X206152000Y-49794000D01*
X206192000Y-45718000D02*
X206192000Y-46912000D01*
X206192000Y-48592000D02*
X206192000Y-49786000D01*
X206232000Y-45727000D02*
X206232000Y-46912000D01*
X206232000Y-48592000D02*
X206232000Y-49777000D01*
X206272000Y-45736000D02*
X206272000Y-46912000D01*
X206272000Y-48592000D02*
X206272000Y-49768000D01*
X206312000Y-45747000D02*
X206312000Y-46912000D01*
X206312000Y-48592000D02*
X206312000Y-49757000D01*
X206352000Y-45758000D02*
X206352000Y-46912000D01*
X206352000Y-48592000D02*
X206352000Y-49746000D01*
X206392000Y-45770000D02*
X206392000Y-46912000D01*
X206392000Y-48592000D02*
X206392000Y-49734000D01*
X206432000Y-45784000D02*
X206432000Y-46912000D01*
X206432000Y-48592000D02*
X206432000Y-49720000D01*
X206473000Y-45798000D02*
X206473000Y-46912000D01*
X206473000Y-48592000D02*
X206473000Y-49706000D01*
X206513000Y-45812000D02*
X206513000Y-46912000D01*
X206513000Y-48592000D02*
X206513000Y-49692000D01*
X206553000Y-45828000D02*
X206553000Y-46912000D01*
X206553000Y-48592000D02*
X206553000Y-49676000D01*
X206593000Y-45845000D02*
X206593000Y-46912000D01*
X206593000Y-48592000D02*
X206593000Y-49659000D01*
X206633000Y-45863000D02*
X206633000Y-46912000D01*
X206633000Y-48592000D02*
X206633000Y-49641000D01*
X206673000Y-45882000D02*
X206673000Y-46912000D01*
X206673000Y-48592000D02*
X206673000Y-49622000D01*
X206713000Y-45901000D02*
X206713000Y-46912000D01*
X206713000Y-48592000D02*
X206713000Y-49603000D01*
X206753000Y-45922000D02*
X206753000Y-46912000D01*
X206753000Y-48592000D02*
X206753000Y-49582000D01*
X206793000Y-45944000D02*
X206793000Y-46912000D01*
X206793000Y-48592000D02*
X206793000Y-49560000D01*
X206833000Y-45967000D02*
X206833000Y-46912000D01*
X206833000Y-48592000D02*
X206833000Y-49537000D01*
X206873000Y-45992000D02*
X206873000Y-46912000D01*
X206873000Y-48592000D02*
X206873000Y-49512000D01*
X206913000Y-46017000D02*
X206913000Y-46912000D01*
X206913000Y-48592000D02*
X206913000Y-49487000D01*
X206953000Y-46044000D02*
X206953000Y-46912000D01*
X206953000Y-48592000D02*
X206953000Y-49460000D01*
X206993000Y-46072000D02*
X206993000Y-46912000D01*
X206993000Y-48592000D02*
X206993000Y-49432000D01*
X207033000Y-46102000D02*
X207033000Y-46912000D01*
X207033000Y-48592000D02*
X207033000Y-49402000D01*
X207073000Y-46133000D02*
X207073000Y-46912000D01*
X207073000Y-48592000D02*
X207073000Y-49371000D01*
X207113000Y-46165000D02*
X207113000Y-46912000D01*
X207113000Y-48592000D02*
X207113000Y-49339000D01*
X207153000Y-46200000D02*
X207153000Y-46912000D01*
X207153000Y-48592000D02*
X207153000Y-49304000D01*
X207193000Y-46236000D02*
X207193000Y-46912000D01*
X207193000Y-48592000D02*
X207193000Y-49268000D01*
X207233000Y-46274000D02*
X207233000Y-46912000D01*
X207233000Y-48592000D02*
X207233000Y-49230000D01*
X207273000Y-46314000D02*
X207273000Y-46912000D01*
X207273000Y-48592000D02*
X207273000Y-49190000D01*
X207313000Y-46356000D02*
X207313000Y-46912000D01*
X207313000Y-48592000D02*
X207313000Y-49148000D01*
X207353000Y-46401000D02*
X207353000Y-49103000D01*
X207393000Y-46448000D02*
X207393000Y-49056000D01*
X207433000Y-46498000D02*
X207433000Y-49006000D01*
X207473000Y-46552000D02*
X207473000Y-48952000D01*
X207513000Y-46610000D02*
X207513000Y-48894000D01*
X207553000Y-46672000D02*
X207553000Y-48832000D01*
X207593000Y-46739000D02*
X207593000Y-48765000D01*
X207633000Y-46812000D02*
X207633000Y-48692000D01*
X207673000Y-46893000D02*
X207673000Y-48611000D01*
X207713000Y-46984000D02*
X207713000Y-48520000D01*
X207753000Y-47088000D02*
X207753000Y-48416000D01*
X207793000Y-47215000D02*
X207793000Y-48289000D01*
X207833000Y-47382000D02*
X207833000Y-48122000D01*
X203482199Y-46557000D02*
X203882199Y-46557000D01*
X203682199Y-46357000D02*
X203682199Y-46757000D01*
%TO.C,C5*%
X191330000Y-91597000D02*
X191330000Y-92302000D01*
X191330000Y-89562000D02*
X191330000Y-90267000D01*
X187090000Y-91597000D02*
X187090000Y-92302000D01*
X187090000Y-89562000D02*
X187090000Y-90267000D01*
X187090000Y-92302000D02*
X191330000Y-92302000D01*
X187090000Y-89562000D02*
X191330000Y-89562000D01*
%TO.C,C6*%
X216554000Y-113692000D02*
X220794000Y-113692000D01*
X216554000Y-116432000D02*
X220794000Y-116432000D01*
X216554000Y-113692000D02*
X216554000Y-114397000D01*
X216554000Y-115727000D02*
X216554000Y-116432000D01*
X220794000Y-113692000D02*
X220794000Y-114397000D01*
X220794000Y-115727000D02*
X220794000Y-116432000D01*
%TO.C,C7*%
X204674199Y-127637000D02*
X204674199Y-128037000D01*
X204474199Y-127837000D02*
X204874199Y-127837000D01*
X208825000Y-128662000D02*
X208825000Y-129402000D01*
X208785000Y-128495000D02*
X208785000Y-129569000D01*
X208745000Y-128368000D02*
X208745000Y-129696000D01*
X208705000Y-128264000D02*
X208705000Y-129800000D01*
X208665000Y-128173000D02*
X208665000Y-129891000D01*
X208625000Y-128092000D02*
X208625000Y-129972000D01*
X208585000Y-128019000D02*
X208585000Y-130045000D01*
X208545000Y-127952000D02*
X208545000Y-130112000D01*
X208505000Y-127890000D02*
X208505000Y-130174000D01*
X208465000Y-127832000D02*
X208465000Y-130232000D01*
X208425000Y-127778000D02*
X208425000Y-130286000D01*
X208385000Y-127728000D02*
X208385000Y-130336000D01*
X208345000Y-127681000D02*
X208345000Y-130383000D01*
X208305000Y-129872000D02*
X208305000Y-130428000D01*
X208305000Y-127636000D02*
X208305000Y-128192000D01*
X208265000Y-129872000D02*
X208265000Y-130470000D01*
X208265000Y-127594000D02*
X208265000Y-128192000D01*
X208225000Y-129872000D02*
X208225000Y-130510000D01*
X208225000Y-127554000D02*
X208225000Y-128192000D01*
X208185000Y-129872000D02*
X208185000Y-130548000D01*
X208185000Y-127516000D02*
X208185000Y-128192000D01*
X208145000Y-129872000D02*
X208145000Y-130584000D01*
X208145000Y-127480000D02*
X208145000Y-128192000D01*
X208105000Y-129872000D02*
X208105000Y-130619000D01*
X208105000Y-127445000D02*
X208105000Y-128192000D01*
X208065000Y-129872000D02*
X208065000Y-130651000D01*
X208065000Y-127413000D02*
X208065000Y-128192000D01*
X208025000Y-129872000D02*
X208025000Y-130682000D01*
X208025000Y-127382000D02*
X208025000Y-128192000D01*
X207985000Y-129872000D02*
X207985000Y-130712000D01*
X207985000Y-127352000D02*
X207985000Y-128192000D01*
X207945000Y-129872000D02*
X207945000Y-130740000D01*
X207945000Y-127324000D02*
X207945000Y-128192000D01*
X207905000Y-129872000D02*
X207905000Y-130767000D01*
X207905000Y-127297000D02*
X207905000Y-128192000D01*
X207865000Y-129872000D02*
X207865000Y-130792000D01*
X207865000Y-127272000D02*
X207865000Y-128192000D01*
X207825000Y-129872000D02*
X207825000Y-130817000D01*
X207825000Y-127247000D02*
X207825000Y-128192000D01*
X207785000Y-129872000D02*
X207785000Y-130840000D01*
X207785000Y-127224000D02*
X207785000Y-128192000D01*
X207745000Y-129872000D02*
X207745000Y-130862000D01*
X207745000Y-127202000D02*
X207745000Y-128192000D01*
X207705000Y-129872000D02*
X207705000Y-130883000D01*
X207705000Y-127181000D02*
X207705000Y-128192000D01*
X207665000Y-129872000D02*
X207665000Y-130902000D01*
X207665000Y-127162000D02*
X207665000Y-128192000D01*
X207625000Y-129872000D02*
X207625000Y-130921000D01*
X207625000Y-127143000D02*
X207625000Y-128192000D01*
X207585000Y-129872000D02*
X207585000Y-130939000D01*
X207585000Y-127125000D02*
X207585000Y-128192000D01*
X207545000Y-129872000D02*
X207545000Y-130956000D01*
X207545000Y-127108000D02*
X207545000Y-128192000D01*
X207505000Y-129872000D02*
X207505000Y-130972000D01*
X207505000Y-127092000D02*
X207505000Y-128192000D01*
X207465000Y-129872000D02*
X207465000Y-130986000D01*
X207465000Y-127078000D02*
X207465000Y-128192000D01*
X207424000Y-129872000D02*
X207424000Y-131000000D01*
X207424000Y-127064000D02*
X207424000Y-128192000D01*
X207384000Y-129872000D02*
X207384000Y-131014000D01*
X207384000Y-127050000D02*
X207384000Y-128192000D01*
X207344000Y-129872000D02*
X207344000Y-131026000D01*
X207344000Y-127038000D02*
X207344000Y-128192000D01*
X207304000Y-129872000D02*
X207304000Y-131037000D01*
X207304000Y-127027000D02*
X207304000Y-128192000D01*
X207264000Y-129872000D02*
X207264000Y-131048000D01*
X207264000Y-127016000D02*
X207264000Y-128192000D01*
X207224000Y-129872000D02*
X207224000Y-131057000D01*
X207224000Y-127007000D02*
X207224000Y-128192000D01*
X207184000Y-129872000D02*
X207184000Y-131066000D01*
X207184000Y-126998000D02*
X207184000Y-128192000D01*
X207144000Y-129872000D02*
X207144000Y-131074000D01*
X207144000Y-126990000D02*
X207144000Y-128192000D01*
X207104000Y-129872000D02*
X207104000Y-131082000D01*
X207104000Y-126982000D02*
X207104000Y-128192000D01*
X207064000Y-129872000D02*
X207064000Y-131088000D01*
X207064000Y-126976000D02*
X207064000Y-128192000D01*
X207024000Y-129872000D02*
X207024000Y-131094000D01*
X207024000Y-126970000D02*
X207024000Y-128192000D01*
X206984000Y-129872000D02*
X206984000Y-131099000D01*
X206984000Y-126965000D02*
X206984000Y-128192000D01*
X206944000Y-129872000D02*
X206944000Y-131103000D01*
X206944000Y-126961000D02*
X206944000Y-128192000D01*
X206904000Y-129872000D02*
X206904000Y-131106000D01*
X206904000Y-126958000D02*
X206904000Y-128192000D01*
X206864000Y-129872000D02*
X206864000Y-131109000D01*
X206864000Y-126955000D02*
X206864000Y-128192000D01*
X206824000Y-126953000D02*
X206824000Y-128192000D01*
X206824000Y-129872000D02*
X206824000Y-131111000D01*
X206784000Y-126952000D02*
X206784000Y-128192000D01*
X206784000Y-129872000D02*
X206784000Y-131112000D01*
X206744000Y-126952000D02*
X206744000Y-128192000D01*
X206744000Y-129872000D02*
X206744000Y-131112000D01*
X208864000Y-129032000D02*
G75*
G03*
X208864000Y-129032000I-2120000J0D01*
G01*
%TO.C,R1*%
X61044000Y-82042000D02*
X60194000Y-82042000D01*
X43604000Y-82042000D02*
X44454000Y-82042000D01*
X60194000Y-79422000D02*
X44454000Y-79422000D01*
X60194000Y-84662000D02*
X60194000Y-79422000D01*
X44454000Y-84662000D02*
X60194000Y-84662000D01*
X44454000Y-79422000D02*
X44454000Y-84662000D01*
%TO.C,R2*%
X97874000Y-66802000D02*
X94484000Y-66802000D01*
X75354000Y-66802000D02*
X78744000Y-66802000D01*
X94484000Y-64182000D02*
X78744000Y-64182000D01*
X94484000Y-69422000D02*
X94484000Y-64182000D01*
X78744000Y-69422000D02*
X94484000Y-69422000D01*
X78744000Y-64182000D02*
X78744000Y-69422000D01*
%TO.C,R3*%
X227584000Y-127682000D02*
X227584000Y-126722000D01*
X230204000Y-130302000D02*
G75*
G03*
X230204000Y-130302000I-2620000J0D01*
G01*
%TO.C,U1*%
X86724000Y-104842000D02*
X85074000Y-104842000D01*
X86724000Y-115122000D02*
X86724000Y-104842000D01*
X81424000Y-115122000D02*
X86724000Y-115122000D01*
X81424000Y-104842000D02*
X81424000Y-115122000D01*
X83074000Y-104842000D02*
X81424000Y-104842000D01*
X85074000Y-104842000D02*
G75*
G02*
X83074000Y-104842000I-1000000J0D01*
G01*
%TO.C,U3*%
X135754000Y-98717000D02*
X135754000Y-83947000D01*
X144154000Y-98717000D02*
X135754000Y-98717000D01*
X144154000Y-83147000D02*
X144154000Y-98717000D01*
X136554000Y-83147000D02*
X144154000Y-83147000D01*
X135754000Y-83947000D02*
X136554000Y-83147000D01*
%TO.C,U1B1*%
X83074000Y-80712000D02*
X81424000Y-80712000D01*
X81424000Y-80712000D02*
X81424000Y-90992000D01*
X81424000Y-90992000D02*
X86724000Y-90992000D01*
X86724000Y-90992000D02*
X86724000Y-80712000D01*
X86724000Y-80712000D02*
X85074000Y-80712000D01*
X85074000Y-80712000D02*
G75*
G02*
X83074000Y-80712000I-1000000J0D01*
G01*
%TD*%
%TO.C,U2B1*%
D11*
X124245904Y-141394380D02*
X124245904Y-142203904D01*
X124293523Y-142299142D01*
X124341142Y-142346761D01*
X124436380Y-142394380D01*
X124626857Y-142394380D01*
X124722095Y-142346761D01*
X124769714Y-142299142D01*
X124817333Y-142203904D01*
X124817333Y-141394380D01*
X125245904Y-141489619D02*
X125293523Y-141442000D01*
X125388761Y-141394380D01*
X125626857Y-141394380D01*
X125722095Y-141442000D01*
X125769714Y-141489619D01*
X125817333Y-141584857D01*
X125817333Y-141680095D01*
X125769714Y-141822952D01*
X125198285Y-142394380D01*
X125817333Y-142394380D01*
X126579238Y-141870571D02*
X126722095Y-141918190D01*
X126769714Y-141965809D01*
X126817333Y-142061047D01*
X126817333Y-142203904D01*
X126769714Y-142299142D01*
X126722095Y-142346761D01*
X126626857Y-142394380D01*
X126245904Y-142394380D01*
X126245904Y-141394380D01*
X126579238Y-141394380D01*
X126674476Y-141442000D01*
X126722095Y-141489619D01*
X126769714Y-141584857D01*
X126769714Y-141680095D01*
X126722095Y-141775333D01*
X126674476Y-141822952D01*
X126579238Y-141870571D01*
X126245904Y-141870571D01*
X127769714Y-142394380D02*
X127198285Y-142394380D01*
X127484000Y-142394380D02*
X127484000Y-141394380D01*
X127388761Y-141537238D01*
X127293523Y-141632476D01*
X127198285Y-141680095D01*
%TO.C,U2*%
X96012095Y-141394380D02*
X96012095Y-142203904D01*
X96059714Y-142299142D01*
X96107333Y-142346761D01*
X96202571Y-142394380D01*
X96393047Y-142394380D01*
X96488285Y-142346761D01*
X96535904Y-142299142D01*
X96583523Y-142203904D01*
X96583523Y-141394380D01*
X97012095Y-141489619D02*
X97059714Y-141442000D01*
X97154952Y-141394380D01*
X97393047Y-141394380D01*
X97488285Y-141442000D01*
X97535904Y-141489619D01*
X97583523Y-141584857D01*
X97583523Y-141680095D01*
X97535904Y-141822952D01*
X96964476Y-142394380D01*
X97583523Y-142394380D01*
%TO.C,C1*%
X193889333Y-48109142D02*
X193841714Y-48156761D01*
X193698857Y-48204380D01*
X193603619Y-48204380D01*
X193460761Y-48156761D01*
X193365523Y-48061523D01*
X193317904Y-47966285D01*
X193270285Y-47775809D01*
X193270285Y-47632952D01*
X193317904Y-47442476D01*
X193365523Y-47347238D01*
X193460761Y-47252000D01*
X193603619Y-47204380D01*
X193698857Y-47204380D01*
X193841714Y-47252000D01*
X193889333Y-47299619D01*
X194841714Y-48204380D02*
X194270285Y-48204380D01*
X194556000Y-48204380D02*
X194556000Y-47204380D01*
X194460761Y-47347238D01*
X194365523Y-47442476D01*
X194270285Y-47490095D01*
%TO.C,C2*%
X225385333Y-48109142D02*
X225337714Y-48156761D01*
X225194857Y-48204380D01*
X225099619Y-48204380D01*
X224956761Y-48156761D01*
X224861523Y-48061523D01*
X224813904Y-47966285D01*
X224766285Y-47775809D01*
X224766285Y-47632952D01*
X224813904Y-47442476D01*
X224861523Y-47347238D01*
X224956761Y-47252000D01*
X225099619Y-47204380D01*
X225194857Y-47204380D01*
X225337714Y-47252000D01*
X225385333Y-47299619D01*
X225766285Y-47299619D02*
X225813904Y-47252000D01*
X225909142Y-47204380D01*
X226147238Y-47204380D01*
X226242476Y-47252000D01*
X226290095Y-47299619D01*
X226337714Y-47394857D01*
X226337714Y-47490095D01*
X226290095Y-47632952D01*
X225718666Y-48204380D01*
X226337714Y-48204380D01*
%TO.C,C3*%
X190317333Y-122329142D02*
X190269714Y-122376761D01*
X190126857Y-122424380D01*
X190031619Y-122424380D01*
X189888761Y-122376761D01*
X189793523Y-122281523D01*
X189745904Y-122186285D01*
X189698285Y-121995809D01*
X189698285Y-121852952D01*
X189745904Y-121662476D01*
X189793523Y-121567238D01*
X189888761Y-121472000D01*
X190031619Y-121424380D01*
X190126857Y-121424380D01*
X190269714Y-121472000D01*
X190317333Y-121519619D01*
X190650666Y-121424380D02*
X191269714Y-121424380D01*
X190936380Y-121805333D01*
X191079238Y-121805333D01*
X191174476Y-121852952D01*
X191222095Y-121900571D01*
X191269714Y-121995809D01*
X191269714Y-122233904D01*
X191222095Y-122329142D01*
X191174476Y-122376761D01*
X191079238Y-122424380D01*
X190793523Y-122424380D01*
X190698285Y-122376761D01*
X190650666Y-122329142D01*
%TO.C,C4*%
X210145333Y-48109142D02*
X210097714Y-48156761D01*
X209954857Y-48204380D01*
X209859619Y-48204380D01*
X209716761Y-48156761D01*
X209621523Y-48061523D01*
X209573904Y-47966285D01*
X209526285Y-47775809D01*
X209526285Y-47632952D01*
X209573904Y-47442476D01*
X209621523Y-47347238D01*
X209716761Y-47252000D01*
X209859619Y-47204380D01*
X209954857Y-47204380D01*
X210097714Y-47252000D01*
X210145333Y-47299619D01*
X211002476Y-47537714D02*
X211002476Y-48204380D01*
X210764380Y-47156761D02*
X210526285Y-47871047D01*
X211145333Y-47871047D01*
%TO.C,C5*%
X189043333Y-88789142D02*
X188995714Y-88836761D01*
X188852857Y-88884380D01*
X188757619Y-88884380D01*
X188614761Y-88836761D01*
X188519523Y-88741523D01*
X188471904Y-88646285D01*
X188424285Y-88455809D01*
X188424285Y-88312952D01*
X188471904Y-88122476D01*
X188519523Y-88027238D01*
X188614761Y-87932000D01*
X188757619Y-87884380D01*
X188852857Y-87884380D01*
X188995714Y-87932000D01*
X189043333Y-87979619D01*
X189948095Y-87884380D02*
X189471904Y-87884380D01*
X189424285Y-88360571D01*
X189471904Y-88312952D01*
X189567142Y-88265333D01*
X189805238Y-88265333D01*
X189900476Y-88312952D01*
X189948095Y-88360571D01*
X189995714Y-88455809D01*
X189995714Y-88693904D01*
X189948095Y-88789142D01*
X189900476Y-88836761D01*
X189805238Y-88884380D01*
X189567142Y-88884380D01*
X189471904Y-88836761D01*
X189424285Y-88789142D01*
%TO.C,C6*%
X218507333Y-112919142D02*
X218459714Y-112966761D01*
X218316857Y-113014380D01*
X218221619Y-113014380D01*
X218078761Y-112966761D01*
X217983523Y-112871523D01*
X217935904Y-112776285D01*
X217888285Y-112585809D01*
X217888285Y-112442952D01*
X217935904Y-112252476D01*
X217983523Y-112157238D01*
X218078761Y-112062000D01*
X218221619Y-112014380D01*
X218316857Y-112014380D01*
X218459714Y-112062000D01*
X218507333Y-112109619D01*
X219364476Y-112014380D02*
X219174000Y-112014380D01*
X219078761Y-112062000D01*
X219031142Y-112109619D01*
X218935904Y-112252476D01*
X218888285Y-112442952D01*
X218888285Y-112823904D01*
X218935904Y-112919142D01*
X218983523Y-112966761D01*
X219078761Y-113014380D01*
X219269238Y-113014380D01*
X219364476Y-112966761D01*
X219412095Y-112919142D01*
X219459714Y-112823904D01*
X219459714Y-112585809D01*
X219412095Y-112490571D01*
X219364476Y-112442952D01*
X219269238Y-112395333D01*
X219078761Y-112395333D01*
X218983523Y-112442952D01*
X218935904Y-112490571D01*
X218888285Y-112585809D01*
%TO.C,C7*%
X206577333Y-126139142D02*
X206529714Y-126186761D01*
X206386857Y-126234380D01*
X206291619Y-126234380D01*
X206148761Y-126186761D01*
X206053523Y-126091523D01*
X206005904Y-125996285D01*
X205958285Y-125805809D01*
X205958285Y-125662952D01*
X206005904Y-125472476D01*
X206053523Y-125377238D01*
X206148761Y-125282000D01*
X206291619Y-125234380D01*
X206386857Y-125234380D01*
X206529714Y-125282000D01*
X206577333Y-125329619D01*
X206910666Y-125234380D02*
X207577333Y-125234380D01*
X207148761Y-126234380D01*
%TO.C,H1*%
X55372095Y-144804380D02*
X55372095Y-143804380D01*
X55372095Y-144280571D02*
X55943523Y-144280571D01*
X55943523Y-144804380D02*
X55943523Y-143804380D01*
X56943523Y-144804380D02*
X56372095Y-144804380D01*
X56657809Y-144804380D02*
X56657809Y-143804380D01*
X56562571Y-143947238D01*
X56467333Y-144042476D01*
X56372095Y-144090095D01*
%TO.C,H2*%
X136398095Y-42696380D02*
X136398095Y-41696380D01*
X136398095Y-42172571D02*
X136969523Y-42172571D01*
X136969523Y-42696380D02*
X136969523Y-41696380D01*
X137398095Y-41791619D02*
X137445714Y-41744000D01*
X137540952Y-41696380D01*
X137779047Y-41696380D01*
X137874285Y-41744000D01*
X137921904Y-41791619D01*
X137969523Y-41886857D01*
X137969523Y-41982095D01*
X137921904Y-42124952D01*
X137350476Y-42696380D01*
X137969523Y-42696380D01*
%TO.C,H3*%
X168402095Y-144804380D02*
X168402095Y-143804380D01*
X168402095Y-144280571D02*
X168973523Y-144280571D01*
X168973523Y-144804380D02*
X168973523Y-143804380D01*
X169354476Y-143804380D02*
X169973523Y-143804380D01*
X169640190Y-144185333D01*
X169783047Y-144185333D01*
X169878285Y-144232952D01*
X169925904Y-144280571D01*
X169973523Y-144375809D01*
X169973523Y-144613904D01*
X169925904Y-144709142D01*
X169878285Y-144756761D01*
X169783047Y-144804380D01*
X169497333Y-144804380D01*
X169402095Y-144756761D01*
X169354476Y-144709142D01*
%TO.C,H4*%
X263652095Y-36854380D02*
X263652095Y-35854380D01*
X263652095Y-36330571D02*
X264223523Y-36330571D01*
X264223523Y-36854380D02*
X264223523Y-35854380D01*
X265128285Y-36187714D02*
X265128285Y-36854380D01*
X264890190Y-35806761D02*
X264652095Y-36521047D01*
X265271142Y-36521047D01*
%TO.C,H5*%
X263652095Y-55904380D02*
X263652095Y-54904380D01*
X263652095Y-55380571D02*
X264223523Y-55380571D01*
X264223523Y-55904380D02*
X264223523Y-54904380D01*
X265175904Y-54904380D02*
X264699714Y-54904380D01*
X264652095Y-55380571D01*
X264699714Y-55332952D01*
X264794952Y-55285333D01*
X265033047Y-55285333D01*
X265128285Y-55332952D01*
X265175904Y-55380571D01*
X265223523Y-55475809D01*
X265223523Y-55713904D01*
X265175904Y-55809142D01*
X265128285Y-55856761D01*
X265033047Y-55904380D01*
X264794952Y-55904380D01*
X264699714Y-55856761D01*
X264652095Y-55809142D01*
%TO.C,H6*%
X262382095Y-76224380D02*
X262382095Y-75224380D01*
X262382095Y-75700571D02*
X262953523Y-75700571D01*
X262953523Y-76224380D02*
X262953523Y-75224380D01*
X263858285Y-75224380D02*
X263667809Y-75224380D01*
X263572571Y-75272000D01*
X263524952Y-75319619D01*
X263429714Y-75462476D01*
X263382095Y-75652952D01*
X263382095Y-76033904D01*
X263429714Y-76129142D01*
X263477333Y-76176761D01*
X263572571Y-76224380D01*
X263763047Y-76224380D01*
X263858285Y-76176761D01*
X263905904Y-76129142D01*
X263953523Y-76033904D01*
X263953523Y-75795809D01*
X263905904Y-75700571D01*
X263858285Y-75652952D01*
X263763047Y-75605333D01*
X263572571Y-75605333D01*
X263477333Y-75652952D01*
X263429714Y-75700571D01*
X263382095Y-75795809D01*
%TO.C,H7*%
X262128095Y-97814380D02*
X262128095Y-96814380D01*
X262128095Y-97290571D02*
X262699523Y-97290571D01*
X262699523Y-97814380D02*
X262699523Y-96814380D01*
X263080476Y-96814380D02*
X263747142Y-96814380D01*
X263318571Y-97814380D01*
%TO.C,R1*%
X52157333Y-78874380D02*
X51824000Y-78398190D01*
X51585904Y-78874380D02*
X51585904Y-77874380D01*
X51966857Y-77874380D01*
X52062095Y-77922000D01*
X52109714Y-77969619D01*
X52157333Y-78064857D01*
X52157333Y-78207714D01*
X52109714Y-78302952D01*
X52062095Y-78350571D01*
X51966857Y-78398190D01*
X51585904Y-78398190D01*
X53109714Y-78874380D02*
X52538285Y-78874380D01*
X52824000Y-78874380D02*
X52824000Y-77874380D01*
X52728761Y-78017238D01*
X52633523Y-78112476D01*
X52538285Y-78160095D01*
%TO.C,R2*%
X86447333Y-63634380D02*
X86114000Y-63158190D01*
X85875904Y-63634380D02*
X85875904Y-62634380D01*
X86256857Y-62634380D01*
X86352095Y-62682000D01*
X86399714Y-62729619D01*
X86447333Y-62824857D01*
X86447333Y-62967714D01*
X86399714Y-63062952D01*
X86352095Y-63110571D01*
X86256857Y-63158190D01*
X85875904Y-63158190D01*
X86828285Y-62729619D02*
X86875904Y-62682000D01*
X86971142Y-62634380D01*
X87209238Y-62634380D01*
X87304476Y-62682000D01*
X87352095Y-62729619D01*
X87399714Y-62824857D01*
X87399714Y-62920095D01*
X87352095Y-63062952D01*
X86780666Y-63634380D01*
X87399714Y-63634380D01*
%TO.C,R3*%
X224416380Y-127928666D02*
X223940190Y-128262000D01*
X224416380Y-128500095D02*
X223416380Y-128500095D01*
X223416380Y-128119142D01*
X223464000Y-128023904D01*
X223511619Y-127976285D01*
X223606857Y-127928666D01*
X223749714Y-127928666D01*
X223844952Y-127976285D01*
X223892571Y-128023904D01*
X223940190Y-128119142D01*
X223940190Y-128500095D01*
X223416380Y-127595333D02*
X223416380Y-126976285D01*
X223797333Y-127309619D01*
X223797333Y-127166761D01*
X223844952Y-127071523D01*
X223892571Y-127023904D01*
X223987809Y-126976285D01*
X224225904Y-126976285D01*
X224321142Y-127023904D01*
X224368761Y-127071523D01*
X224416380Y-127166761D01*
X224416380Y-127452476D01*
X224368761Y-127547714D01*
X224321142Y-127595333D01*
%TO.C,U1*%
X83312095Y-103294380D02*
X83312095Y-104103904D01*
X83359714Y-104199142D01*
X83407333Y-104246761D01*
X83502571Y-104294380D01*
X83693047Y-104294380D01*
X83788285Y-104246761D01*
X83835904Y-104199142D01*
X83883523Y-104103904D01*
X83883523Y-103294380D01*
X84883523Y-104294380D02*
X84312095Y-104294380D01*
X84597809Y-104294380D02*
X84597809Y-103294380D01*
X84502571Y-103437238D01*
X84407333Y-103532476D01*
X84312095Y-103580095D01*
%TO.C,U3*%
X139192095Y-81599380D02*
X139192095Y-82408904D01*
X139239714Y-82504142D01*
X139287333Y-82551761D01*
X139382571Y-82599380D01*
X139573047Y-82599380D01*
X139668285Y-82551761D01*
X139715904Y-82504142D01*
X139763523Y-82408904D01*
X139763523Y-81599380D01*
X140144476Y-81599380D02*
X140763523Y-81599380D01*
X140430190Y-81980333D01*
X140573047Y-81980333D01*
X140668285Y-82027952D01*
X140715904Y-82075571D01*
X140763523Y-82170809D01*
X140763523Y-82408904D01*
X140715904Y-82504142D01*
X140668285Y-82551761D01*
X140573047Y-82599380D01*
X140287333Y-82599380D01*
X140192095Y-82551761D01*
X140144476Y-82504142D01*
%TO.C,U1B1*%
X82335904Y-79164380D02*
X82335904Y-79973904D01*
X82383523Y-80069142D01*
X82431142Y-80116761D01*
X82526380Y-80164380D01*
X82716857Y-80164380D01*
X82812095Y-80116761D01*
X82859714Y-80069142D01*
X82907333Y-79973904D01*
X82907333Y-79164380D01*
X83907333Y-80164380D02*
X83335904Y-80164380D01*
X83621619Y-80164380D02*
X83621619Y-79164380D01*
X83526380Y-79307238D01*
X83431142Y-79402476D01*
X83335904Y-79450095D01*
X84669238Y-79640571D02*
X84812095Y-79688190D01*
X84859714Y-79735809D01*
X84907333Y-79831047D01*
X84907333Y-79973904D01*
X84859714Y-80069142D01*
X84812095Y-80116761D01*
X84716857Y-80164380D01*
X84335904Y-80164380D01*
X84335904Y-79164380D01*
X84669238Y-79164380D01*
X84764476Y-79212000D01*
X84812095Y-79259619D01*
X84859714Y-79354857D01*
X84859714Y-79450095D01*
X84812095Y-79545333D01*
X84764476Y-79592952D01*
X84669238Y-79640571D01*
X84335904Y-79640571D01*
X85859714Y-80164380D02*
X85288285Y-80164380D01*
X85574000Y-80164380D02*
X85574000Y-79164380D01*
X85478761Y-79307238D01*
X85383523Y-79402476D01*
X85288285Y-79450095D01*
%TD*%
M02*
