M48
; DRILL file {KiCad (5.1.8)-1} date 12/17/20 20:59:48
; FORMAT={-:-/ absolute / inch / decimal}
; #@! TF.CreationDate,2020-12-17T20:59:48+05:45
; #@! TF.GenerationSoftware,Kicad,Pcbnew,(5.1.8)-1
; #@! TF.FileFunction,Plated,1,2,PTH
FMAT,2
INCH
T1C0.0006
T2C0.0236
T3C0.0315
T4C0.0472
T5C0.1575
%
G90
G05
T1
X5.38Y-4.0
X5.5Y-3.62
X5.5Y-3.62
X5.92Y-3.36
X6.6Y-3.7
X6.69Y-3.61
X7.44Y-4.02
X7.64Y-2.34
X8.06Y-2.1
X8.12Y-4.48
X8.4Y-4.72
T2
X8.11Y-5.08
X8.1691Y-5.08
X8.0709Y-1.88
X8.13Y-1.88
X7.46Y-4.93
X7.5387Y-4.93
X7.43Y-1.87
X7.4891Y-1.87
X8.66Y-1.88
X8.7191Y-1.88
T3
X8.56Y-4.53
X8.6584Y-4.53
X7.4Y-3.58
X7.4984Y-3.58
X3.16Y-4.18
X3.16Y-4.28
X3.16Y-4.38
X3.16Y-4.48
X3.46Y-4.18
X3.46Y-4.28
X3.46Y-4.38
X3.46Y-4.48
X4.81Y-5.68
X4.81Y-5.78
X4.81Y-5.88
X4.81Y-5.98
X5.11Y-5.68
X5.11Y-5.78
X5.11Y-5.88
X5.11Y-5.98
X3.66Y-5.68
X3.66Y-5.78
X3.66Y-5.88
X3.66Y-5.98
X3.96Y-5.68
X3.96Y-5.78
X3.96Y-5.88
X3.96Y-5.98
X3.16Y-3.23
X3.16Y-3.33
X3.16Y-3.43
X3.16Y-3.53
X3.46Y-3.23
X3.46Y-3.33
X3.46Y-3.43
X3.46Y-3.53
T4
X1.66Y-3.23
X2.46Y-3.23
X2.91Y-2.63
X3.91Y-2.63
X8.96Y-4.93
X8.96Y-5.13
T5
X2.21Y-5.88
T0
M30
