%TF.GenerationSoftware,KiCad,Pcbnew,(5.1.8)-1*%
%TF.CreationDate,2020-12-17T20:59:30+05:45*%
%TF.ProjectId,pll_soc_testboard,706c6c5f-736f-4635-9f74-657374626f61,rev?*%
%TF.SameCoordinates,Original*%
%TF.FileFunction,Copper,L2,Bot*%
%TF.FilePolarity,Positive*%
%FSLAX46Y46*%
G04 Gerber Fmt 4.6, Leading zero omitted, Abs format (unit mm)*
G04 Created by KiCad (PCBNEW (5.1.8)-1) date 2020-12-17 20:59:30*
%MOMM*%
%LPD*%
G01*
G04 APERTURE LIST*
%TA.AperFunction,ComponentPad*%
%ADD10O,1.600000X1.600000*%
%TD*%
%TA.AperFunction,ComponentPad*%
%ADD11R,1.600000X1.600000*%
%TD*%
%TA.AperFunction,ComponentPad*%
%ADD12R,1.200000X1.200000*%
%TD*%
%TA.AperFunction,ComponentPad*%
%ADD13C,1.200000*%
%TD*%
%TA.AperFunction,ComponentPad*%
%ADD14C,1.600000*%
%TD*%
%TA.AperFunction,ComponentPad*%
%ADD15C,8.000000*%
%TD*%
%TA.AperFunction,ComponentPad*%
%ADD16O,2.400000X2.400000*%
%TD*%
%TA.AperFunction,ComponentPad*%
%ADD17C,2.400000*%
%TD*%
%TA.AperFunction,ViaPad*%
%ADD18C,0.030000*%
%TD*%
%TA.AperFunction,Conductor*%
%ADD19C,0.254000*%
%TD*%
%TA.AperFunction,Conductor*%
%ADD20C,0.508000*%
%TD*%
%TA.AperFunction,Conductor*%
%ADD21C,0.100000*%
%TD*%
G04 APERTURE END LIST*
D10*
%TO.P,U2B1,8*%
%TO.N,GPIO_0*%
X129794000Y-144272000D03*
%TO.P,U2B1,4*%
%TO.N,N/C*%
X122174000Y-151892000D03*
%TO.P,U2B1,7*%
X129794000Y-146812000D03*
%TO.P,U2B1,3*%
X122174000Y-149352000D03*
%TO.P,U2B1,6*%
%TO.N,Net-(U2B1-Pad6)*%
X129794000Y-149352000D03*
%TO.P,U2B1,2*%
%TO.N,+1V8*%
X122174000Y-146812000D03*
%TO.P,U2B1,5*%
%TO.N,N/C*%
X129794000Y-151892000D03*
D11*
%TO.P,U2B1,1*%
%TO.N,EN_CP*%
X122174000Y-144272000D03*
%TD*%
%TO.P,U2,1*%
%TO.N,EN_VCO*%
X92964000Y-144272000D03*
D10*
%TO.P,U2,5*%
%TO.N,N/C*%
X100584000Y-151892000D03*
%TO.P,U2,2*%
%TO.N,+1V8*%
X92964000Y-146812000D03*
%TO.P,U2,6*%
%TO.N,Net-(U2-Pad6)*%
X100584000Y-149352000D03*
%TO.P,U2,3*%
%TO.N,N/C*%
X92964000Y-149352000D03*
%TO.P,U2,7*%
X100584000Y-146812000D03*
%TO.P,U2,4*%
X92964000Y-151892000D03*
%TO.P,U2,8*%
%TO.N,GPIO_0*%
X100584000Y-144272000D03*
%TD*%
D12*
%TO.P,C1,1*%
%TO.N,+1V8*%
X188722000Y-47498000D03*
D13*
%TO.P,C1,2*%
%TO.N,GPIO_0*%
X190222000Y-47498000D03*
%TD*%
%TO.P,C2,2*%
%TO.N,GPIO_0*%
X221464000Y-47752000D03*
D12*
%TO.P,C2,1*%
%TO.N,+3V3*%
X219964000Y-47752000D03*
%TD*%
D13*
%TO.P,C3,2*%
%TO.N,GPIO_0*%
X191484000Y-125222000D03*
D12*
%TO.P,C3,1*%
%TO.N,CLK'*%
X189484000Y-125222000D03*
%TD*%
%TO.P,C4,1*%
%TO.N,+5V*%
X205002000Y-47752000D03*
D13*
%TO.P,C4,2*%
%TO.N,GPIO_0*%
X206502000Y-47752000D03*
%TD*%
D14*
%TO.P,C5,2*%
%TO.N,Net-(C5-Pad2)*%
X190460000Y-90932000D03*
%TO.P,C5,1*%
%TO.N,GPIO_0*%
X187960000Y-90932000D03*
%TD*%
%TO.P,C6,1*%
%TO.N,CLK*%
X217424000Y-115062000D03*
%TO.P,C6,2*%
%TO.N,Net-(C6-Pad2)*%
X219924000Y-115062000D03*
%TD*%
D13*
%TO.P,C7,2*%
%TO.N,GPIO_0*%
X207494000Y-129032000D03*
D12*
%TO.P,C7,1*%
%TO.N,+5V*%
X205994000Y-129032000D03*
%TD*%
D15*
%TO.P,H1,1*%
%TO.N,VCO_control_voltage*%
X56134000Y-149352000D03*
%TD*%
D16*
%TO.P,R1,2*%
%TO.N,Net-(R1-Pad2)*%
X62484000Y-82042000D03*
D17*
%TO.P,R1,1*%
%TO.N,+1V8*%
X42164000Y-82042000D03*
%TD*%
D16*
%TO.P,R2,2*%
%TO.N,B_VCO*%
X99314000Y-66802000D03*
D17*
%TO.P,R2,1*%
%TO.N,+1V8*%
X73914000Y-66802000D03*
%TD*%
D16*
%TO.P,R3,2*%
%TO.N,CLK*%
X227584000Y-125222000D03*
D17*
%TO.P,R3,1*%
%TO.N,GPIO_0*%
X227584000Y-130302000D03*
%TD*%
D10*
%TO.P,U1,8*%
%TO.N,GPIO_0*%
X87884000Y-106172000D03*
%TO.P,U1,4*%
%TO.N,N/C*%
X80264000Y-113792000D03*
%TO.P,U1,7*%
X87884000Y-108712000D03*
%TO.P,U1,3*%
X80264000Y-111252000D03*
%TO.P,U1,6*%
%TO.N,Net-(U1-Pad6)*%
X87884000Y-111252000D03*
%TO.P,U1,2*%
%TO.N,VCO_control_voltage*%
X80264000Y-108712000D03*
%TO.P,U1,5*%
%TO.N,N/C*%
X87884000Y-113792000D03*
D11*
%TO.P,U1,1*%
%TO.N,VCO_IN*%
X80264000Y-106172000D03*
%TD*%
%TO.P,U4,8*%
%TO.N,Net-(C5-Pad2)*%
%TA.AperFunction,SMDPad,CuDef*%
G36*
G01*
X202969000Y-109498000D02*
X202669000Y-109498000D01*
G75*
G02*
X202519000Y-109348000I0J150000D01*
G01*
X202519000Y-107698000D01*
G75*
G02*
X202669000Y-107548000I150000J0D01*
G01*
X202969000Y-107548000D01*
G75*
G02*
X203119000Y-107698000I0J-150000D01*
G01*
X203119000Y-109348000D01*
G75*
G02*
X202969000Y-109498000I-150000J0D01*
G01*
G37*
%TD.AperFunction*%
%TO.P,U4,7*%
%TO.N,Net-(U4-Pad7)*%
%TA.AperFunction,SMDPad,CuDef*%
G36*
G01*
X201699000Y-109498000D02*
X201399000Y-109498000D01*
G75*
G02*
X201249000Y-109348000I0J150000D01*
G01*
X201249000Y-107698000D01*
G75*
G02*
X201399000Y-107548000I150000J0D01*
G01*
X201699000Y-107548000D01*
G75*
G02*
X201849000Y-107698000I0J-150000D01*
G01*
X201849000Y-109348000D01*
G75*
G02*
X201699000Y-109498000I-150000J0D01*
G01*
G37*
%TD.AperFunction*%
%TO.P,U4,6*%
%TO.N,GPIO_0*%
%TA.AperFunction,SMDPad,CuDef*%
G36*
G01*
X200429000Y-109498000D02*
X200129000Y-109498000D01*
G75*
G02*
X199979000Y-109348000I0J150000D01*
G01*
X199979000Y-107698000D01*
G75*
G02*
X200129000Y-107548000I150000J0D01*
G01*
X200429000Y-107548000D01*
G75*
G02*
X200579000Y-107698000I0J-150000D01*
G01*
X200579000Y-109348000D01*
G75*
G02*
X200429000Y-109498000I-150000J0D01*
G01*
G37*
%TD.AperFunction*%
%TO.P,U4,5*%
%TA.AperFunction,SMDPad,CuDef*%
G36*
G01*
X199159000Y-109498000D02*
X198859000Y-109498000D01*
G75*
G02*
X198709000Y-109348000I0J150000D01*
G01*
X198709000Y-107698000D01*
G75*
G02*
X198859000Y-107548000I150000J0D01*
G01*
X199159000Y-107548000D01*
G75*
G02*
X199309000Y-107698000I0J-150000D01*
G01*
X199309000Y-109348000D01*
G75*
G02*
X199159000Y-109498000I-150000J0D01*
G01*
G37*
%TD.AperFunction*%
%TO.P,U4,4*%
%TO.N,CLK'*%
%TA.AperFunction,SMDPad,CuDef*%
G36*
G01*
X199159000Y-114448000D02*
X198859000Y-114448000D01*
G75*
G02*
X198709000Y-114298000I0J150000D01*
G01*
X198709000Y-112648000D01*
G75*
G02*
X198859000Y-112498000I150000J0D01*
G01*
X199159000Y-112498000D01*
G75*
G02*
X199309000Y-112648000I0J-150000D01*
G01*
X199309000Y-114298000D01*
G75*
G02*
X199159000Y-114448000I-150000J0D01*
G01*
G37*
%TD.AperFunction*%
%TO.P,U4,3*%
%TO.N,GPIO_0*%
%TA.AperFunction,SMDPad,CuDef*%
G36*
G01*
X200429000Y-114448000D02*
X200129000Y-114448000D01*
G75*
G02*
X199979000Y-114298000I0J150000D01*
G01*
X199979000Y-112648000D01*
G75*
G02*
X200129000Y-112498000I150000J0D01*
G01*
X200429000Y-112498000D01*
G75*
G02*
X200579000Y-112648000I0J-150000D01*
G01*
X200579000Y-114298000D01*
G75*
G02*
X200429000Y-114448000I-150000J0D01*
G01*
G37*
%TD.AperFunction*%
%TO.P,U4,2*%
%TO.N,+5V*%
%TA.AperFunction,SMDPad,CuDef*%
G36*
G01*
X201699000Y-114448000D02*
X201399000Y-114448000D01*
G75*
G02*
X201249000Y-114298000I0J150000D01*
G01*
X201249000Y-112648000D01*
G75*
G02*
X201399000Y-112498000I150000J0D01*
G01*
X201699000Y-112498000D01*
G75*
G02*
X201849000Y-112648000I0J-150000D01*
G01*
X201849000Y-114298000D01*
G75*
G02*
X201699000Y-114448000I-150000J0D01*
G01*
G37*
%TD.AperFunction*%
%TO.P,U4,1*%
%TO.N,Net-(C6-Pad2)*%
%TA.AperFunction,SMDPad,CuDef*%
G36*
G01*
X202969000Y-114448000D02*
X202669000Y-114448000D01*
G75*
G02*
X202519000Y-114298000I0J150000D01*
G01*
X202519000Y-112648000D01*
G75*
G02*
X202669000Y-112498000I150000J0D01*
G01*
X202969000Y-112498000D01*
G75*
G02*
X203119000Y-112648000I0J-150000D01*
G01*
X203119000Y-114298000D01*
G75*
G02*
X202969000Y-114448000I-150000J0D01*
G01*
G37*
%TD.AperFunction*%
%TD*%
%TO.P,U1B1,1*%
%TO.N,B_CP*%
X80264000Y-82042000D03*
D10*
%TO.P,U1B1,5*%
%TO.N,N/C*%
X87884000Y-89662000D03*
%TO.P,U1B1,2*%
%TO.N,Net-(R1-Pad2)*%
X80264000Y-84582000D03*
%TO.P,U1B1,6*%
%TO.N,Net-(U1B1-Pad6)*%
X87884000Y-87122000D03*
%TO.P,U1B1,3*%
%TO.N,N/C*%
X80264000Y-87122000D03*
%TO.P,U1B1,7*%
X87884000Y-84582000D03*
%TO.P,U1B1,4*%
X80264000Y-89662000D03*
%TO.P,U1B1,8*%
%TO.N,GPIO_0*%
X87884000Y-82042000D03*
%TD*%
D18*
%TO.N,GPIO_0*%
X136652000Y-101600000D03*
%TO.N,+3V3*%
X194056000Y-59436000D03*
X167640000Y-93980000D03*
X169926000Y-91694000D03*
%TO.N,+5V*%
X204724000Y-53340000D03*
%TO.N,Net-(C6-Pad2)*%
X213360000Y-119888000D03*
X206248000Y-113792000D03*
%TO.N,CLK*%
X150368000Y-85344000D03*
X188976000Y-102108000D03*
%TO.N,EN_CP*%
X139700000Y-91948000D03*
X139700000Y-91948000D03*
%TD*%
D19*
%TO.N,GPIO_0*%
X136652000Y-101600000D02*
X132588000Y-101600000D01*
D20*
%TO.N,+3V3*%
X194056000Y-59436000D02*
X194056000Y-67564000D01*
X194056000Y-67564000D02*
X189992000Y-71628000D01*
X169926000Y-91694000D02*
X167640000Y-93980000D01*
X189992000Y-71628000D02*
X169926000Y-91694000D01*
D19*
%TO.N,CLK'*%
X199009000Y-113473000D02*
X191835000Y-113473000D01*
X189484000Y-115824000D02*
X189484000Y-125222000D01*
X191835000Y-113473000D02*
X189484000Y-115824000D01*
D20*
%TO.N,+5V*%
X205002000Y-101878000D02*
X210312000Y-107188000D01*
X210312000Y-107188000D02*
X210312000Y-115316000D01*
X210312000Y-115316000D02*
X207264000Y-118364000D01*
X207264000Y-118364000D02*
X203708000Y-118364000D01*
X201549000Y-116205000D02*
X201549000Y-113473000D01*
X203708000Y-118364000D02*
X201549000Y-116205000D01*
X207264000Y-118364000D02*
X207264000Y-122428000D01*
X205994000Y-123698000D02*
X205994000Y-129032000D01*
X207264000Y-122428000D02*
X205994000Y-123698000D01*
X205002000Y-47752000D02*
X205002000Y-101878000D01*
D19*
%TO.N,Net-(C5-Pad2)*%
X202819000Y-108523000D02*
X202819000Y-105283000D01*
X202819000Y-105283000D02*
X198120000Y-100584000D01*
X198120000Y-100584000D02*
X198120000Y-91948000D01*
X197104000Y-90932000D02*
X190460000Y-90932000D01*
X198120000Y-91948000D02*
X197104000Y-90932000D01*
%TO.N,Net-(C6-Pad2)*%
X219924000Y-115062000D02*
X219924000Y-118912000D01*
X218948000Y-119888000D02*
X213360000Y-119888000D01*
X219924000Y-118912000D02*
X218948000Y-119888000D01*
X205929000Y-113473000D02*
X202819000Y-113473000D01*
X206248000Y-113792000D02*
X205929000Y-113473000D01*
%TO.N,CLK*%
X150368000Y-85344000D02*
X155448000Y-90424000D01*
X155448000Y-90424000D02*
X155448000Y-110744000D01*
X155448000Y-110744000D02*
X159512000Y-114808000D01*
X176276000Y-114808000D02*
X188976000Y-102108000D01*
X159512000Y-114808000D02*
X176276000Y-114808000D01*
%TO.N,EN_CP*%
X122174000Y-122682000D02*
X122174000Y-144272000D01*
X132588000Y-118364000D02*
X126492000Y-118364000D01*
X139700000Y-111252000D02*
X132588000Y-118364000D01*
X126492000Y-118364000D02*
X122174000Y-122682000D01*
X139700000Y-91948000D02*
X139700000Y-111252000D01*
%TD*%
%TO.N,GPIO_0*%
X280772000Y-177140000D02*
X16916000Y-177140000D01*
X16916000Y-148895492D01*
X51499000Y-148895492D01*
X51499000Y-149808508D01*
X51677120Y-150703980D01*
X52026516Y-151547496D01*
X52533760Y-152306640D01*
X53179360Y-152952240D01*
X53938504Y-153459484D01*
X54782020Y-153808880D01*
X55677492Y-153987000D01*
X56590508Y-153987000D01*
X57485980Y-153808880D01*
X58329496Y-153459484D01*
X59088640Y-152952240D01*
X59734240Y-152306640D01*
X60241484Y-151547496D01*
X60590880Y-150703980D01*
X60769000Y-149808508D01*
X60769000Y-148895492D01*
X60590880Y-148000020D01*
X60241484Y-147156504D01*
X59734240Y-146397360D01*
X59088640Y-145751760D01*
X58329496Y-145244516D01*
X57485980Y-144895120D01*
X56590508Y-144717000D01*
X55677492Y-144717000D01*
X54782020Y-144895120D01*
X53938504Y-145244516D01*
X53179360Y-145751760D01*
X52533760Y-146397360D01*
X52026516Y-147156504D01*
X51677120Y-148000020D01*
X51499000Y-148895492D01*
X16916000Y-148895492D01*
X16916000Y-143472000D01*
X91525928Y-143472000D01*
X91525928Y-145072000D01*
X91538188Y-145196482D01*
X91574498Y-145316180D01*
X91633463Y-145426494D01*
X91712815Y-145523185D01*
X91809506Y-145602537D01*
X91919820Y-145661502D01*
X92039518Y-145697812D01*
X92047961Y-145698643D01*
X91849363Y-145897241D01*
X91692320Y-146132273D01*
X91584147Y-146393426D01*
X91529000Y-146670665D01*
X91529000Y-146953335D01*
X91584147Y-147230574D01*
X91692320Y-147491727D01*
X91849363Y-147726759D01*
X92049241Y-147926637D01*
X92281759Y-148082000D01*
X92049241Y-148237363D01*
X91849363Y-148437241D01*
X91692320Y-148672273D01*
X91584147Y-148933426D01*
X91529000Y-149210665D01*
X91529000Y-149493335D01*
X91584147Y-149770574D01*
X91692320Y-150031727D01*
X91849363Y-150266759D01*
X92049241Y-150466637D01*
X92281759Y-150622000D01*
X92049241Y-150777363D01*
X91849363Y-150977241D01*
X91692320Y-151212273D01*
X91584147Y-151473426D01*
X91529000Y-151750665D01*
X91529000Y-152033335D01*
X91584147Y-152310574D01*
X91692320Y-152571727D01*
X91849363Y-152806759D01*
X92049241Y-153006637D01*
X92284273Y-153163680D01*
X92545426Y-153271853D01*
X92822665Y-153327000D01*
X93105335Y-153327000D01*
X93382574Y-153271853D01*
X93643727Y-153163680D01*
X93878759Y-153006637D01*
X94078637Y-152806759D01*
X94235680Y-152571727D01*
X94343853Y-152310574D01*
X94399000Y-152033335D01*
X94399000Y-151750665D01*
X94343853Y-151473426D01*
X94235680Y-151212273D01*
X94078637Y-150977241D01*
X93878759Y-150777363D01*
X93646241Y-150622000D01*
X93878759Y-150466637D01*
X94078637Y-150266759D01*
X94235680Y-150031727D01*
X94343853Y-149770574D01*
X94399000Y-149493335D01*
X94399000Y-149210665D01*
X94343853Y-148933426D01*
X94235680Y-148672273D01*
X94078637Y-148437241D01*
X93878759Y-148237363D01*
X93646241Y-148082000D01*
X93878759Y-147926637D01*
X94078637Y-147726759D01*
X94235680Y-147491727D01*
X94343853Y-147230574D01*
X94399000Y-146953335D01*
X94399000Y-146670665D01*
X99149000Y-146670665D01*
X99149000Y-146953335D01*
X99204147Y-147230574D01*
X99312320Y-147491727D01*
X99469363Y-147726759D01*
X99669241Y-147926637D01*
X99901759Y-148082000D01*
X99669241Y-148237363D01*
X99469363Y-148437241D01*
X99312320Y-148672273D01*
X99204147Y-148933426D01*
X99149000Y-149210665D01*
X99149000Y-149493335D01*
X99204147Y-149770574D01*
X99312320Y-150031727D01*
X99469363Y-150266759D01*
X99669241Y-150466637D01*
X99901759Y-150622000D01*
X99669241Y-150777363D01*
X99469363Y-150977241D01*
X99312320Y-151212273D01*
X99204147Y-151473426D01*
X99149000Y-151750665D01*
X99149000Y-152033335D01*
X99204147Y-152310574D01*
X99312320Y-152571727D01*
X99469363Y-152806759D01*
X99669241Y-153006637D01*
X99904273Y-153163680D01*
X100165426Y-153271853D01*
X100442665Y-153327000D01*
X100725335Y-153327000D01*
X101002574Y-153271853D01*
X101263727Y-153163680D01*
X101498759Y-153006637D01*
X101698637Y-152806759D01*
X101855680Y-152571727D01*
X101963853Y-152310574D01*
X102019000Y-152033335D01*
X102019000Y-151750665D01*
X101963853Y-151473426D01*
X101855680Y-151212273D01*
X101698637Y-150977241D01*
X101498759Y-150777363D01*
X101266241Y-150622000D01*
X101498759Y-150466637D01*
X101698637Y-150266759D01*
X101855680Y-150031727D01*
X101963853Y-149770574D01*
X102019000Y-149493335D01*
X102019000Y-149210665D01*
X101963853Y-148933426D01*
X101855680Y-148672273D01*
X101698637Y-148437241D01*
X101498759Y-148237363D01*
X101266241Y-148082000D01*
X101498759Y-147926637D01*
X101698637Y-147726759D01*
X101855680Y-147491727D01*
X101963853Y-147230574D01*
X102019000Y-146953335D01*
X102019000Y-146670665D01*
X101963853Y-146393426D01*
X101855680Y-146132273D01*
X101698637Y-145897241D01*
X101498759Y-145697363D01*
X101263727Y-145540320D01*
X101253135Y-145535933D01*
X101439131Y-145424385D01*
X101647519Y-145235414D01*
X101815037Y-145009420D01*
X101935246Y-144755087D01*
X101975904Y-144621039D01*
X101853915Y-144399000D01*
X100711000Y-144399000D01*
X100711000Y-144419000D01*
X100457000Y-144419000D01*
X100457000Y-144399000D01*
X99314085Y-144399000D01*
X99192096Y-144621039D01*
X99232754Y-144755087D01*
X99352963Y-145009420D01*
X99520481Y-145235414D01*
X99728869Y-145424385D01*
X99914865Y-145535933D01*
X99904273Y-145540320D01*
X99669241Y-145697363D01*
X99469363Y-145897241D01*
X99312320Y-146132273D01*
X99204147Y-146393426D01*
X99149000Y-146670665D01*
X94399000Y-146670665D01*
X94343853Y-146393426D01*
X94235680Y-146132273D01*
X94078637Y-145897241D01*
X93880039Y-145698643D01*
X93888482Y-145697812D01*
X94008180Y-145661502D01*
X94118494Y-145602537D01*
X94215185Y-145523185D01*
X94294537Y-145426494D01*
X94353502Y-145316180D01*
X94389812Y-145196482D01*
X94402072Y-145072000D01*
X94402072Y-143922961D01*
X99192096Y-143922961D01*
X99314085Y-144145000D01*
X100457000Y-144145000D01*
X100457000Y-143001376D01*
X100711000Y-143001376D01*
X100711000Y-144145000D01*
X101853915Y-144145000D01*
X101975904Y-143922961D01*
X101935246Y-143788913D01*
X101815037Y-143534580D01*
X101768650Y-143472000D01*
X120735928Y-143472000D01*
X120735928Y-145072000D01*
X120748188Y-145196482D01*
X120784498Y-145316180D01*
X120843463Y-145426494D01*
X120922815Y-145523185D01*
X121019506Y-145602537D01*
X121129820Y-145661502D01*
X121249518Y-145697812D01*
X121257961Y-145698643D01*
X121059363Y-145897241D01*
X120902320Y-146132273D01*
X120794147Y-146393426D01*
X120739000Y-146670665D01*
X120739000Y-146953335D01*
X120794147Y-147230574D01*
X120902320Y-147491727D01*
X121059363Y-147726759D01*
X121259241Y-147926637D01*
X121491759Y-148082000D01*
X121259241Y-148237363D01*
X121059363Y-148437241D01*
X120902320Y-148672273D01*
X120794147Y-148933426D01*
X120739000Y-149210665D01*
X120739000Y-149493335D01*
X120794147Y-149770574D01*
X120902320Y-150031727D01*
X121059363Y-150266759D01*
X121259241Y-150466637D01*
X121491759Y-150622000D01*
X121259241Y-150777363D01*
X121059363Y-150977241D01*
X120902320Y-151212273D01*
X120794147Y-151473426D01*
X120739000Y-151750665D01*
X120739000Y-152033335D01*
X120794147Y-152310574D01*
X120902320Y-152571727D01*
X121059363Y-152806759D01*
X121259241Y-153006637D01*
X121494273Y-153163680D01*
X121755426Y-153271853D01*
X122032665Y-153327000D01*
X122315335Y-153327000D01*
X122592574Y-153271853D01*
X122853727Y-153163680D01*
X123088759Y-153006637D01*
X123288637Y-152806759D01*
X123445680Y-152571727D01*
X123553853Y-152310574D01*
X123609000Y-152033335D01*
X123609000Y-151750665D01*
X123553853Y-151473426D01*
X123445680Y-151212273D01*
X123288637Y-150977241D01*
X123088759Y-150777363D01*
X122856241Y-150622000D01*
X123088759Y-150466637D01*
X123288637Y-150266759D01*
X123445680Y-150031727D01*
X123553853Y-149770574D01*
X123609000Y-149493335D01*
X123609000Y-149210665D01*
X123553853Y-148933426D01*
X123445680Y-148672273D01*
X123288637Y-148437241D01*
X123088759Y-148237363D01*
X122856241Y-148082000D01*
X123088759Y-147926637D01*
X123288637Y-147726759D01*
X123445680Y-147491727D01*
X123553853Y-147230574D01*
X123609000Y-146953335D01*
X123609000Y-146670665D01*
X128359000Y-146670665D01*
X128359000Y-146953335D01*
X128414147Y-147230574D01*
X128522320Y-147491727D01*
X128679363Y-147726759D01*
X128879241Y-147926637D01*
X129111759Y-148082000D01*
X128879241Y-148237363D01*
X128679363Y-148437241D01*
X128522320Y-148672273D01*
X128414147Y-148933426D01*
X128359000Y-149210665D01*
X128359000Y-149493335D01*
X128414147Y-149770574D01*
X128522320Y-150031727D01*
X128679363Y-150266759D01*
X128879241Y-150466637D01*
X129111759Y-150622000D01*
X128879241Y-150777363D01*
X128679363Y-150977241D01*
X128522320Y-151212273D01*
X128414147Y-151473426D01*
X128359000Y-151750665D01*
X128359000Y-152033335D01*
X128414147Y-152310574D01*
X128522320Y-152571727D01*
X128679363Y-152806759D01*
X128879241Y-153006637D01*
X129114273Y-153163680D01*
X129375426Y-153271853D01*
X129652665Y-153327000D01*
X129935335Y-153327000D01*
X130212574Y-153271853D01*
X130473727Y-153163680D01*
X130708759Y-153006637D01*
X130908637Y-152806759D01*
X131065680Y-152571727D01*
X131173853Y-152310574D01*
X131229000Y-152033335D01*
X131229000Y-151750665D01*
X131173853Y-151473426D01*
X131065680Y-151212273D01*
X130908637Y-150977241D01*
X130708759Y-150777363D01*
X130476241Y-150622000D01*
X130708759Y-150466637D01*
X130908637Y-150266759D01*
X131065680Y-150031727D01*
X131173853Y-149770574D01*
X131229000Y-149493335D01*
X131229000Y-149210665D01*
X131205491Y-149092475D01*
X166529000Y-149092475D01*
X166529000Y-149611525D01*
X166630261Y-150120601D01*
X166828893Y-150600141D01*
X167117262Y-151031715D01*
X167484285Y-151398738D01*
X167915859Y-151687107D01*
X168395399Y-151885739D01*
X168904475Y-151987000D01*
X169423525Y-151987000D01*
X169932601Y-151885739D01*
X170412141Y-151687107D01*
X170843715Y-151398738D01*
X171210738Y-151031715D01*
X171499107Y-150600141D01*
X171697739Y-150120601D01*
X171799000Y-149611525D01*
X171799000Y-149092475D01*
X171697739Y-148583399D01*
X171499107Y-148103859D01*
X171210738Y-147672285D01*
X170843715Y-147305262D01*
X170412141Y-147016893D01*
X169932601Y-146818261D01*
X169423525Y-146717000D01*
X168904475Y-146717000D01*
X168395399Y-146818261D01*
X167915859Y-147016893D01*
X167484285Y-147305262D01*
X167117262Y-147672285D01*
X166828893Y-148103859D01*
X166630261Y-148583399D01*
X166529000Y-149092475D01*
X131205491Y-149092475D01*
X131173853Y-148933426D01*
X131065680Y-148672273D01*
X130908637Y-148437241D01*
X130708759Y-148237363D01*
X130476241Y-148082000D01*
X130708759Y-147926637D01*
X130908637Y-147726759D01*
X131065680Y-147491727D01*
X131173853Y-147230574D01*
X131229000Y-146953335D01*
X131229000Y-146670665D01*
X131173853Y-146393426D01*
X131065680Y-146132273D01*
X130908637Y-145897241D01*
X130708759Y-145697363D01*
X130473727Y-145540320D01*
X130463135Y-145535933D01*
X130649131Y-145424385D01*
X130857519Y-145235414D01*
X131025037Y-145009420D01*
X131145246Y-144755087D01*
X131185904Y-144621039D01*
X131063915Y-144399000D01*
X129921000Y-144399000D01*
X129921000Y-144419000D01*
X129667000Y-144419000D01*
X129667000Y-144399000D01*
X128524085Y-144399000D01*
X128402096Y-144621039D01*
X128442754Y-144755087D01*
X128562963Y-145009420D01*
X128730481Y-145235414D01*
X128938869Y-145424385D01*
X129124865Y-145535933D01*
X129114273Y-145540320D01*
X128879241Y-145697363D01*
X128679363Y-145897241D01*
X128522320Y-146132273D01*
X128414147Y-146393426D01*
X128359000Y-146670665D01*
X123609000Y-146670665D01*
X123553853Y-146393426D01*
X123445680Y-146132273D01*
X123288637Y-145897241D01*
X123090039Y-145698643D01*
X123098482Y-145697812D01*
X123218180Y-145661502D01*
X123328494Y-145602537D01*
X123425185Y-145523185D01*
X123504537Y-145426494D01*
X123563502Y-145316180D01*
X123599812Y-145196482D01*
X123612072Y-145072000D01*
X123612072Y-143922961D01*
X128402096Y-143922961D01*
X128524085Y-144145000D01*
X129667000Y-144145000D01*
X129667000Y-143001376D01*
X129921000Y-143001376D01*
X129921000Y-144145000D01*
X131063915Y-144145000D01*
X131185904Y-143922961D01*
X131145246Y-143788913D01*
X131025037Y-143534580D01*
X130857519Y-143308586D01*
X130649131Y-143119615D01*
X130407881Y-142974930D01*
X130143040Y-142880091D01*
X129921000Y-143001376D01*
X129667000Y-143001376D01*
X129444960Y-142880091D01*
X129180119Y-142974930D01*
X128938869Y-143119615D01*
X128730481Y-143308586D01*
X128562963Y-143534580D01*
X128442754Y-143788913D01*
X128402096Y-143922961D01*
X123612072Y-143922961D01*
X123612072Y-143472000D01*
X123599812Y-143347518D01*
X123563502Y-143227820D01*
X123504537Y-143117506D01*
X123425185Y-143020815D01*
X123328494Y-142941463D01*
X123218180Y-142882498D01*
X123098482Y-142846188D01*
X122974000Y-142833928D01*
X122936000Y-142833928D01*
X122936000Y-131579980D01*
X226485626Y-131579980D01*
X226605514Y-131864836D01*
X226929210Y-132025699D01*
X227278069Y-132120322D01*
X227638684Y-132145067D01*
X227997198Y-132098985D01*
X228339833Y-131983846D01*
X228562486Y-131864836D01*
X228682374Y-131579980D01*
X227584000Y-130481605D01*
X226485626Y-131579980D01*
X122936000Y-131579980D01*
X122936000Y-130356684D01*
X225740933Y-130356684D01*
X225787015Y-130715198D01*
X225902154Y-131057833D01*
X226021164Y-131280486D01*
X226306020Y-131400374D01*
X227404395Y-130302000D01*
X227763605Y-130302000D01*
X228861980Y-131400374D01*
X229146836Y-131280486D01*
X229307699Y-130956790D01*
X229402322Y-130607931D01*
X229427067Y-130247316D01*
X229380985Y-129888802D01*
X229265846Y-129546167D01*
X229146836Y-129323514D01*
X228861980Y-129203626D01*
X227763605Y-130302000D01*
X227404395Y-130302000D01*
X226306020Y-129203626D01*
X226021164Y-129323514D01*
X225860301Y-129647210D01*
X225765678Y-129996069D01*
X225740933Y-130356684D01*
X122936000Y-130356684D01*
X122936000Y-124622000D01*
X188245928Y-124622000D01*
X188245928Y-125822000D01*
X188258188Y-125946482D01*
X188294498Y-126066180D01*
X188353463Y-126176494D01*
X188432815Y-126273185D01*
X188529506Y-126352537D01*
X188639820Y-126411502D01*
X188759518Y-126447812D01*
X188884000Y-126460072D01*
X190084000Y-126460072D01*
X190208482Y-126447812D01*
X190328180Y-126411502D01*
X190438494Y-126352537D01*
X190535185Y-126273185D01*
X190614537Y-126176494D01*
X190638858Y-126130994D01*
X190696736Y-126188872D01*
X190813842Y-126071766D01*
X190861148Y-126295348D01*
X191082516Y-126396237D01*
X191319313Y-126452000D01*
X191562438Y-126460495D01*
X191802549Y-126421395D01*
X192030418Y-126336202D01*
X192106852Y-126295348D01*
X192154159Y-126071764D01*
X191484000Y-125401605D01*
X191469858Y-125415748D01*
X191290253Y-125236143D01*
X191304395Y-125222000D01*
X191663605Y-125222000D01*
X192333764Y-125892159D01*
X192557348Y-125844852D01*
X192658237Y-125623484D01*
X192714000Y-125386687D01*
X192722495Y-125143562D01*
X192683395Y-124903451D01*
X192598202Y-124675582D01*
X192557348Y-124599148D01*
X192333764Y-124551841D01*
X191663605Y-125222000D01*
X191304395Y-125222000D01*
X191290253Y-125207858D01*
X191469858Y-125028253D01*
X191484000Y-125042395D01*
X192154159Y-124372236D01*
X192106852Y-124148652D01*
X191885484Y-124047763D01*
X191648687Y-123992000D01*
X191405562Y-123983505D01*
X191165451Y-124022605D01*
X190937582Y-124107798D01*
X190861148Y-124148652D01*
X190813842Y-124372234D01*
X190696736Y-124255128D01*
X190638858Y-124313006D01*
X190614537Y-124267506D01*
X190535185Y-124170815D01*
X190438494Y-124091463D01*
X190328180Y-124032498D01*
X190246000Y-124007569D01*
X190246000Y-116139630D01*
X192150631Y-114235000D01*
X198070928Y-114235000D01*
X198070928Y-114298000D01*
X198086071Y-114451745D01*
X198130916Y-114599582D01*
X198203742Y-114735829D01*
X198301749Y-114855251D01*
X198421171Y-114953258D01*
X198557418Y-115026084D01*
X198705255Y-115070929D01*
X198859000Y-115086072D01*
X199159000Y-115086072D01*
X199312745Y-115070929D01*
X199460582Y-115026084D01*
X199594936Y-114954270D01*
X199624506Y-114978537D01*
X199734820Y-115037502D01*
X199854518Y-115073812D01*
X199979000Y-115086072D01*
X199993250Y-115083000D01*
X200152000Y-114924250D01*
X200152000Y-113600000D01*
X200132000Y-113600000D01*
X200132000Y-113346000D01*
X200152000Y-113346000D01*
X200152000Y-112021750D01*
X200406000Y-112021750D01*
X200406000Y-113346000D01*
X200426000Y-113346000D01*
X200426000Y-113600000D01*
X200406000Y-113600000D01*
X200406000Y-114924250D01*
X200564750Y-115083000D01*
X200579000Y-115086072D01*
X200660000Y-115078094D01*
X200660000Y-116161340D01*
X200655700Y-116205000D01*
X200660000Y-116248660D01*
X200660000Y-116248666D01*
X200672864Y-116379273D01*
X200723697Y-116546850D01*
X200806247Y-116701290D01*
X200917341Y-116836659D01*
X200951264Y-116864499D01*
X203048506Y-118961742D01*
X203076341Y-118995659D01*
X203211709Y-119106753D01*
X203366149Y-119189303D01*
X203417952Y-119205017D01*
X203533724Y-119240136D01*
X203566924Y-119243406D01*
X203664333Y-119253000D01*
X203664339Y-119253000D01*
X203707999Y-119257300D01*
X203751659Y-119253000D01*
X206375000Y-119253000D01*
X206375001Y-122059763D01*
X205396264Y-123038501D01*
X205362341Y-123066341D01*
X205251247Y-123201710D01*
X205168697Y-123356150D01*
X205117864Y-123523727D01*
X205105000Y-123654334D01*
X205105000Y-123654340D01*
X205100700Y-123698000D01*
X205105000Y-123741660D01*
X205105001Y-127866455D01*
X205039506Y-127901463D01*
X204942815Y-127980815D01*
X204863463Y-128077506D01*
X204804498Y-128187820D01*
X204768188Y-128307518D01*
X204755928Y-128432000D01*
X204755928Y-129632000D01*
X204768188Y-129756482D01*
X204804498Y-129876180D01*
X204863463Y-129986494D01*
X204942815Y-130083185D01*
X205039506Y-130162537D01*
X205149820Y-130221502D01*
X205269518Y-130257812D01*
X205394000Y-130270072D01*
X206594000Y-130270072D01*
X206718482Y-130257812D01*
X206838180Y-130221502D01*
X206948494Y-130162537D01*
X206965681Y-130148432D01*
X207092516Y-130206237D01*
X207329313Y-130262000D01*
X207572438Y-130270495D01*
X207812549Y-130231395D01*
X208040418Y-130146202D01*
X208116852Y-130105348D01*
X208164159Y-129881764D01*
X207494000Y-129211605D01*
X207479858Y-129225748D01*
X207300253Y-129046143D01*
X207314395Y-129032000D01*
X207673605Y-129032000D01*
X208343764Y-129702159D01*
X208567348Y-129654852D01*
X208668237Y-129433484D01*
X208724000Y-129196687D01*
X208730033Y-129024020D01*
X226485626Y-129024020D01*
X227584000Y-130122395D01*
X228682374Y-129024020D01*
X228562486Y-128739164D01*
X228238790Y-128578301D01*
X227889931Y-128483678D01*
X227529316Y-128458933D01*
X227170802Y-128505015D01*
X226828167Y-128620154D01*
X226605514Y-128739164D01*
X226485626Y-129024020D01*
X208730033Y-129024020D01*
X208732495Y-128953562D01*
X208693395Y-128713451D01*
X208608202Y-128485582D01*
X208567348Y-128409148D01*
X208343764Y-128361841D01*
X207673605Y-129032000D01*
X207314395Y-129032000D01*
X207300253Y-129017858D01*
X207479858Y-128838253D01*
X207494000Y-128852395D01*
X208164159Y-128182236D01*
X208116852Y-127958652D01*
X207895484Y-127857763D01*
X207658687Y-127802000D01*
X207415562Y-127793505D01*
X207175451Y-127832605D01*
X206961883Y-127912451D01*
X206948494Y-127901463D01*
X206883000Y-127866455D01*
X206883000Y-125041268D01*
X225749000Y-125041268D01*
X225749000Y-125402732D01*
X225819518Y-125757250D01*
X225957844Y-126091199D01*
X226158662Y-126391744D01*
X226414256Y-126647338D01*
X226714801Y-126848156D01*
X227048750Y-126986482D01*
X227403268Y-127057000D01*
X227764732Y-127057000D01*
X228119250Y-126986482D01*
X228453199Y-126848156D01*
X228753744Y-126647338D01*
X229009338Y-126391744D01*
X229210156Y-126091199D01*
X229348482Y-125757250D01*
X229419000Y-125402732D01*
X229419000Y-125041268D01*
X229348482Y-124686750D01*
X229210156Y-124352801D01*
X229009338Y-124052256D01*
X228753744Y-123796662D01*
X228453199Y-123595844D01*
X228119250Y-123457518D01*
X227764732Y-123387000D01*
X227403268Y-123387000D01*
X227048750Y-123457518D01*
X226714801Y-123595844D01*
X226414256Y-123796662D01*
X226158662Y-124052256D01*
X225957844Y-124352801D01*
X225819518Y-124686750D01*
X225749000Y-125041268D01*
X206883000Y-125041268D01*
X206883000Y-124066235D01*
X207861741Y-123087494D01*
X207895659Y-123059659D01*
X208006753Y-122924291D01*
X208089303Y-122769851D01*
X208115952Y-122682000D01*
X208140136Y-122602276D01*
X208146996Y-122532622D01*
X208153000Y-122471667D01*
X208153000Y-122471661D01*
X208157300Y-122428001D01*
X208153000Y-122384341D01*
X208153000Y-119888000D01*
X212594314Y-119888000D01*
X212609026Y-120037378D01*
X212652598Y-120181015D01*
X212723355Y-120313392D01*
X212818578Y-120429422D01*
X212934608Y-120524645D01*
X213066985Y-120595402D01*
X213210622Y-120638974D01*
X213322574Y-120650000D01*
X218910577Y-120650000D01*
X218948000Y-120653686D01*
X218985423Y-120650000D01*
X218985426Y-120650000D01*
X219097378Y-120638974D01*
X219241015Y-120595402D01*
X219373392Y-120524645D01*
X219489422Y-120429422D01*
X219513284Y-120400346D01*
X220436351Y-119477279D01*
X220465422Y-119453422D01*
X220560645Y-119337392D01*
X220631402Y-119205015D01*
X220674974Y-119061378D01*
X220686000Y-118949426D01*
X220686000Y-118949424D01*
X220689686Y-118912001D01*
X220686000Y-118874578D01*
X220686000Y-116278707D01*
X220838759Y-116176637D01*
X221038637Y-115976759D01*
X221195680Y-115741727D01*
X221303853Y-115480574D01*
X221359000Y-115203335D01*
X221359000Y-114920665D01*
X221303853Y-114643426D01*
X221195680Y-114382273D01*
X221038637Y-114147241D01*
X220838759Y-113947363D01*
X220603727Y-113790320D01*
X220342574Y-113682147D01*
X220065335Y-113627000D01*
X219782665Y-113627000D01*
X219505426Y-113682147D01*
X219244273Y-113790320D01*
X219009241Y-113947363D01*
X218809363Y-114147241D01*
X218674000Y-114349827D01*
X218538637Y-114147241D01*
X218338759Y-113947363D01*
X218103727Y-113790320D01*
X217842574Y-113682147D01*
X217565335Y-113627000D01*
X217282665Y-113627000D01*
X217005426Y-113682147D01*
X216744273Y-113790320D01*
X216509241Y-113947363D01*
X216309363Y-114147241D01*
X216152320Y-114382273D01*
X216044147Y-114643426D01*
X215989000Y-114920665D01*
X215989000Y-115203335D01*
X216044147Y-115480574D01*
X216152320Y-115741727D01*
X216309363Y-115976759D01*
X216509241Y-116176637D01*
X216744273Y-116333680D01*
X217005426Y-116441853D01*
X217282665Y-116497000D01*
X217565335Y-116497000D01*
X217842574Y-116441853D01*
X218103727Y-116333680D01*
X218338759Y-116176637D01*
X218538637Y-115976759D01*
X218674000Y-115774173D01*
X218809363Y-115976759D01*
X219009241Y-116176637D01*
X219162000Y-116278707D01*
X219162001Y-118596368D01*
X218632370Y-119126000D01*
X213322574Y-119126000D01*
X213210622Y-119137026D01*
X213066985Y-119180598D01*
X212934608Y-119251355D01*
X212818578Y-119346578D01*
X212723355Y-119462608D01*
X212652598Y-119594985D01*
X212609026Y-119738622D01*
X212594314Y-119888000D01*
X208153000Y-119888000D01*
X208153000Y-118732235D01*
X210909742Y-115975494D01*
X210943659Y-115947659D01*
X211054753Y-115812291D01*
X211137303Y-115657851D01*
X211171382Y-115545505D01*
X211188136Y-115490275D01*
X211197164Y-115398609D01*
X211201000Y-115359667D01*
X211201000Y-115359660D01*
X211205300Y-115316000D01*
X211201000Y-115272340D01*
X211201000Y-107231659D01*
X211205300Y-107187999D01*
X211201000Y-107144339D01*
X211201000Y-107144333D01*
X211188136Y-107013726D01*
X211137303Y-106846149D01*
X211054753Y-106691709D01*
X210943659Y-106556341D01*
X210909743Y-106528507D01*
X208590735Y-104209499D01*
X261222106Y-104209499D01*
X261438228Y-104576258D01*
X261898105Y-104816938D01*
X262396098Y-104963275D01*
X262913071Y-105009648D01*
X263429159Y-104954273D01*
X263924526Y-104799279D01*
X264341772Y-104576258D01*
X264557894Y-104209499D01*
X262890000Y-102541605D01*
X261222106Y-104209499D01*
X208590735Y-104209499D01*
X206766307Y-102385071D01*
X260242352Y-102385071D01*
X260297727Y-102901159D01*
X260452721Y-103396526D01*
X260675742Y-103813772D01*
X261042501Y-104029894D01*
X262710395Y-102362000D01*
X263069605Y-102362000D01*
X264737499Y-104029894D01*
X265104258Y-103813772D01*
X265344938Y-103353895D01*
X265491275Y-102855902D01*
X265537648Y-102338929D01*
X265482273Y-101822841D01*
X265327279Y-101327474D01*
X265104258Y-100910228D01*
X264737499Y-100694106D01*
X263069605Y-102362000D01*
X262710395Y-102362000D01*
X261042501Y-100694106D01*
X260675742Y-100910228D01*
X260435062Y-101370105D01*
X260288725Y-101868098D01*
X260242352Y-102385071D01*
X206766307Y-102385071D01*
X205891000Y-101509765D01*
X205891000Y-100514501D01*
X261222106Y-100514501D01*
X262890000Y-102182395D01*
X264557894Y-100514501D01*
X264341772Y-100147742D01*
X263881895Y-99907062D01*
X263383902Y-99760725D01*
X262866929Y-99714352D01*
X262350841Y-99769727D01*
X261855474Y-99924721D01*
X261438228Y-100147742D01*
X261222106Y-100514501D01*
X205891000Y-100514501D01*
X205891000Y-80512475D01*
X260509000Y-80512475D01*
X260509000Y-81031525D01*
X260610261Y-81540601D01*
X260808893Y-82020141D01*
X261097262Y-82451715D01*
X261464285Y-82818738D01*
X261895859Y-83107107D01*
X262375399Y-83305739D01*
X262884475Y-83407000D01*
X263403525Y-83407000D01*
X263912601Y-83305739D01*
X264392141Y-83107107D01*
X264823715Y-82818738D01*
X265190738Y-82451715D01*
X265479107Y-82020141D01*
X265677739Y-81540601D01*
X265779000Y-81031525D01*
X265779000Y-80512475D01*
X265677739Y-80003399D01*
X265479107Y-79523859D01*
X265190738Y-79092285D01*
X264823715Y-78725262D01*
X264392141Y-78436893D01*
X263912601Y-78238261D01*
X263403525Y-78137000D01*
X262884475Y-78137000D01*
X262375399Y-78238261D01*
X261895859Y-78436893D01*
X261464285Y-78725262D01*
X261097262Y-79092285D01*
X260808893Y-79523859D01*
X260610261Y-80003399D01*
X260509000Y-80512475D01*
X205891000Y-80512475D01*
X205891000Y-60192475D01*
X261779000Y-60192475D01*
X261779000Y-60711525D01*
X261880261Y-61220601D01*
X262078893Y-61700141D01*
X262367262Y-62131715D01*
X262734285Y-62498738D01*
X263165859Y-62787107D01*
X263645399Y-62985739D01*
X264154475Y-63087000D01*
X264673525Y-63087000D01*
X265182601Y-62985739D01*
X265662141Y-62787107D01*
X266093715Y-62498738D01*
X266460738Y-62131715D01*
X266749107Y-61700141D01*
X266947739Y-61220601D01*
X267049000Y-60711525D01*
X267049000Y-60192475D01*
X266947739Y-59683399D01*
X266749107Y-59203859D01*
X266460738Y-58772285D01*
X266093715Y-58405262D01*
X265662141Y-58116893D01*
X265182601Y-57918261D01*
X264673525Y-57817000D01*
X264154475Y-57817000D01*
X263645399Y-57918261D01*
X263165859Y-58116893D01*
X262734285Y-58405262D01*
X262367262Y-58772285D01*
X262078893Y-59203859D01*
X261880261Y-59683399D01*
X261779000Y-60192475D01*
X205891000Y-60192475D01*
X205891000Y-48917545D01*
X205956494Y-48882537D01*
X205973681Y-48868432D01*
X206100516Y-48926237D01*
X206337313Y-48982000D01*
X206580438Y-48990495D01*
X206820549Y-48951395D01*
X207048418Y-48866202D01*
X207124852Y-48825348D01*
X207172159Y-48601764D01*
X206502000Y-47931605D01*
X206487858Y-47945748D01*
X206308253Y-47766143D01*
X206322395Y-47752000D01*
X206681605Y-47752000D01*
X207351764Y-48422159D01*
X207575348Y-48374852D01*
X207676237Y-48153484D01*
X207732000Y-47916687D01*
X207740495Y-47673562D01*
X207701395Y-47433451D01*
X207616202Y-47205582D01*
X207587563Y-47152000D01*
X218725928Y-47152000D01*
X218725928Y-48352000D01*
X218738188Y-48476482D01*
X218774498Y-48596180D01*
X218833463Y-48706494D01*
X218912815Y-48803185D01*
X219009506Y-48882537D01*
X219119820Y-48941502D01*
X219239518Y-48977812D01*
X219364000Y-48990072D01*
X220564000Y-48990072D01*
X220688482Y-48977812D01*
X220808180Y-48941502D01*
X220918494Y-48882537D01*
X220935681Y-48868432D01*
X221062516Y-48926237D01*
X221299313Y-48982000D01*
X221542438Y-48990495D01*
X221782549Y-48951395D01*
X222010418Y-48866202D01*
X222086852Y-48825348D01*
X222134159Y-48601764D01*
X221464000Y-47931605D01*
X221449858Y-47945748D01*
X221270253Y-47766143D01*
X221284395Y-47752000D01*
X221643605Y-47752000D01*
X222313764Y-48422159D01*
X222537348Y-48374852D01*
X222638237Y-48153484D01*
X222694000Y-47916687D01*
X222702495Y-47673562D01*
X222663395Y-47433451D01*
X222578202Y-47205582D01*
X222537348Y-47129148D01*
X222313764Y-47081841D01*
X221643605Y-47752000D01*
X221284395Y-47752000D01*
X221270253Y-47737858D01*
X221449858Y-47558253D01*
X221464000Y-47572395D01*
X222134159Y-46902236D01*
X222086852Y-46678652D01*
X221865484Y-46577763D01*
X221628687Y-46522000D01*
X221385562Y-46513505D01*
X221145451Y-46552605D01*
X220931883Y-46632451D01*
X220918494Y-46621463D01*
X220808180Y-46562498D01*
X220688482Y-46526188D01*
X220564000Y-46513928D01*
X219364000Y-46513928D01*
X219239518Y-46526188D01*
X219119820Y-46562498D01*
X219009506Y-46621463D01*
X218912815Y-46700815D01*
X218833463Y-46797506D01*
X218774498Y-46907820D01*
X218738188Y-47027518D01*
X218725928Y-47152000D01*
X207587563Y-47152000D01*
X207575348Y-47129148D01*
X207351764Y-47081841D01*
X206681605Y-47752000D01*
X206322395Y-47752000D01*
X206308253Y-47737858D01*
X206487858Y-47558253D01*
X206502000Y-47572395D01*
X207172159Y-46902236D01*
X207124852Y-46678652D01*
X206903484Y-46577763D01*
X206666687Y-46522000D01*
X206423562Y-46513505D01*
X206183451Y-46552605D01*
X205969883Y-46632451D01*
X205956494Y-46621463D01*
X205846180Y-46562498D01*
X205726482Y-46526188D01*
X205602000Y-46513928D01*
X204402000Y-46513928D01*
X204277518Y-46526188D01*
X204157820Y-46562498D01*
X204047506Y-46621463D01*
X203950815Y-46700815D01*
X203871463Y-46797506D01*
X203812498Y-46907820D01*
X203776188Y-47027518D01*
X203763928Y-47152000D01*
X203763928Y-48352000D01*
X203776188Y-48476482D01*
X203812498Y-48596180D01*
X203871463Y-48706494D01*
X203950815Y-48803185D01*
X204047506Y-48882537D01*
X204113000Y-48917545D01*
X204113000Y-53116553D01*
X204098979Y-53150402D01*
X204074000Y-53275981D01*
X204074000Y-53404019D01*
X204098979Y-53529598D01*
X204113000Y-53563447D01*
X204113001Y-101834330D01*
X204108700Y-101878000D01*
X204125864Y-102052274D01*
X204176698Y-102219852D01*
X204259248Y-102374291D01*
X204293388Y-102415890D01*
X204370342Y-102509659D01*
X204404259Y-102537494D01*
X209423000Y-107556236D01*
X209423001Y-114947763D01*
X206895765Y-117475000D01*
X204076236Y-117475000D01*
X202438000Y-115836765D01*
X202438000Y-115047494D01*
X202515255Y-115070929D01*
X202669000Y-115086072D01*
X202969000Y-115086072D01*
X203122745Y-115070929D01*
X203270582Y-115026084D01*
X203406829Y-114953258D01*
X203526251Y-114855251D01*
X203624258Y-114735829D01*
X203697084Y-114599582D01*
X203741929Y-114451745D01*
X203757072Y-114298000D01*
X203757072Y-114235000D01*
X205613370Y-114235000D01*
X205735649Y-114357279D01*
X205822608Y-114428644D01*
X205954984Y-114499401D01*
X206098621Y-114542973D01*
X206247999Y-114557686D01*
X206397378Y-114542973D01*
X206541015Y-114499401D01*
X206673392Y-114428644D01*
X206789421Y-114333421D01*
X206884644Y-114217392D01*
X206955401Y-114085015D01*
X206998973Y-113941378D01*
X207013686Y-113791999D01*
X206998973Y-113642621D01*
X206955401Y-113498984D01*
X206884644Y-113366608D01*
X206813279Y-113279649D01*
X206494284Y-112960654D01*
X206470422Y-112931578D01*
X206354392Y-112836355D01*
X206222015Y-112765598D01*
X206078378Y-112722026D01*
X205966426Y-112711000D01*
X205966423Y-112711000D01*
X205929000Y-112707314D01*
X205891577Y-112711000D01*
X203757072Y-112711000D01*
X203757072Y-112648000D01*
X203741929Y-112494255D01*
X203697084Y-112346418D01*
X203624258Y-112210171D01*
X203526251Y-112090749D01*
X203406829Y-111992742D01*
X203270582Y-111919916D01*
X203122745Y-111875071D01*
X202969000Y-111859928D01*
X202669000Y-111859928D01*
X202515255Y-111875071D01*
X202367418Y-111919916D01*
X202231171Y-111992742D01*
X202184000Y-112031454D01*
X202136829Y-111992742D01*
X202000582Y-111919916D01*
X201852745Y-111875071D01*
X201699000Y-111859928D01*
X201399000Y-111859928D01*
X201245255Y-111875071D01*
X201097418Y-111919916D01*
X200963064Y-111991730D01*
X200933494Y-111967463D01*
X200823180Y-111908498D01*
X200703482Y-111872188D01*
X200579000Y-111859928D01*
X200564750Y-111863000D01*
X200406000Y-112021750D01*
X200152000Y-112021750D01*
X199993250Y-111863000D01*
X199979000Y-111859928D01*
X199854518Y-111872188D01*
X199734820Y-111908498D01*
X199624506Y-111967463D01*
X199594936Y-111991730D01*
X199460582Y-111919916D01*
X199312745Y-111875071D01*
X199159000Y-111859928D01*
X198859000Y-111859928D01*
X198705255Y-111875071D01*
X198557418Y-111919916D01*
X198421171Y-111992742D01*
X198301749Y-112090749D01*
X198203742Y-112210171D01*
X198130916Y-112346418D01*
X198086071Y-112494255D01*
X198070928Y-112648000D01*
X198070928Y-112711000D01*
X191872422Y-112711000D01*
X191834999Y-112707314D01*
X191797576Y-112711000D01*
X191797574Y-112711000D01*
X191685622Y-112722026D01*
X191541985Y-112765598D01*
X191409608Y-112836355D01*
X191293578Y-112931578D01*
X191269721Y-112960648D01*
X188971654Y-115258716D01*
X188942578Y-115282578D01*
X188915150Y-115316000D01*
X188847355Y-115398608D01*
X188822748Y-115444645D01*
X188776598Y-115530986D01*
X188733026Y-115674623D01*
X188726417Y-115741727D01*
X188718314Y-115824000D01*
X188722000Y-115861423D01*
X188722001Y-124007569D01*
X188639820Y-124032498D01*
X188529506Y-124091463D01*
X188432815Y-124170815D01*
X188353463Y-124267506D01*
X188294498Y-124377820D01*
X188258188Y-124497518D01*
X188245928Y-124622000D01*
X122936000Y-124622000D01*
X122936000Y-122997630D01*
X126807631Y-119126000D01*
X132550577Y-119126000D01*
X132588000Y-119129686D01*
X132625423Y-119126000D01*
X132625426Y-119126000D01*
X132737378Y-119114974D01*
X132881015Y-119071402D01*
X133013392Y-119000645D01*
X133129422Y-118905422D01*
X133153284Y-118876346D01*
X140212352Y-111817279D01*
X140241422Y-111793422D01*
X140268772Y-111760096D01*
X140336645Y-111677393D01*
X140407401Y-111545016D01*
X140407402Y-111545015D01*
X140450974Y-111401378D01*
X140462000Y-111289426D01*
X140462000Y-111289423D01*
X140465686Y-111252000D01*
X140462000Y-111214577D01*
X140462000Y-91910574D01*
X140450974Y-91798622D01*
X140407402Y-91654985D01*
X140336645Y-91522608D01*
X140241422Y-91406578D01*
X140125391Y-91311355D01*
X139993014Y-91240598D01*
X139849377Y-91197026D01*
X139700000Y-91182314D01*
X139550622Y-91197026D01*
X139406985Y-91240598D01*
X139274608Y-91311355D01*
X139158578Y-91406578D01*
X139063355Y-91522609D01*
X138992598Y-91654986D01*
X138949026Y-91798623D01*
X138938000Y-91910575D01*
X138938001Y-110936368D01*
X132272370Y-117602000D01*
X126529422Y-117602000D01*
X126491999Y-117598314D01*
X126454576Y-117602000D01*
X126454574Y-117602000D01*
X126342622Y-117613026D01*
X126198985Y-117656598D01*
X126066608Y-117727355D01*
X125950578Y-117822578D01*
X125926721Y-117851648D01*
X121661654Y-122116716D01*
X121632578Y-122140578D01*
X121576983Y-122208322D01*
X121537355Y-122256608D01*
X121499535Y-122327365D01*
X121466598Y-122388986D01*
X121423026Y-122532623D01*
X121416166Y-122602276D01*
X121408314Y-122682000D01*
X121412000Y-122719423D01*
X121412001Y-142833928D01*
X121374000Y-142833928D01*
X121249518Y-142846188D01*
X121129820Y-142882498D01*
X121019506Y-142941463D01*
X120922815Y-143020815D01*
X120843463Y-143117506D01*
X120784498Y-143227820D01*
X120748188Y-143347518D01*
X120735928Y-143472000D01*
X101768650Y-143472000D01*
X101647519Y-143308586D01*
X101439131Y-143119615D01*
X101197881Y-142974930D01*
X100933040Y-142880091D01*
X100711000Y-143001376D01*
X100457000Y-143001376D01*
X100234960Y-142880091D01*
X99970119Y-142974930D01*
X99728869Y-143119615D01*
X99520481Y-143308586D01*
X99352963Y-143534580D01*
X99232754Y-143788913D01*
X99192096Y-143922961D01*
X94402072Y-143922961D01*
X94402072Y-143472000D01*
X94389812Y-143347518D01*
X94353502Y-143227820D01*
X94294537Y-143117506D01*
X94215185Y-143020815D01*
X94118494Y-142941463D01*
X94008180Y-142882498D01*
X93888482Y-142846188D01*
X93764000Y-142833928D01*
X92164000Y-142833928D01*
X92039518Y-142846188D01*
X91919820Y-142882498D01*
X91809506Y-142941463D01*
X91712815Y-143020815D01*
X91633463Y-143117506D01*
X91574498Y-143227820D01*
X91538188Y-143347518D01*
X91525928Y-143472000D01*
X16916000Y-143472000D01*
X16916000Y-105372000D01*
X78825928Y-105372000D01*
X78825928Y-106972000D01*
X78838188Y-107096482D01*
X78874498Y-107216180D01*
X78933463Y-107326494D01*
X79012815Y-107423185D01*
X79109506Y-107502537D01*
X79219820Y-107561502D01*
X79339518Y-107597812D01*
X79347961Y-107598643D01*
X79149363Y-107797241D01*
X78992320Y-108032273D01*
X78884147Y-108293426D01*
X78829000Y-108570665D01*
X78829000Y-108853335D01*
X78884147Y-109130574D01*
X78992320Y-109391727D01*
X79149363Y-109626759D01*
X79349241Y-109826637D01*
X79581759Y-109982000D01*
X79349241Y-110137363D01*
X79149363Y-110337241D01*
X78992320Y-110572273D01*
X78884147Y-110833426D01*
X78829000Y-111110665D01*
X78829000Y-111393335D01*
X78884147Y-111670574D01*
X78992320Y-111931727D01*
X79149363Y-112166759D01*
X79349241Y-112366637D01*
X79581759Y-112522000D01*
X79349241Y-112677363D01*
X79149363Y-112877241D01*
X78992320Y-113112273D01*
X78884147Y-113373426D01*
X78829000Y-113650665D01*
X78829000Y-113933335D01*
X78884147Y-114210574D01*
X78992320Y-114471727D01*
X79149363Y-114706759D01*
X79349241Y-114906637D01*
X79584273Y-115063680D01*
X79845426Y-115171853D01*
X80122665Y-115227000D01*
X80405335Y-115227000D01*
X80682574Y-115171853D01*
X80943727Y-115063680D01*
X81178759Y-114906637D01*
X81378637Y-114706759D01*
X81535680Y-114471727D01*
X81643853Y-114210574D01*
X81699000Y-113933335D01*
X81699000Y-113650665D01*
X81643853Y-113373426D01*
X81535680Y-113112273D01*
X81378637Y-112877241D01*
X81178759Y-112677363D01*
X80946241Y-112522000D01*
X81178759Y-112366637D01*
X81378637Y-112166759D01*
X81535680Y-111931727D01*
X81643853Y-111670574D01*
X81699000Y-111393335D01*
X81699000Y-111110665D01*
X81643853Y-110833426D01*
X81535680Y-110572273D01*
X81378637Y-110337241D01*
X81178759Y-110137363D01*
X80946241Y-109982000D01*
X81178759Y-109826637D01*
X81378637Y-109626759D01*
X81535680Y-109391727D01*
X81643853Y-109130574D01*
X81699000Y-108853335D01*
X81699000Y-108570665D01*
X86449000Y-108570665D01*
X86449000Y-108853335D01*
X86504147Y-109130574D01*
X86612320Y-109391727D01*
X86769363Y-109626759D01*
X86969241Y-109826637D01*
X87201759Y-109982000D01*
X86969241Y-110137363D01*
X86769363Y-110337241D01*
X86612320Y-110572273D01*
X86504147Y-110833426D01*
X86449000Y-111110665D01*
X86449000Y-111393335D01*
X86504147Y-111670574D01*
X86612320Y-111931727D01*
X86769363Y-112166759D01*
X86969241Y-112366637D01*
X87201759Y-112522000D01*
X86969241Y-112677363D01*
X86769363Y-112877241D01*
X86612320Y-113112273D01*
X86504147Y-113373426D01*
X86449000Y-113650665D01*
X86449000Y-113933335D01*
X86504147Y-114210574D01*
X86612320Y-114471727D01*
X86769363Y-114706759D01*
X86969241Y-114906637D01*
X87204273Y-115063680D01*
X87465426Y-115171853D01*
X87742665Y-115227000D01*
X88025335Y-115227000D01*
X88302574Y-115171853D01*
X88563727Y-115063680D01*
X88798759Y-114906637D01*
X88998637Y-114706759D01*
X89155680Y-114471727D01*
X89263853Y-114210574D01*
X89319000Y-113933335D01*
X89319000Y-113650665D01*
X89263853Y-113373426D01*
X89155680Y-113112273D01*
X88998637Y-112877241D01*
X88798759Y-112677363D01*
X88566241Y-112522000D01*
X88798759Y-112366637D01*
X88998637Y-112166759D01*
X89155680Y-111931727D01*
X89263853Y-111670574D01*
X89319000Y-111393335D01*
X89319000Y-111110665D01*
X89263853Y-110833426D01*
X89155680Y-110572273D01*
X88998637Y-110337241D01*
X88798759Y-110137363D01*
X88566241Y-109982000D01*
X88798759Y-109826637D01*
X88998637Y-109626759D01*
X89155680Y-109391727D01*
X89263853Y-109130574D01*
X89319000Y-108853335D01*
X89319000Y-108570665D01*
X89263853Y-108293426D01*
X89155680Y-108032273D01*
X88998637Y-107797241D01*
X88798759Y-107597363D01*
X88563727Y-107440320D01*
X88553135Y-107435933D01*
X88739131Y-107324385D01*
X88947519Y-107135414D01*
X89115037Y-106909420D01*
X89235246Y-106655087D01*
X89275904Y-106521039D01*
X89153915Y-106299000D01*
X88011000Y-106299000D01*
X88011000Y-106319000D01*
X87757000Y-106319000D01*
X87757000Y-106299000D01*
X86614085Y-106299000D01*
X86492096Y-106521039D01*
X86532754Y-106655087D01*
X86652963Y-106909420D01*
X86820481Y-107135414D01*
X87028869Y-107324385D01*
X87214865Y-107435933D01*
X87204273Y-107440320D01*
X86969241Y-107597363D01*
X86769363Y-107797241D01*
X86612320Y-108032273D01*
X86504147Y-108293426D01*
X86449000Y-108570665D01*
X81699000Y-108570665D01*
X81643853Y-108293426D01*
X81535680Y-108032273D01*
X81378637Y-107797241D01*
X81180039Y-107598643D01*
X81188482Y-107597812D01*
X81308180Y-107561502D01*
X81418494Y-107502537D01*
X81515185Y-107423185D01*
X81594537Y-107326494D01*
X81653502Y-107216180D01*
X81689812Y-107096482D01*
X81702072Y-106972000D01*
X81702072Y-105822961D01*
X86492096Y-105822961D01*
X86614085Y-106045000D01*
X87757000Y-106045000D01*
X87757000Y-104901376D01*
X88011000Y-104901376D01*
X88011000Y-106045000D01*
X89153915Y-106045000D01*
X89275904Y-105822961D01*
X89235246Y-105688913D01*
X89115037Y-105434580D01*
X88947519Y-105208586D01*
X88739131Y-105019615D01*
X88497881Y-104874930D01*
X88233040Y-104780091D01*
X88011000Y-104901376D01*
X87757000Y-104901376D01*
X87534960Y-104780091D01*
X87270119Y-104874930D01*
X87028869Y-105019615D01*
X86820481Y-105208586D01*
X86652963Y-105434580D01*
X86532754Y-105688913D01*
X86492096Y-105822961D01*
X81702072Y-105822961D01*
X81702072Y-105372000D01*
X81689812Y-105247518D01*
X81653502Y-105127820D01*
X81594537Y-105017506D01*
X81515185Y-104920815D01*
X81418494Y-104841463D01*
X81308180Y-104782498D01*
X81188482Y-104746188D01*
X81064000Y-104733928D01*
X79464000Y-104733928D01*
X79339518Y-104746188D01*
X79219820Y-104782498D01*
X79109506Y-104841463D01*
X79012815Y-104920815D01*
X78933463Y-105017506D01*
X78874498Y-105127820D01*
X78838188Y-105247518D01*
X78825928Y-105372000D01*
X16916000Y-105372000D01*
X16916000Y-81861268D01*
X40329000Y-81861268D01*
X40329000Y-82222732D01*
X40399518Y-82577250D01*
X40537844Y-82911199D01*
X40738662Y-83211744D01*
X40994256Y-83467338D01*
X41294801Y-83668156D01*
X41628750Y-83806482D01*
X41983268Y-83877000D01*
X42344732Y-83877000D01*
X42699250Y-83806482D01*
X43033199Y-83668156D01*
X43333744Y-83467338D01*
X43589338Y-83211744D01*
X43790156Y-82911199D01*
X43928482Y-82577250D01*
X43999000Y-82222732D01*
X43999000Y-81861268D01*
X60649000Y-81861268D01*
X60649000Y-82222732D01*
X60719518Y-82577250D01*
X60857844Y-82911199D01*
X61058662Y-83211744D01*
X61314256Y-83467338D01*
X61614801Y-83668156D01*
X61948750Y-83806482D01*
X62303268Y-83877000D01*
X62664732Y-83877000D01*
X63019250Y-83806482D01*
X63353199Y-83668156D01*
X63653744Y-83467338D01*
X63909338Y-83211744D01*
X64110156Y-82911199D01*
X64248482Y-82577250D01*
X64319000Y-82222732D01*
X64319000Y-81861268D01*
X64248482Y-81506750D01*
X64138820Y-81242000D01*
X78825928Y-81242000D01*
X78825928Y-82842000D01*
X78838188Y-82966482D01*
X78874498Y-83086180D01*
X78933463Y-83196494D01*
X79012815Y-83293185D01*
X79109506Y-83372537D01*
X79219820Y-83431502D01*
X79339518Y-83467812D01*
X79347961Y-83468643D01*
X79149363Y-83667241D01*
X78992320Y-83902273D01*
X78884147Y-84163426D01*
X78829000Y-84440665D01*
X78829000Y-84723335D01*
X78884147Y-85000574D01*
X78992320Y-85261727D01*
X79149363Y-85496759D01*
X79349241Y-85696637D01*
X79581759Y-85852000D01*
X79349241Y-86007363D01*
X79149363Y-86207241D01*
X78992320Y-86442273D01*
X78884147Y-86703426D01*
X78829000Y-86980665D01*
X78829000Y-87263335D01*
X78884147Y-87540574D01*
X78992320Y-87801727D01*
X79149363Y-88036759D01*
X79349241Y-88236637D01*
X79581759Y-88392000D01*
X79349241Y-88547363D01*
X79149363Y-88747241D01*
X78992320Y-88982273D01*
X78884147Y-89243426D01*
X78829000Y-89520665D01*
X78829000Y-89803335D01*
X78884147Y-90080574D01*
X78992320Y-90341727D01*
X79149363Y-90576759D01*
X79349241Y-90776637D01*
X79584273Y-90933680D01*
X79845426Y-91041853D01*
X80122665Y-91097000D01*
X80405335Y-91097000D01*
X80682574Y-91041853D01*
X80943727Y-90933680D01*
X81178759Y-90776637D01*
X81378637Y-90576759D01*
X81535680Y-90341727D01*
X81643853Y-90080574D01*
X81699000Y-89803335D01*
X81699000Y-89520665D01*
X81643853Y-89243426D01*
X81535680Y-88982273D01*
X81378637Y-88747241D01*
X81178759Y-88547363D01*
X80946241Y-88392000D01*
X81178759Y-88236637D01*
X81378637Y-88036759D01*
X81535680Y-87801727D01*
X81643853Y-87540574D01*
X81699000Y-87263335D01*
X81699000Y-86980665D01*
X81643853Y-86703426D01*
X81535680Y-86442273D01*
X81378637Y-86207241D01*
X81178759Y-86007363D01*
X80946241Y-85852000D01*
X81178759Y-85696637D01*
X81378637Y-85496759D01*
X81535680Y-85261727D01*
X81643853Y-85000574D01*
X81699000Y-84723335D01*
X81699000Y-84440665D01*
X86449000Y-84440665D01*
X86449000Y-84723335D01*
X86504147Y-85000574D01*
X86612320Y-85261727D01*
X86769363Y-85496759D01*
X86969241Y-85696637D01*
X87201759Y-85852000D01*
X86969241Y-86007363D01*
X86769363Y-86207241D01*
X86612320Y-86442273D01*
X86504147Y-86703426D01*
X86449000Y-86980665D01*
X86449000Y-87263335D01*
X86504147Y-87540574D01*
X86612320Y-87801727D01*
X86769363Y-88036759D01*
X86969241Y-88236637D01*
X87201759Y-88392000D01*
X86969241Y-88547363D01*
X86769363Y-88747241D01*
X86612320Y-88982273D01*
X86504147Y-89243426D01*
X86449000Y-89520665D01*
X86449000Y-89803335D01*
X86504147Y-90080574D01*
X86612320Y-90341727D01*
X86769363Y-90576759D01*
X86969241Y-90776637D01*
X87204273Y-90933680D01*
X87465426Y-91041853D01*
X87742665Y-91097000D01*
X88025335Y-91097000D01*
X88302574Y-91041853D01*
X88563727Y-90933680D01*
X88798759Y-90776637D01*
X88998637Y-90576759D01*
X89155680Y-90341727D01*
X89263853Y-90080574D01*
X89319000Y-89803335D01*
X89319000Y-89520665D01*
X89263853Y-89243426D01*
X89155680Y-88982273D01*
X88998637Y-88747241D01*
X88798759Y-88547363D01*
X88566241Y-88392000D01*
X88798759Y-88236637D01*
X88998637Y-88036759D01*
X89155680Y-87801727D01*
X89263853Y-87540574D01*
X89319000Y-87263335D01*
X89319000Y-86980665D01*
X89263853Y-86703426D01*
X89155680Y-86442273D01*
X88998637Y-86207241D01*
X88798759Y-86007363D01*
X88566241Y-85852000D01*
X88798759Y-85696637D01*
X88998637Y-85496759D01*
X89100707Y-85344000D01*
X149602314Y-85344000D01*
X149617027Y-85493378D01*
X149660599Y-85637015D01*
X149731355Y-85769392D01*
X149802721Y-85856351D01*
X154686000Y-90739631D01*
X154686001Y-110706567D01*
X154682314Y-110744000D01*
X154697027Y-110893378D01*
X154740599Y-111037015D01*
X154811355Y-111169392D01*
X154879150Y-111252000D01*
X154906579Y-111285422D01*
X154935649Y-111309279D01*
X158946721Y-115320352D01*
X158970578Y-115349422D01*
X158999648Y-115373279D01*
X159086607Y-115444645D01*
X159153826Y-115480574D01*
X159218985Y-115515402D01*
X159362622Y-115558974D01*
X159474574Y-115570000D01*
X159474577Y-115570000D01*
X159512000Y-115573686D01*
X159549423Y-115570000D01*
X176238577Y-115570000D01*
X176276000Y-115573686D01*
X176313423Y-115570000D01*
X176313426Y-115570000D01*
X176425378Y-115558974D01*
X176569015Y-115515402D01*
X176701392Y-115444645D01*
X176817422Y-115349422D01*
X176841284Y-115320346D01*
X182663630Y-109498000D01*
X198070928Y-109498000D01*
X198083188Y-109622482D01*
X198119498Y-109742180D01*
X198178463Y-109852494D01*
X198257815Y-109949185D01*
X198354506Y-110028537D01*
X198464820Y-110087502D01*
X198584518Y-110123812D01*
X198709000Y-110136072D01*
X198723250Y-110133000D01*
X198882000Y-109974250D01*
X198882000Y-108650000D01*
X199136000Y-108650000D01*
X199136000Y-109974250D01*
X199294750Y-110133000D01*
X199309000Y-110136072D01*
X199433482Y-110123812D01*
X199553180Y-110087502D01*
X199644000Y-110038957D01*
X199734820Y-110087502D01*
X199854518Y-110123812D01*
X199979000Y-110136072D01*
X199993250Y-110133000D01*
X200152000Y-109974250D01*
X200152000Y-108650000D01*
X199136000Y-108650000D01*
X198882000Y-108650000D01*
X198232750Y-108650000D01*
X198074000Y-108808750D01*
X198070928Y-109498000D01*
X182663630Y-109498000D01*
X184613630Y-107548000D01*
X198070928Y-107548000D01*
X198074000Y-108237250D01*
X198232750Y-108396000D01*
X198882000Y-108396000D01*
X198882000Y-107071750D01*
X199136000Y-107071750D01*
X199136000Y-108396000D01*
X200152000Y-108396000D01*
X200152000Y-107071750D01*
X199993250Y-106913000D01*
X199979000Y-106909928D01*
X199854518Y-106922188D01*
X199734820Y-106958498D01*
X199644000Y-107007043D01*
X199553180Y-106958498D01*
X199433482Y-106922188D01*
X199309000Y-106909928D01*
X199294750Y-106913000D01*
X199136000Y-107071750D01*
X198882000Y-107071750D01*
X198723250Y-106913000D01*
X198709000Y-106909928D01*
X198584518Y-106922188D01*
X198464820Y-106958498D01*
X198354506Y-107017463D01*
X198257815Y-107096815D01*
X198178463Y-107193506D01*
X198119498Y-107303820D01*
X198083188Y-107423518D01*
X198070928Y-107548000D01*
X184613630Y-107548000D01*
X189541279Y-102620352D01*
X189612644Y-102533393D01*
X189683401Y-102401017D01*
X189726973Y-102257379D01*
X189741686Y-102108001D01*
X189726973Y-101958622D01*
X189683401Y-101814985D01*
X189612644Y-101682608D01*
X189517421Y-101566579D01*
X189401392Y-101471356D01*
X189269015Y-101400599D01*
X189125378Y-101357027D01*
X188975999Y-101342314D01*
X188826621Y-101357027D01*
X188682983Y-101400599D01*
X188550607Y-101471356D01*
X188463648Y-101542721D01*
X175960370Y-114046000D01*
X159827631Y-114046000D01*
X156210000Y-110428370D01*
X156210000Y-93980000D01*
X166746700Y-93980000D01*
X166763864Y-94154274D01*
X166814698Y-94321852D01*
X166897248Y-94476291D01*
X167008341Y-94611659D01*
X167143709Y-94722752D01*
X167298148Y-94805302D01*
X167465726Y-94856136D01*
X167640000Y-94873300D01*
X167814274Y-94856136D01*
X167981852Y-94805302D01*
X168136291Y-94722752D01*
X168237740Y-94639495D01*
X170585495Y-92291741D01*
X170585500Y-92291735D01*
X170952533Y-91924702D01*
X187146903Y-91924702D01*
X187218486Y-92168671D01*
X187473996Y-92289571D01*
X187748184Y-92358300D01*
X188030512Y-92372217D01*
X188310130Y-92330787D01*
X188576292Y-92235603D01*
X188701514Y-92168671D01*
X188773097Y-91924702D01*
X187960000Y-91111605D01*
X187146903Y-91924702D01*
X170952533Y-91924702D01*
X171874723Y-91002512D01*
X186519783Y-91002512D01*
X186561213Y-91282130D01*
X186656397Y-91548292D01*
X186723329Y-91673514D01*
X186967298Y-91745097D01*
X187780395Y-90932000D01*
X188139605Y-90932000D01*
X188952702Y-91745097D01*
X189196671Y-91673514D01*
X189210324Y-91644659D01*
X189345363Y-91846759D01*
X189545241Y-92046637D01*
X189780273Y-92203680D01*
X190041426Y-92311853D01*
X190318665Y-92367000D01*
X190601335Y-92367000D01*
X190878574Y-92311853D01*
X191139727Y-92203680D01*
X191374759Y-92046637D01*
X191574637Y-91846759D01*
X191676707Y-91694000D01*
X196788370Y-91694000D01*
X197358001Y-92263632D01*
X197358000Y-100546577D01*
X197354314Y-100584000D01*
X197358000Y-100621423D01*
X197358000Y-100621425D01*
X197369026Y-100733377D01*
X197412598Y-100877014D01*
X197412599Y-100877015D01*
X197483355Y-101009392D01*
X197518896Y-101052698D01*
X197578578Y-101125422D01*
X197607654Y-101149284D01*
X202057001Y-105598631D01*
X202057000Y-107000072D01*
X202000582Y-106969916D01*
X201852745Y-106925071D01*
X201699000Y-106909928D01*
X201399000Y-106909928D01*
X201245255Y-106925071D01*
X201097418Y-106969916D01*
X200963064Y-107041730D01*
X200933494Y-107017463D01*
X200823180Y-106958498D01*
X200703482Y-106922188D01*
X200579000Y-106909928D01*
X200564750Y-106913000D01*
X200406000Y-107071750D01*
X200406000Y-108396000D01*
X200426000Y-108396000D01*
X200426000Y-108650000D01*
X200406000Y-108650000D01*
X200406000Y-109974250D01*
X200564750Y-110133000D01*
X200579000Y-110136072D01*
X200703482Y-110123812D01*
X200823180Y-110087502D01*
X200933494Y-110028537D01*
X200963064Y-110004270D01*
X201097418Y-110076084D01*
X201245255Y-110120929D01*
X201399000Y-110136072D01*
X201699000Y-110136072D01*
X201852745Y-110120929D01*
X202000582Y-110076084D01*
X202136829Y-110003258D01*
X202184000Y-109964546D01*
X202231171Y-110003258D01*
X202367418Y-110076084D01*
X202515255Y-110120929D01*
X202669000Y-110136072D01*
X202969000Y-110136072D01*
X203122745Y-110120929D01*
X203270582Y-110076084D01*
X203406829Y-110003258D01*
X203526251Y-109905251D01*
X203624258Y-109785829D01*
X203697084Y-109649582D01*
X203741929Y-109501745D01*
X203757072Y-109348000D01*
X203757072Y-107698000D01*
X203741929Y-107544255D01*
X203697084Y-107396418D01*
X203624258Y-107260171D01*
X203581000Y-107207461D01*
X203581000Y-105320423D01*
X203584686Y-105283000D01*
X203577357Y-105208586D01*
X203569974Y-105133622D01*
X203526402Y-104989985D01*
X203489430Y-104920815D01*
X203455645Y-104857607D01*
X203420857Y-104815219D01*
X203360422Y-104741578D01*
X203331346Y-104717716D01*
X198882000Y-100268370D01*
X198882000Y-91985423D01*
X198885686Y-91948000D01*
X198882000Y-91910574D01*
X198870974Y-91798622D01*
X198827402Y-91654985D01*
X198781252Y-91568645D01*
X198756645Y-91522607D01*
X198685279Y-91435648D01*
X198661422Y-91406578D01*
X198632351Y-91382721D01*
X197669284Y-90419654D01*
X197645422Y-90390578D01*
X197529392Y-90295355D01*
X197397015Y-90224598D01*
X197253378Y-90181026D01*
X197141426Y-90170000D01*
X197141423Y-90170000D01*
X197104000Y-90166314D01*
X197066577Y-90170000D01*
X191676707Y-90170000D01*
X191574637Y-90017241D01*
X191374759Y-89817363D01*
X191139727Y-89660320D01*
X190878574Y-89552147D01*
X190601335Y-89497000D01*
X190318665Y-89497000D01*
X190041426Y-89552147D01*
X189780273Y-89660320D01*
X189545241Y-89817363D01*
X189345363Y-90017241D01*
X189211308Y-90217869D01*
X189196671Y-90190486D01*
X188952702Y-90118903D01*
X188139605Y-90932000D01*
X187780395Y-90932000D01*
X186967298Y-90118903D01*
X186723329Y-90190486D01*
X186602429Y-90445996D01*
X186533700Y-90720184D01*
X186519783Y-91002512D01*
X171874723Y-91002512D01*
X172937937Y-89939298D01*
X187146903Y-89939298D01*
X187960000Y-90752395D01*
X188773097Y-89939298D01*
X188701514Y-89695329D01*
X188446004Y-89574429D01*
X188171816Y-89505700D01*
X187889488Y-89491783D01*
X187609870Y-89533213D01*
X187343708Y-89628397D01*
X187218486Y-89695329D01*
X187146903Y-89939298D01*
X172937937Y-89939298D01*
X190651494Y-72225741D01*
X194653742Y-68223494D01*
X194687659Y-68195659D01*
X194798753Y-68060291D01*
X194881303Y-67905851D01*
X194932136Y-67738274D01*
X194945000Y-67607667D01*
X194945000Y-67607660D01*
X194949300Y-67564000D01*
X194945000Y-67520340D01*
X194945000Y-59392333D01*
X194932136Y-59261726D01*
X194881303Y-59094149D01*
X194798753Y-58939709D01*
X194687659Y-58804341D01*
X194552290Y-58693247D01*
X194397850Y-58610697D01*
X194230273Y-58559864D01*
X194056000Y-58542699D01*
X193881726Y-58559864D01*
X193714149Y-58610697D01*
X193559709Y-58693247D01*
X193424341Y-58804341D01*
X193313247Y-58939710D01*
X193230697Y-59094150D01*
X193179864Y-59261727D01*
X193167000Y-59392334D01*
X193167001Y-67195763D01*
X189394259Y-70968506D01*
X169328265Y-91034500D01*
X169328259Y-91034505D01*
X166980505Y-93382260D01*
X166897248Y-93483709D01*
X166814698Y-93638148D01*
X166763864Y-93805726D01*
X166746700Y-93980000D01*
X156210000Y-93980000D01*
X156210000Y-90461423D01*
X156213686Y-90424000D01*
X156210000Y-90386574D01*
X156198974Y-90274622D01*
X156155402Y-90130985D01*
X156084646Y-89998609D01*
X156084645Y-89998607D01*
X156013279Y-89911648D01*
X155989422Y-89882578D01*
X155960353Y-89858722D01*
X150880351Y-84778721D01*
X150793392Y-84707355D01*
X150661015Y-84636599D01*
X150517378Y-84593027D01*
X150368000Y-84578314D01*
X150218622Y-84593027D01*
X150074985Y-84636599D01*
X149942608Y-84707355D01*
X149826579Y-84802579D01*
X149731355Y-84918608D01*
X149660599Y-85050985D01*
X149617027Y-85194622D01*
X149602314Y-85344000D01*
X89100707Y-85344000D01*
X89155680Y-85261727D01*
X89263853Y-85000574D01*
X89319000Y-84723335D01*
X89319000Y-84440665D01*
X89263853Y-84163426D01*
X89155680Y-83902273D01*
X88998637Y-83667241D01*
X88798759Y-83467363D01*
X88563727Y-83310320D01*
X88553135Y-83305933D01*
X88739131Y-83194385D01*
X88947519Y-83005414D01*
X89115037Y-82779420D01*
X89235246Y-82525087D01*
X89275904Y-82391039D01*
X89153915Y-82169000D01*
X88011000Y-82169000D01*
X88011000Y-82189000D01*
X87757000Y-82189000D01*
X87757000Y-82169000D01*
X86614085Y-82169000D01*
X86492096Y-82391039D01*
X86532754Y-82525087D01*
X86652963Y-82779420D01*
X86820481Y-83005414D01*
X87028869Y-83194385D01*
X87214865Y-83305933D01*
X87204273Y-83310320D01*
X86969241Y-83467363D01*
X86769363Y-83667241D01*
X86612320Y-83902273D01*
X86504147Y-84163426D01*
X86449000Y-84440665D01*
X81699000Y-84440665D01*
X81643853Y-84163426D01*
X81535680Y-83902273D01*
X81378637Y-83667241D01*
X81180039Y-83468643D01*
X81188482Y-83467812D01*
X81308180Y-83431502D01*
X81418494Y-83372537D01*
X81515185Y-83293185D01*
X81594537Y-83196494D01*
X81653502Y-83086180D01*
X81689812Y-82966482D01*
X81702072Y-82842000D01*
X81702072Y-81692961D01*
X86492096Y-81692961D01*
X86614085Y-81915000D01*
X87757000Y-81915000D01*
X87757000Y-80771376D01*
X88011000Y-80771376D01*
X88011000Y-81915000D01*
X89153915Y-81915000D01*
X89275904Y-81692961D01*
X89235246Y-81558913D01*
X89115037Y-81304580D01*
X88947519Y-81078586D01*
X88739131Y-80889615D01*
X88497881Y-80744930D01*
X88233040Y-80650091D01*
X88011000Y-80771376D01*
X87757000Y-80771376D01*
X87534960Y-80650091D01*
X87270119Y-80744930D01*
X87028869Y-80889615D01*
X86820481Y-81078586D01*
X86652963Y-81304580D01*
X86532754Y-81558913D01*
X86492096Y-81692961D01*
X81702072Y-81692961D01*
X81702072Y-81242000D01*
X81689812Y-81117518D01*
X81653502Y-80997820D01*
X81594537Y-80887506D01*
X81515185Y-80790815D01*
X81418494Y-80711463D01*
X81308180Y-80652498D01*
X81188482Y-80616188D01*
X81064000Y-80603928D01*
X79464000Y-80603928D01*
X79339518Y-80616188D01*
X79219820Y-80652498D01*
X79109506Y-80711463D01*
X79012815Y-80790815D01*
X78933463Y-80887506D01*
X78874498Y-80997820D01*
X78838188Y-81117518D01*
X78825928Y-81242000D01*
X64138820Y-81242000D01*
X64110156Y-81172801D01*
X63909338Y-80872256D01*
X63653744Y-80616662D01*
X63353199Y-80415844D01*
X63019250Y-80277518D01*
X62664732Y-80207000D01*
X62303268Y-80207000D01*
X61948750Y-80277518D01*
X61614801Y-80415844D01*
X61314256Y-80616662D01*
X61058662Y-80872256D01*
X60857844Y-81172801D01*
X60719518Y-81506750D01*
X60649000Y-81861268D01*
X43999000Y-81861268D01*
X43928482Y-81506750D01*
X43790156Y-81172801D01*
X43589338Y-80872256D01*
X43333744Y-80616662D01*
X43033199Y-80415844D01*
X42699250Y-80277518D01*
X42344732Y-80207000D01*
X41983268Y-80207000D01*
X41628750Y-80277518D01*
X41294801Y-80415844D01*
X40994256Y-80616662D01*
X40738662Y-80872256D01*
X40537844Y-81172801D01*
X40399518Y-81506750D01*
X40329000Y-81861268D01*
X16916000Y-81861268D01*
X16916000Y-66621268D01*
X72079000Y-66621268D01*
X72079000Y-66982732D01*
X72149518Y-67337250D01*
X72287844Y-67671199D01*
X72488662Y-67971744D01*
X72744256Y-68227338D01*
X73044801Y-68428156D01*
X73378750Y-68566482D01*
X73733268Y-68637000D01*
X74094732Y-68637000D01*
X74449250Y-68566482D01*
X74783199Y-68428156D01*
X75083744Y-68227338D01*
X75339338Y-67971744D01*
X75540156Y-67671199D01*
X75678482Y-67337250D01*
X75749000Y-66982732D01*
X75749000Y-66621268D01*
X97479000Y-66621268D01*
X97479000Y-66982732D01*
X97549518Y-67337250D01*
X97687844Y-67671199D01*
X97888662Y-67971744D01*
X98144256Y-68227338D01*
X98444801Y-68428156D01*
X98778750Y-68566482D01*
X99133268Y-68637000D01*
X99494732Y-68637000D01*
X99849250Y-68566482D01*
X100183199Y-68428156D01*
X100483744Y-68227338D01*
X100739338Y-67971744D01*
X100940156Y-67671199D01*
X101078482Y-67337250D01*
X101149000Y-66982732D01*
X101149000Y-66621268D01*
X101078482Y-66266750D01*
X100940156Y-65932801D01*
X100739338Y-65632256D01*
X100483744Y-65376662D01*
X100183199Y-65175844D01*
X99849250Y-65037518D01*
X99494732Y-64967000D01*
X99133268Y-64967000D01*
X98778750Y-65037518D01*
X98444801Y-65175844D01*
X98144256Y-65376662D01*
X97888662Y-65632256D01*
X97687844Y-65932801D01*
X97549518Y-66266750D01*
X97479000Y-66621268D01*
X75749000Y-66621268D01*
X75678482Y-66266750D01*
X75540156Y-65932801D01*
X75339338Y-65632256D01*
X75083744Y-65376662D01*
X74783199Y-65175844D01*
X74449250Y-65037518D01*
X74094732Y-64967000D01*
X73733268Y-64967000D01*
X73378750Y-65037518D01*
X73044801Y-65175844D01*
X72744256Y-65376662D01*
X72488662Y-65632256D01*
X72287844Y-65932801D01*
X72149518Y-66266750D01*
X72079000Y-66621268D01*
X16916000Y-66621268D01*
X16916000Y-46984475D01*
X134525000Y-46984475D01*
X134525000Y-47503525D01*
X134626261Y-48012601D01*
X134824893Y-48492141D01*
X135113262Y-48923715D01*
X135480285Y-49290738D01*
X135911859Y-49579107D01*
X136391399Y-49777739D01*
X136900475Y-49879000D01*
X137419525Y-49879000D01*
X137928601Y-49777739D01*
X138408141Y-49579107D01*
X138839715Y-49290738D01*
X139206738Y-48923715D01*
X139495107Y-48492141D01*
X139693739Y-48012601D01*
X139795000Y-47503525D01*
X139795000Y-46984475D01*
X139777800Y-46898000D01*
X187483928Y-46898000D01*
X187483928Y-48098000D01*
X187496188Y-48222482D01*
X187532498Y-48342180D01*
X187591463Y-48452494D01*
X187670815Y-48549185D01*
X187767506Y-48628537D01*
X187877820Y-48687502D01*
X187997518Y-48723812D01*
X188122000Y-48736072D01*
X189322000Y-48736072D01*
X189446482Y-48723812D01*
X189566180Y-48687502D01*
X189676494Y-48628537D01*
X189693681Y-48614432D01*
X189820516Y-48672237D01*
X190057313Y-48728000D01*
X190300438Y-48736495D01*
X190540549Y-48697395D01*
X190768418Y-48612202D01*
X190844852Y-48571348D01*
X190892159Y-48347764D01*
X190222000Y-47677605D01*
X190207858Y-47691748D01*
X190028253Y-47512143D01*
X190042395Y-47498000D01*
X190401605Y-47498000D01*
X191071764Y-48168159D01*
X191295348Y-48120852D01*
X191396237Y-47899484D01*
X191452000Y-47662687D01*
X191460495Y-47419562D01*
X191421395Y-47179451D01*
X191336202Y-46951582D01*
X191295348Y-46875148D01*
X191071764Y-46827841D01*
X190401605Y-47498000D01*
X190042395Y-47498000D01*
X190028253Y-47483858D01*
X190207858Y-47304253D01*
X190222000Y-47318395D01*
X190892159Y-46648236D01*
X190844852Y-46424652D01*
X190623484Y-46323763D01*
X190386687Y-46268000D01*
X190143562Y-46259505D01*
X189903451Y-46298605D01*
X189689883Y-46378451D01*
X189676494Y-46367463D01*
X189566180Y-46308498D01*
X189446482Y-46272188D01*
X189322000Y-46259928D01*
X188122000Y-46259928D01*
X187997518Y-46272188D01*
X187877820Y-46308498D01*
X187767506Y-46367463D01*
X187670815Y-46446815D01*
X187591463Y-46543506D01*
X187532498Y-46653820D01*
X187496188Y-46773518D01*
X187483928Y-46898000D01*
X139777800Y-46898000D01*
X139693739Y-46475399D01*
X139495107Y-45995859D01*
X139206738Y-45564285D01*
X138839715Y-45197262D01*
X138408141Y-44908893D01*
X137928601Y-44710261D01*
X137419525Y-44609000D01*
X136900475Y-44609000D01*
X136391399Y-44710261D01*
X135911859Y-44908893D01*
X135480285Y-45197262D01*
X135113262Y-45564285D01*
X134824893Y-45995859D01*
X134626261Y-46475399D01*
X134525000Y-46984475D01*
X16916000Y-46984475D01*
X16916000Y-41142475D01*
X261779000Y-41142475D01*
X261779000Y-41661525D01*
X261880261Y-42170601D01*
X262078893Y-42650141D01*
X262367262Y-43081715D01*
X262734285Y-43448738D01*
X263165859Y-43737107D01*
X263645399Y-43935739D01*
X264154475Y-44037000D01*
X264673525Y-44037000D01*
X265182601Y-43935739D01*
X265662141Y-43737107D01*
X266093715Y-43448738D01*
X266460738Y-43081715D01*
X266749107Y-42650141D01*
X266947739Y-42170601D01*
X267049000Y-41661525D01*
X267049000Y-41142475D01*
X266947739Y-40633399D01*
X266749107Y-40153859D01*
X266460738Y-39722285D01*
X266093715Y-39355262D01*
X265662141Y-39066893D01*
X265182601Y-38868261D01*
X264673525Y-38767000D01*
X264154475Y-38767000D01*
X263645399Y-38868261D01*
X263165859Y-39066893D01*
X262734285Y-39355262D01*
X262367262Y-39722285D01*
X262078893Y-40153859D01*
X261880261Y-40633399D01*
X261779000Y-41142475D01*
X16916000Y-41142475D01*
X16916000Y-16408000D01*
X280772001Y-16408000D01*
X280772000Y-177140000D01*
%TA.AperFunction,Conductor*%
D21*
G36*
X280772000Y-177140000D02*
G01*
X16916000Y-177140000D01*
X16916000Y-148895492D01*
X51499000Y-148895492D01*
X51499000Y-149808508D01*
X51677120Y-150703980D01*
X52026516Y-151547496D01*
X52533760Y-152306640D01*
X53179360Y-152952240D01*
X53938504Y-153459484D01*
X54782020Y-153808880D01*
X55677492Y-153987000D01*
X56590508Y-153987000D01*
X57485980Y-153808880D01*
X58329496Y-153459484D01*
X59088640Y-152952240D01*
X59734240Y-152306640D01*
X60241484Y-151547496D01*
X60590880Y-150703980D01*
X60769000Y-149808508D01*
X60769000Y-148895492D01*
X60590880Y-148000020D01*
X60241484Y-147156504D01*
X59734240Y-146397360D01*
X59088640Y-145751760D01*
X58329496Y-145244516D01*
X57485980Y-144895120D01*
X56590508Y-144717000D01*
X55677492Y-144717000D01*
X54782020Y-144895120D01*
X53938504Y-145244516D01*
X53179360Y-145751760D01*
X52533760Y-146397360D01*
X52026516Y-147156504D01*
X51677120Y-148000020D01*
X51499000Y-148895492D01*
X16916000Y-148895492D01*
X16916000Y-143472000D01*
X91525928Y-143472000D01*
X91525928Y-145072000D01*
X91538188Y-145196482D01*
X91574498Y-145316180D01*
X91633463Y-145426494D01*
X91712815Y-145523185D01*
X91809506Y-145602537D01*
X91919820Y-145661502D01*
X92039518Y-145697812D01*
X92047961Y-145698643D01*
X91849363Y-145897241D01*
X91692320Y-146132273D01*
X91584147Y-146393426D01*
X91529000Y-146670665D01*
X91529000Y-146953335D01*
X91584147Y-147230574D01*
X91692320Y-147491727D01*
X91849363Y-147726759D01*
X92049241Y-147926637D01*
X92281759Y-148082000D01*
X92049241Y-148237363D01*
X91849363Y-148437241D01*
X91692320Y-148672273D01*
X91584147Y-148933426D01*
X91529000Y-149210665D01*
X91529000Y-149493335D01*
X91584147Y-149770574D01*
X91692320Y-150031727D01*
X91849363Y-150266759D01*
X92049241Y-150466637D01*
X92281759Y-150622000D01*
X92049241Y-150777363D01*
X91849363Y-150977241D01*
X91692320Y-151212273D01*
X91584147Y-151473426D01*
X91529000Y-151750665D01*
X91529000Y-152033335D01*
X91584147Y-152310574D01*
X91692320Y-152571727D01*
X91849363Y-152806759D01*
X92049241Y-153006637D01*
X92284273Y-153163680D01*
X92545426Y-153271853D01*
X92822665Y-153327000D01*
X93105335Y-153327000D01*
X93382574Y-153271853D01*
X93643727Y-153163680D01*
X93878759Y-153006637D01*
X94078637Y-152806759D01*
X94235680Y-152571727D01*
X94343853Y-152310574D01*
X94399000Y-152033335D01*
X94399000Y-151750665D01*
X94343853Y-151473426D01*
X94235680Y-151212273D01*
X94078637Y-150977241D01*
X93878759Y-150777363D01*
X93646241Y-150622000D01*
X93878759Y-150466637D01*
X94078637Y-150266759D01*
X94235680Y-150031727D01*
X94343853Y-149770574D01*
X94399000Y-149493335D01*
X94399000Y-149210665D01*
X94343853Y-148933426D01*
X94235680Y-148672273D01*
X94078637Y-148437241D01*
X93878759Y-148237363D01*
X93646241Y-148082000D01*
X93878759Y-147926637D01*
X94078637Y-147726759D01*
X94235680Y-147491727D01*
X94343853Y-147230574D01*
X94399000Y-146953335D01*
X94399000Y-146670665D01*
X99149000Y-146670665D01*
X99149000Y-146953335D01*
X99204147Y-147230574D01*
X99312320Y-147491727D01*
X99469363Y-147726759D01*
X99669241Y-147926637D01*
X99901759Y-148082000D01*
X99669241Y-148237363D01*
X99469363Y-148437241D01*
X99312320Y-148672273D01*
X99204147Y-148933426D01*
X99149000Y-149210665D01*
X99149000Y-149493335D01*
X99204147Y-149770574D01*
X99312320Y-150031727D01*
X99469363Y-150266759D01*
X99669241Y-150466637D01*
X99901759Y-150622000D01*
X99669241Y-150777363D01*
X99469363Y-150977241D01*
X99312320Y-151212273D01*
X99204147Y-151473426D01*
X99149000Y-151750665D01*
X99149000Y-152033335D01*
X99204147Y-152310574D01*
X99312320Y-152571727D01*
X99469363Y-152806759D01*
X99669241Y-153006637D01*
X99904273Y-153163680D01*
X100165426Y-153271853D01*
X100442665Y-153327000D01*
X100725335Y-153327000D01*
X101002574Y-153271853D01*
X101263727Y-153163680D01*
X101498759Y-153006637D01*
X101698637Y-152806759D01*
X101855680Y-152571727D01*
X101963853Y-152310574D01*
X102019000Y-152033335D01*
X102019000Y-151750665D01*
X101963853Y-151473426D01*
X101855680Y-151212273D01*
X101698637Y-150977241D01*
X101498759Y-150777363D01*
X101266241Y-150622000D01*
X101498759Y-150466637D01*
X101698637Y-150266759D01*
X101855680Y-150031727D01*
X101963853Y-149770574D01*
X102019000Y-149493335D01*
X102019000Y-149210665D01*
X101963853Y-148933426D01*
X101855680Y-148672273D01*
X101698637Y-148437241D01*
X101498759Y-148237363D01*
X101266241Y-148082000D01*
X101498759Y-147926637D01*
X101698637Y-147726759D01*
X101855680Y-147491727D01*
X101963853Y-147230574D01*
X102019000Y-146953335D01*
X102019000Y-146670665D01*
X101963853Y-146393426D01*
X101855680Y-146132273D01*
X101698637Y-145897241D01*
X101498759Y-145697363D01*
X101263727Y-145540320D01*
X101253135Y-145535933D01*
X101439131Y-145424385D01*
X101647519Y-145235414D01*
X101815037Y-145009420D01*
X101935246Y-144755087D01*
X101975904Y-144621039D01*
X101853915Y-144399000D01*
X100711000Y-144399000D01*
X100711000Y-144419000D01*
X100457000Y-144419000D01*
X100457000Y-144399000D01*
X99314085Y-144399000D01*
X99192096Y-144621039D01*
X99232754Y-144755087D01*
X99352963Y-145009420D01*
X99520481Y-145235414D01*
X99728869Y-145424385D01*
X99914865Y-145535933D01*
X99904273Y-145540320D01*
X99669241Y-145697363D01*
X99469363Y-145897241D01*
X99312320Y-146132273D01*
X99204147Y-146393426D01*
X99149000Y-146670665D01*
X94399000Y-146670665D01*
X94343853Y-146393426D01*
X94235680Y-146132273D01*
X94078637Y-145897241D01*
X93880039Y-145698643D01*
X93888482Y-145697812D01*
X94008180Y-145661502D01*
X94118494Y-145602537D01*
X94215185Y-145523185D01*
X94294537Y-145426494D01*
X94353502Y-145316180D01*
X94389812Y-145196482D01*
X94402072Y-145072000D01*
X94402072Y-143922961D01*
X99192096Y-143922961D01*
X99314085Y-144145000D01*
X100457000Y-144145000D01*
X100457000Y-143001376D01*
X100711000Y-143001376D01*
X100711000Y-144145000D01*
X101853915Y-144145000D01*
X101975904Y-143922961D01*
X101935246Y-143788913D01*
X101815037Y-143534580D01*
X101768650Y-143472000D01*
X120735928Y-143472000D01*
X120735928Y-145072000D01*
X120748188Y-145196482D01*
X120784498Y-145316180D01*
X120843463Y-145426494D01*
X120922815Y-145523185D01*
X121019506Y-145602537D01*
X121129820Y-145661502D01*
X121249518Y-145697812D01*
X121257961Y-145698643D01*
X121059363Y-145897241D01*
X120902320Y-146132273D01*
X120794147Y-146393426D01*
X120739000Y-146670665D01*
X120739000Y-146953335D01*
X120794147Y-147230574D01*
X120902320Y-147491727D01*
X121059363Y-147726759D01*
X121259241Y-147926637D01*
X121491759Y-148082000D01*
X121259241Y-148237363D01*
X121059363Y-148437241D01*
X120902320Y-148672273D01*
X120794147Y-148933426D01*
X120739000Y-149210665D01*
X120739000Y-149493335D01*
X120794147Y-149770574D01*
X120902320Y-150031727D01*
X121059363Y-150266759D01*
X121259241Y-150466637D01*
X121491759Y-150622000D01*
X121259241Y-150777363D01*
X121059363Y-150977241D01*
X120902320Y-151212273D01*
X120794147Y-151473426D01*
X120739000Y-151750665D01*
X120739000Y-152033335D01*
X120794147Y-152310574D01*
X120902320Y-152571727D01*
X121059363Y-152806759D01*
X121259241Y-153006637D01*
X121494273Y-153163680D01*
X121755426Y-153271853D01*
X122032665Y-153327000D01*
X122315335Y-153327000D01*
X122592574Y-153271853D01*
X122853727Y-153163680D01*
X123088759Y-153006637D01*
X123288637Y-152806759D01*
X123445680Y-152571727D01*
X123553853Y-152310574D01*
X123609000Y-152033335D01*
X123609000Y-151750665D01*
X123553853Y-151473426D01*
X123445680Y-151212273D01*
X123288637Y-150977241D01*
X123088759Y-150777363D01*
X122856241Y-150622000D01*
X123088759Y-150466637D01*
X123288637Y-150266759D01*
X123445680Y-150031727D01*
X123553853Y-149770574D01*
X123609000Y-149493335D01*
X123609000Y-149210665D01*
X123553853Y-148933426D01*
X123445680Y-148672273D01*
X123288637Y-148437241D01*
X123088759Y-148237363D01*
X122856241Y-148082000D01*
X123088759Y-147926637D01*
X123288637Y-147726759D01*
X123445680Y-147491727D01*
X123553853Y-147230574D01*
X123609000Y-146953335D01*
X123609000Y-146670665D01*
X128359000Y-146670665D01*
X128359000Y-146953335D01*
X128414147Y-147230574D01*
X128522320Y-147491727D01*
X128679363Y-147726759D01*
X128879241Y-147926637D01*
X129111759Y-148082000D01*
X128879241Y-148237363D01*
X128679363Y-148437241D01*
X128522320Y-148672273D01*
X128414147Y-148933426D01*
X128359000Y-149210665D01*
X128359000Y-149493335D01*
X128414147Y-149770574D01*
X128522320Y-150031727D01*
X128679363Y-150266759D01*
X128879241Y-150466637D01*
X129111759Y-150622000D01*
X128879241Y-150777363D01*
X128679363Y-150977241D01*
X128522320Y-151212273D01*
X128414147Y-151473426D01*
X128359000Y-151750665D01*
X128359000Y-152033335D01*
X128414147Y-152310574D01*
X128522320Y-152571727D01*
X128679363Y-152806759D01*
X128879241Y-153006637D01*
X129114273Y-153163680D01*
X129375426Y-153271853D01*
X129652665Y-153327000D01*
X129935335Y-153327000D01*
X130212574Y-153271853D01*
X130473727Y-153163680D01*
X130708759Y-153006637D01*
X130908637Y-152806759D01*
X131065680Y-152571727D01*
X131173853Y-152310574D01*
X131229000Y-152033335D01*
X131229000Y-151750665D01*
X131173853Y-151473426D01*
X131065680Y-151212273D01*
X130908637Y-150977241D01*
X130708759Y-150777363D01*
X130476241Y-150622000D01*
X130708759Y-150466637D01*
X130908637Y-150266759D01*
X131065680Y-150031727D01*
X131173853Y-149770574D01*
X131229000Y-149493335D01*
X131229000Y-149210665D01*
X131205491Y-149092475D01*
X166529000Y-149092475D01*
X166529000Y-149611525D01*
X166630261Y-150120601D01*
X166828893Y-150600141D01*
X167117262Y-151031715D01*
X167484285Y-151398738D01*
X167915859Y-151687107D01*
X168395399Y-151885739D01*
X168904475Y-151987000D01*
X169423525Y-151987000D01*
X169932601Y-151885739D01*
X170412141Y-151687107D01*
X170843715Y-151398738D01*
X171210738Y-151031715D01*
X171499107Y-150600141D01*
X171697739Y-150120601D01*
X171799000Y-149611525D01*
X171799000Y-149092475D01*
X171697739Y-148583399D01*
X171499107Y-148103859D01*
X171210738Y-147672285D01*
X170843715Y-147305262D01*
X170412141Y-147016893D01*
X169932601Y-146818261D01*
X169423525Y-146717000D01*
X168904475Y-146717000D01*
X168395399Y-146818261D01*
X167915859Y-147016893D01*
X167484285Y-147305262D01*
X167117262Y-147672285D01*
X166828893Y-148103859D01*
X166630261Y-148583399D01*
X166529000Y-149092475D01*
X131205491Y-149092475D01*
X131173853Y-148933426D01*
X131065680Y-148672273D01*
X130908637Y-148437241D01*
X130708759Y-148237363D01*
X130476241Y-148082000D01*
X130708759Y-147926637D01*
X130908637Y-147726759D01*
X131065680Y-147491727D01*
X131173853Y-147230574D01*
X131229000Y-146953335D01*
X131229000Y-146670665D01*
X131173853Y-146393426D01*
X131065680Y-146132273D01*
X130908637Y-145897241D01*
X130708759Y-145697363D01*
X130473727Y-145540320D01*
X130463135Y-145535933D01*
X130649131Y-145424385D01*
X130857519Y-145235414D01*
X131025037Y-145009420D01*
X131145246Y-144755087D01*
X131185904Y-144621039D01*
X131063915Y-144399000D01*
X129921000Y-144399000D01*
X129921000Y-144419000D01*
X129667000Y-144419000D01*
X129667000Y-144399000D01*
X128524085Y-144399000D01*
X128402096Y-144621039D01*
X128442754Y-144755087D01*
X128562963Y-145009420D01*
X128730481Y-145235414D01*
X128938869Y-145424385D01*
X129124865Y-145535933D01*
X129114273Y-145540320D01*
X128879241Y-145697363D01*
X128679363Y-145897241D01*
X128522320Y-146132273D01*
X128414147Y-146393426D01*
X128359000Y-146670665D01*
X123609000Y-146670665D01*
X123553853Y-146393426D01*
X123445680Y-146132273D01*
X123288637Y-145897241D01*
X123090039Y-145698643D01*
X123098482Y-145697812D01*
X123218180Y-145661502D01*
X123328494Y-145602537D01*
X123425185Y-145523185D01*
X123504537Y-145426494D01*
X123563502Y-145316180D01*
X123599812Y-145196482D01*
X123612072Y-145072000D01*
X123612072Y-143922961D01*
X128402096Y-143922961D01*
X128524085Y-144145000D01*
X129667000Y-144145000D01*
X129667000Y-143001376D01*
X129921000Y-143001376D01*
X129921000Y-144145000D01*
X131063915Y-144145000D01*
X131185904Y-143922961D01*
X131145246Y-143788913D01*
X131025037Y-143534580D01*
X130857519Y-143308586D01*
X130649131Y-143119615D01*
X130407881Y-142974930D01*
X130143040Y-142880091D01*
X129921000Y-143001376D01*
X129667000Y-143001376D01*
X129444960Y-142880091D01*
X129180119Y-142974930D01*
X128938869Y-143119615D01*
X128730481Y-143308586D01*
X128562963Y-143534580D01*
X128442754Y-143788913D01*
X128402096Y-143922961D01*
X123612072Y-143922961D01*
X123612072Y-143472000D01*
X123599812Y-143347518D01*
X123563502Y-143227820D01*
X123504537Y-143117506D01*
X123425185Y-143020815D01*
X123328494Y-142941463D01*
X123218180Y-142882498D01*
X123098482Y-142846188D01*
X122974000Y-142833928D01*
X122936000Y-142833928D01*
X122936000Y-131579980D01*
X226485626Y-131579980D01*
X226605514Y-131864836D01*
X226929210Y-132025699D01*
X227278069Y-132120322D01*
X227638684Y-132145067D01*
X227997198Y-132098985D01*
X228339833Y-131983846D01*
X228562486Y-131864836D01*
X228682374Y-131579980D01*
X227584000Y-130481605D01*
X226485626Y-131579980D01*
X122936000Y-131579980D01*
X122936000Y-130356684D01*
X225740933Y-130356684D01*
X225787015Y-130715198D01*
X225902154Y-131057833D01*
X226021164Y-131280486D01*
X226306020Y-131400374D01*
X227404395Y-130302000D01*
X227763605Y-130302000D01*
X228861980Y-131400374D01*
X229146836Y-131280486D01*
X229307699Y-130956790D01*
X229402322Y-130607931D01*
X229427067Y-130247316D01*
X229380985Y-129888802D01*
X229265846Y-129546167D01*
X229146836Y-129323514D01*
X228861980Y-129203626D01*
X227763605Y-130302000D01*
X227404395Y-130302000D01*
X226306020Y-129203626D01*
X226021164Y-129323514D01*
X225860301Y-129647210D01*
X225765678Y-129996069D01*
X225740933Y-130356684D01*
X122936000Y-130356684D01*
X122936000Y-124622000D01*
X188245928Y-124622000D01*
X188245928Y-125822000D01*
X188258188Y-125946482D01*
X188294498Y-126066180D01*
X188353463Y-126176494D01*
X188432815Y-126273185D01*
X188529506Y-126352537D01*
X188639820Y-126411502D01*
X188759518Y-126447812D01*
X188884000Y-126460072D01*
X190084000Y-126460072D01*
X190208482Y-126447812D01*
X190328180Y-126411502D01*
X190438494Y-126352537D01*
X190535185Y-126273185D01*
X190614537Y-126176494D01*
X190638858Y-126130994D01*
X190696736Y-126188872D01*
X190813842Y-126071766D01*
X190861148Y-126295348D01*
X191082516Y-126396237D01*
X191319313Y-126452000D01*
X191562438Y-126460495D01*
X191802549Y-126421395D01*
X192030418Y-126336202D01*
X192106852Y-126295348D01*
X192154159Y-126071764D01*
X191484000Y-125401605D01*
X191469858Y-125415748D01*
X191290253Y-125236143D01*
X191304395Y-125222000D01*
X191663605Y-125222000D01*
X192333764Y-125892159D01*
X192557348Y-125844852D01*
X192658237Y-125623484D01*
X192714000Y-125386687D01*
X192722495Y-125143562D01*
X192683395Y-124903451D01*
X192598202Y-124675582D01*
X192557348Y-124599148D01*
X192333764Y-124551841D01*
X191663605Y-125222000D01*
X191304395Y-125222000D01*
X191290253Y-125207858D01*
X191469858Y-125028253D01*
X191484000Y-125042395D01*
X192154159Y-124372236D01*
X192106852Y-124148652D01*
X191885484Y-124047763D01*
X191648687Y-123992000D01*
X191405562Y-123983505D01*
X191165451Y-124022605D01*
X190937582Y-124107798D01*
X190861148Y-124148652D01*
X190813842Y-124372234D01*
X190696736Y-124255128D01*
X190638858Y-124313006D01*
X190614537Y-124267506D01*
X190535185Y-124170815D01*
X190438494Y-124091463D01*
X190328180Y-124032498D01*
X190246000Y-124007569D01*
X190246000Y-116139630D01*
X192150631Y-114235000D01*
X198070928Y-114235000D01*
X198070928Y-114298000D01*
X198086071Y-114451745D01*
X198130916Y-114599582D01*
X198203742Y-114735829D01*
X198301749Y-114855251D01*
X198421171Y-114953258D01*
X198557418Y-115026084D01*
X198705255Y-115070929D01*
X198859000Y-115086072D01*
X199159000Y-115086072D01*
X199312745Y-115070929D01*
X199460582Y-115026084D01*
X199594936Y-114954270D01*
X199624506Y-114978537D01*
X199734820Y-115037502D01*
X199854518Y-115073812D01*
X199979000Y-115086072D01*
X199993250Y-115083000D01*
X200152000Y-114924250D01*
X200152000Y-113600000D01*
X200132000Y-113600000D01*
X200132000Y-113346000D01*
X200152000Y-113346000D01*
X200152000Y-112021750D01*
X200406000Y-112021750D01*
X200406000Y-113346000D01*
X200426000Y-113346000D01*
X200426000Y-113600000D01*
X200406000Y-113600000D01*
X200406000Y-114924250D01*
X200564750Y-115083000D01*
X200579000Y-115086072D01*
X200660000Y-115078094D01*
X200660000Y-116161340D01*
X200655700Y-116205000D01*
X200660000Y-116248660D01*
X200660000Y-116248666D01*
X200672864Y-116379273D01*
X200723697Y-116546850D01*
X200806247Y-116701290D01*
X200917341Y-116836659D01*
X200951264Y-116864499D01*
X203048506Y-118961742D01*
X203076341Y-118995659D01*
X203211709Y-119106753D01*
X203366149Y-119189303D01*
X203417952Y-119205017D01*
X203533724Y-119240136D01*
X203566924Y-119243406D01*
X203664333Y-119253000D01*
X203664339Y-119253000D01*
X203707999Y-119257300D01*
X203751659Y-119253000D01*
X206375000Y-119253000D01*
X206375001Y-122059763D01*
X205396264Y-123038501D01*
X205362341Y-123066341D01*
X205251247Y-123201710D01*
X205168697Y-123356150D01*
X205117864Y-123523727D01*
X205105000Y-123654334D01*
X205105000Y-123654340D01*
X205100700Y-123698000D01*
X205105000Y-123741660D01*
X205105001Y-127866455D01*
X205039506Y-127901463D01*
X204942815Y-127980815D01*
X204863463Y-128077506D01*
X204804498Y-128187820D01*
X204768188Y-128307518D01*
X204755928Y-128432000D01*
X204755928Y-129632000D01*
X204768188Y-129756482D01*
X204804498Y-129876180D01*
X204863463Y-129986494D01*
X204942815Y-130083185D01*
X205039506Y-130162537D01*
X205149820Y-130221502D01*
X205269518Y-130257812D01*
X205394000Y-130270072D01*
X206594000Y-130270072D01*
X206718482Y-130257812D01*
X206838180Y-130221502D01*
X206948494Y-130162537D01*
X206965681Y-130148432D01*
X207092516Y-130206237D01*
X207329313Y-130262000D01*
X207572438Y-130270495D01*
X207812549Y-130231395D01*
X208040418Y-130146202D01*
X208116852Y-130105348D01*
X208164159Y-129881764D01*
X207494000Y-129211605D01*
X207479858Y-129225748D01*
X207300253Y-129046143D01*
X207314395Y-129032000D01*
X207673605Y-129032000D01*
X208343764Y-129702159D01*
X208567348Y-129654852D01*
X208668237Y-129433484D01*
X208724000Y-129196687D01*
X208730033Y-129024020D01*
X226485626Y-129024020D01*
X227584000Y-130122395D01*
X228682374Y-129024020D01*
X228562486Y-128739164D01*
X228238790Y-128578301D01*
X227889931Y-128483678D01*
X227529316Y-128458933D01*
X227170802Y-128505015D01*
X226828167Y-128620154D01*
X226605514Y-128739164D01*
X226485626Y-129024020D01*
X208730033Y-129024020D01*
X208732495Y-128953562D01*
X208693395Y-128713451D01*
X208608202Y-128485582D01*
X208567348Y-128409148D01*
X208343764Y-128361841D01*
X207673605Y-129032000D01*
X207314395Y-129032000D01*
X207300253Y-129017858D01*
X207479858Y-128838253D01*
X207494000Y-128852395D01*
X208164159Y-128182236D01*
X208116852Y-127958652D01*
X207895484Y-127857763D01*
X207658687Y-127802000D01*
X207415562Y-127793505D01*
X207175451Y-127832605D01*
X206961883Y-127912451D01*
X206948494Y-127901463D01*
X206883000Y-127866455D01*
X206883000Y-125041268D01*
X225749000Y-125041268D01*
X225749000Y-125402732D01*
X225819518Y-125757250D01*
X225957844Y-126091199D01*
X226158662Y-126391744D01*
X226414256Y-126647338D01*
X226714801Y-126848156D01*
X227048750Y-126986482D01*
X227403268Y-127057000D01*
X227764732Y-127057000D01*
X228119250Y-126986482D01*
X228453199Y-126848156D01*
X228753744Y-126647338D01*
X229009338Y-126391744D01*
X229210156Y-126091199D01*
X229348482Y-125757250D01*
X229419000Y-125402732D01*
X229419000Y-125041268D01*
X229348482Y-124686750D01*
X229210156Y-124352801D01*
X229009338Y-124052256D01*
X228753744Y-123796662D01*
X228453199Y-123595844D01*
X228119250Y-123457518D01*
X227764732Y-123387000D01*
X227403268Y-123387000D01*
X227048750Y-123457518D01*
X226714801Y-123595844D01*
X226414256Y-123796662D01*
X226158662Y-124052256D01*
X225957844Y-124352801D01*
X225819518Y-124686750D01*
X225749000Y-125041268D01*
X206883000Y-125041268D01*
X206883000Y-124066235D01*
X207861741Y-123087494D01*
X207895659Y-123059659D01*
X208006753Y-122924291D01*
X208089303Y-122769851D01*
X208115952Y-122682000D01*
X208140136Y-122602276D01*
X208146996Y-122532622D01*
X208153000Y-122471667D01*
X208153000Y-122471661D01*
X208157300Y-122428001D01*
X208153000Y-122384341D01*
X208153000Y-119888000D01*
X212594314Y-119888000D01*
X212609026Y-120037378D01*
X212652598Y-120181015D01*
X212723355Y-120313392D01*
X212818578Y-120429422D01*
X212934608Y-120524645D01*
X213066985Y-120595402D01*
X213210622Y-120638974D01*
X213322574Y-120650000D01*
X218910577Y-120650000D01*
X218948000Y-120653686D01*
X218985423Y-120650000D01*
X218985426Y-120650000D01*
X219097378Y-120638974D01*
X219241015Y-120595402D01*
X219373392Y-120524645D01*
X219489422Y-120429422D01*
X219513284Y-120400346D01*
X220436351Y-119477279D01*
X220465422Y-119453422D01*
X220560645Y-119337392D01*
X220631402Y-119205015D01*
X220674974Y-119061378D01*
X220686000Y-118949426D01*
X220686000Y-118949424D01*
X220689686Y-118912001D01*
X220686000Y-118874578D01*
X220686000Y-116278707D01*
X220838759Y-116176637D01*
X221038637Y-115976759D01*
X221195680Y-115741727D01*
X221303853Y-115480574D01*
X221359000Y-115203335D01*
X221359000Y-114920665D01*
X221303853Y-114643426D01*
X221195680Y-114382273D01*
X221038637Y-114147241D01*
X220838759Y-113947363D01*
X220603727Y-113790320D01*
X220342574Y-113682147D01*
X220065335Y-113627000D01*
X219782665Y-113627000D01*
X219505426Y-113682147D01*
X219244273Y-113790320D01*
X219009241Y-113947363D01*
X218809363Y-114147241D01*
X218674000Y-114349827D01*
X218538637Y-114147241D01*
X218338759Y-113947363D01*
X218103727Y-113790320D01*
X217842574Y-113682147D01*
X217565335Y-113627000D01*
X217282665Y-113627000D01*
X217005426Y-113682147D01*
X216744273Y-113790320D01*
X216509241Y-113947363D01*
X216309363Y-114147241D01*
X216152320Y-114382273D01*
X216044147Y-114643426D01*
X215989000Y-114920665D01*
X215989000Y-115203335D01*
X216044147Y-115480574D01*
X216152320Y-115741727D01*
X216309363Y-115976759D01*
X216509241Y-116176637D01*
X216744273Y-116333680D01*
X217005426Y-116441853D01*
X217282665Y-116497000D01*
X217565335Y-116497000D01*
X217842574Y-116441853D01*
X218103727Y-116333680D01*
X218338759Y-116176637D01*
X218538637Y-115976759D01*
X218674000Y-115774173D01*
X218809363Y-115976759D01*
X219009241Y-116176637D01*
X219162000Y-116278707D01*
X219162001Y-118596368D01*
X218632370Y-119126000D01*
X213322574Y-119126000D01*
X213210622Y-119137026D01*
X213066985Y-119180598D01*
X212934608Y-119251355D01*
X212818578Y-119346578D01*
X212723355Y-119462608D01*
X212652598Y-119594985D01*
X212609026Y-119738622D01*
X212594314Y-119888000D01*
X208153000Y-119888000D01*
X208153000Y-118732235D01*
X210909742Y-115975494D01*
X210943659Y-115947659D01*
X211054753Y-115812291D01*
X211137303Y-115657851D01*
X211171382Y-115545505D01*
X211188136Y-115490275D01*
X211197164Y-115398609D01*
X211201000Y-115359667D01*
X211201000Y-115359660D01*
X211205300Y-115316000D01*
X211201000Y-115272340D01*
X211201000Y-107231659D01*
X211205300Y-107187999D01*
X211201000Y-107144339D01*
X211201000Y-107144333D01*
X211188136Y-107013726D01*
X211137303Y-106846149D01*
X211054753Y-106691709D01*
X210943659Y-106556341D01*
X210909743Y-106528507D01*
X208590735Y-104209499D01*
X261222106Y-104209499D01*
X261438228Y-104576258D01*
X261898105Y-104816938D01*
X262396098Y-104963275D01*
X262913071Y-105009648D01*
X263429159Y-104954273D01*
X263924526Y-104799279D01*
X264341772Y-104576258D01*
X264557894Y-104209499D01*
X262890000Y-102541605D01*
X261222106Y-104209499D01*
X208590735Y-104209499D01*
X206766307Y-102385071D01*
X260242352Y-102385071D01*
X260297727Y-102901159D01*
X260452721Y-103396526D01*
X260675742Y-103813772D01*
X261042501Y-104029894D01*
X262710395Y-102362000D01*
X263069605Y-102362000D01*
X264737499Y-104029894D01*
X265104258Y-103813772D01*
X265344938Y-103353895D01*
X265491275Y-102855902D01*
X265537648Y-102338929D01*
X265482273Y-101822841D01*
X265327279Y-101327474D01*
X265104258Y-100910228D01*
X264737499Y-100694106D01*
X263069605Y-102362000D01*
X262710395Y-102362000D01*
X261042501Y-100694106D01*
X260675742Y-100910228D01*
X260435062Y-101370105D01*
X260288725Y-101868098D01*
X260242352Y-102385071D01*
X206766307Y-102385071D01*
X205891000Y-101509765D01*
X205891000Y-100514501D01*
X261222106Y-100514501D01*
X262890000Y-102182395D01*
X264557894Y-100514501D01*
X264341772Y-100147742D01*
X263881895Y-99907062D01*
X263383902Y-99760725D01*
X262866929Y-99714352D01*
X262350841Y-99769727D01*
X261855474Y-99924721D01*
X261438228Y-100147742D01*
X261222106Y-100514501D01*
X205891000Y-100514501D01*
X205891000Y-80512475D01*
X260509000Y-80512475D01*
X260509000Y-81031525D01*
X260610261Y-81540601D01*
X260808893Y-82020141D01*
X261097262Y-82451715D01*
X261464285Y-82818738D01*
X261895859Y-83107107D01*
X262375399Y-83305739D01*
X262884475Y-83407000D01*
X263403525Y-83407000D01*
X263912601Y-83305739D01*
X264392141Y-83107107D01*
X264823715Y-82818738D01*
X265190738Y-82451715D01*
X265479107Y-82020141D01*
X265677739Y-81540601D01*
X265779000Y-81031525D01*
X265779000Y-80512475D01*
X265677739Y-80003399D01*
X265479107Y-79523859D01*
X265190738Y-79092285D01*
X264823715Y-78725262D01*
X264392141Y-78436893D01*
X263912601Y-78238261D01*
X263403525Y-78137000D01*
X262884475Y-78137000D01*
X262375399Y-78238261D01*
X261895859Y-78436893D01*
X261464285Y-78725262D01*
X261097262Y-79092285D01*
X260808893Y-79523859D01*
X260610261Y-80003399D01*
X260509000Y-80512475D01*
X205891000Y-80512475D01*
X205891000Y-60192475D01*
X261779000Y-60192475D01*
X261779000Y-60711525D01*
X261880261Y-61220601D01*
X262078893Y-61700141D01*
X262367262Y-62131715D01*
X262734285Y-62498738D01*
X263165859Y-62787107D01*
X263645399Y-62985739D01*
X264154475Y-63087000D01*
X264673525Y-63087000D01*
X265182601Y-62985739D01*
X265662141Y-62787107D01*
X266093715Y-62498738D01*
X266460738Y-62131715D01*
X266749107Y-61700141D01*
X266947739Y-61220601D01*
X267049000Y-60711525D01*
X267049000Y-60192475D01*
X266947739Y-59683399D01*
X266749107Y-59203859D01*
X266460738Y-58772285D01*
X266093715Y-58405262D01*
X265662141Y-58116893D01*
X265182601Y-57918261D01*
X264673525Y-57817000D01*
X264154475Y-57817000D01*
X263645399Y-57918261D01*
X263165859Y-58116893D01*
X262734285Y-58405262D01*
X262367262Y-58772285D01*
X262078893Y-59203859D01*
X261880261Y-59683399D01*
X261779000Y-60192475D01*
X205891000Y-60192475D01*
X205891000Y-48917545D01*
X205956494Y-48882537D01*
X205973681Y-48868432D01*
X206100516Y-48926237D01*
X206337313Y-48982000D01*
X206580438Y-48990495D01*
X206820549Y-48951395D01*
X207048418Y-48866202D01*
X207124852Y-48825348D01*
X207172159Y-48601764D01*
X206502000Y-47931605D01*
X206487858Y-47945748D01*
X206308253Y-47766143D01*
X206322395Y-47752000D01*
X206681605Y-47752000D01*
X207351764Y-48422159D01*
X207575348Y-48374852D01*
X207676237Y-48153484D01*
X207732000Y-47916687D01*
X207740495Y-47673562D01*
X207701395Y-47433451D01*
X207616202Y-47205582D01*
X207587563Y-47152000D01*
X218725928Y-47152000D01*
X218725928Y-48352000D01*
X218738188Y-48476482D01*
X218774498Y-48596180D01*
X218833463Y-48706494D01*
X218912815Y-48803185D01*
X219009506Y-48882537D01*
X219119820Y-48941502D01*
X219239518Y-48977812D01*
X219364000Y-48990072D01*
X220564000Y-48990072D01*
X220688482Y-48977812D01*
X220808180Y-48941502D01*
X220918494Y-48882537D01*
X220935681Y-48868432D01*
X221062516Y-48926237D01*
X221299313Y-48982000D01*
X221542438Y-48990495D01*
X221782549Y-48951395D01*
X222010418Y-48866202D01*
X222086852Y-48825348D01*
X222134159Y-48601764D01*
X221464000Y-47931605D01*
X221449858Y-47945748D01*
X221270253Y-47766143D01*
X221284395Y-47752000D01*
X221643605Y-47752000D01*
X222313764Y-48422159D01*
X222537348Y-48374852D01*
X222638237Y-48153484D01*
X222694000Y-47916687D01*
X222702495Y-47673562D01*
X222663395Y-47433451D01*
X222578202Y-47205582D01*
X222537348Y-47129148D01*
X222313764Y-47081841D01*
X221643605Y-47752000D01*
X221284395Y-47752000D01*
X221270253Y-47737858D01*
X221449858Y-47558253D01*
X221464000Y-47572395D01*
X222134159Y-46902236D01*
X222086852Y-46678652D01*
X221865484Y-46577763D01*
X221628687Y-46522000D01*
X221385562Y-46513505D01*
X221145451Y-46552605D01*
X220931883Y-46632451D01*
X220918494Y-46621463D01*
X220808180Y-46562498D01*
X220688482Y-46526188D01*
X220564000Y-46513928D01*
X219364000Y-46513928D01*
X219239518Y-46526188D01*
X219119820Y-46562498D01*
X219009506Y-46621463D01*
X218912815Y-46700815D01*
X218833463Y-46797506D01*
X218774498Y-46907820D01*
X218738188Y-47027518D01*
X218725928Y-47152000D01*
X207587563Y-47152000D01*
X207575348Y-47129148D01*
X207351764Y-47081841D01*
X206681605Y-47752000D01*
X206322395Y-47752000D01*
X206308253Y-47737858D01*
X206487858Y-47558253D01*
X206502000Y-47572395D01*
X207172159Y-46902236D01*
X207124852Y-46678652D01*
X206903484Y-46577763D01*
X206666687Y-46522000D01*
X206423562Y-46513505D01*
X206183451Y-46552605D01*
X205969883Y-46632451D01*
X205956494Y-46621463D01*
X205846180Y-46562498D01*
X205726482Y-46526188D01*
X205602000Y-46513928D01*
X204402000Y-46513928D01*
X204277518Y-46526188D01*
X204157820Y-46562498D01*
X204047506Y-46621463D01*
X203950815Y-46700815D01*
X203871463Y-46797506D01*
X203812498Y-46907820D01*
X203776188Y-47027518D01*
X203763928Y-47152000D01*
X203763928Y-48352000D01*
X203776188Y-48476482D01*
X203812498Y-48596180D01*
X203871463Y-48706494D01*
X203950815Y-48803185D01*
X204047506Y-48882537D01*
X204113000Y-48917545D01*
X204113000Y-53116553D01*
X204098979Y-53150402D01*
X204074000Y-53275981D01*
X204074000Y-53404019D01*
X204098979Y-53529598D01*
X204113000Y-53563447D01*
X204113001Y-101834330D01*
X204108700Y-101878000D01*
X204125864Y-102052274D01*
X204176698Y-102219852D01*
X204259248Y-102374291D01*
X204293388Y-102415890D01*
X204370342Y-102509659D01*
X204404259Y-102537494D01*
X209423000Y-107556236D01*
X209423001Y-114947763D01*
X206895765Y-117475000D01*
X204076236Y-117475000D01*
X202438000Y-115836765D01*
X202438000Y-115047494D01*
X202515255Y-115070929D01*
X202669000Y-115086072D01*
X202969000Y-115086072D01*
X203122745Y-115070929D01*
X203270582Y-115026084D01*
X203406829Y-114953258D01*
X203526251Y-114855251D01*
X203624258Y-114735829D01*
X203697084Y-114599582D01*
X203741929Y-114451745D01*
X203757072Y-114298000D01*
X203757072Y-114235000D01*
X205613370Y-114235000D01*
X205735649Y-114357279D01*
X205822608Y-114428644D01*
X205954984Y-114499401D01*
X206098621Y-114542973D01*
X206247999Y-114557686D01*
X206397378Y-114542973D01*
X206541015Y-114499401D01*
X206673392Y-114428644D01*
X206789421Y-114333421D01*
X206884644Y-114217392D01*
X206955401Y-114085015D01*
X206998973Y-113941378D01*
X207013686Y-113791999D01*
X206998973Y-113642621D01*
X206955401Y-113498984D01*
X206884644Y-113366608D01*
X206813279Y-113279649D01*
X206494284Y-112960654D01*
X206470422Y-112931578D01*
X206354392Y-112836355D01*
X206222015Y-112765598D01*
X206078378Y-112722026D01*
X205966426Y-112711000D01*
X205966423Y-112711000D01*
X205929000Y-112707314D01*
X205891577Y-112711000D01*
X203757072Y-112711000D01*
X203757072Y-112648000D01*
X203741929Y-112494255D01*
X203697084Y-112346418D01*
X203624258Y-112210171D01*
X203526251Y-112090749D01*
X203406829Y-111992742D01*
X203270582Y-111919916D01*
X203122745Y-111875071D01*
X202969000Y-111859928D01*
X202669000Y-111859928D01*
X202515255Y-111875071D01*
X202367418Y-111919916D01*
X202231171Y-111992742D01*
X202184000Y-112031454D01*
X202136829Y-111992742D01*
X202000582Y-111919916D01*
X201852745Y-111875071D01*
X201699000Y-111859928D01*
X201399000Y-111859928D01*
X201245255Y-111875071D01*
X201097418Y-111919916D01*
X200963064Y-111991730D01*
X200933494Y-111967463D01*
X200823180Y-111908498D01*
X200703482Y-111872188D01*
X200579000Y-111859928D01*
X200564750Y-111863000D01*
X200406000Y-112021750D01*
X200152000Y-112021750D01*
X199993250Y-111863000D01*
X199979000Y-111859928D01*
X199854518Y-111872188D01*
X199734820Y-111908498D01*
X199624506Y-111967463D01*
X199594936Y-111991730D01*
X199460582Y-111919916D01*
X199312745Y-111875071D01*
X199159000Y-111859928D01*
X198859000Y-111859928D01*
X198705255Y-111875071D01*
X198557418Y-111919916D01*
X198421171Y-111992742D01*
X198301749Y-112090749D01*
X198203742Y-112210171D01*
X198130916Y-112346418D01*
X198086071Y-112494255D01*
X198070928Y-112648000D01*
X198070928Y-112711000D01*
X191872422Y-112711000D01*
X191834999Y-112707314D01*
X191797576Y-112711000D01*
X191797574Y-112711000D01*
X191685622Y-112722026D01*
X191541985Y-112765598D01*
X191409608Y-112836355D01*
X191293578Y-112931578D01*
X191269721Y-112960648D01*
X188971654Y-115258716D01*
X188942578Y-115282578D01*
X188915150Y-115316000D01*
X188847355Y-115398608D01*
X188822748Y-115444645D01*
X188776598Y-115530986D01*
X188733026Y-115674623D01*
X188726417Y-115741727D01*
X188718314Y-115824000D01*
X188722000Y-115861423D01*
X188722001Y-124007569D01*
X188639820Y-124032498D01*
X188529506Y-124091463D01*
X188432815Y-124170815D01*
X188353463Y-124267506D01*
X188294498Y-124377820D01*
X188258188Y-124497518D01*
X188245928Y-124622000D01*
X122936000Y-124622000D01*
X122936000Y-122997630D01*
X126807631Y-119126000D01*
X132550577Y-119126000D01*
X132588000Y-119129686D01*
X132625423Y-119126000D01*
X132625426Y-119126000D01*
X132737378Y-119114974D01*
X132881015Y-119071402D01*
X133013392Y-119000645D01*
X133129422Y-118905422D01*
X133153284Y-118876346D01*
X140212352Y-111817279D01*
X140241422Y-111793422D01*
X140268772Y-111760096D01*
X140336645Y-111677393D01*
X140407401Y-111545016D01*
X140407402Y-111545015D01*
X140450974Y-111401378D01*
X140462000Y-111289426D01*
X140462000Y-111289423D01*
X140465686Y-111252000D01*
X140462000Y-111214577D01*
X140462000Y-91910574D01*
X140450974Y-91798622D01*
X140407402Y-91654985D01*
X140336645Y-91522608D01*
X140241422Y-91406578D01*
X140125391Y-91311355D01*
X139993014Y-91240598D01*
X139849377Y-91197026D01*
X139700000Y-91182314D01*
X139550622Y-91197026D01*
X139406985Y-91240598D01*
X139274608Y-91311355D01*
X139158578Y-91406578D01*
X139063355Y-91522609D01*
X138992598Y-91654986D01*
X138949026Y-91798623D01*
X138938000Y-91910575D01*
X138938001Y-110936368D01*
X132272370Y-117602000D01*
X126529422Y-117602000D01*
X126491999Y-117598314D01*
X126454576Y-117602000D01*
X126454574Y-117602000D01*
X126342622Y-117613026D01*
X126198985Y-117656598D01*
X126066608Y-117727355D01*
X125950578Y-117822578D01*
X125926721Y-117851648D01*
X121661654Y-122116716D01*
X121632578Y-122140578D01*
X121576983Y-122208322D01*
X121537355Y-122256608D01*
X121499535Y-122327365D01*
X121466598Y-122388986D01*
X121423026Y-122532623D01*
X121416166Y-122602276D01*
X121408314Y-122682000D01*
X121412000Y-122719423D01*
X121412001Y-142833928D01*
X121374000Y-142833928D01*
X121249518Y-142846188D01*
X121129820Y-142882498D01*
X121019506Y-142941463D01*
X120922815Y-143020815D01*
X120843463Y-143117506D01*
X120784498Y-143227820D01*
X120748188Y-143347518D01*
X120735928Y-143472000D01*
X101768650Y-143472000D01*
X101647519Y-143308586D01*
X101439131Y-143119615D01*
X101197881Y-142974930D01*
X100933040Y-142880091D01*
X100711000Y-143001376D01*
X100457000Y-143001376D01*
X100234960Y-142880091D01*
X99970119Y-142974930D01*
X99728869Y-143119615D01*
X99520481Y-143308586D01*
X99352963Y-143534580D01*
X99232754Y-143788913D01*
X99192096Y-143922961D01*
X94402072Y-143922961D01*
X94402072Y-143472000D01*
X94389812Y-143347518D01*
X94353502Y-143227820D01*
X94294537Y-143117506D01*
X94215185Y-143020815D01*
X94118494Y-142941463D01*
X94008180Y-142882498D01*
X93888482Y-142846188D01*
X93764000Y-142833928D01*
X92164000Y-142833928D01*
X92039518Y-142846188D01*
X91919820Y-142882498D01*
X91809506Y-142941463D01*
X91712815Y-143020815D01*
X91633463Y-143117506D01*
X91574498Y-143227820D01*
X91538188Y-143347518D01*
X91525928Y-143472000D01*
X16916000Y-143472000D01*
X16916000Y-105372000D01*
X78825928Y-105372000D01*
X78825928Y-106972000D01*
X78838188Y-107096482D01*
X78874498Y-107216180D01*
X78933463Y-107326494D01*
X79012815Y-107423185D01*
X79109506Y-107502537D01*
X79219820Y-107561502D01*
X79339518Y-107597812D01*
X79347961Y-107598643D01*
X79149363Y-107797241D01*
X78992320Y-108032273D01*
X78884147Y-108293426D01*
X78829000Y-108570665D01*
X78829000Y-108853335D01*
X78884147Y-109130574D01*
X78992320Y-109391727D01*
X79149363Y-109626759D01*
X79349241Y-109826637D01*
X79581759Y-109982000D01*
X79349241Y-110137363D01*
X79149363Y-110337241D01*
X78992320Y-110572273D01*
X78884147Y-110833426D01*
X78829000Y-111110665D01*
X78829000Y-111393335D01*
X78884147Y-111670574D01*
X78992320Y-111931727D01*
X79149363Y-112166759D01*
X79349241Y-112366637D01*
X79581759Y-112522000D01*
X79349241Y-112677363D01*
X79149363Y-112877241D01*
X78992320Y-113112273D01*
X78884147Y-113373426D01*
X78829000Y-113650665D01*
X78829000Y-113933335D01*
X78884147Y-114210574D01*
X78992320Y-114471727D01*
X79149363Y-114706759D01*
X79349241Y-114906637D01*
X79584273Y-115063680D01*
X79845426Y-115171853D01*
X80122665Y-115227000D01*
X80405335Y-115227000D01*
X80682574Y-115171853D01*
X80943727Y-115063680D01*
X81178759Y-114906637D01*
X81378637Y-114706759D01*
X81535680Y-114471727D01*
X81643853Y-114210574D01*
X81699000Y-113933335D01*
X81699000Y-113650665D01*
X81643853Y-113373426D01*
X81535680Y-113112273D01*
X81378637Y-112877241D01*
X81178759Y-112677363D01*
X80946241Y-112522000D01*
X81178759Y-112366637D01*
X81378637Y-112166759D01*
X81535680Y-111931727D01*
X81643853Y-111670574D01*
X81699000Y-111393335D01*
X81699000Y-111110665D01*
X81643853Y-110833426D01*
X81535680Y-110572273D01*
X81378637Y-110337241D01*
X81178759Y-110137363D01*
X80946241Y-109982000D01*
X81178759Y-109826637D01*
X81378637Y-109626759D01*
X81535680Y-109391727D01*
X81643853Y-109130574D01*
X81699000Y-108853335D01*
X81699000Y-108570665D01*
X86449000Y-108570665D01*
X86449000Y-108853335D01*
X86504147Y-109130574D01*
X86612320Y-109391727D01*
X86769363Y-109626759D01*
X86969241Y-109826637D01*
X87201759Y-109982000D01*
X86969241Y-110137363D01*
X86769363Y-110337241D01*
X86612320Y-110572273D01*
X86504147Y-110833426D01*
X86449000Y-111110665D01*
X86449000Y-111393335D01*
X86504147Y-111670574D01*
X86612320Y-111931727D01*
X86769363Y-112166759D01*
X86969241Y-112366637D01*
X87201759Y-112522000D01*
X86969241Y-112677363D01*
X86769363Y-112877241D01*
X86612320Y-113112273D01*
X86504147Y-113373426D01*
X86449000Y-113650665D01*
X86449000Y-113933335D01*
X86504147Y-114210574D01*
X86612320Y-114471727D01*
X86769363Y-114706759D01*
X86969241Y-114906637D01*
X87204273Y-115063680D01*
X87465426Y-115171853D01*
X87742665Y-115227000D01*
X88025335Y-115227000D01*
X88302574Y-115171853D01*
X88563727Y-115063680D01*
X88798759Y-114906637D01*
X88998637Y-114706759D01*
X89155680Y-114471727D01*
X89263853Y-114210574D01*
X89319000Y-113933335D01*
X89319000Y-113650665D01*
X89263853Y-113373426D01*
X89155680Y-113112273D01*
X88998637Y-112877241D01*
X88798759Y-112677363D01*
X88566241Y-112522000D01*
X88798759Y-112366637D01*
X88998637Y-112166759D01*
X89155680Y-111931727D01*
X89263853Y-111670574D01*
X89319000Y-111393335D01*
X89319000Y-111110665D01*
X89263853Y-110833426D01*
X89155680Y-110572273D01*
X88998637Y-110337241D01*
X88798759Y-110137363D01*
X88566241Y-109982000D01*
X88798759Y-109826637D01*
X88998637Y-109626759D01*
X89155680Y-109391727D01*
X89263853Y-109130574D01*
X89319000Y-108853335D01*
X89319000Y-108570665D01*
X89263853Y-108293426D01*
X89155680Y-108032273D01*
X88998637Y-107797241D01*
X88798759Y-107597363D01*
X88563727Y-107440320D01*
X88553135Y-107435933D01*
X88739131Y-107324385D01*
X88947519Y-107135414D01*
X89115037Y-106909420D01*
X89235246Y-106655087D01*
X89275904Y-106521039D01*
X89153915Y-106299000D01*
X88011000Y-106299000D01*
X88011000Y-106319000D01*
X87757000Y-106319000D01*
X87757000Y-106299000D01*
X86614085Y-106299000D01*
X86492096Y-106521039D01*
X86532754Y-106655087D01*
X86652963Y-106909420D01*
X86820481Y-107135414D01*
X87028869Y-107324385D01*
X87214865Y-107435933D01*
X87204273Y-107440320D01*
X86969241Y-107597363D01*
X86769363Y-107797241D01*
X86612320Y-108032273D01*
X86504147Y-108293426D01*
X86449000Y-108570665D01*
X81699000Y-108570665D01*
X81643853Y-108293426D01*
X81535680Y-108032273D01*
X81378637Y-107797241D01*
X81180039Y-107598643D01*
X81188482Y-107597812D01*
X81308180Y-107561502D01*
X81418494Y-107502537D01*
X81515185Y-107423185D01*
X81594537Y-107326494D01*
X81653502Y-107216180D01*
X81689812Y-107096482D01*
X81702072Y-106972000D01*
X81702072Y-105822961D01*
X86492096Y-105822961D01*
X86614085Y-106045000D01*
X87757000Y-106045000D01*
X87757000Y-104901376D01*
X88011000Y-104901376D01*
X88011000Y-106045000D01*
X89153915Y-106045000D01*
X89275904Y-105822961D01*
X89235246Y-105688913D01*
X89115037Y-105434580D01*
X88947519Y-105208586D01*
X88739131Y-105019615D01*
X88497881Y-104874930D01*
X88233040Y-104780091D01*
X88011000Y-104901376D01*
X87757000Y-104901376D01*
X87534960Y-104780091D01*
X87270119Y-104874930D01*
X87028869Y-105019615D01*
X86820481Y-105208586D01*
X86652963Y-105434580D01*
X86532754Y-105688913D01*
X86492096Y-105822961D01*
X81702072Y-105822961D01*
X81702072Y-105372000D01*
X81689812Y-105247518D01*
X81653502Y-105127820D01*
X81594537Y-105017506D01*
X81515185Y-104920815D01*
X81418494Y-104841463D01*
X81308180Y-104782498D01*
X81188482Y-104746188D01*
X81064000Y-104733928D01*
X79464000Y-104733928D01*
X79339518Y-104746188D01*
X79219820Y-104782498D01*
X79109506Y-104841463D01*
X79012815Y-104920815D01*
X78933463Y-105017506D01*
X78874498Y-105127820D01*
X78838188Y-105247518D01*
X78825928Y-105372000D01*
X16916000Y-105372000D01*
X16916000Y-81861268D01*
X40329000Y-81861268D01*
X40329000Y-82222732D01*
X40399518Y-82577250D01*
X40537844Y-82911199D01*
X40738662Y-83211744D01*
X40994256Y-83467338D01*
X41294801Y-83668156D01*
X41628750Y-83806482D01*
X41983268Y-83877000D01*
X42344732Y-83877000D01*
X42699250Y-83806482D01*
X43033199Y-83668156D01*
X43333744Y-83467338D01*
X43589338Y-83211744D01*
X43790156Y-82911199D01*
X43928482Y-82577250D01*
X43999000Y-82222732D01*
X43999000Y-81861268D01*
X60649000Y-81861268D01*
X60649000Y-82222732D01*
X60719518Y-82577250D01*
X60857844Y-82911199D01*
X61058662Y-83211744D01*
X61314256Y-83467338D01*
X61614801Y-83668156D01*
X61948750Y-83806482D01*
X62303268Y-83877000D01*
X62664732Y-83877000D01*
X63019250Y-83806482D01*
X63353199Y-83668156D01*
X63653744Y-83467338D01*
X63909338Y-83211744D01*
X64110156Y-82911199D01*
X64248482Y-82577250D01*
X64319000Y-82222732D01*
X64319000Y-81861268D01*
X64248482Y-81506750D01*
X64138820Y-81242000D01*
X78825928Y-81242000D01*
X78825928Y-82842000D01*
X78838188Y-82966482D01*
X78874498Y-83086180D01*
X78933463Y-83196494D01*
X79012815Y-83293185D01*
X79109506Y-83372537D01*
X79219820Y-83431502D01*
X79339518Y-83467812D01*
X79347961Y-83468643D01*
X79149363Y-83667241D01*
X78992320Y-83902273D01*
X78884147Y-84163426D01*
X78829000Y-84440665D01*
X78829000Y-84723335D01*
X78884147Y-85000574D01*
X78992320Y-85261727D01*
X79149363Y-85496759D01*
X79349241Y-85696637D01*
X79581759Y-85852000D01*
X79349241Y-86007363D01*
X79149363Y-86207241D01*
X78992320Y-86442273D01*
X78884147Y-86703426D01*
X78829000Y-86980665D01*
X78829000Y-87263335D01*
X78884147Y-87540574D01*
X78992320Y-87801727D01*
X79149363Y-88036759D01*
X79349241Y-88236637D01*
X79581759Y-88392000D01*
X79349241Y-88547363D01*
X79149363Y-88747241D01*
X78992320Y-88982273D01*
X78884147Y-89243426D01*
X78829000Y-89520665D01*
X78829000Y-89803335D01*
X78884147Y-90080574D01*
X78992320Y-90341727D01*
X79149363Y-90576759D01*
X79349241Y-90776637D01*
X79584273Y-90933680D01*
X79845426Y-91041853D01*
X80122665Y-91097000D01*
X80405335Y-91097000D01*
X80682574Y-91041853D01*
X80943727Y-90933680D01*
X81178759Y-90776637D01*
X81378637Y-90576759D01*
X81535680Y-90341727D01*
X81643853Y-90080574D01*
X81699000Y-89803335D01*
X81699000Y-89520665D01*
X81643853Y-89243426D01*
X81535680Y-88982273D01*
X81378637Y-88747241D01*
X81178759Y-88547363D01*
X80946241Y-88392000D01*
X81178759Y-88236637D01*
X81378637Y-88036759D01*
X81535680Y-87801727D01*
X81643853Y-87540574D01*
X81699000Y-87263335D01*
X81699000Y-86980665D01*
X81643853Y-86703426D01*
X81535680Y-86442273D01*
X81378637Y-86207241D01*
X81178759Y-86007363D01*
X80946241Y-85852000D01*
X81178759Y-85696637D01*
X81378637Y-85496759D01*
X81535680Y-85261727D01*
X81643853Y-85000574D01*
X81699000Y-84723335D01*
X81699000Y-84440665D01*
X86449000Y-84440665D01*
X86449000Y-84723335D01*
X86504147Y-85000574D01*
X86612320Y-85261727D01*
X86769363Y-85496759D01*
X86969241Y-85696637D01*
X87201759Y-85852000D01*
X86969241Y-86007363D01*
X86769363Y-86207241D01*
X86612320Y-86442273D01*
X86504147Y-86703426D01*
X86449000Y-86980665D01*
X86449000Y-87263335D01*
X86504147Y-87540574D01*
X86612320Y-87801727D01*
X86769363Y-88036759D01*
X86969241Y-88236637D01*
X87201759Y-88392000D01*
X86969241Y-88547363D01*
X86769363Y-88747241D01*
X86612320Y-88982273D01*
X86504147Y-89243426D01*
X86449000Y-89520665D01*
X86449000Y-89803335D01*
X86504147Y-90080574D01*
X86612320Y-90341727D01*
X86769363Y-90576759D01*
X86969241Y-90776637D01*
X87204273Y-90933680D01*
X87465426Y-91041853D01*
X87742665Y-91097000D01*
X88025335Y-91097000D01*
X88302574Y-91041853D01*
X88563727Y-90933680D01*
X88798759Y-90776637D01*
X88998637Y-90576759D01*
X89155680Y-90341727D01*
X89263853Y-90080574D01*
X89319000Y-89803335D01*
X89319000Y-89520665D01*
X89263853Y-89243426D01*
X89155680Y-88982273D01*
X88998637Y-88747241D01*
X88798759Y-88547363D01*
X88566241Y-88392000D01*
X88798759Y-88236637D01*
X88998637Y-88036759D01*
X89155680Y-87801727D01*
X89263853Y-87540574D01*
X89319000Y-87263335D01*
X89319000Y-86980665D01*
X89263853Y-86703426D01*
X89155680Y-86442273D01*
X88998637Y-86207241D01*
X88798759Y-86007363D01*
X88566241Y-85852000D01*
X88798759Y-85696637D01*
X88998637Y-85496759D01*
X89100707Y-85344000D01*
X149602314Y-85344000D01*
X149617027Y-85493378D01*
X149660599Y-85637015D01*
X149731355Y-85769392D01*
X149802721Y-85856351D01*
X154686000Y-90739631D01*
X154686001Y-110706567D01*
X154682314Y-110744000D01*
X154697027Y-110893378D01*
X154740599Y-111037015D01*
X154811355Y-111169392D01*
X154879150Y-111252000D01*
X154906579Y-111285422D01*
X154935649Y-111309279D01*
X158946721Y-115320352D01*
X158970578Y-115349422D01*
X158999648Y-115373279D01*
X159086607Y-115444645D01*
X159153826Y-115480574D01*
X159218985Y-115515402D01*
X159362622Y-115558974D01*
X159474574Y-115570000D01*
X159474577Y-115570000D01*
X159512000Y-115573686D01*
X159549423Y-115570000D01*
X176238577Y-115570000D01*
X176276000Y-115573686D01*
X176313423Y-115570000D01*
X176313426Y-115570000D01*
X176425378Y-115558974D01*
X176569015Y-115515402D01*
X176701392Y-115444645D01*
X176817422Y-115349422D01*
X176841284Y-115320346D01*
X182663630Y-109498000D01*
X198070928Y-109498000D01*
X198083188Y-109622482D01*
X198119498Y-109742180D01*
X198178463Y-109852494D01*
X198257815Y-109949185D01*
X198354506Y-110028537D01*
X198464820Y-110087502D01*
X198584518Y-110123812D01*
X198709000Y-110136072D01*
X198723250Y-110133000D01*
X198882000Y-109974250D01*
X198882000Y-108650000D01*
X199136000Y-108650000D01*
X199136000Y-109974250D01*
X199294750Y-110133000D01*
X199309000Y-110136072D01*
X199433482Y-110123812D01*
X199553180Y-110087502D01*
X199644000Y-110038957D01*
X199734820Y-110087502D01*
X199854518Y-110123812D01*
X199979000Y-110136072D01*
X199993250Y-110133000D01*
X200152000Y-109974250D01*
X200152000Y-108650000D01*
X199136000Y-108650000D01*
X198882000Y-108650000D01*
X198232750Y-108650000D01*
X198074000Y-108808750D01*
X198070928Y-109498000D01*
X182663630Y-109498000D01*
X184613630Y-107548000D01*
X198070928Y-107548000D01*
X198074000Y-108237250D01*
X198232750Y-108396000D01*
X198882000Y-108396000D01*
X198882000Y-107071750D01*
X199136000Y-107071750D01*
X199136000Y-108396000D01*
X200152000Y-108396000D01*
X200152000Y-107071750D01*
X199993250Y-106913000D01*
X199979000Y-106909928D01*
X199854518Y-106922188D01*
X199734820Y-106958498D01*
X199644000Y-107007043D01*
X199553180Y-106958498D01*
X199433482Y-106922188D01*
X199309000Y-106909928D01*
X199294750Y-106913000D01*
X199136000Y-107071750D01*
X198882000Y-107071750D01*
X198723250Y-106913000D01*
X198709000Y-106909928D01*
X198584518Y-106922188D01*
X198464820Y-106958498D01*
X198354506Y-107017463D01*
X198257815Y-107096815D01*
X198178463Y-107193506D01*
X198119498Y-107303820D01*
X198083188Y-107423518D01*
X198070928Y-107548000D01*
X184613630Y-107548000D01*
X189541279Y-102620352D01*
X189612644Y-102533393D01*
X189683401Y-102401017D01*
X189726973Y-102257379D01*
X189741686Y-102108001D01*
X189726973Y-101958622D01*
X189683401Y-101814985D01*
X189612644Y-101682608D01*
X189517421Y-101566579D01*
X189401392Y-101471356D01*
X189269015Y-101400599D01*
X189125378Y-101357027D01*
X188975999Y-101342314D01*
X188826621Y-101357027D01*
X188682983Y-101400599D01*
X188550607Y-101471356D01*
X188463648Y-101542721D01*
X175960370Y-114046000D01*
X159827631Y-114046000D01*
X156210000Y-110428370D01*
X156210000Y-93980000D01*
X166746700Y-93980000D01*
X166763864Y-94154274D01*
X166814698Y-94321852D01*
X166897248Y-94476291D01*
X167008341Y-94611659D01*
X167143709Y-94722752D01*
X167298148Y-94805302D01*
X167465726Y-94856136D01*
X167640000Y-94873300D01*
X167814274Y-94856136D01*
X167981852Y-94805302D01*
X168136291Y-94722752D01*
X168237740Y-94639495D01*
X170585495Y-92291741D01*
X170585500Y-92291735D01*
X170952533Y-91924702D01*
X187146903Y-91924702D01*
X187218486Y-92168671D01*
X187473996Y-92289571D01*
X187748184Y-92358300D01*
X188030512Y-92372217D01*
X188310130Y-92330787D01*
X188576292Y-92235603D01*
X188701514Y-92168671D01*
X188773097Y-91924702D01*
X187960000Y-91111605D01*
X187146903Y-91924702D01*
X170952533Y-91924702D01*
X171874723Y-91002512D01*
X186519783Y-91002512D01*
X186561213Y-91282130D01*
X186656397Y-91548292D01*
X186723329Y-91673514D01*
X186967298Y-91745097D01*
X187780395Y-90932000D01*
X188139605Y-90932000D01*
X188952702Y-91745097D01*
X189196671Y-91673514D01*
X189210324Y-91644659D01*
X189345363Y-91846759D01*
X189545241Y-92046637D01*
X189780273Y-92203680D01*
X190041426Y-92311853D01*
X190318665Y-92367000D01*
X190601335Y-92367000D01*
X190878574Y-92311853D01*
X191139727Y-92203680D01*
X191374759Y-92046637D01*
X191574637Y-91846759D01*
X191676707Y-91694000D01*
X196788370Y-91694000D01*
X197358001Y-92263632D01*
X197358000Y-100546577D01*
X197354314Y-100584000D01*
X197358000Y-100621423D01*
X197358000Y-100621425D01*
X197369026Y-100733377D01*
X197412598Y-100877014D01*
X197412599Y-100877015D01*
X197483355Y-101009392D01*
X197518896Y-101052698D01*
X197578578Y-101125422D01*
X197607654Y-101149284D01*
X202057001Y-105598631D01*
X202057000Y-107000072D01*
X202000582Y-106969916D01*
X201852745Y-106925071D01*
X201699000Y-106909928D01*
X201399000Y-106909928D01*
X201245255Y-106925071D01*
X201097418Y-106969916D01*
X200963064Y-107041730D01*
X200933494Y-107017463D01*
X200823180Y-106958498D01*
X200703482Y-106922188D01*
X200579000Y-106909928D01*
X200564750Y-106913000D01*
X200406000Y-107071750D01*
X200406000Y-108396000D01*
X200426000Y-108396000D01*
X200426000Y-108650000D01*
X200406000Y-108650000D01*
X200406000Y-109974250D01*
X200564750Y-110133000D01*
X200579000Y-110136072D01*
X200703482Y-110123812D01*
X200823180Y-110087502D01*
X200933494Y-110028537D01*
X200963064Y-110004270D01*
X201097418Y-110076084D01*
X201245255Y-110120929D01*
X201399000Y-110136072D01*
X201699000Y-110136072D01*
X201852745Y-110120929D01*
X202000582Y-110076084D01*
X202136829Y-110003258D01*
X202184000Y-109964546D01*
X202231171Y-110003258D01*
X202367418Y-110076084D01*
X202515255Y-110120929D01*
X202669000Y-110136072D01*
X202969000Y-110136072D01*
X203122745Y-110120929D01*
X203270582Y-110076084D01*
X203406829Y-110003258D01*
X203526251Y-109905251D01*
X203624258Y-109785829D01*
X203697084Y-109649582D01*
X203741929Y-109501745D01*
X203757072Y-109348000D01*
X203757072Y-107698000D01*
X203741929Y-107544255D01*
X203697084Y-107396418D01*
X203624258Y-107260171D01*
X203581000Y-107207461D01*
X203581000Y-105320423D01*
X203584686Y-105283000D01*
X203577357Y-105208586D01*
X203569974Y-105133622D01*
X203526402Y-104989985D01*
X203489430Y-104920815D01*
X203455645Y-104857607D01*
X203420857Y-104815219D01*
X203360422Y-104741578D01*
X203331346Y-104717716D01*
X198882000Y-100268370D01*
X198882000Y-91985423D01*
X198885686Y-91948000D01*
X198882000Y-91910574D01*
X198870974Y-91798622D01*
X198827402Y-91654985D01*
X198781252Y-91568645D01*
X198756645Y-91522607D01*
X198685279Y-91435648D01*
X198661422Y-91406578D01*
X198632351Y-91382721D01*
X197669284Y-90419654D01*
X197645422Y-90390578D01*
X197529392Y-90295355D01*
X197397015Y-90224598D01*
X197253378Y-90181026D01*
X197141426Y-90170000D01*
X197141423Y-90170000D01*
X197104000Y-90166314D01*
X197066577Y-90170000D01*
X191676707Y-90170000D01*
X191574637Y-90017241D01*
X191374759Y-89817363D01*
X191139727Y-89660320D01*
X190878574Y-89552147D01*
X190601335Y-89497000D01*
X190318665Y-89497000D01*
X190041426Y-89552147D01*
X189780273Y-89660320D01*
X189545241Y-89817363D01*
X189345363Y-90017241D01*
X189211308Y-90217869D01*
X189196671Y-90190486D01*
X188952702Y-90118903D01*
X188139605Y-90932000D01*
X187780395Y-90932000D01*
X186967298Y-90118903D01*
X186723329Y-90190486D01*
X186602429Y-90445996D01*
X186533700Y-90720184D01*
X186519783Y-91002512D01*
X171874723Y-91002512D01*
X172937937Y-89939298D01*
X187146903Y-89939298D01*
X187960000Y-90752395D01*
X188773097Y-89939298D01*
X188701514Y-89695329D01*
X188446004Y-89574429D01*
X188171816Y-89505700D01*
X187889488Y-89491783D01*
X187609870Y-89533213D01*
X187343708Y-89628397D01*
X187218486Y-89695329D01*
X187146903Y-89939298D01*
X172937937Y-89939298D01*
X190651494Y-72225741D01*
X194653742Y-68223494D01*
X194687659Y-68195659D01*
X194798753Y-68060291D01*
X194881303Y-67905851D01*
X194932136Y-67738274D01*
X194945000Y-67607667D01*
X194945000Y-67607660D01*
X194949300Y-67564000D01*
X194945000Y-67520340D01*
X194945000Y-59392333D01*
X194932136Y-59261726D01*
X194881303Y-59094149D01*
X194798753Y-58939709D01*
X194687659Y-58804341D01*
X194552290Y-58693247D01*
X194397850Y-58610697D01*
X194230273Y-58559864D01*
X194056000Y-58542699D01*
X193881726Y-58559864D01*
X193714149Y-58610697D01*
X193559709Y-58693247D01*
X193424341Y-58804341D01*
X193313247Y-58939710D01*
X193230697Y-59094150D01*
X193179864Y-59261727D01*
X193167000Y-59392334D01*
X193167001Y-67195763D01*
X189394259Y-70968506D01*
X169328265Y-91034500D01*
X169328259Y-91034505D01*
X166980505Y-93382260D01*
X166897248Y-93483709D01*
X166814698Y-93638148D01*
X166763864Y-93805726D01*
X166746700Y-93980000D01*
X156210000Y-93980000D01*
X156210000Y-90461423D01*
X156213686Y-90424000D01*
X156210000Y-90386574D01*
X156198974Y-90274622D01*
X156155402Y-90130985D01*
X156084646Y-89998609D01*
X156084645Y-89998607D01*
X156013279Y-89911648D01*
X155989422Y-89882578D01*
X155960353Y-89858722D01*
X150880351Y-84778721D01*
X150793392Y-84707355D01*
X150661015Y-84636599D01*
X150517378Y-84593027D01*
X150368000Y-84578314D01*
X150218622Y-84593027D01*
X150074985Y-84636599D01*
X149942608Y-84707355D01*
X149826579Y-84802579D01*
X149731355Y-84918608D01*
X149660599Y-85050985D01*
X149617027Y-85194622D01*
X149602314Y-85344000D01*
X89100707Y-85344000D01*
X89155680Y-85261727D01*
X89263853Y-85000574D01*
X89319000Y-84723335D01*
X89319000Y-84440665D01*
X89263853Y-84163426D01*
X89155680Y-83902273D01*
X88998637Y-83667241D01*
X88798759Y-83467363D01*
X88563727Y-83310320D01*
X88553135Y-83305933D01*
X88739131Y-83194385D01*
X88947519Y-83005414D01*
X89115037Y-82779420D01*
X89235246Y-82525087D01*
X89275904Y-82391039D01*
X89153915Y-82169000D01*
X88011000Y-82169000D01*
X88011000Y-82189000D01*
X87757000Y-82189000D01*
X87757000Y-82169000D01*
X86614085Y-82169000D01*
X86492096Y-82391039D01*
X86532754Y-82525087D01*
X86652963Y-82779420D01*
X86820481Y-83005414D01*
X87028869Y-83194385D01*
X87214865Y-83305933D01*
X87204273Y-83310320D01*
X86969241Y-83467363D01*
X86769363Y-83667241D01*
X86612320Y-83902273D01*
X86504147Y-84163426D01*
X86449000Y-84440665D01*
X81699000Y-84440665D01*
X81643853Y-84163426D01*
X81535680Y-83902273D01*
X81378637Y-83667241D01*
X81180039Y-83468643D01*
X81188482Y-83467812D01*
X81308180Y-83431502D01*
X81418494Y-83372537D01*
X81515185Y-83293185D01*
X81594537Y-83196494D01*
X81653502Y-83086180D01*
X81689812Y-82966482D01*
X81702072Y-82842000D01*
X81702072Y-81692961D01*
X86492096Y-81692961D01*
X86614085Y-81915000D01*
X87757000Y-81915000D01*
X87757000Y-80771376D01*
X88011000Y-80771376D01*
X88011000Y-81915000D01*
X89153915Y-81915000D01*
X89275904Y-81692961D01*
X89235246Y-81558913D01*
X89115037Y-81304580D01*
X88947519Y-81078586D01*
X88739131Y-80889615D01*
X88497881Y-80744930D01*
X88233040Y-80650091D01*
X88011000Y-80771376D01*
X87757000Y-80771376D01*
X87534960Y-80650091D01*
X87270119Y-80744930D01*
X87028869Y-80889615D01*
X86820481Y-81078586D01*
X86652963Y-81304580D01*
X86532754Y-81558913D01*
X86492096Y-81692961D01*
X81702072Y-81692961D01*
X81702072Y-81242000D01*
X81689812Y-81117518D01*
X81653502Y-80997820D01*
X81594537Y-80887506D01*
X81515185Y-80790815D01*
X81418494Y-80711463D01*
X81308180Y-80652498D01*
X81188482Y-80616188D01*
X81064000Y-80603928D01*
X79464000Y-80603928D01*
X79339518Y-80616188D01*
X79219820Y-80652498D01*
X79109506Y-80711463D01*
X79012815Y-80790815D01*
X78933463Y-80887506D01*
X78874498Y-80997820D01*
X78838188Y-81117518D01*
X78825928Y-81242000D01*
X64138820Y-81242000D01*
X64110156Y-81172801D01*
X63909338Y-80872256D01*
X63653744Y-80616662D01*
X63353199Y-80415844D01*
X63019250Y-80277518D01*
X62664732Y-80207000D01*
X62303268Y-80207000D01*
X61948750Y-80277518D01*
X61614801Y-80415844D01*
X61314256Y-80616662D01*
X61058662Y-80872256D01*
X60857844Y-81172801D01*
X60719518Y-81506750D01*
X60649000Y-81861268D01*
X43999000Y-81861268D01*
X43928482Y-81506750D01*
X43790156Y-81172801D01*
X43589338Y-80872256D01*
X43333744Y-80616662D01*
X43033199Y-80415844D01*
X42699250Y-80277518D01*
X42344732Y-80207000D01*
X41983268Y-80207000D01*
X41628750Y-80277518D01*
X41294801Y-80415844D01*
X40994256Y-80616662D01*
X40738662Y-80872256D01*
X40537844Y-81172801D01*
X40399518Y-81506750D01*
X40329000Y-81861268D01*
X16916000Y-81861268D01*
X16916000Y-66621268D01*
X72079000Y-66621268D01*
X72079000Y-66982732D01*
X72149518Y-67337250D01*
X72287844Y-67671199D01*
X72488662Y-67971744D01*
X72744256Y-68227338D01*
X73044801Y-68428156D01*
X73378750Y-68566482D01*
X73733268Y-68637000D01*
X74094732Y-68637000D01*
X74449250Y-68566482D01*
X74783199Y-68428156D01*
X75083744Y-68227338D01*
X75339338Y-67971744D01*
X75540156Y-67671199D01*
X75678482Y-67337250D01*
X75749000Y-66982732D01*
X75749000Y-66621268D01*
X97479000Y-66621268D01*
X97479000Y-66982732D01*
X97549518Y-67337250D01*
X97687844Y-67671199D01*
X97888662Y-67971744D01*
X98144256Y-68227338D01*
X98444801Y-68428156D01*
X98778750Y-68566482D01*
X99133268Y-68637000D01*
X99494732Y-68637000D01*
X99849250Y-68566482D01*
X100183199Y-68428156D01*
X100483744Y-68227338D01*
X100739338Y-67971744D01*
X100940156Y-67671199D01*
X101078482Y-67337250D01*
X101149000Y-66982732D01*
X101149000Y-66621268D01*
X101078482Y-66266750D01*
X100940156Y-65932801D01*
X100739338Y-65632256D01*
X100483744Y-65376662D01*
X100183199Y-65175844D01*
X99849250Y-65037518D01*
X99494732Y-64967000D01*
X99133268Y-64967000D01*
X98778750Y-65037518D01*
X98444801Y-65175844D01*
X98144256Y-65376662D01*
X97888662Y-65632256D01*
X97687844Y-65932801D01*
X97549518Y-66266750D01*
X97479000Y-66621268D01*
X75749000Y-66621268D01*
X75678482Y-66266750D01*
X75540156Y-65932801D01*
X75339338Y-65632256D01*
X75083744Y-65376662D01*
X74783199Y-65175844D01*
X74449250Y-65037518D01*
X74094732Y-64967000D01*
X73733268Y-64967000D01*
X73378750Y-65037518D01*
X73044801Y-65175844D01*
X72744256Y-65376662D01*
X72488662Y-65632256D01*
X72287844Y-65932801D01*
X72149518Y-66266750D01*
X72079000Y-66621268D01*
X16916000Y-66621268D01*
X16916000Y-46984475D01*
X134525000Y-46984475D01*
X134525000Y-47503525D01*
X134626261Y-48012601D01*
X134824893Y-48492141D01*
X135113262Y-48923715D01*
X135480285Y-49290738D01*
X135911859Y-49579107D01*
X136391399Y-49777739D01*
X136900475Y-49879000D01*
X137419525Y-49879000D01*
X137928601Y-49777739D01*
X138408141Y-49579107D01*
X138839715Y-49290738D01*
X139206738Y-48923715D01*
X139495107Y-48492141D01*
X139693739Y-48012601D01*
X139795000Y-47503525D01*
X139795000Y-46984475D01*
X139777800Y-46898000D01*
X187483928Y-46898000D01*
X187483928Y-48098000D01*
X187496188Y-48222482D01*
X187532498Y-48342180D01*
X187591463Y-48452494D01*
X187670815Y-48549185D01*
X187767506Y-48628537D01*
X187877820Y-48687502D01*
X187997518Y-48723812D01*
X188122000Y-48736072D01*
X189322000Y-48736072D01*
X189446482Y-48723812D01*
X189566180Y-48687502D01*
X189676494Y-48628537D01*
X189693681Y-48614432D01*
X189820516Y-48672237D01*
X190057313Y-48728000D01*
X190300438Y-48736495D01*
X190540549Y-48697395D01*
X190768418Y-48612202D01*
X190844852Y-48571348D01*
X190892159Y-48347764D01*
X190222000Y-47677605D01*
X190207858Y-47691748D01*
X190028253Y-47512143D01*
X190042395Y-47498000D01*
X190401605Y-47498000D01*
X191071764Y-48168159D01*
X191295348Y-48120852D01*
X191396237Y-47899484D01*
X191452000Y-47662687D01*
X191460495Y-47419562D01*
X191421395Y-47179451D01*
X191336202Y-46951582D01*
X191295348Y-46875148D01*
X191071764Y-46827841D01*
X190401605Y-47498000D01*
X190042395Y-47498000D01*
X190028253Y-47483858D01*
X190207858Y-47304253D01*
X190222000Y-47318395D01*
X190892159Y-46648236D01*
X190844852Y-46424652D01*
X190623484Y-46323763D01*
X190386687Y-46268000D01*
X190143562Y-46259505D01*
X189903451Y-46298605D01*
X189689883Y-46378451D01*
X189676494Y-46367463D01*
X189566180Y-46308498D01*
X189446482Y-46272188D01*
X189322000Y-46259928D01*
X188122000Y-46259928D01*
X187997518Y-46272188D01*
X187877820Y-46308498D01*
X187767506Y-46367463D01*
X187670815Y-46446815D01*
X187591463Y-46543506D01*
X187532498Y-46653820D01*
X187496188Y-46773518D01*
X187483928Y-46898000D01*
X139777800Y-46898000D01*
X139693739Y-46475399D01*
X139495107Y-45995859D01*
X139206738Y-45564285D01*
X138839715Y-45197262D01*
X138408141Y-44908893D01*
X137928601Y-44710261D01*
X137419525Y-44609000D01*
X136900475Y-44609000D01*
X136391399Y-44710261D01*
X135911859Y-44908893D01*
X135480285Y-45197262D01*
X135113262Y-45564285D01*
X134824893Y-45995859D01*
X134626261Y-46475399D01*
X134525000Y-46984475D01*
X16916000Y-46984475D01*
X16916000Y-41142475D01*
X261779000Y-41142475D01*
X261779000Y-41661525D01*
X261880261Y-42170601D01*
X262078893Y-42650141D01*
X262367262Y-43081715D01*
X262734285Y-43448738D01*
X263165859Y-43737107D01*
X263645399Y-43935739D01*
X264154475Y-44037000D01*
X264673525Y-44037000D01*
X265182601Y-43935739D01*
X265662141Y-43737107D01*
X266093715Y-43448738D01*
X266460738Y-43081715D01*
X266749107Y-42650141D01*
X266947739Y-42170601D01*
X267049000Y-41661525D01*
X267049000Y-41142475D01*
X266947739Y-40633399D01*
X266749107Y-40153859D01*
X266460738Y-39722285D01*
X266093715Y-39355262D01*
X265662141Y-39066893D01*
X265182601Y-38868261D01*
X264673525Y-38767000D01*
X264154475Y-38767000D01*
X263645399Y-38868261D01*
X263165859Y-39066893D01*
X262734285Y-39355262D01*
X262367262Y-39722285D01*
X262078893Y-40153859D01*
X261880261Y-40633399D01*
X261779000Y-41142475D01*
X16916000Y-41142475D01*
X16916000Y-16408000D01*
X280772001Y-16408000D01*
X280772000Y-177140000D01*
G37*
%TD.AperFunction*%
%TD*%
M02*
