%TF.GenerationSoftware,KiCad,Pcbnew,(5.1.8)-1*%
%TF.CreationDate,2020-12-17T20:59:30+05:45*%
%TF.ProjectId,pll_soc_testboard,706c6c5f-736f-4635-9f74-657374626f61,rev?*%
%TF.SameCoordinates,Original*%
%TF.FileFunction,Soldermask,Bot*%
%TF.FilePolarity,Negative*%
%FSLAX46Y46*%
G04 Gerber Fmt 4.6, Leading zero omitted, Abs format (unit mm)*
G04 Created by KiCad (PCBNEW (5.1.8)-1) date 2020-12-17 20:59:30*
%MOMM*%
%LPD*%
G01*
G04 APERTURE LIST*
%ADD10O,1.604000X1.604000*%
%ADD11C,1.204000*%
%ADD12C,1.604000*%
%ADD13C,8.004000*%
%ADD14C,4.004000*%
%ADD15O,2.404000X2.404000*%
%ADD16C,2.404000*%
G04 APERTURE END LIST*
D10*
%TO.C,U2B1*%
X129794000Y-144272000D03*
X122174000Y-151892000D03*
X129794000Y-146812000D03*
X122174000Y-149352000D03*
X129794000Y-149352000D03*
X122174000Y-146812000D03*
X129794000Y-151892000D03*
G36*
G01*
X121372000Y-145072000D02*
X121372000Y-143472000D01*
G75*
G02*
X121374000Y-143470000I2000J0D01*
G01*
X122974000Y-143470000D01*
G75*
G02*
X122976000Y-143472000I0J-2000D01*
G01*
X122976000Y-145072000D01*
G75*
G02*
X122974000Y-145074000I-2000J0D01*
G01*
X121374000Y-145074000D01*
G75*
G02*
X121372000Y-145072000I0J2000D01*
G01*
G37*
%TD*%
%TO.C,U2*%
G36*
G01*
X92162000Y-145072000D02*
X92162000Y-143472000D01*
G75*
G02*
X92164000Y-143470000I2000J0D01*
G01*
X93764000Y-143470000D01*
G75*
G02*
X93766000Y-143472000I0J-2000D01*
G01*
X93766000Y-145072000D01*
G75*
G02*
X93764000Y-145074000I-2000J0D01*
G01*
X92164000Y-145074000D01*
G75*
G02*
X92162000Y-145072000I0J2000D01*
G01*
G37*
X100584000Y-151892000D03*
X92964000Y-146812000D03*
X100584000Y-149352000D03*
X92964000Y-149352000D03*
X100584000Y-146812000D03*
X92964000Y-151892000D03*
X100584000Y-144272000D03*
%TD*%
%TO.C,C1*%
G36*
G01*
X188120000Y-48098000D02*
X188120000Y-46898000D01*
G75*
G02*
X188122000Y-46896000I2000J0D01*
G01*
X189322000Y-46896000D01*
G75*
G02*
X189324000Y-46898000I0J-2000D01*
G01*
X189324000Y-48098000D01*
G75*
G02*
X189322000Y-48100000I-2000J0D01*
G01*
X188122000Y-48100000D01*
G75*
G02*
X188120000Y-48098000I0J2000D01*
G01*
G37*
D11*
X190222000Y-47498000D03*
%TD*%
%TO.C,C2*%
X221464000Y-47752000D03*
G36*
G01*
X219362000Y-48352000D02*
X219362000Y-47152000D01*
G75*
G02*
X219364000Y-47150000I2000J0D01*
G01*
X220564000Y-47150000D01*
G75*
G02*
X220566000Y-47152000I0J-2000D01*
G01*
X220566000Y-48352000D01*
G75*
G02*
X220564000Y-48354000I-2000J0D01*
G01*
X219364000Y-48354000D01*
G75*
G02*
X219362000Y-48352000I0J2000D01*
G01*
G37*
%TD*%
%TO.C,C3*%
X191484000Y-125222000D03*
G36*
G01*
X188882000Y-125822000D02*
X188882000Y-124622000D01*
G75*
G02*
X188884000Y-124620000I2000J0D01*
G01*
X190084000Y-124620000D01*
G75*
G02*
X190086000Y-124622000I0J-2000D01*
G01*
X190086000Y-125822000D01*
G75*
G02*
X190084000Y-125824000I-2000J0D01*
G01*
X188884000Y-125824000D01*
G75*
G02*
X188882000Y-125822000I0J2000D01*
G01*
G37*
%TD*%
%TO.C,C4*%
G36*
G01*
X204400000Y-48352000D02*
X204400000Y-47152000D01*
G75*
G02*
X204402000Y-47150000I2000J0D01*
G01*
X205602000Y-47150000D01*
G75*
G02*
X205604000Y-47152000I0J-2000D01*
G01*
X205604000Y-48352000D01*
G75*
G02*
X205602000Y-48354000I-2000J0D01*
G01*
X204402000Y-48354000D01*
G75*
G02*
X204400000Y-48352000I0J2000D01*
G01*
G37*
X206502000Y-47752000D03*
%TD*%
D12*
%TO.C,C5*%
X190460000Y-90932000D03*
X187960000Y-90932000D03*
%TD*%
%TO.C,C6*%
X217424000Y-115062000D03*
X219924000Y-115062000D03*
%TD*%
D11*
%TO.C,C7*%
X207494000Y-129032000D03*
G36*
G01*
X205392000Y-129632000D02*
X205392000Y-128432000D01*
G75*
G02*
X205394000Y-128430000I2000J0D01*
G01*
X206594000Y-128430000D01*
G75*
G02*
X206596000Y-128432000I0J-2000D01*
G01*
X206596000Y-129632000D01*
G75*
G02*
X206594000Y-129634000I-2000J0D01*
G01*
X205394000Y-129634000D01*
G75*
G02*
X205392000Y-129632000I0J2000D01*
G01*
G37*
%TD*%
D13*
%TO.C,H1*%
X56134000Y-149352000D03*
%TD*%
D14*
%TO.C,H2*%
X137160000Y-47244000D03*
%TD*%
%TO.C,H3*%
X169164000Y-149352000D03*
%TD*%
%TO.C,H4*%
X264414000Y-41402000D03*
%TD*%
%TO.C,H5*%
X264414000Y-60452000D03*
%TD*%
%TO.C,H6*%
X263144000Y-80772000D03*
%TD*%
%TO.C,H7*%
X262890000Y-102362000D03*
%TD*%
D15*
%TO.C,R1*%
X62484000Y-82042000D03*
D16*
X42164000Y-82042000D03*
%TD*%
D15*
%TO.C,R2*%
X99314000Y-66802000D03*
D16*
X73914000Y-66802000D03*
%TD*%
D15*
%TO.C,R3*%
X227584000Y-125222000D03*
D16*
X227584000Y-130302000D03*
%TD*%
D10*
%TO.C,U1*%
X87884000Y-106172000D03*
X80264000Y-113792000D03*
X87884000Y-108712000D03*
X80264000Y-111252000D03*
X87884000Y-111252000D03*
X80264000Y-108712000D03*
X87884000Y-113792000D03*
G36*
G01*
X79462000Y-106972000D02*
X79462000Y-105372000D01*
G75*
G02*
X79464000Y-105370000I2000J0D01*
G01*
X81064000Y-105370000D01*
G75*
G02*
X81066000Y-105372000I0J-2000D01*
G01*
X81066000Y-106972000D01*
G75*
G02*
X81064000Y-106974000I-2000J0D01*
G01*
X79464000Y-106974000D01*
G75*
G02*
X79462000Y-106972000I0J2000D01*
G01*
G37*
%TD*%
%TO.C,U4*%
G36*
G01*
X202970000Y-109500000D02*
X202668000Y-109500000D01*
G75*
G02*
X202517000Y-109349000I0J151000D01*
G01*
X202517000Y-107697000D01*
G75*
G02*
X202668000Y-107546000I151000J0D01*
G01*
X202970000Y-107546000D01*
G75*
G02*
X203121000Y-107697000I0J-151000D01*
G01*
X203121000Y-109349000D01*
G75*
G02*
X202970000Y-109500000I-151000J0D01*
G01*
G37*
G36*
G01*
X201700000Y-109500000D02*
X201398000Y-109500000D01*
G75*
G02*
X201247000Y-109349000I0J151000D01*
G01*
X201247000Y-107697000D01*
G75*
G02*
X201398000Y-107546000I151000J0D01*
G01*
X201700000Y-107546000D01*
G75*
G02*
X201851000Y-107697000I0J-151000D01*
G01*
X201851000Y-109349000D01*
G75*
G02*
X201700000Y-109500000I-151000J0D01*
G01*
G37*
G36*
G01*
X200430000Y-109500000D02*
X200128000Y-109500000D01*
G75*
G02*
X199977000Y-109349000I0J151000D01*
G01*
X199977000Y-107697000D01*
G75*
G02*
X200128000Y-107546000I151000J0D01*
G01*
X200430000Y-107546000D01*
G75*
G02*
X200581000Y-107697000I0J-151000D01*
G01*
X200581000Y-109349000D01*
G75*
G02*
X200430000Y-109500000I-151000J0D01*
G01*
G37*
G36*
G01*
X199160000Y-109500000D02*
X198858000Y-109500000D01*
G75*
G02*
X198707000Y-109349000I0J151000D01*
G01*
X198707000Y-107697000D01*
G75*
G02*
X198858000Y-107546000I151000J0D01*
G01*
X199160000Y-107546000D01*
G75*
G02*
X199311000Y-107697000I0J-151000D01*
G01*
X199311000Y-109349000D01*
G75*
G02*
X199160000Y-109500000I-151000J0D01*
G01*
G37*
G36*
G01*
X199160000Y-114450000D02*
X198858000Y-114450000D01*
G75*
G02*
X198707000Y-114299000I0J151000D01*
G01*
X198707000Y-112647000D01*
G75*
G02*
X198858000Y-112496000I151000J0D01*
G01*
X199160000Y-112496000D01*
G75*
G02*
X199311000Y-112647000I0J-151000D01*
G01*
X199311000Y-114299000D01*
G75*
G02*
X199160000Y-114450000I-151000J0D01*
G01*
G37*
G36*
G01*
X200430000Y-114450000D02*
X200128000Y-114450000D01*
G75*
G02*
X199977000Y-114299000I0J151000D01*
G01*
X199977000Y-112647000D01*
G75*
G02*
X200128000Y-112496000I151000J0D01*
G01*
X200430000Y-112496000D01*
G75*
G02*
X200581000Y-112647000I0J-151000D01*
G01*
X200581000Y-114299000D01*
G75*
G02*
X200430000Y-114450000I-151000J0D01*
G01*
G37*
G36*
G01*
X201700000Y-114450000D02*
X201398000Y-114450000D01*
G75*
G02*
X201247000Y-114299000I0J151000D01*
G01*
X201247000Y-112647000D01*
G75*
G02*
X201398000Y-112496000I151000J0D01*
G01*
X201700000Y-112496000D01*
G75*
G02*
X201851000Y-112647000I0J-151000D01*
G01*
X201851000Y-114299000D01*
G75*
G02*
X201700000Y-114450000I-151000J0D01*
G01*
G37*
G36*
G01*
X202970000Y-114450000D02*
X202668000Y-114450000D01*
G75*
G02*
X202517000Y-114299000I0J151000D01*
G01*
X202517000Y-112647000D01*
G75*
G02*
X202668000Y-112496000I151000J0D01*
G01*
X202970000Y-112496000D01*
G75*
G02*
X203121000Y-112647000I0J-151000D01*
G01*
X203121000Y-114299000D01*
G75*
G02*
X202970000Y-114450000I-151000J0D01*
G01*
G37*
%TD*%
%TO.C,U1B1*%
G36*
G01*
X79462000Y-82842000D02*
X79462000Y-81242000D01*
G75*
G02*
X79464000Y-81240000I2000J0D01*
G01*
X81064000Y-81240000D01*
G75*
G02*
X81066000Y-81242000I0J-2000D01*
G01*
X81066000Y-82842000D01*
G75*
G02*
X81064000Y-82844000I-2000J0D01*
G01*
X79464000Y-82844000D01*
G75*
G02*
X79462000Y-82842000I0J2000D01*
G01*
G37*
X87884000Y-89662000D03*
X80264000Y-84582000D03*
X87884000Y-87122000D03*
X80264000Y-87122000D03*
X87884000Y-84582000D03*
X80264000Y-89662000D03*
X87884000Y-82042000D03*
%TD*%
M02*
